<?xml version="1.0"?>
<!-- Created by MetaPost 2.11 on 2026.02.09:1107 -->
<svg version="1.1" xmlns="http://www.w3.org/2000/svg" xmlns:xlink="http://www.w3.org/1999/xlink" width="56.487732" height="76.035065" viewBox="0 0 56.487732 76.035065">
<!-- Original BoundingBox: -54.335892 -38.017807 2.151840 38.017258 -->
  <g transform="matrix(-1.000000,-0.000000,-0.000000,1.000000,0.000000,0.000000)">
    <path d="M-11.297348 14.107071C-11.297348 4.062546,-21.194489 2.151840,-32.816620 2.151840C-46.532944 2.151840,-54.335892 11.848480,-54.335892 26.062302C-54.335892 34.918091,-54.335892 41.116974,-54.335892 49.972763C-54.335892 64.186584,-46.532944 73.883224,-32.816620 73.883224C-21.194489 73.883224,-11.297348 71.972519,-11.297348 61.927994" style="stroke:rgb(0,0,0); stroke-width: 4.303680;stroke-linecap: round;stroke-linejoin: round;stroke-miterlimit: 10.000000;fill: none;"></path>
  </g>
  <path d="M13.449188 0.537964L12.818893 0.157578L11.297348 -0.000000L9.775803 0.157578L9.145508 0.537964L9.145508 75.496552L9.775803 75.876938L11.297348 76.034515L12.818893 75.876938L13.449188 75.496552Z" style="fill: rgb(0,0,0);stroke: none;"></path>
  <path d="M11.297348 4.303680L11.677734 3.673386L11.835312 2.151840L11.677734 0.630295L11.297348 -0.000000L0.537964 -0.000000L0.157578 0.630295L0.000000 2.151840L0.157578 3.673386L0.537964 4.303680Z" style="fill: rgb(0,0,0);stroke: none;"></path>
  <path d="M11.297348 76.034515L11.677734 75.404221L11.835312 73.882675L11.677734 72.361130L11.297348 71.730835L0.537964 71.730835L0.157578 72.361130L0.000000 73.882675L0.157578 75.404221L0.537964 76.034515Z" style="fill: rgb(0,0,0);stroke: none;"></path>
  <g transform="matrix(-1.000000,-0.000000,-0.000000,1.000000,0.000000,0.000000)">
    <path d="M-11.297348 14.107071C-11.297348 4.062546,-21.194489 2.151840,-32.816620 2.151840C-46.532944 2.151840,-54.335892 11.848480,-54.335892 26.062302C-54.335892 34.918091,-54.335892 41.116974,-54.335892 49.972763C-54.335892 64.186584,-46.532944 73.883224,-32.816620 73.883224C-21.194489 73.883224,-11.297348 71.972519,-11.297348 61.927994" style="stroke:rgb(0,0,0); stroke-width: 4.303680;stroke-linecap: round;stroke-linejoin: round;stroke-miterlimit: 10.000000;fill: none;"></path>
  </g>
  <path d="M13.449188 0.537964L12.818893 0.157578L11.297348 -0.000000L9.775803 0.157578L9.145508 0.537964L9.145508 75.496552L9.775803 75.876938L11.297348 76.034515L12.818893 75.876938L13.449188 75.496552Z" style="fill: rgb(0,0,0);stroke: none;"></path>
  <path d="M11.297348 4.303680L11.677734 3.673386L11.835312 2.151840L11.677734 0.630295L11.297348 -0.000000L0.537964 -0.000000L0.157578 0.630295L0.000000 2.151840L0.157578 3.673386L0.537964 4.303680Z" style="fill: rgb(0,0,0);stroke: none;"></path>
  <path d="M11.297348 76.034515L11.677734 75.404221L11.835312 73.882675L11.677734 72.361130L11.297348 71.730835L0.537964 71.730835L0.157578 72.361130L0.000000 73.882675L0.157578 75.404221L0.537964 76.034515Z" style="fill: rgb(0,0,0);stroke: none;"></path>
</svg>
