<?xml version="1.0"?>
<!-- Created by MetaPost 2.11 on 2026.02.09:1107 -->
<svg version="1.1" xmlns="http://www.w3.org/2000/svg" xmlns:xlink="http://www.w3.org/1999/xlink" width="61.867172" height="76.034515" viewBox="0 0 61.867172 76.034515">
<!-- Original BoundingBox: -11.297348 -38.017258 50.569824 38.017258 -->
  <g transform="matrix(-1.000000,-0.000000,-0.000000,-1.000000,0.000000,0.000000)">
    <path d="M-11.297348 -2.151840L-11.297348 -73.882675" style="stroke:rgb(0,0,0); stroke-width: 4.303680;stroke-linecap: round;stroke-linejoin: round;stroke-miterlimit: 10.000000;fill: none;"></path>
  </g>
  <path d="M22.056732 76.034515L22.437119 75.404221L22.594696 73.882675L22.437119 72.361130L22.056732 71.730835L0.537964 71.730835L0.157578 72.361130L0.000000 73.882675L0.157578 75.404221L0.537964 76.034515Z" style="fill: rgb(0,0,0);stroke: none;"></path>
  <path d="M22.056732 4.303680L22.437119 3.673386L22.594696 2.151840L22.437119 0.630295L22.056732 -0.000000L0.537964 -0.000000L0.157578 0.630295L0.000000 2.151840L0.157578 3.673386L0.537964 4.303680Z" style="fill: rgb(0,0,0);stroke: none;"></path>
  <path d="M61.867172 0.537964L61.236877 0.157578L59.715332 -0.000000L58.193787 0.157578L57.563492 0.537964L57.563492 3.586212L58.193787 3.966599L59.715332 4.124176L61.236877 3.966599L61.867172 3.586212Z" style="fill: rgb(0,0,0);stroke: none;"></path>
  <g transform="matrix(-1.000000,-0.000000,-0.000000,-1.000000,0.000000,0.000000)">
    <path d="M-11.297348 -2.151840C-11.297348 -8.572754,-13.848434 -14.729904,-18.388351 -19.269836C-22.928284 -23.809753,-29.085434 -26.360840,-35.506348 -26.360840C-41.927261 -26.360840,-48.084412 -23.809753,-52.624344 -19.269836C-56.823990 -15.070175,-59.321762 -9.486649,-59.672592 -3.590591" style="stroke:rgb(0,0,0); stroke-width: 4.303680;stroke-linecap: round;stroke-linejoin: round;stroke-miterlimit: 10.000000;fill: none;"></path>
  </g>
  <g transform="matrix(-1.000000,-0.000000,-0.000000,-1.000000,0.000000,0.000000)">
    <path d="M-11.297348 -2.151840L-11.297348 -73.882675" style="stroke:rgb(0,0,0); stroke-width: 4.303680;stroke-linecap: round;stroke-linejoin: round;stroke-miterlimit: 10.000000;fill: none;"></path>
  </g>
  <path d="M22.056732 76.034515L22.437119 75.404221L22.594696 73.882675L22.437119 72.361130L22.056732 71.730835L0.537964 71.730835L0.157578 72.361130L0.000000 73.882675L0.157578 75.404221L0.537964 76.034515Z" style="fill: rgb(0,0,0);stroke: none;"></path>
  <path d="M22.056732 4.303680L22.437119 3.673386L22.594696 2.151840L22.437119 0.630295L22.056732 -0.000000L0.537964 -0.000000L0.157578 0.630295L0.000000 2.151840L0.157578 3.673386L0.537964 4.303680Z" style="fill: rgb(0,0,0);stroke: none;"></path>
  <path d="M61.867172 0.537964L61.236877 0.157578L59.715332 -0.000000L58.193787 0.157578L57.563492 0.537964L57.563492 3.586212L58.193787 3.966599L59.715332 4.124176L61.236877 3.966599L61.867172 3.586212Z" style="fill: rgb(0,0,0);stroke: none;"></path>
  <g transform="matrix(-1.000000,-0.000000,-0.000000,-1.000000,0.000000,0.000000)">
    <path d="M-11.297348 -2.151840C-11.297348 -8.572754,-13.848434 -14.729904,-18.388351 -19.269836C-22.928284 -23.809753,-29.085434 -26.360840,-35.506348 -26.360840C-41.927261 -26.360840,-48.084412 -23.809753,-52.624344 -19.269836C-56.823990 -15.070175,-59.321762 -9.486649,-59.672592 -3.590591" style="stroke:rgb(0,0,0); stroke-width: 4.303680;stroke-linecap: round;stroke-linejoin: round;stroke-miterlimit: 10.000000;fill: none;"></path>
  </g>
</svg>
