<?xml version="1.0"?>
<!-- Created by MetaPost 2.11 on 2026.02.09:1107 -->
<svg version="1.1" xmlns="http://www.w3.org/2000/svg" xmlns:xlink="http://www.w3.org/1999/xlink" width="98.180679" height="76.034515" viewBox="0 0 98.180679 76.034515">
<!-- Original BoundingBox: -54.604675 -38.017258 43.576004 38.017258 -->
  <path d="M86.883331 2.151840L54.604675 73.882675" style="stroke:rgb(0,0,0); stroke-width: 4.303680;stroke-linecap: round;stroke-linejoin: round;stroke-miterlimit: 10.000000;fill: none;"></path>
  <path d="M76.123947 -0.000000L75.743561 0.630295L75.585983 2.151840L75.743561 3.673386L76.123947 4.303680L97.642715 4.303680L98.023102 3.673386L98.180679 2.151840L98.023102 0.630295L97.642715 -0.000000Z" style="fill: rgb(0,0,0);stroke: none;"></path>
  <path d="M14.256348 27.705872C11.045898 27.705872,7.967316 26.430328,5.697342 24.160370C3.427383 21.890396,2.151840 18.811813,2.151840 15.601364C2.151840 12.390915,3.427383 9.312332,5.697342 7.042358C7.967316 4.772400,11.045898 3.496857,14.256348 3.496857" style="stroke:rgb(0,0,0); stroke-width: 4.303680;stroke-linecap: round;stroke-linejoin: round;stroke-miterlimit: 10.000000;fill: none;"></path>
  <path d="M54.604675 73.882675L38.465347 38.017258C31.948990 23.536362,29.987549 3.496857,14.256348 3.496857" style="stroke:rgb(0,0,0); stroke-width: 4.303680;stroke-linecap: round;stroke-linejoin: round;stroke-miterlimit: 10.000000;fill: none;"></path>
  <path d="M14.256348 27.705872L78.813660 27.705872C84.286606 27.705872,88.459991 29.264297,91.831009 32.657364" style="stroke:rgb(0,0,0); stroke-width: 4.303680;stroke-linecap: round;stroke-linejoin: round;stroke-miterlimit: 10.000000;fill: none;"></path>
  <path d="M80.335236 26.184296L79.620590 26.361008L78.433258 27.325470L77.468796 28.512802L77.292084 29.227448C84.589340 29.227448,89.576279 31.997986,93.431412 38.193802L94.146057 38.017090L95.333389 37.052628L96.297852 35.865295L96.474564 35.150650C92.619431 28.954834,87.632492 26.184296,80.335236 26.184296Z" style="fill: rgb(0,0,0);stroke: none;"></path>
</svg>
