<?xml version="1.0"?>
<!-- Created by MetaPost 2.11 on 2026.02.09:1107 -->
<svg version="1.1" xmlns="http://www.w3.org/2000/svg" xmlns:xlink="http://www.w3.org/1999/xlink" width="58.817703" height="75.819321" viewBox="0 0 58.817703 75.819321">
<!-- Original BoundingBox: -47.520355 -37.802063 11.297348 38.017258 -->
  <path d="M45.368515 75.281357L45.998810 75.661743L47.520355 75.819321L49.041901 75.661743L49.672195 75.281357L49.672195 2.151840L49.041901 1.771454L47.520355 1.613876L45.998810 1.771454L45.368515 2.151840Z" style="fill: rgb(0,0,0);stroke: none;"></path>
  <path d="M36.760971 -0.000000L36.380585 0.630295L36.223007 2.151840L36.380585 3.673386L36.760971 4.303680L58.279739 4.303680L58.660126 3.673386L58.817703 2.151840L58.660126 0.630295L58.279739 -0.000000Z" style="fill: rgb(0,0,0);stroke: none;"></path>
  <path d="M1.295532 58.572495L0.768341 59.086334L0.231689 60.518799L0.000000 62.030853L0.208923 62.736771C1.558273 63.230286,2.845306 63.693390,4.090942 64.132690L4.618134 63.618851L5.154785 62.186386L5.386475 60.674332L5.177551 59.968414C3.931915 59.529114,2.644882 59.066010,1.295532 58.572495Z" style="fill: rgb(0,0,0);stroke: none;"></path>
  <path d="M2.269104 58.930176L1.748672 59.450867L1.230820 60.890228L1.018906 62.405182L1.237061 63.108307C3.051346 63.766541,4.757690 64.370407,6.410507 64.937103L6.930939 64.416412L7.448792 62.977051L7.660706 61.462097L7.442551 60.758972C5.789734 60.192276,4.083389 59.588409,2.269104 58.930176Z" style="fill: rgb(0,0,0);stroke: none;"></path>
  <path d="M4.654068 59.789154L4.140488 60.316605L3.641510 61.762619L3.449448 63.280197L3.676773 63.980408C5.404114 64.592758,7.048248 65.158554,8.663589 65.695007L9.177170 65.167557L9.676147 63.721542L9.868210 62.203964L9.640884 61.503754C8.025543 60.967300,6.381409 60.401505,4.654068 59.789154Z" style="fill: rgb(0,0,0);stroke: none;"></path>
  <path d="M6.935074 60.590546L6.428436 61.124664L5.948441 62.577087L5.776276 64.097046L6.012741 64.794220C7.675751 65.367828,9.280273 65.902710,10.880722 66.416061L11.387360 65.881943L11.867355 64.429520L12.039520 62.909561L11.803055 62.212387C10.202606 61.699036,8.598083 61.164154,6.935074 60.590546Z" style="fill: rgb(0,0,0);stroke: none;"></path>
  <path d="M9.144226 61.344513L8.644638 61.885239L8.183685 63.343826L8.031418 64.865921L8.277008 65.559937C9.898041 66.101883,11.485321 66.612915,13.093262 67.110245L13.592850 66.569519L14.053802 65.110931L14.206070 63.588837L13.960480 62.894821C12.352539 62.397491,10.765259 61.886459,9.144226 61.344513Z" style="fill: rgb(0,0,0);stroke: none;"></path>
  <path d="M11.311432 62.060562L10.818970 62.607773L10.377167 64.072266L10.244873 65.596207L10.499512 66.286942C12.101166 66.804352,13.693787 67.298676,15.331802 67.787109L15.824265 67.239899L16.266068 65.775406L16.398361 64.251465L16.143723 63.560730C14.505707 63.072296,12.913086 62.577972,11.311432 62.060562Z" style="fill: rgb(0,0,0);stroke: none;"></path>
  <path d="M13.467422 62.748322L12.982162 63.301926L12.559555 64.772064L12.447189 66.297623L12.710861 66.984955C14.315521 67.484924,15.935898 67.969620,17.626389 68.456238L18.111649 67.902634L18.534256 66.432495L18.646622 64.906937L18.382950 64.219604C16.692459 63.732986,15.072083 63.248291,13.467422 62.748322Z" style="fill: rgb(0,0,0);stroke: none;"></path>
  <path d="M15.642822 63.417480L15.164841 63.977386L14.761505 65.452957L14.669113 66.979858L14.941742 67.663696C16.571945 68.153336,18.242599 68.635529,20.008102 69.127472L20.486084 68.567566L20.889420 67.091995L20.981812 65.565094L20.709183 64.881256C18.943680 64.389313,17.273026 63.907120,15.642822 63.417480Z" style="fill: rgb(0,0,0);stroke: none;"></path>
  <path d="M17.867569 64.077606L17.396973 64.643723L17.013000 66.124435L16.940613 67.652420L17.222183 68.332611C18.900375 68.819031,20.643738 69.305817,22.506668 69.810150L22.977264 69.244034L23.361237 67.763321L23.433624 66.235336L23.152054 65.555145C21.289124 65.050812,19.545761 64.564026,17.867569 64.077606Z" style="fill: rgb(0,0,0);stroke: none;"></path>
  <path d="M20.173752 64.738754L19.710602 65.310989L19.346039 66.796600L19.293671 68.325394L19.584122 69.001846C20.855911 69.358429,22.175247 69.719345,23.563065 70.091202C24.083466 70.230637,24.594757 70.366592,25.098068 70.499313L25.561218 69.927078L25.925781 68.441467L25.978149 66.912674L25.687698 66.236221C25.184387 66.103500,24.673096 65.967545,24.152695 65.828110C22.764877 65.456253,21.445541 65.095337,20.173752 64.738754Z" style="fill: rgb(0,0,0);stroke: none;"></path>
  <path d="M22.591370 65.410400L22.135742 65.988647L21.790649 67.478897L21.758270 69.008240L22.057556 69.680847C22.559799 69.817551,23.070572 69.955444,23.590973 70.094879C24.978790 70.466736,26.301834 70.813843,27.581528 71.140915L28.037155 70.562668L28.382248 69.072418L28.414627 67.543076L28.115341 66.870468C26.835648 66.543396,25.512604 66.196289,24.124786 65.824432C23.604385 65.684998,23.093613 65.547104,22.591370 65.410400Z" style="fill: rgb(0,0,0);stroke: none;"></path>
  <path d="M25.126053 66.095490L24.678024 66.679657L24.352478 68.174301L24.340134 69.703949L24.648178 70.372589C26.513702 70.867279,28.266891 71.317398,29.963470 71.735245L30.411499 71.151077L30.737045 69.656433L30.749390 68.126785L30.441345 67.458145C28.744766 67.040298,26.991577 66.590179,25.126053 66.095490Z" style="fill: rgb(0,0,0);stroke: none;"></path>
  <path d="M27.577682 66.740707L27.137344 67.330673L26.831390 68.829437L26.839066 70.359085L27.155838 71.023636C28.930695 71.480331,30.618546 71.898041,32.275101 72.289078L32.715439 71.699112L33.021393 70.200348L33.013718 68.670700L32.696945 68.006149C31.040390 67.615112,29.352539 67.197403,27.577682 66.740707Z" style="fill: rgb(0,0,0);stroke: none;"></path>
  <path d="M29.920639 67.337738L29.488052 67.933441L29.201752 69.436081L29.229477 70.965515L29.554916 71.625854C31.262253 72.049667,32.907898 72.440109,34.547577 72.809464L34.980164 72.213760L35.266464 70.711121L35.238739 69.181686L34.913300 68.521347C33.273621 68.151993,31.627975 67.761551,29.920639 67.337738Z" style="fill: rgb(0,0,0);stroke: none;"></path>
  <path d="M32.187851 67.893967L31.763123 68.495270L31.496490 70.001526L31.544220 71.530457L31.878281 72.186478C33.541000 72.582474,35.167374 72.950684,36.813095 73.303406L37.237823 72.702103L37.504456 71.195847L37.456726 69.666916L37.122665 69.010895C35.476944 68.658173,33.850571 68.289963,32.187851 67.893967Z" style="fill: rgb(0,0,0);stroke: none;"></path>
  <path d="M34.409943 68.416092L33.993103 69.022888L33.746231 70.532532L33.813965 72.060699L34.156586 72.712296C35.797821 73.085587,37.428024 73.436676,39.102921 73.777863L39.519760 73.171066L39.766632 71.661423L39.698898 70.133255L39.356277 69.481659C37.681381 69.140472,36.051178 68.789383,34.409943 68.416092Z" style="fill: rgb(0,0,0);stroke: none;"></path>
  <path d="M36.618332 68.911057L36.209473 69.523270L35.982391 71.036011L36.070129 72.563156L36.421249 73.210220C38.063934 73.565857,39.720917 73.904892,41.447922 74.239624L41.856781 73.627411L42.083862 72.114670L41.996124 70.587524L41.645004 69.940460C39.917999 69.605728,38.261017 69.266693,36.618332 68.911057Z" style="fill: rgb(0,0,0);stroke: none;"></path>
  <path d="M38.844467 69.385788L38.443649 70.003296L38.236389 71.518890L38.344101 73.044769L38.703659 73.687180C40.370865 74.030273,42.077713 74.362366,43.879883 74.695740L44.280701 74.078232L44.487961 72.562637L44.380249 71.036758L44.020691 70.394348C42.218521 70.060974,40.511673 69.728882,38.844467 69.385788Z" style="fill: rgb(0,0,0);stroke: none;"></path>
  <path d="M41.118958 69.847137L40.726273 70.469833L40.538849 71.987991L40.666519 73.512314L41.034454 74.149963C42.749176 74.485596,44.528854 74.815811,46.429184 75.152908L46.821869 74.530212L47.009293 73.012054L46.881622 71.487732L46.513687 70.850082C44.613358 70.512985,42.833679 70.182770,41.118958 69.847137Z" style="fill: rgb(0,0,0);stroke: none;"></path>
  <path d="M43.474670 70.302246L43.090164 70.930054L42.922638 72.450531L43.070236 73.973083L43.446503 74.605865C44.744904 74.848221,46.091064 75.090683,47.506393 75.337967L47.890900 74.710159L48.058426 73.189682L47.910828 71.667130L47.534561 71.034348C46.119232 70.787064,44.773071 70.544601,43.474670 70.302246Z" style="fill: rgb(0,0,0);stroke: none;"></path>
</svg>
