<?xml version="1.0"?>
<!-- Created by MetaPost 2.11 on 2026.02.09:1107 -->
<svg version="1.1" xmlns="http://www.w3.org/2000/svg" xmlns:xlink="http://www.w3.org/1999/xlink" width="47.342728" height="77.110443" viewBox="0 0 47.342728 77.110443">
<!-- Original BoundingBox: -2.152344 -38.555222 45.190384 38.555222 -->
  <path d="M45.190887 14.645035C45.190887 4.600510,35.293747 2.689804,23.671616 2.689804C9.955292 2.689804,2.152344 12.386444,2.152344 26.600266C2.152344 36.644791,12.049484 38.555496,23.671616 38.555496" style="stroke:rgb(0,0,0); stroke-width: 4.303680;stroke-linecap: round;stroke-linejoin: round;stroke-miterlimit: 10.000000;fill: none;"></path>
  <path d="M2.151840 62.465408C2.151840 72.509933,12.048981 74.420639,23.671112 74.420639C37.387436 74.420639,45.190384 64.723999,45.190384 50.510178C45.190384 40.465652,35.293243 38.554947,23.671112 38.554947" style="stroke:rgb(0,0,0); stroke-width: 4.303680;stroke-linecap: round;stroke-linejoin: round;stroke-miterlimit: 10.000000;fill: none;"></path>
  <path d="M47.342728 0.537964L46.712433 0.157578L45.190887 -0.000000L43.669342 0.157578L43.039047 0.537964L43.039047 14.644760L43.669342 15.025146L45.190887 15.182724L46.712433 15.025146L47.342728 14.644760Z" style="fill: rgb(0,0,0);stroke: none;"></path>
  <path d="M0.000000 76.572479L0.630295 76.952866L2.151840 77.110443L3.673386 76.952866L4.303680 76.572479L4.303680 62.465683L3.673386 62.085297L2.151840 61.927719L0.630295 62.085297L0.000000 62.465683Z" style="fill: rgb(0,0,0);stroke: none;"></path>
</svg>
