<?xml version="1.0"?>
<!-- Created by MetaPost 2.11 on 2026.02.09:1107 -->
<svg version="1.1" xmlns="http://www.w3.org/2000/svg" xmlns:xlink="http://www.w3.org/1999/xlink" width="47.342224" height="76.034515" viewBox="0 0 47.342224 76.034515">
<!-- Original BoundingBox: -2.151840 -38.017258 45.190384 38.017258 -->
  <path d="M45.190384 14.107071C45.190384 4.062546,35.293243 2.151840,23.671112 2.151840C9.954788 2.151840,2.151840 11.848480,2.151840 26.062302C2.151840 36.106827,12.048981 38.017532,23.671112 38.017532" style="stroke:rgb(0,0,0); stroke-width: 4.303680;stroke-linecap: round;stroke-linejoin: round;stroke-miterlimit: 10.000000;fill: none;"></path>
  <path d="M45.190384 61.927444C45.190384 71.971970,35.293243 73.882675,23.671112 73.882675C9.954788 73.882675,2.151840 64.186035,2.151840 49.972214C2.151840 39.927689,12.048981 38.016983,23.671112 38.016983" style="stroke:rgb(0,0,0); stroke-width: 4.303680;stroke-linecap: round;stroke-linejoin: round;stroke-miterlimit: 10.000000;fill: none;"></path>
  <path d="M47.342224 14.107071L46.711929 13.726685L45.190384 13.569107L43.668839 13.726685L43.038544 14.107071L43.038544 61.927444L43.668839 62.307831L45.190384 62.465408L46.711929 62.307831L47.342224 61.927444Z" style="fill: rgb(0,0,0);stroke: none;"></path>
</svg>
