<?xml version="1.0"?>
<!-- Created by MetaPost 2.11 on 2026.02.09:1107 -->
<svg version="1.1" xmlns="http://www.w3.org/2000/svg" xmlns:xlink="http://www.w3.org/1999/xlink" width="71.012680" height="76.034515" viewBox="0 0 71.012680 76.034515">
<!-- Original BoundingBox: -11.297348 -38.017258 59.715332 38.017258 -->
  <path d="M11.297348 73.882675L11.297348 2.151840" style="stroke:rgb(0,0,0); stroke-width: 4.303680;stroke-linecap: round;stroke-linejoin: round;stroke-miterlimit: 10.000000;fill: none;"></path>
  <path d="M59.715332 73.882675L59.715332 2.151840" style="stroke:rgb(0,0,0); stroke-width: 4.303680;stroke-linecap: round;stroke-linejoin: round;stroke-miterlimit: 10.000000;fill: none;"></path>
  <path d="M0.537964 -0.000000L0.157578 0.630295L0.000000 2.151840L0.157578 3.673386L0.537964 4.303680L22.056732 4.303680L22.437119 3.673386L22.594696 2.151840L22.437119 0.630295L22.056732 -0.000000Z" style="fill: rgb(0,0,0);stroke: none;"></path>
  <path d="M48.955948 71.730835L48.575562 72.361130L48.417984 73.882675L48.575562 75.404221L48.955948 76.034515L70.474716 76.034515L70.855103 75.404221L71.012680 73.882675L70.855103 72.361130L70.474716 71.730835Z" style="fill: rgb(0,0,0);stroke: none;"></path>
  <path d="M59.715332 -0.000000L59.334946 0.630295L59.177368 2.151840L59.334946 3.673386L59.715332 4.303680L70.474716 4.303680L70.855103 3.673386L71.012680 2.151840L70.855103 0.630295L70.474716 -0.000000Z" style="fill: rgb(0,0,0);stroke: none;"></path>
  <path d="M11.297348 73.882675L59.715332 2.151840" style="stroke:rgb(0,0,0); stroke-width: 4.303680;stroke-linecap: round;stroke-linejoin: round;stroke-miterlimit: 10.000000;fill: none;"></path>
</svg>
