<?xml version="1.0"?>
<!-- Created by MetaPost 2.11 on 2026.02.09:1107 -->
<svg version="1.1" xmlns="http://www.w3.org/2000/svg" xmlns:xlink="http://www.w3.org/1999/xlink" width="8.069748" height="16.258636" viewBox="0 0 8.069748 16.258636">
<!-- Original BoundingBox: -5.917908 -49.972214 2.151840 -33.713577 -->
  <path d="M5.917908 2.151840l0 0" style="stroke:rgb(0,0,0); stroke-width: 4.303680;stroke-linecap: round;stroke-linejoin: round;stroke-miterlimit: 10.000000;fill: none;"></path>
  <path d="M6.455872 2.151840L6.298294 0.630295L5.917908 -0.000000L5.537521 0.630295L5.379944 2.151840C5.379944 2.903229,5.345398 3.620209,5.274231 4.307434L5.431808 2.785889C5.203049 4.994812,4.595840 6.896271,3.540878 8.644318L3.921265 8.014023C3.085800 9.398376,1.969513 10.686523,0.537964 11.954956L0.157578 12.585251L0.000000 14.106796L0.157578 15.628342L0.537964 16.258636C1.969513 14.990204,3.085815 13.702057,3.921280 12.317688L4.301666 11.687393C5.356613 9.939346,5.963821 8.037888,6.192581 5.828979L6.350159 4.307434C6.421326 3.620209,6.455872 2.903229,6.455872 2.151840Z" style="fill: rgb(0,0,0);stroke: none;"></path>
</svg>
