<?xml version="1.0"?>
<!-- Created by MetaPost 2.11 on 2026.02.09:1107 -->
<svg version="1.1" xmlns="http://www.w3.org/2000/svg" xmlns:xlink="http://www.w3.org/1999/xlink" width="54.873352" height="76.034515" viewBox="0 0 54.873352 76.034515">
<!-- Original BoundingBox: -11.297348 -38.017258 43.576004 38.017258 -->
  <g transform="matrix(-1.000000,-0.000000,-0.000000,-1.000000,0.000000,0.000000)">
    <path d="M-11.297348 -2.151840L-11.297348 -73.882675" style="stroke:rgb(0,0,0); stroke-width: 4.303680;stroke-linecap: round;stroke-linejoin: round;stroke-miterlimit: 10.000000;fill: none;"></path>
  </g>
  <path d="M22.056732 4.303680L22.437119 3.673386L22.594696 2.151840L22.437119 0.630295L22.056732 -0.000000L0.537964 -0.000000L0.157578 0.630295L0.000000 2.151840L0.157578 3.673386L0.537964 4.303680Z" style="fill: rgb(0,0,0);stroke: none;"></path>
  <path d="M0.537964 71.730835L0.157578 72.361130L0.000000 73.882675L0.157578 75.404221L0.537964 76.034515L54.335388 76.034515L54.715775 75.404221L54.873352 73.882675L54.715775 72.361130L54.335388 71.730835Z" style="fill: rgb(0,0,0);stroke: none;"></path>
  <path d="M50.569672 73.882675L51.199966 74.263062L52.721512 74.420639L54.243057 74.263062L54.873352 73.882675C54.873352 70.362534,54.873352 67.898499,54.873352 64.378357L54.243057 63.997971L52.721512 63.840393L51.199966 63.997971L50.569672 64.378357C50.569672 67.898499,50.569672 70.362534,50.569672 73.882675Z" style="fill: rgb(0,0,0);stroke: none;"></path>
  <g transform="matrix(-1.000000,-0.000000,-0.000000,-1.000000,0.000000,0.000000)">
    <path d="M-11.297348 -2.151840L-11.297348 -73.882675" style="stroke:rgb(0,0,0); stroke-width: 4.303680;stroke-linecap: round;stroke-linejoin: round;stroke-miterlimit: 10.000000;fill: none;"></path>
  </g>
  <path d="M22.056732 4.303680L22.437119 3.673386L22.594696 2.151840L22.437119 0.630295L22.056732 -0.000000L0.537964 -0.000000L0.157578 0.630295L0.000000 2.151840L0.157578 3.673386L0.537964 4.303680Z" style="fill: rgb(0,0,0);stroke: none;"></path>
  <path d="M0.537964 71.730835L0.157578 72.361130L0.000000 73.882675L0.157578 75.404221L0.537964 76.034515L54.335388 76.034515L54.715775 75.404221L54.873352 73.882675L54.715775 72.361130L54.335388 71.730835Z" style="fill: rgb(0,0,0);stroke: none;"></path>
  <path d="M50.569672 73.882675L51.199966 74.263062L52.721512 74.420639L54.243057 74.263062L54.873352 73.882675C54.873352 70.362534,54.873352 67.898499,54.873352 64.378357L54.243057 63.997971L52.721512 63.840393L51.199966 63.997971L50.569672 64.378357C50.569672 67.898499,50.569672 70.362534,50.569672 73.882675Z" style="fill: rgb(0,0,0);stroke: none;"></path>
</svg>
