<?xml version="1.0"?>
<!-- Created by MetaPost 2.11 on 2026.02.09:1107 -->
<svg version="1.1" xmlns="http://www.w3.org/2000/svg" xmlns:xlink="http://www.w3.org/1999/xlink" width="108.671280" height="76.034515" viewBox="0 0 108.671280 76.034515">
<!-- Original BoundingBox: -11.297348 -38.017258 97.373932 38.017258 -->
  <path d="M11.297348 49.972214C11.297348 64.186035,19.100296 73.882675,32.816620 73.882675C46.532944 73.882675,54.335892 64.186035,54.335892 49.972214" style="stroke:rgb(0,0,0); stroke-width: 4.303680;stroke-linecap: round;stroke-linejoin: round;stroke-miterlimit: 10.000000;fill: none;"></path>
  <path d="M54.335388 49.972214C54.335388 64.186035,62.138336 73.882675,75.854660 73.882675C89.570984 73.882675,97.373932 64.186035,97.373932 49.972214" style="stroke:rgb(0,0,0); stroke-width: 4.303680;stroke-linecap: round;stroke-linejoin: round;stroke-miterlimit: 10.000000;fill: none;"></path>
  <path d="M13.449188 2.151840L12.818893 1.771454L11.297348 1.613876L9.775803 1.771454L9.145508 2.151840L9.145508 49.972214L9.775803 50.352600L11.297348 50.510178L12.818893 50.352600L13.449188 49.972214Z" style="fill: rgb(0,0,0);stroke: none;"></path>
  <path d="M56.487228 2.151840L55.856934 1.771454L54.335388 1.613876L52.813843 1.771454L52.183548 2.151840L52.183548 49.972214L52.813843 50.352600L54.335388 50.510178L55.856934 50.352600L56.487228 49.972214Z" style="fill: rgb(0,0,0);stroke: none;"></path>
  <path d="M99.525772 2.151840L98.895477 1.771454L97.373932 1.613876L95.852386 1.771454L95.222092 2.151840L95.222092 49.972214L95.852386 50.352600L97.373932 50.510178L98.895477 50.352600L99.525772 49.972214Z" style="fill: rgb(0,0,0);stroke: none;"></path>
  <path d="M0.537964 -0.000000L0.157578 0.630295L0.000000 2.151840L0.157578 3.673386L0.537964 4.303680L22.056732 4.303680L22.437119 3.673386L22.594696 2.151840L22.437119 0.630295L22.056732 -0.000000Z" style="fill: rgb(0,0,0);stroke: none;"></path>
  <path d="M43.576004 -0.000000L43.195618 0.630295L43.038040 2.151840L43.195618 3.673386L43.576004 4.303680L65.094772 4.303680L65.475159 3.673386L65.632736 2.151840L65.475159 0.630295L65.094772 -0.000000Z" style="fill: rgb(0,0,0);stroke: none;"></path>
  <path d="M86.614548 -0.000000L86.234161 0.630295L86.076584 2.151840L86.234161 3.673386L86.614548 4.303680L108.133316 4.303680L108.513702 3.673386L108.671280 2.151840L108.513702 0.630295L108.133316 -0.000000Z" style="fill: rgb(0,0,0);stroke: none;"></path>
</svg>
