<?xml version="1.0"?>
<!-- Created by MetaPost 2.11 on 2026.02.09:1107 -->
<svg version="1.1" xmlns="http://www.w3.org/2000/svg" xmlns:xlink="http://www.w3.org/1999/xlink" width="47.342224" height="76.573029" viewBox="0 0 47.342224 76.573029">
<!-- Original BoundingBox: -2.151840 -38.017807 45.190384 38.555222 -->
  <path d="M45.190384 14.645035C45.190384 4.600510,35.293243 2.689804,23.671112 2.689804C9.954788 2.689804,2.151840 12.386444,2.151840 26.600266C2.151840 35.456055,2.151840 41.654938,2.151840 50.510727C2.151840 64.724548,9.954788 74.421188,23.671112 74.421188C35.293243 74.421188,45.190384 72.510483,45.190384 62.465958" style="stroke:rgb(0,0,0); stroke-width: 4.303680;stroke-linecap: round;stroke-linejoin: round;stroke-miterlimit: 10.000000;fill: none;"></path>
  <path d="M47.342224 0.537964L46.711929 0.157578L45.190384 -0.000000L43.668839 0.157578L43.038544 0.537964L43.038544 14.644760L43.668839 15.025146L45.190384 15.182724L46.711929 15.025146L47.342224 14.644760Z" style="fill: rgb(0,0,0);stroke: none;"></path>
  <path d="M47.342224 60.314117L46.711929 59.933731L45.190384 59.776154L43.668839 59.933731L43.038544 60.314117L43.038544 62.465958L43.668839 62.846344L45.190384 63.003922L46.711929 62.846344L47.342224 62.465958Z" style="fill: rgb(0,0,0);stroke: none;"></path>
</svg>
