<?xml version="1.0"?>
<!-- Created by MetaPost 2.11 on 2026.02.09:1107 -->
<svg version="1.1" xmlns="http://www.w3.org/2000/svg" xmlns:xlink="http://www.w3.org/1999/xlink" width="71.012680" height="76.034515" viewBox="0 0 71.012680 76.034515">
<!-- Original BoundingBox: -59.715332 -38.017258 11.297348 38.017258 -->
  <path d="M59.715332 73.882675L59.715332 2.151840" style="stroke:rgb(0,0,0); stroke-width: 4.303680;stroke-linecap: round;stroke-linejoin: round;stroke-miterlimit: 10.000000;fill: none;"></path>
  <path d="M48.955948 -0.000000L48.575562 0.630295L48.417984 2.151840L48.575562 3.673386L48.955948 4.303680L70.474716 4.303680L70.855103 3.673386L71.012680 2.151840L70.855103 0.630295L70.474716 -0.000000Z" style="fill: rgb(0,0,0);stroke: none;"></path>
  <path d="M48.955948 71.730835L48.575562 72.361130L48.417984 73.882675L48.575562 75.404221L48.955948 76.034515L70.474716 76.034515L70.855103 75.404221L71.012680 73.882675L70.855103 72.361130L70.474716 71.730835Z" style="fill: rgb(0,0,0);stroke: none;"></path>
  <path d="M0.537964 71.730835L0.157578 72.361130L0.000000 73.882675L0.157578 75.404221L0.537964 76.034515L22.056732 76.034515L22.437119 75.404221L22.594696 73.882675L22.437119 72.361130L22.056732 71.730835Z" style="fill: rgb(0,0,0);stroke: none;"></path>
  <path d="M59.715332 73.882675C59.715332 67.461761,57.164246 61.304611,52.624329 56.764679C48.084396 52.224762,41.927246 49.673676,35.506332 49.673676C29.085419 49.673676,22.928268 52.224762,18.388336 56.764679C13.848419 61.304611,11.297333 67.461761,11.297333 73.882675" style="stroke:rgb(0,0,0); stroke-width: 4.303680;stroke-linecap: round;stroke-linejoin: round;stroke-miterlimit: 10.000000;fill: none;"></path>
</svg>
