<?xml version="1.0"?>
<!-- Created by MetaPost 2.11 on 2026.02.09:1107 -->
<svg version="1.1" xmlns="http://www.w3.org/2000/svg" xmlns:xlink="http://www.w3.org/1999/xlink" width="8.069748" height="64.079010" viewBox="0 0 8.069748 64.079010">
<!-- Original BoundingBox: -5.917908 -49.972214 2.151840 14.106796 -->
  <path d="M5.917908 2.151840l0 0" style="stroke:rgb(0,0,0); stroke-width: 4.303680;stroke-linecap: round;stroke-linejoin: round;stroke-miterlimit: 10.000000;fill: none;"></path>
  <path d="M5.917908 49.972214l0 0" style="stroke:rgb(0,0,0); stroke-width: 4.303680;stroke-linecap: round;stroke-linejoin: round;stroke-miterlimit: 10.000000;fill: none;"></path>
  <path d="M6.455872 49.972214L6.298294 48.450668L5.917908 47.820374L5.537521 48.450668L5.379944 49.972214C5.379944 50.723602,5.345398 51.440582,5.274231 52.127808L5.431808 50.606262C5.203049 52.815186,4.595840 54.716644,3.540878 56.464691L3.921265 55.834396C3.085800 57.218750,1.969513 58.506897,0.537964 59.775330L0.157578 60.405624L0.000000 61.927170L0.157578 63.448715L0.537964 64.079010C1.969513 62.810577,3.085815 61.522430,3.921280 60.138062L4.301666 59.507767C5.356613 57.759720,5.963821 55.858261,6.192581 53.649353L6.350159 52.127808C6.421326 51.440582,6.455872 50.723602,6.455872 49.972214Z" style="fill: rgb(0,0,0);stroke: none;"></path>
</svg>
