<?xml version="1.0"?>
<!-- Created by MetaPost 2.11 on 2026.02.09:1107 -->
<svg version="1.1" xmlns="http://www.w3.org/2000/svg" xmlns:xlink="http://www.w3.org/1999/xlink" width="47.342224" height="76.034515" viewBox="0 0 47.342224 76.034515">
<!-- Original BoundingBox: -23.671112 -38.017258 23.671112 38.017258 -->
  <g transform="matrix(-1.000000,-0.000000,-0.000000,-1.000000,0.000000,0.000000)">
    <path d="M-23.671112 -49.972763C-37.387436 -49.972763,-45.190384 -40.276123,-45.190384 -26.062302C-45.190384 -11.848480,-37.387436 -2.151840,-23.671112 -2.151840C-9.954788 -2.151840,-2.151840 -11.848480,-2.151840 -26.062302C-2.151840 -40.276123,-9.954788 -49.972763,-23.671112 -49.972763Z" style="stroke:rgb(0,0,0); stroke-width: 4.303680;stroke-linecap: round;stroke-linejoin: round;stroke-miterlimit: 10.000000;fill: none;"></path>
  </g>
  <g transform="matrix(-1.000000,-0.000000,-0.000000,-1.000000,0.000000,0.000000)">
    <path d="M-45.190384 -26.062302C-45.190384 -51.149475,-45.225952 -73.882675,-23.671112 -73.882675" style="stroke:rgb(0,0,0); stroke-width: 4.303680;stroke-linecap: round;stroke-linejoin: round;stroke-miterlimit: 10.000000;fill: none;"></path>
  </g>
  <g transform="matrix(-1.000000,-0.000000,-0.000000,-1.000000,0.000000,0.000000)">
    <path d="M-2.151840 -61.927444C-2.151840 -71.971970,-12.048981 -73.882675,-23.671112 -73.882675" style="stroke:rgb(0,0,0); stroke-width: 4.303680;stroke-linecap: round;stroke-linejoin: round;stroke-miterlimit: 10.000000;fill: none;"></path>
  </g>
  <g transform="matrix(-1.000000,-0.000000,-0.000000,-1.000000,0.000000,0.000000)">
    <path d="M-23.671112 -49.972763C-37.387436 -49.972763,-45.190384 -40.276123,-45.190384 -26.062302C-45.190384 -11.848480,-37.387436 -2.151840,-23.671112 -2.151840C-9.954788 -2.151840,-2.151840 -11.848480,-2.151840 -26.062302C-2.151840 -40.276123,-9.954788 -49.972763,-23.671112 -49.972763Z" style="stroke:rgb(0,0,0); stroke-width: 4.303680;stroke-linecap: round;stroke-linejoin: round;stroke-miterlimit: 10.000000;fill: none;"></path>
  </g>
  <g transform="matrix(-1.000000,-0.000000,-0.000000,-1.000000,0.000000,0.000000)">
    <path d="M-45.190384 -26.062302C-45.190384 -51.149475,-45.225952 -73.882675,-23.671112 -73.882675" style="stroke:rgb(0,0,0); stroke-width: 4.303680;stroke-linecap: round;stroke-linejoin: round;stroke-miterlimit: 10.000000;fill: none;"></path>
  </g>
  <g transform="matrix(-1.000000,-0.000000,-0.000000,-1.000000,0.000000,0.000000)">
    <path d="M-2.151840 -61.927444C-2.151840 -71.971970,-12.048981 -73.882675,-23.671112 -73.882675" style="stroke:rgb(0,0,0); stroke-width: 4.303680;stroke-linecap: round;stroke-linejoin: round;stroke-miterlimit: 10.000000;fill: none;"></path>
  </g>
</svg>
