<?xml version="1.0"?>
<!-- Created by MetaPost 2.11 on 2026.02.09:1107 -->
<svg version="1.1" xmlns="http://www.w3.org/2000/svg" xmlns:xlink="http://www.w3.org/1999/xlink" width="33.354584" height="36.941345" viewBox="0 0 33.354584 36.941345">
<!-- Original BoundingBox: -16.677292 -18.470673 16.677292 18.470673 -->
  <path d="M0.537964 7.352478L0.157578 7.982773L0.000000 9.504318L0.157578 11.025864L0.537964 11.656158L32.816620 11.656158L33.197006 11.025864L33.354584 9.504318L33.197006 7.982773L32.816620 7.352478Z" style="fill: rgb(0,0,0);stroke: none;"></path>
  <path d="M0.537964 25.285187L0.157578 25.915482L0.000000 27.437027L0.157578 28.958572L0.537964 29.588867L32.816620 29.588867L33.197006 28.958572L33.354584 27.437027L33.197006 25.915482L32.816620 25.285187Z" style="fill: rgb(0,0,0);stroke: none;"></path>
  <path d="M10.759460 0.537964L10.129166 0.157578L8.607620 -0.000000L7.086075 0.157578L6.455780 0.537964L6.455780 36.403381L7.086075 36.783768L8.607620 36.941345L10.129166 36.783768L10.759460 36.403381Z" style="fill: rgb(0,0,0);stroke: none;"></path>
  <path d="M26.898804 0.537964L26.268509 0.157578L24.746964 -0.000000L23.225418 0.157578L22.595123 0.537964L22.595123 36.403381L23.225418 36.783768L24.746964 36.941345L26.268509 36.783768L26.898804 36.403381Z" style="fill: rgb(0,0,0);stroke: none;"></path>
</svg>
