<?xml version="1.0"?>
<!-- Created by MetaPost 2.11 on 2026.02.09:1107 -->
<svg version="1.1" xmlns="http://www.w3.org/2000/svg" xmlns:xlink="http://www.w3.org/1999/xlink" width="69.936844" height="76.034515" viewBox="0 0 69.936844 76.034515">
<!-- Original BoundingBox: -35.506348 -38.017258 34.430496 38.017258 -->
  <g transform="matrix(-1.000000,-0.000000,-0.000000,1.000000,0.000000,0.000000)">
    <path d="M-35.506348 73.882675L-35.506348 20.084549" style="stroke:rgb(0,0,0); stroke-width: 4.303680;stroke-linecap: round;stroke-linejoin: round;stroke-miterlimit: 10.000000;fill: none;"></path>
  </g>
  <path d="M46.265732 76.034515L46.646118 75.404221L46.803696 73.882675L46.646118 72.361130L46.265732 71.730835L24.746964 71.730835L24.366577 72.361130L24.209000 73.882675L24.366577 75.404221L24.746964 76.034515Z" style="fill: rgb(0,0,0);stroke: none;"></path>
  <g transform="matrix(-1.000000,-0.000000,-0.000000,1.000000,0.000000,0.000000)">
    <path d="M-35.506348 20.084549C-35.506348 9.424255,-41.358505 2.151840,-51.645676 2.151840C-61.932846 2.151840,-67.785004 9.424255,-67.785004 20.084549C-67.785004 35.151215,-52.939407 38.017258,-35.506348 38.017258C-20.828125 38.017258,-11.297348 29.195358,-11.297348 14.704956L-11.297348 2.151840" style="stroke:rgb(0,0,0); stroke-width: 4.303680;stroke-linecap: round;stroke-linejoin: round;stroke-miterlimit: 10.000000;fill: none;"></path>
  </g>
  <path d="M22.056732 4.303680L22.437119 3.673386L22.594696 2.151840L22.437119 0.630295L22.056732 -0.000000L0.537964 -0.000000L0.157578 0.630295L0.000000 2.151840L0.157578 3.673386L0.537964 4.303680Z" style="fill: rgb(0,0,0);stroke: none;"></path>
  <g transform="matrix(-1.000000,-0.000000,-0.000000,1.000000,0.000000,0.000000)">
    <path d="M-35.506348 73.882675L-35.506348 20.084549" style="stroke:rgb(0,0,0); stroke-width: 4.303680;stroke-linecap: round;stroke-linejoin: round;stroke-miterlimit: 10.000000;fill: none;"></path>
  </g>
  <path d="M46.265732 76.034515L46.646118 75.404221L46.803696 73.882675L46.646118 72.361130L46.265732 71.730835L24.746964 71.730835L24.366577 72.361130L24.209000 73.882675L24.366577 75.404221L24.746964 76.034515Z" style="fill: rgb(0,0,0);stroke: none;"></path>
  <g transform="matrix(-1.000000,-0.000000,-0.000000,1.000000,0.000000,0.000000)">
    <path d="M-35.506348 20.084549C-35.506348 9.424255,-41.358505 2.151840,-51.645676 2.151840C-61.932846 2.151840,-67.785004 9.424255,-67.785004 20.084549C-67.785004 35.151215,-52.939407 38.017258,-35.506348 38.017258C-20.828125 38.017258,-11.297348 29.195358,-11.297348 14.704956L-11.297348 2.151840" style="stroke:rgb(0,0,0); stroke-width: 4.303680;stroke-linecap: round;stroke-linejoin: round;stroke-miterlimit: 10.000000;fill: none;"></path>
  </g>
  <path d="M22.056732 4.303680L22.437119 3.673386L22.594696 2.151840L22.437119 0.630295L22.056732 -0.000000L0.537964 -0.000000L0.157578 0.630295L0.000000 2.151840L0.157578 3.673386L0.537964 4.303680Z" style="fill: rgb(0,0,0);stroke: none;"></path>
</svg>
