<?xml version="1.0"?>
<!-- Created by MetaPost 2.11 on 2026.02.09:1107 -->
<svg version="1.1" xmlns="http://www.w3.org/2000/svg" xmlns:xlink="http://www.w3.org/1999/xlink" width="47.342224" height="76.034515" viewBox="0 0 47.342224 76.034515">
<!-- Original BoundingBox: -2.151840 -38.017258 45.190384 38.017258 -->
  <path d="M23.671112 26.061752C9.954788 26.061752,2.151840 35.758392,2.151840 49.972214C2.151840 64.186035,9.954788 73.882675,23.671112 73.882675C37.387436 73.882675,45.190384 64.186035,45.190384 49.972214" style="stroke:rgb(0,0,0); stroke-width: 4.303680;stroke-linecap: round;stroke-linejoin: round;stroke-miterlimit: 10.000000;fill: none;"></path>
  <path d="M2.151840 14.107071C2.151840 4.062546,12.048981 2.151840,23.671112 2.151840C37.387436 2.151840,45.190384 11.848480,45.190384 26.062302C45.190384 34.917877,45.190384 41.116638,45.190384 49.972214C45.190384 57.079117,43.239655 63.056732,39.574387 67.257614" style="stroke:rgb(0,0,0); stroke-width: 4.303680;stroke-linecap: round;stroke-linejoin: round;stroke-miterlimit: 10.000000;fill: none;"></path>
  <path d="M25.822952 26.061752L25.192657 25.681366L23.671112 25.523788L22.149567 25.681366L21.519272 26.061752L21.519272 38.016708L22.149567 38.397095L23.671112 38.554672L25.192657 38.397095L25.822952 38.016708Z" style="fill: rgb(0,0,0);stroke: none;"></path>
</svg>
