<?xml version="1.0"?>
<!-- Created by MetaPost 2.11 on 2026.02.09:1107 -->
<svg version="1.1" xmlns="http://www.w3.org/2000/svg" xmlns:xlink="http://www.w3.org/1999/xlink" width="69.936844" height="76.034515" viewBox="0 0 69.936844 76.034515">
<!-- Original BoundingBox: -34.430496 -38.017258 35.506348 38.017258 -->
  <path d="M34.430496 73.882675L34.430496 2.151840" style="stroke:rgb(0,0,0); stroke-width: 4.303680;stroke-linecap: round;stroke-linejoin: round;stroke-miterlimit: 10.000000;fill: none;"></path>
  <path d="M23.671112 -0.000000L23.290726 0.630295L23.133148 2.151840L23.290726 3.673386L23.671112 4.303680L45.189880 4.303680L45.570267 3.673386L45.727844 2.151840L45.570267 0.630295L45.189880 -0.000000Z" style="fill: rgb(0,0,0);stroke: none;"></path>
  <path d="M23.671112 71.730835L23.290726 72.361130L23.133148 73.882675L23.290726 75.404221L23.671112 76.034515L45.189880 76.034515L45.570267 75.404221L45.727844 73.882675L45.570267 72.361130L45.189880 71.730835Z" style="fill: rgb(0,0,0);stroke: none;"></path>
  <path d="M34.430496 38.017258C34.430496 27.356964,28.578339 20.084549,18.291168 20.084549C8.003998 20.084549,2.151840 27.356964,2.151840 38.017258C2.151840 53.083923,16.997437 55.949966,34.430496 55.949966C49.108719 55.949966,58.639496 47.128067,58.639496 32.637665L58.639496 20.084549" style="stroke:rgb(0,0,0); stroke-width: 4.303680;stroke-linecap: round;stroke-linejoin: round;stroke-miterlimit: 10.000000;fill: none;"></path>
  <path d="M47.880112 17.932709L47.499725 18.563004L47.342148 20.084549L47.499725 21.606094L47.880112 22.236389L69.398880 22.236389L69.779266 21.606094L69.936844 20.084549L69.779266 18.563004L69.398880 17.932709Z" style="fill: rgb(0,0,0);stroke: none;"></path>
</svg>
