<?xml version="1.0"?>
<!-- Created by MetaPost 2.11 on 2026.02.09:1107 -->
<svg version="1.1" xmlns="http://www.w3.org/2000/svg" xmlns:xlink="http://www.w3.org/1999/xlink" width="24.403442" height="30.425629" viewBox="0 0 24.403442 30.425629">
<!-- Original BoundingBox: -12.201721 6.996078 12.201721 30.425629 -->
  <path d="M10.049881 12.492920L10.680176 12.873306L12.201721 13.030884L13.723267 12.873306L14.353561 12.492920L14.353561 0.537964L13.723267 0.157578L12.201721 -0.000000L10.680176 0.157578L10.049881 0.537964Z" style="fill: rgb(0,0,0);stroke: none;"></path>
  <path d="M11.536758 14.539429L12.093307 14.057541L12.713348 12.659164L13.033676 11.163406L12.866684 10.446411L1.496918 6.752075L0.940369 7.233963L0.320328 8.632339L0.000000 10.128098L0.166992 10.845093Z" style="fill: rgb(0,0,0);stroke: none;"></path>
  <path d="M13.942612 13.757736L13.656265 13.079514L12.517929 12.057693L11.194351 11.290848L10.460831 11.228104L3.433899 20.899918L3.720245 21.578140L4.858582 22.599960L6.182159 23.366806L6.915680 23.429550Z" style="fill: rgb(0,0,0);stroke: none;"></path>
  <path d="M13.942612 11.228104L13.209091 11.290848L11.885513 12.057693L10.747177 13.079514L10.460831 13.757736L17.487762 23.429550L18.221283 23.366806L19.544861 22.599960L20.683197 21.578140L20.969543 20.899918Z" style="fill: rgb(0,0,0);stroke: none;"></path>
  <path d="M11.536758 10.446411L11.369766 11.163406L11.690094 12.659164L12.310135 14.057541L12.866684 14.539429L24.236450 10.845093L24.403442 10.128098L24.083115 8.632339L23.463074 7.233963L22.906525 6.752075Z" style="fill: rgb(0,0,0);stroke: none;"></path>
</svg>
