<?xml version="1.0"?>
<!-- Created by MetaPost 2.11 on 2026.02.09:1107 -->
<svg version="1.1" xmlns="http://www.w3.org/2000/svg" xmlns:xlink="http://www.w3.org/1999/xlink" width="32.701294" height="76.034515" viewBox="0 0 32.701294 76.034515">
<!-- Original BoundingBox: -16.350647 -38.017258 16.350647 38.017258 -->
  <path d="M16.350647 73.882675L16.350647 2.151840" style="stroke:rgb(0,0,0); stroke-width: 4.303680;stroke-linecap: round;stroke-linejoin: round;stroke-miterlimit: 10.000000;fill: none;"></path>
  <path d="M5.591263 -0.000000L5.210876 0.630295L5.053299 2.151840L5.210876 3.673386L5.591263 4.303680L27.110031 4.303680L27.490417 3.673386L27.647995 2.151840L27.490417 0.630295L27.110031 -0.000000Z" style="fill: rgb(0,0,0);stroke: none;"></path>
  <path d="M5.591263 71.730835L5.210876 72.361130L5.053299 73.882675L5.210876 75.404221L5.591263 76.034515L27.110031 76.034515L27.490417 75.404221L27.647995 73.882675L27.490417 72.361130L27.110031 71.730835Z" style="fill: rgb(0,0,0);stroke: none;"></path>
  <path d="M1.318176 31.761566L0.787598 32.271942L0.241592 33.700851L0.000000 35.211334L0.204285 35.918610L31.383118 44.272949L31.913696 43.762573L32.459702 42.333664L32.701294 40.823181L32.497009 40.115906Z" style="fill: rgb(0,0,0);stroke: none;"></path>
</svg>
