<?xml version="1.0"?>
<!-- Created by MetaPost 2.11 on 2026.02.09:1107 -->
<svg version="1.1" xmlns="http://www.w3.org/2000/svg" xmlns:xlink="http://www.w3.org/1999/xlink" width="47.342224" height="76.034515" viewBox="0 0 47.342224 76.034515">
<!-- Original BoundingBox: -2.151840 -38.017258 45.190384 38.017258 -->
  <path d="M45.190384 14.107071C45.190384 4.062546,35.293243 2.151840,23.671112 2.151840C9.954788 2.151840,2.151840 11.848480,2.151840 26.062302C2.151840 36.106827,12.048981 38.017532,23.671112 38.017532" style="stroke:rgb(0,0,0); stroke-width: 4.303680;stroke-linecap: round;stroke-linejoin: round;stroke-miterlimit: 10.000000;fill: none;"></path>
  <path d="M45.190384 61.927444C45.190384 71.971970,35.293243 73.882675,23.671112 73.882675C9.954788 73.882675,2.151840 64.186035,2.151840 49.972214C2.151840 39.927689,12.048981 38.016983,23.671112 38.016983" style="stroke:rgb(0,0,0); stroke-width: 4.303680;stroke-linecap: round;stroke-linejoin: round;stroke-miterlimit: 10.000000;fill: none;"></path>
  <path d="M28.512680 26.062302L27.882385 25.681915L26.360840 25.524338L24.839294 25.681915L24.209000 26.062302L24.209000 49.972214L24.839294 50.352600L26.360840 50.510178L27.882385 50.352600L28.512680 49.972214Z" style="fill: rgb(0,0,0);stroke: none;"></path>
</svg>
