<?xml version="1.0"?>
<!-- Created by MetaPost 2.11 on 2026.02.09:1107 -->
<svg version="1.1" xmlns="http://www.w3.org/2000/svg" xmlns:xlink="http://www.w3.org/1999/xlink" width="56.487732" height="76.035065" viewBox="0 0 56.487732 76.035065">
<!-- Original BoundingBox: -11.297348 -38.017258 45.190384 38.017807 -->
  <g transform="matrix(1.000000,-0.000000,-0.000000,-1.000000,0.000000,0.000000)">
    <path d="M54.335892 -61.927994C54.335892 -71.972519,44.438751 -73.883224,32.816620 -73.883224C19.100296 -73.883224,11.297348 -64.186584,11.297348 -49.972763C11.297348 -32.261185,11.297348 -19.863419,11.297348 -2.151840" style="stroke:rgb(0,0,0); stroke-width: 4.303680;stroke-linecap: round;stroke-linejoin: round;stroke-miterlimit: 10.000000;fill: none;"></path>
  </g>
  <path d="M56.487732 59.776154L55.857437 59.395767L54.335892 59.238190L52.814346 59.395767L52.184052 59.776154L52.184052 61.927994L52.814346 62.308380L54.335892 62.465958L55.857437 62.308380L56.487732 61.927994Z" style="fill: rgb(0,0,0);stroke: none;"></path>
  <path d="M0.537964 0.000549L0.157578 0.630844L0.000000 2.152390L0.157578 3.673935L0.537964 4.304230L22.056732 4.304230L22.437119 3.673935L22.594696 2.152390L22.437119 0.630844L22.056732 0.000549Z" style="fill: rgb(0,0,0);stroke: none;"></path>
  <g transform="matrix(1.000000,-0.000000,-0.000000,-1.000000,0.000000,0.000000)">
    <path d="M54.335892 -61.927994C54.335892 -71.972519,44.438751 -73.883224,32.816620 -73.883224C19.100296 -73.883224,11.297348 -64.186584,11.297348 -49.972763C11.297348 -32.261185,11.297348 -19.863419,11.297348 -2.151840" style="stroke:rgb(0,0,0); stroke-width: 4.303680;stroke-linecap: round;stroke-linejoin: round;stroke-miterlimit: 10.000000;fill: none;"></path>
  </g>
  <path d="M56.487732 59.776154L55.857437 59.395767L54.335892 59.238190L52.814346 59.395767L52.184052 59.776154L52.184052 61.927994L52.814346 62.308380L54.335892 62.465958L55.857437 62.308380L56.487732 61.927994Z" style="fill: rgb(0,0,0);stroke: none;"></path>
  <path d="M0.537964 0.000549L0.157578 0.630844L0.000000 2.152390L0.157578 3.673935L0.537964 4.304230L22.056732 4.304230L22.437119 3.673935L22.594696 2.152390L22.437119 0.630844L22.056732 0.000549Z" style="fill: rgb(0,0,0);stroke: none;"></path>
</svg>
