<?xml version="1.0"?>
<!-- Created by MetaPost 2.11 on 2026.02.09:1107 -->
<svg version="1.1" xmlns="http://www.w3.org/2000/svg" xmlns:xlink="http://www.w3.org/1999/xlink" width="54.873352" height="76.034515" viewBox="0 0 54.873352 76.034515">
<!-- Original BoundingBox: -43.576004 -38.017258 11.297348 38.017258 -->
  <path d="M43.576004 73.882675L43.576004 2.151840" style="stroke:rgb(0,0,0); stroke-width: 4.303680;stroke-linecap: round;stroke-linejoin: round;stroke-miterlimit: 10.000000;fill: none;"></path>
  <path d="M32.816620 71.730835L32.436234 72.361130L32.278656 73.882675L32.436234 75.404221L32.816620 76.034515L54.335388 76.034515L54.715775 75.404221L54.873352 73.882675L54.715775 72.361130L54.335388 71.730835Z" style="fill: rgb(0,0,0);stroke: none;"></path>
  <path d="M54.335388 4.303680L54.715775 3.673386L54.873352 2.151840L54.715775 0.630295L54.335388 -0.000000L0.537964 -0.000000L0.157578 0.630295L0.000000 2.151840L0.157578 3.673386L0.537964 4.303680Z" style="fill: rgb(0,0,0);stroke: none;"></path>
  <path d="M4.303680 2.151840L3.673386 1.771454L2.151840 1.613876L0.630295 1.771454L0.000000 2.151840C0.000000 5.671982,0.000000 8.136017,0.000000 11.656158L0.630295 12.036545L2.151840 12.194122L3.673386 12.036545L4.303680 11.656158C4.303680 8.136017,4.303680 5.671982,4.303680 2.151840Z" style="fill: rgb(0,0,0);stroke: none;"></path>
</svg>
