<?xml version="1.0"?>
<!-- Created by MetaPost 2.11 on 2026.02.09:1107 -->
<svg version="1.1" xmlns="http://www.w3.org/2000/svg" xmlns:xlink="http://www.w3.org/1999/xlink" width="78.304474" height="75.819321" viewBox="0 0 78.304474 75.819321">
<!-- Original BoundingBox: -67.007126 -37.802063 11.297348 38.017258 -->
  <path d="M64.855286 75.281357L65.485580 75.661743L67.007126 75.819321L68.528671 75.661743L69.158966 75.281357L69.158966 2.151840L68.528671 1.771454L67.007126 1.613876L65.485580 1.771454L64.855286 2.151840Z" style="fill: rgb(0,0,0);stroke: none;"></path>
  <path d="M56.247742 -0.000000L55.867355 0.630295L55.709778 2.151840L55.867355 3.673386L56.247742 4.303680L77.766510 4.303680L78.146896 3.673386L78.304474 2.151840L78.146896 0.630295L77.766510 -0.000000Z" style="fill: rgb(0,0,0);stroke: none;"></path>
  <path d="M32.474365 61.705383L31.947174 62.219223L31.410522 63.651688L31.178833 65.163742L31.387756 65.869659C31.848175 66.061554,32.377350 66.274811,32.953674 66.501526L33.480865 65.987686L34.017517 64.555222L34.249207 63.043167L34.040283 62.337250C33.463959 62.110535,32.934784 61.897278,32.474365 61.705383Z" style="fill: rgb(0,0,0);stroke: none;"></path>
  <path d="M32.805023 61.846298L32.284592 62.366989L31.766739 63.806351L31.554825 65.321304L31.772980 66.024429C32.451477 66.302292,33.249756 66.616791,34.111618 66.947403L34.632050 66.426712L35.149902 64.987350L35.361816 63.472397L35.143661 62.769272C34.281799 62.438660,33.483521 62.124161,32.805023 61.846298Z" style="fill: rgb(0,0,0);stroke: none;"></path>
  <path d="M33.771896 62.239441L33.258316 62.766891L32.759338 64.212906L32.567276 65.730484L32.794601 66.430695C33.570358 66.737625,34.440338 67.071869,35.348373 67.412872L35.861954 66.885422L36.360931 65.439407L36.552994 63.921829L36.325668 63.221619C35.417633 62.880615,34.547653 62.546371,33.771896 62.239441Z" style="fill: rgb(0,0,0);stroke: none;"></path>
  <path d="M34.855133 62.666656L34.348495 63.200775L33.868500 64.653198L33.696335 66.173157L33.932800 66.870331C34.782623 67.197845,35.701157 67.543335,36.632202 67.886276L37.138840 67.352158L37.618835 65.899734L37.791000 64.379776L37.554535 63.682602C36.623489 63.339661,35.704956 62.994171,34.855133 62.666656Z" style="fill: rgb(0,0,0);stroke: none;"></path>
  <path d="M36.023788 63.116638L35.524200 63.657364L35.063248 65.115952L34.910980 66.638046L35.156570 67.332062C36.057236 67.671677,37.001053 68.019928,37.931854 68.356277L38.431442 67.815552L38.892395 66.356964L39.044662 64.834869L38.799072 64.140854C37.868271 63.804504,36.924454 63.456253,36.023788 63.116638Z" style="fill: rgb(0,0,0);stroke: none;"></path>
  <path d="M37.245895 63.577728L36.753433 64.124939L36.311630 65.589432L36.179337 67.113373L36.433975 67.804108C37.362289 68.147339,38.308228 68.489868,39.215607 68.811172L39.708069 68.263962L40.149872 66.799469L40.282166 65.275528L40.027527 64.584793C39.120148 64.263489,38.174210 63.920959,37.245895 63.577728Z" style="fill: rgb(0,0,0);stroke: none;"></path>
  <path d="M38.489792 64.038300L38.004532 64.591904L37.581924 66.062042L37.469559 67.587601L37.733231 68.274933C38.665939 68.613281,39.590744 68.941605,40.451431 69.239349L40.936691 68.685745L41.359299 67.215607L41.471664 65.690048L41.207993 65.002716C40.347305 64.704971,39.422501 64.376648,38.489792 64.038300Z" style="fill: rgb(0,0,0);stroke: none;"></path>
  <path d="M39.723816 64.486771L39.245834 65.046677L38.842499 66.522247L38.750107 68.049149L39.022736 68.732986C39.936661 69.057968,40.817123 69.363602,41.607941 69.629318L42.085922 69.069412L42.489258 67.593842L42.581650 66.066940L42.309021 65.383102C41.518204 65.117386,40.637741 64.811752,39.723816 64.486771Z" style="fill: rgb(0,0,0);stroke: none;"></path>
  <path d="M40.915909 64.911499L40.445312 65.477615L40.061340 66.958328L39.988953 68.486313L40.270523 69.166504C41.142426 69.469650,41.955338 69.744095,42.653076 69.969315L43.123672 69.403198L43.507645 67.922485L43.580032 66.394501L43.298462 65.714310C42.600723 65.489090,41.787811 65.214645,40.915909 64.911499Z" style="fill: rgb(0,0,0);stroke: none;"></path>
  <path d="M42.035202 65.301147L41.572052 65.873383L41.207489 67.358994L41.155121 68.887787L41.445572 69.564240C42.032242 69.762650,42.574203 69.940933,43.049835 70.091202C43.406006 70.203735,43.782394 70.318695,44.176620 70.435562L44.639771 69.863327L45.004333 68.377716L45.056702 66.848923L44.766251 66.172470C44.372025 66.055603,43.995636 65.940643,43.639465 65.828110C43.163834 65.677841,42.621872 65.499557,42.035202 65.301147Z" style="fill: rgb(0,0,0);stroke: none;"></path>
  <path d="M43.049667 65.643982L42.594040 66.222229L42.248947 67.712479L42.216568 69.241821L42.515854 69.914429C42.711716 69.978241,42.899399 70.038528,43.077744 70.094879C44.027618 70.394974,45.121246 70.712372,46.313599 71.037140L46.769226 70.458893L47.114319 68.968643L47.146698 67.439301L46.847412 66.766693C45.655060 66.441925,44.561432 66.124527,43.611557 65.824432C43.433212 65.768082,43.245529 65.707794,43.049667 65.643982Z" style="fill: rgb(0,0,0);stroke: none;"></path>
  <path d="M44.322403 66.049316L43.874374 66.633484L43.548828 68.128128L43.536484 69.657776L43.844528 70.326416C45.245560 70.750092,46.897095 71.201782,48.682068 71.655624L49.130096 71.071457L49.455643 69.576813L49.467987 68.047165L49.159943 67.378525C47.374969 66.924683,45.723434 66.472992,44.322403 66.049316Z" style="fill: rgb(0,0,0);stroke: none;"></path>
  <path d="M46.349258 66.639099L45.908920 67.229065L45.602966 68.727829L45.610641 70.257477L45.927414 70.922028C47.531952 71.365814,49.333771 71.825867,51.215820 72.276321L51.656158 71.686356L51.962112 70.187592L51.954437 68.657944L51.637665 67.993393C49.755615 67.542938,47.953796 67.082886,46.349258 66.639099Z" style="fill: rgb(0,0,0);stroke: none;"></path>
  <path d="M48.619934 67.249176L48.187347 67.844879L47.901047 69.347519L47.928772 70.876953L48.254211 71.537292C50.013931 71.990540,51.917755 72.448288,53.848618 72.884705L54.281204 72.289001L54.567505 70.786362L54.539780 69.256927L54.214340 68.596588C52.283478 68.160172,50.379654 67.702423,48.619934 67.249176Z" style="fill: rgb(0,0,0);stroke: none;"></path>
  <path d="M51.069931 67.865433L50.645203 68.466736L50.378571 69.972992L50.426300 71.501923L50.760361 72.157944C52.626846 72.609940,54.584229 73.054703,56.515442 73.466370L56.940170 72.865067L57.206802 71.358810L57.159073 69.829880L56.825012 69.173859C54.893799 68.762192,52.936417 68.317429,51.069931 67.865433Z" style="fill: rgb(0,0,0);stroke: none;"></path>
  <path d="M53.632568 68.473068L53.215729 69.079865L52.968857 70.589508L53.036591 72.117676L53.379211 72.769272C55.304214 73.209351,57.266876 73.630447,59.150162 74.006683L59.567001 73.399887L59.813873 71.890244L59.746140 70.362076L59.403519 69.710480C57.520233 69.334244,55.557571 68.913147,53.632568 68.473068Z" style="fill: rgb(0,0,0);stroke: none;"></path>
  <path d="M56.241882 69.057526L55.833023 69.669739L55.605942 71.182480L55.693680 72.709625L56.044800 73.356689C57.979828 73.774155,59.899307 74.160873,61.686203 74.490997L62.095062 73.878784L62.322144 72.366043L62.234406 70.838898L61.883286 70.191833C60.096390 69.861710,58.176910 69.474991,56.241882 69.057526Z" style="fill: rgb(0,0,0);stroke: none;"></path>
  <path d="M58.831940 69.604233L58.431122 70.221741L58.223862 71.737335L58.331573 73.263214L58.691132 73.905624C60.587860 74.289795,62.415848 74.631470,64.058044 74.904800L64.458862 74.287292L64.666122 72.771698L64.558411 71.245819L64.198853 70.603409C62.556656 70.330078,60.728668 69.988403,58.831940 69.604233Z" style="fill: rgb(0,0,0);stroke: none;"></path>
  <path d="M61.335999 70.098495L60.943314 70.721191L60.755890 72.239349L60.883560 73.763672L61.251495 74.401321C63.061554 74.741531,64.749680 75.027496,66.198822 75.233368L66.591507 74.610672L66.778931 73.092514L66.651260 71.568192L66.283325 70.930542C64.834183 70.724670,63.146057 70.438705,61.335999 70.098495Z" style="fill: rgb(0,0,0);stroke: none;"></path>
  <path d="M63.689636 70.526001L63.305130 71.153809L63.137604 72.674286L63.285202 74.196838L63.661469 74.829620C64.879684 75.037292,66.005264 75.210052,66.993164 75.337967L67.377670 74.710159L67.545197 73.189682L67.397598 71.667130L67.021332 71.034348C66.033432 70.906433,64.907852 70.733673,63.689636 70.526001Z" style="fill: rgb(0,0,0);stroke: none;"></path>
  <path d="M1.295532 61.705383L0.768341 62.219223L0.231689 63.651688L0.000000 65.163742L0.208923 65.869659C0.669342 66.061554,1.198517 66.274811,1.774841 66.501526L2.302032 65.987686L2.838684 64.555222L3.070374 63.043167L2.861450 62.337250C2.285126 62.110535,1.755951 61.897278,1.295532 61.705383Z" style="fill: rgb(0,0,0);stroke: none;"></path>
  <path d="M1.626190 61.846298L1.105759 62.366989L0.587906 63.806351L0.375992 65.321304L0.594147 66.024429C1.272644 66.302292,2.070923 66.616791,2.932785 66.947403L3.453217 66.426712L3.971069 64.987350L4.182983 63.472397L3.964828 62.769272C3.102966 62.438660,2.304688 62.124161,1.626190 61.846298Z" style="fill: rgb(0,0,0);stroke: none;"></path>
  <path d="M2.593063 62.239441L2.079483 62.766891L1.580505 64.212906L1.388443 65.730484L1.615768 66.430695C2.391525 66.737625,3.261505 67.071869,4.169540 67.412872L4.683121 66.885422L5.182098 65.439407L5.374161 63.921829L5.146835 63.221619C4.238800 62.880615,3.368820 62.546371,2.593063 62.239441Z" style="fill: rgb(0,0,0);stroke: none;"></path>
  <path d="M3.676300 62.666656L3.169662 63.200775L2.689667 64.653198L2.517502 66.173157L2.753967 66.870331C3.603790 67.197845,4.522324 67.543335,5.453369 67.886276L5.960007 67.352158L6.440002 65.899734L6.612167 64.379776L6.375702 63.682602C5.444656 63.339661,4.526123 62.994171,3.676300 62.666656Z" style="fill: rgb(0,0,0);stroke: none;"></path>
  <path d="M4.844955 63.116638L4.345367 63.657364L3.884415 65.115952L3.732147 66.638046L3.977737 67.332062C4.878403 67.671677,5.822220 68.019928,6.753021 68.356277L7.252609 67.815552L7.713562 66.356964L7.865829 64.834869L7.620239 64.140854C6.689438 63.804504,5.745621 63.456253,4.844955 63.116638Z" style="fill: rgb(0,0,0);stroke: none;"></path>
  <path d="M6.067062 63.577728L5.574600 64.124939L5.132797 65.589432L5.000504 67.113373L5.255142 67.804108C6.183456 68.147339,7.129395 68.489868,8.036774 68.811172L8.529236 68.263962L8.971039 66.799469L9.103333 65.275528L8.848694 64.584793C7.941315 64.263489,6.995377 63.920959,6.067062 63.577728Z" style="fill: rgb(0,0,0);stroke: none;"></path>
  <path d="M7.310959 64.038300L6.825699 64.591904L6.403091 66.062042L6.290726 67.587601L6.554398 68.274933C7.487106 68.613281,8.411911 68.941605,9.272598 69.239349L9.757858 68.685745L10.180466 67.215607L10.292831 65.690048L10.029160 65.002716C9.168472 64.704971,8.243668 64.376648,7.310959 64.038300Z" style="fill: rgb(0,0,0);stroke: none;"></path>
  <path d="M8.544983 64.486771L8.067001 65.046677L7.663666 66.522247L7.571274 68.049149L7.843903 68.732986C8.757828 69.057968,9.638290 69.363602,10.429108 69.629318L10.907089 69.069412L11.310425 67.593842L11.402817 66.066940L11.130188 65.383102C10.339371 65.117386,9.458908 64.811752,8.544983 64.486771Z" style="fill: rgb(0,0,0);stroke: none;"></path>
  <path d="M9.737076 64.911499L9.266479 65.477615L8.882507 66.958328L8.810120 68.486313L9.091690 69.166504C9.963593 69.469650,10.776505 69.744095,11.474243 69.969315L11.944839 69.403198L12.328812 67.922485L12.401199 66.394501L12.119629 65.714310C11.421890 65.489090,10.608978 65.214645,9.737076 64.911499Z" style="fill: rgb(0,0,0);stroke: none;"></path>
  <path d="M10.856369 65.301147L10.393219 65.873383L10.028656 67.358994L9.976288 68.887787L10.266739 69.564240C10.853409 69.762650,11.395370 69.940933,11.871002 70.091202C12.227173 70.203735,12.603561 70.318695,12.997787 70.435562L13.460938 69.863327L13.825500 68.377716L13.877869 66.848923L13.587418 66.172470C13.193192 66.055603,12.816803 65.940643,12.460632 65.828110C11.985001 65.677841,11.443039 65.499557,10.856369 65.301147Z" style="fill: rgb(0,0,0);stroke: none;"></path>
  <path d="M11.870834 65.643982L11.415207 66.222229L11.070114 67.712479L11.037735 69.241821L11.337021 69.914429C11.532883 69.978241,11.720566 70.038528,11.898911 70.094879C12.848785 70.394974,13.942413 70.712372,15.134766 71.037140L15.590393 70.458893L15.935486 68.968643L15.967865 67.439301L15.668579 66.766693C14.476227 66.441925,13.382599 66.124527,12.432724 65.824432C12.254379 65.768082,12.066696 65.707794,11.870834 65.643982Z" style="fill: rgb(0,0,0);stroke: none;"></path>
  <path d="M13.143570 66.049316L12.695541 66.633484L12.369995 68.128128L12.357651 69.657776L12.665695 70.326416C14.066727 70.750092,15.718262 71.201782,17.503235 71.655624L17.951263 71.071457L18.276810 69.576813L18.289154 68.047165L17.981110 67.378525C16.196136 66.924683,14.544601 66.472992,13.143570 66.049316Z" style="fill: rgb(0,0,0);stroke: none;"></path>
  <path d="M15.170425 66.639099L14.730087 67.229065L14.424133 68.727829L14.431808 70.257477L14.748581 70.922028C16.353119 71.365814,18.154938 71.825867,20.036987 72.276321L20.477325 71.686356L20.783279 70.187592L20.775604 68.657944L20.458832 67.993393C18.576782 67.542938,16.774963 67.082886,15.170425 66.639099Z" style="fill: rgb(0,0,0);stroke: none;"></path>
  <path d="M17.441101 67.249176L17.008514 67.844879L16.722214 69.347519L16.749939 70.876953L17.075378 71.537292C18.835098 71.990540,20.738922 72.448288,22.669785 72.884705L23.102371 72.289001L23.388672 70.786362L23.360947 69.256927L23.035507 68.596588C21.104645 68.160172,19.200821 67.702423,17.441101 67.249176Z" style="fill: rgb(0,0,0);stroke: none;"></path>
  <path d="M19.891098 67.865433L19.466370 68.466736L19.199738 69.972992L19.247467 71.501923L19.581528 72.157944C21.448013 72.609940,23.405396 73.054703,25.336609 73.466370L25.761337 72.865067L26.027969 71.358810L25.980240 69.829880L25.646179 69.173859C23.714966 68.762192,21.757584 68.317429,19.891098 67.865433Z" style="fill: rgb(0,0,0);stroke: none;"></path>
  <path d="M22.453735 68.473068L22.036896 69.079865L21.790024 70.589508L21.857758 72.117676L22.200378 72.769272C24.125381 73.209351,26.088043 73.630447,27.971329 74.006683L28.388168 73.399887L28.635040 71.890244L28.567307 70.362076L28.224686 69.710480C26.341400 69.334244,24.378738 68.913147,22.453735 68.473068Z" style="fill: rgb(0,0,0);stroke: none;"></path>
  <path d="M25.063049 69.057526L24.654190 69.669739L24.427109 71.182480L24.514847 72.709625L24.865967 73.356689C26.800995 73.774155,28.720474 74.160873,30.507370 74.490997L30.916229 73.878784L31.143311 72.366043L31.055573 70.838898L30.704453 70.191833C28.917557 69.861710,26.998077 69.474991,25.063049 69.057526Z" style="fill: rgb(0,0,0);stroke: none;"></path>
  <path d="M27.653107 69.604233L27.252289 70.221741L27.045029 71.737335L27.152740 73.263214L27.512299 73.905624C29.409027 74.289795,31.237015 74.631470,32.879211 74.904800L33.280029 74.287292L33.487289 72.771698L33.379578 71.245819L33.020020 70.603409C31.377823 70.330078,29.549835 69.988403,27.653107 69.604233Z" style="fill: rgb(0,0,0);stroke: none;"></path>
  <path d="M30.157166 70.098495L29.764481 70.721191L29.577057 72.239349L29.704727 73.763672L30.072662 74.401321C31.882721 74.741531,33.570847 75.027496,35.019989 75.233368L35.412674 74.610672L35.600098 73.092514L35.472427 71.568192L35.104492 70.930542C33.655350 70.724670,31.967224 70.438705,30.157166 70.098495Z" style="fill: rgb(0,0,0);stroke: none;"></path>
  <path d="M32.510803 70.526001L32.126297 71.153809L31.958771 72.674286L32.106369 74.196838L32.482635 74.829620C33.700851 75.037292,34.826431 75.210052,35.814331 75.337967L36.198837 74.710159L36.366364 73.189682L36.218765 71.667130L35.842499 71.034348C34.854599 70.906433,33.729019 70.733673,32.510803 70.526001Z" style="fill: rgb(0,0,0);stroke: none;"></path>
  <path d="M32.460739 61.701874L31.936920 62.219147L31.409653 63.655106L31.187836 65.168640L31.401382 65.873169L32.024994 67.376968L32.548813 66.859695L33.076080 65.423737L33.297897 63.910202L33.084351 63.205673Z" style="fill: rgb(0,0,0);stroke: none;"></path>
  <path d="M32.561844 62.064606L32.051743 62.595413L31.562225 64.044662L31.380112 65.563461L31.612015 66.262177L32.469452 68.329941L32.979553 67.799133L33.469070 66.349884L33.651184 64.831085L33.419281 64.132370Z" style="fill: rgb(0,0,0);stroke: none;"></path>
  <path d="M32.896454 62.992813L32.400421 63.536804L31.949036 64.998367L31.806763 66.521423L32.056885 67.213821L32.914322 69.281540L33.410355 68.737549L33.861740 67.275986L34.004013 65.752930L33.753891 65.060532Z" style="fill: rgb(0,0,0);stroke: none;"></path>
  <path d="M33.230850 63.922501L32.749222 64.479263L32.336258 65.952148L32.233902 67.478378L32.502060 68.163986L33.359451 70.231674L33.841080 69.674911L34.254044 68.202026L34.356400 66.675797L34.088242 65.990189Z" style="fill: rgb(0,0,0);stroke: none;"></path>
  <path d="M33.850937 65.531815L33.564926 64.853455L33.098038 65.422653L32.723755 66.905838L32.661362 68.434250L33.518753 70.501923L33.804764 71.180283L34.271652 70.611084L34.645935 69.127899L34.708328 67.599487Z" style="fill: rgb(0,0,0);stroke: none;"></path>
  <path d="M34.202469 66.456665L33.898819 65.786026L33.446976 66.367249L33.111649 67.859726L33.089310 69.389252L33.946747 71.456985L34.250397 72.127625L34.702240 71.546402L35.037567 70.053925L35.059906 68.524399Z" style="fill: rgb(0,0,0);stroke: none;"></path>
  <path d="M34.553604 67.382355L34.232498 66.719910L33.796036 67.312744L33.499878 68.813492L33.517563 70.343079L34.375000 72.410797L34.696106 73.073242L35.132568 72.480408L35.428726 70.979660L35.411041 69.450073Z" style="fill: rgb(0,0,0);stroke: none;"></path>
  <path d="M34.904449 68.309219L34.566101 67.655396L34.145294 68.259476L33.888550 69.767456L33.946289 71.296066L34.803726 73.363785L35.142075 74.017609L35.562881 73.413528L35.819626 71.905548L35.761887 70.376938Z" style="fill: rgb(0,0,0);stroke: none;"></path>
  <path d="M35.254944 69.237152L34.899597 68.592407L34.494751 69.207275L34.277557 70.721451L34.375275 72.247986L35.232712 74.315704L35.588058 74.960449L35.992905 74.345581L36.210098 72.831406L36.112381 71.304871Z" style="fill: rgb(0,0,0);stroke: none;"></path>
  <path d="M35.605072 70.165924L35.232971 69.530716L34.844360 70.155975L34.666885 71.675308L34.804535 73.198792L35.428146 74.702591L35.800247 75.337799L36.188858 74.712540L36.366333 73.193207L36.228683 71.669724Z" style="fill: rgb(0,0,0);stroke: none;"></path>
</svg>
