<?xml version="1.0"?>
<!-- Created by MetaPost 2.11 on 2026.02.09:1107 -->
<svg version="1.1" xmlns="http://www.w3.org/2000/svg" xmlns:xlink="http://www.w3.org/1999/xlink" width="85.000336" height="76.034515" viewBox="0 0 85.000336 76.034515">
<!-- Original BoundingBox: -42.500168 -38.017258 42.500168 38.017258 -->
  <path d="M42.500168 2.151840C28.758850 2.151840,18.291168 7.579407,18.291168 20.084549C18.291168 32.589691,28.758850 38.017258,42.500168 38.017258C56.241486 38.017258,66.709167 43.444824,66.709167 55.949966C66.709167 68.455109,56.241486 73.882675,42.500168 73.882675C28.758850 73.882675,18.291168 68.455109,18.291168 55.949966C18.291168 43.444824,28.758850 38.017258,42.500168 38.017258C56.241486 38.017258,66.709167 32.589691,66.709167 20.084549C66.709167 8.829987,54.867264 2.151840,42.500168 2.151840Z" style="stroke:rgb(0,0,0); stroke-width: 4.303680;stroke-linecap: round;stroke-linejoin: round;stroke-miterlimit: 10.000000;fill: none;"></path>
  <path d="M42.500168 38.017258C63.633713 38.017258,82.848495 37.784241,82.848495 55.949966" style="stroke:rgb(0,0,0); stroke-width: 4.303680;stroke-linecap: round;stroke-linejoin: round;stroke-miterlimit: 10.000000;fill: none;"></path>
  <path d="M42.500168 38.017258C21.366623 38.017258,2.151840 38.250275,2.151840 20.084549" style="stroke:rgb(0,0,0); stroke-width: 4.303680;stroke-linecap: round;stroke-linejoin: round;stroke-miterlimit: 10.000000;fill: none;"></path>
  <path d="M4.303680 17.932709L3.673386 17.552322L2.151840 17.394745L0.630295 17.552322L0.000000 17.932709L0.000000 20.084549L0.630295 20.464935L2.151840 20.622513L3.673386 20.464935L4.303680 20.084549Z" style="fill: rgb(0,0,0);stroke: none;"></path>
  <path d="M80.696655 58.101807L81.326950 58.482193L82.848495 58.639771L84.370041 58.482193L85.000336 58.101807L85.000336 55.949966L84.370041 55.569580L82.848495 55.412003L81.326950 55.569580L80.696655 55.949966Z" style="fill: rgb(0,0,0);stroke: none;"></path>
</svg>
