<?xml version="1.0"?>
<!-- Created by MetaPost 2.11 on 2026.02.09:1107 -->
<svg version="1.1" xmlns="http://www.w3.org/2000/svg" xmlns:xlink="http://www.w3.org/1999/xlink" width="60.791336" height="76.034515" viewBox="0 0 60.791336 76.034515">
<!-- Original BoundingBox: -34.430496 -38.017258 26.360840 38.017258 -->
  <g transform="matrix(1.000000,-0.000000,-0.000000,-1.000000,0.000000,0.000000)">
    <path d="M34.430496 -2.151840L34.430496 -55.949966" style="stroke:rgb(0,0,0); stroke-width: 4.303680;stroke-linecap: round;stroke-linejoin: round;stroke-miterlimit: 10.000000;fill: none;"></path>
  </g>
  <path d="M23.671112 -0.000000L23.290726 0.630295L23.133148 2.151840L23.290726 3.673386L23.671112 4.303680L45.189880 4.303680L45.570267 3.673386L45.727844 2.151840L45.570267 0.630295L45.189880 -0.000000Z" style="fill: rgb(0,0,0);stroke: none;"></path>
  <g transform="matrix(1.000000,-0.000000,-0.000000,-1.000000,0.000000,0.000000)">
    <path d="M34.430496 -55.949966C34.430496 -66.610260,28.578339 -73.882675,18.291168 -73.882675C8.003998 -73.882675,2.151840 -66.610260,2.151840 -55.949966C2.151840 -40.883301,16.997437 -38.017258,34.430496 -38.017258C49.108719 -38.017258,58.639496 -46.839157,58.639496 -61.329559" style="stroke:rgb(0,0,0); stroke-width: 4.303680;stroke-linecap: round;stroke-linejoin: round;stroke-miterlimit: 10.000000;fill: none;"></path>
  </g>
  <path d="M60.791336 61.329559L60.161041 60.949173L58.639496 60.791595L57.117950 60.949173L56.487656 61.329559L56.487656 74.420639L57.117950 74.801025L58.639496 74.958603L60.161041 74.801025L60.791336 74.420639Z" style="fill: rgb(0,0,0);stroke: none;"></path>
  <g transform="matrix(1.000000,-0.000000,-0.000000,-1.000000,0.000000,0.000000)">
    <path d="M34.430496 -2.151840L34.430496 -55.949966" style="stroke:rgb(0,0,0); stroke-width: 4.303680;stroke-linecap: round;stroke-linejoin: round;stroke-miterlimit: 10.000000;fill: none;"></path>
  </g>
  <path d="M23.671112 -0.000000L23.290726 0.630295L23.133148 2.151840L23.290726 3.673386L23.671112 4.303680L45.189880 4.303680L45.570267 3.673386L45.727844 2.151840L45.570267 0.630295L45.189880 -0.000000Z" style="fill: rgb(0,0,0);stroke: none;"></path>
  <g transform="matrix(1.000000,-0.000000,-0.000000,-1.000000,0.000000,0.000000)">
    <path d="M34.430496 -55.949966C34.430496 -66.610260,28.578339 -73.882675,18.291168 -73.882675C8.003998 -73.882675,2.151840 -66.610260,2.151840 -55.949966C2.151840 -40.883301,16.997437 -38.017258,34.430496 -38.017258C49.108719 -38.017258,58.639496 -46.839157,58.639496 -61.329559" style="stroke:rgb(0,0,0); stroke-width: 4.303680;stroke-linecap: round;stroke-linejoin: round;stroke-miterlimit: 10.000000;fill: none;"></path>
  </g>
  <path d="M60.791336 61.329559L60.161041 60.949173L58.639496 60.791595L57.117950 60.949173L56.487656 61.329559L56.487656 74.420639L57.117950 74.801025L58.639496 74.958603L60.161041 74.801025L60.791336 74.420639Z" style="fill: rgb(0,0,0);stroke: none;"></path>
</svg>
