<?xml version="1.0"?>
<!-- Created by MetaPost 2.11 on 2026.02.09:1107 -->
<svg version="1.1" xmlns="http://www.w3.org/2000/svg" xmlns:xlink="http://www.w3.org/1999/xlink" width="47.342224" height="73.779877" viewBox="0 0 47.342224 73.779877">
<!-- Original BoundingBox: -23.671112 -35.762619 23.671112 38.017258 -->
  <path d="M2.151840 2.151840L45.190384 2.151840" style="stroke:rgb(0,0,0); stroke-width: 4.303680;stroke-linecap: round;stroke-linejoin: round;stroke-miterlimit: 10.000000;fill: none;"></path>
  <path d="M45.190384 2.151840L19.366959 71.013916" style="stroke:rgb(0,0,0); stroke-width: 4.303680;stroke-linecap: round;stroke-linejoin: round;stroke-miterlimit: 10.000000;fill: none;"></path>
  <path d="M4.303680 2.151840L3.673386 1.771454L2.151840 1.613876L0.630295 1.771454L0.000000 2.151840C0.000000 6.579636,0.000000 9.679001,0.000000 14.106796L0.630295 14.487183L2.151840 14.644760L3.673386 14.487183L4.303680 14.106796C4.303680 9.679001,4.303680 6.579636,4.303680 2.151840Z" style="fill: rgb(0,0,0);stroke: none;"></path>
  <path d="M21.180252 72.274124L20.666412 71.746933L19.233948 71.210281L17.721893 70.978592L17.015976 71.187515L16.970657 71.308411L17.484497 71.835602L18.916962 72.372253L20.429016 72.603943L21.134933 72.395020Z" style="fill: rgb(0,0,0);stroke: none;"></path>
  <path d="M21.175827 72.277054L20.655136 71.756622L19.215775 71.238770L17.700821 71.026855L16.997696 71.245010L16.935349 71.411224L17.456039 71.931656L18.895401 72.449509L20.410355 72.661423L21.113480 72.443268Z" style="fill: rgb(0,0,0);stroke: none;"></path>
  <path d="M21.154053 72.325256L20.626602 71.811676L19.180588 71.312698L17.663010 71.120636L16.962799 71.347961L16.900452 71.514175L17.427902 72.027756L18.873917 72.526733L20.391495 72.718796L21.091705 72.491470Z" style="fill: rgb(0,0,0);stroke: none;"></path>
  <path d="M21.131973 72.373306L20.597855 71.866669L19.145432 71.386673L17.625473 71.214508L16.928299 71.450974L16.865952 71.617188L17.400070 72.123825L18.852493 72.603821L20.372452 72.775986L21.069626 72.539520Z" style="fill: rgb(0,0,0);stroke: none;"></path>
  <path d="M21.109512 72.421326L20.568787 71.921738L19.110199 71.460785L17.588104 71.308517L16.894089 71.554108L16.831741 71.720322L17.372467 72.219910L18.831055 72.680862L20.353149 72.833130L21.047165 72.587540Z" style="fill: rgb(0,0,0);stroke: none;"></path>
  <path d="M21.086655 72.469208L20.539444 71.976746L19.074951 71.534943L17.551010 71.402649L16.860275 71.657288L16.797928 71.823502L17.345139 72.315964L18.809631 72.757767L20.333572 72.890060L21.024307 72.635422Z" style="fill: rgb(0,0,0);stroke: none;"></path>
  <path d="M21.063446 72.517105L20.509842 72.031845L19.039703 71.609238L17.514145 71.496872L16.826813 71.760544L16.764465 71.926758L17.318069 72.412018L18.788208 72.834625L20.313766 72.946991L21.001099 72.683319Z" style="fill: rgb(0,0,0);stroke: none;"></path>
  <path d="M21.039902 72.564926L20.479996 72.086945L19.004425 71.683609L17.477524 71.591217L16.793686 71.863846L16.731339 72.030060L17.291245 72.508041L18.766815 72.911377L20.293716 73.003769L20.977554 72.731140Z" style="fill: rgb(0,0,0);stroke: none;"></path>
  <path d="M21.015961 72.612625L20.449844 72.142029L18.969131 71.758057L17.441147 71.685669L16.760956 71.967239L16.698608 72.133453L17.264725 72.604050L18.745438 72.988022L20.273422 73.060410L20.953613 72.778839Z" style="fill: rgb(0,0,0);stroke: none;"></path>
  <path d="M20.991669 72.660309L20.419434 72.197159L18.933823 71.832596L17.405029 71.780228L16.728577 72.070679L16.666229 72.236893L17.238464 72.700043L18.724075 73.064606L20.252869 73.116974L20.929321 72.826523Z" style="fill: rgb(0,0,0);stroke: none;"></path>
  <path d="M20.967010 72.707947L20.388763 72.252319L18.898514 71.907227L17.369171 71.874847L16.696564 72.174133L16.634216 72.340347L17.212463 72.795975L18.702713 73.141068L20.232056 73.173447L20.904663 72.874161Z" style="fill: rgb(0,0,0);stroke: none;"></path>
  <path d="M20.942001 72.755539L20.357834 72.307510L18.863190 71.981964L17.333542 71.969620L16.664902 72.277664L16.602554 72.443878L17.186722 72.891907L18.681366 73.217453L20.211014 73.229797L20.879654 72.921753Z" style="fill: rgb(0,0,0);stroke: none;"></path>
  <path d="M20.916580 72.803101L20.326614 72.362762L18.827850 72.056808L17.298203 72.064484L16.633652 72.381256L16.571304 72.547470L17.161270 72.987808L18.660034 73.293762L20.189682 73.286087L20.854233 72.969315Z" style="fill: rgb(0,0,0);stroke: none;"></path>
  <path d="M20.890839 72.850571L20.295135 72.417984L18.792496 72.131683L17.263062 72.159409L16.602722 72.484848L16.540375 72.651062L17.136078 73.083649L18.638718 73.369949L20.168152 73.342224L20.828491 73.016785Z" style="fill: rgb(0,0,0);stroke: none;"></path>
  <path d="M20.864700 72.898041L20.263397 72.473312L18.757141 72.206680L17.228210 72.254410L16.572189 72.588470L16.509842 72.754684L17.111145 73.179413L18.617401 73.446045L20.146332 73.398315L20.802353 73.064255Z" style="fill: rgb(0,0,0);stroke: none;"></path>
  <path d="M20.838211 72.945496L20.231415 72.528656L18.721771 72.281784L17.193604 72.349518L16.542007 72.692139L16.479660 72.858353L17.086456 73.275192L18.596100 73.522064L20.124268 73.454330L20.775864 73.111710Z" style="fill: rgb(0,0,0);stroke: none;"></path>
  <path d="M20.811356 72.992935L20.199142 72.584076L18.686401 72.356995L17.159256 72.444733L16.512192 72.795853L16.449844 72.962067L17.062057 73.370926L18.574799 73.598007L20.101944 73.510269L20.749008 73.159149Z" style="fill: rgb(0,0,0);stroke: none;"></path>
  <path d="M20.784134 73.040329L20.166626 72.639511L18.651031 72.432251L17.125153 72.539963L16.482742 72.899521L16.420395 73.065735L17.037903 73.466553L18.553497 73.673813L20.079376 73.566101L20.721786 73.206543Z" style="fill: rgb(0,0,0);stroke: none;"></path>
  <path d="M20.756516 73.087723L20.133820 72.695038L18.615662 72.507614L17.091339 72.635284L16.453690 73.003220L16.391388 73.169464L17.014084 73.562149L18.532242 73.749573L20.056564 73.621902L20.694214 73.253967Z" style="fill: rgb(0,0,0);stroke: none;"></path>
  <path d="M20.728577 73.135117L20.100769 72.750610L18.580292 72.583084L17.057739 72.730682L16.424957 73.106949L16.379639 73.227844L17.007446 73.612350L18.527924 73.779877L20.050476 73.632278L20.683258 73.256012Z" style="fill: rgb(0,0,0);stroke: none;"></path>
</svg>
