<?xml version="1.0"?>
<!-- Created by MetaPost 2.11 on 2026.02.09:1107 -->
<svg version="1.1" xmlns="http://www.w3.org/2000/svg" xmlns:xlink="http://www.w3.org/1999/xlink" width="47.342224" height="76.034515" viewBox="0 0 47.342224 76.034515">
<!-- Original BoundingBox: -45.190384 -38.017258 2.151840 38.017258 -->
  <g transform="matrix(-1.000000,-0.000000,-0.000000,1.000000,0.000000,0.000000)">
    <path d="M-2.151840 14.107071C-2.151840 4.062546,-12.048981 2.151840,-23.671112 2.151840C-37.387436 2.151840,-45.190384 11.848480,-45.190384 26.062302C-45.190384 36.106827,-35.293243 38.017532,-23.671112 38.017532" style="stroke:rgb(0,0,0); stroke-width: 4.303680;stroke-linecap: round;stroke-linejoin: round;stroke-miterlimit: 10.000000;fill: none;"></path>
  </g>
  <g transform="matrix(-1.000000,-0.000000,-0.000000,1.000000,0.000000,0.000000)">
    <path d="M-2.151840 61.927444C-2.151840 71.971970,-12.048981 73.882675,-23.671112 73.882675C-37.387436 73.882675,-45.190384 64.186035,-45.190384 49.972214C-45.190384 39.927689,-35.293243 38.016983,-23.671112 38.016983" style="stroke:rgb(0,0,0); stroke-width: 4.303680;stroke-linecap: round;stroke-linejoin: round;stroke-miterlimit: 10.000000;fill: none;"></path>
  </g>
  <path d="M23.133224 26.062302L22.502930 25.681915L20.981384 25.524338L19.459839 25.681915L18.829544 26.062302L18.829544 49.972214L19.459839 50.352600L20.981384 50.510178L22.502930 50.352600L23.133224 49.972214Z" style="fill: rgb(0,0,0);stroke: none;"></path>
  <g transform="matrix(-1.000000,-0.000000,-0.000000,1.000000,0.000000,0.000000)">
    <path d="M-2.151840 14.107071C-2.151840 4.062546,-12.048981 2.151840,-23.671112 2.151840C-37.387436 2.151840,-45.190384 11.848480,-45.190384 26.062302C-45.190384 36.106827,-35.293243 38.017532,-23.671112 38.017532" style="stroke:rgb(0,0,0); stroke-width: 4.303680;stroke-linecap: round;stroke-linejoin: round;stroke-miterlimit: 10.000000;fill: none;"></path>
  </g>
  <g transform="matrix(-1.000000,-0.000000,-0.000000,1.000000,0.000000,0.000000)">
    <path d="M-2.151840 61.927444C-2.151840 71.971970,-12.048981 73.882675,-23.671112 73.882675C-37.387436 73.882675,-45.190384 64.186035,-45.190384 49.972214C-45.190384 39.927689,-35.293243 38.016983,-23.671112 38.016983" style="stroke:rgb(0,0,0); stroke-width: 4.303680;stroke-linecap: round;stroke-linejoin: round;stroke-miterlimit: 10.000000;fill: none;"></path>
  </g>
  <path d="M23.133224 26.062302L22.502930 25.681915L20.981384 25.524338L19.459839 25.681915L18.829544 26.062302L18.829544 49.972214L19.459839 50.352600L20.981384 50.510178L22.502930 50.352600L23.133224 49.972214Z" style="fill: rgb(0,0,0);stroke: none;"></path>
</svg>
