<?xml version="1.0"?>
<!-- Created by MetaPost 2.11 on 2026.02.09:1107 -->
<svg version="1.1" xmlns="http://www.w3.org/2000/svg" xmlns:xlink="http://www.w3.org/1999/xlink" width="56.487732" height="76.034515" viewBox="0 0 56.487732 76.034515">
<!-- Original BoundingBox: -2.151840 -38.017258 54.335892 38.017258 -->
  <path d="M45.190384 14.107071C45.190384 4.062546,35.293243 2.151840,23.671112 2.151840C9.954788 2.151840,2.151840 11.848480,2.151840 26.062302C2.151840 36.106827,12.048981 38.017532,23.671112 38.017532" style="stroke:rgb(0,0,0); stroke-width: 4.303680;stroke-linecap: round;stroke-linejoin: round;stroke-miterlimit: 10.000000;fill: none;"></path>
  <path d="M45.190384 61.927444C45.190384 71.971970,35.293243 73.882675,23.671112 73.882675C9.954788 73.882675,2.151840 64.186035,2.151840 49.972214C2.151840 39.927689,12.048981 38.016983,23.671112 38.016983" style="stroke:rgb(0,0,0); stroke-width: 4.303680;stroke-linecap: round;stroke-linejoin: round;stroke-miterlimit: 10.000000;fill: none;"></path>
  <path d="M28.512680 26.062302L27.882385 25.681915L26.360840 25.524338L24.839294 25.681915L24.209000 26.062302L24.209000 49.972214L24.839294 50.352600L26.360840 50.510178L27.882385 50.352600L28.512680 49.972214Z" style="fill: rgb(0,0,0);stroke: none;"></path>
  <path d="M47.342224 0.537964L46.711929 0.157578L45.190384 -0.000000L43.668839 0.157578L43.038544 0.537964L43.038544 75.496552L43.668839 75.876938L45.190384 76.034515L46.711929 75.876938L47.342224 75.496552Z" style="fill: rgb(0,0,0);stroke: none;"></path>
  <path d="M45.190384 -0.000000L44.809998 0.630295L44.652420 2.151840L44.809998 3.673386L45.190384 4.303680L55.949768 4.303680L56.330154 3.673386L56.487732 2.151840L56.330154 0.630295L55.949768 -0.000000Z" style="fill: rgb(0,0,0);stroke: none;"></path>
  <path d="M45.190384 71.730835L44.809998 72.361130L44.652420 73.882675L44.809998 75.404221L45.190384 76.034515L55.949768 76.034515L56.330154 75.404221L56.487732 73.882675L56.330154 72.361130L55.949768 71.730835Z" style="fill: rgb(0,0,0);stroke: none;"></path>
</svg>
