<?xml version="1.0"?>
<!-- Created by MetaPost 2.11 on 2026.02.09:1107 -->
<svg version="1.1" xmlns="http://www.w3.org/2000/svg" xmlns:xlink="http://www.w3.org/1999/xlink" width="56.487732" height="76.035065" viewBox="0 0 56.487732 76.035065">
<!-- Original BoundingBox: -45.190384 -38.017807 11.297348 38.017258 -->
  <g transform="matrix(-1.000000,-0.000000,-0.000000,1.000000,0.000000,0.000000)">
    <path d="M-2.151840 14.107071C-2.151840 4.062546,-12.048981 2.151840,-23.671112 2.151840C-37.387436 2.151840,-45.190384 11.848480,-45.190384 26.062302C-45.190384 43.773880,-45.190384 56.171646,-45.190384 73.883224" style="stroke:rgb(0,0,0); stroke-width: 4.303680;stroke-linecap: round;stroke-linejoin: round;stroke-miterlimit: 10.000000;fill: none;"></path>
  </g>
  <path d="M4.303680 2.151840L3.673386 1.771454L2.151840 1.613876L0.630295 1.771454L0.000000 2.151840L0.000000 14.106796L0.630295 14.487183L2.151840 14.644760L3.673386 14.487183L4.303680 14.106796Z" style="fill: rgb(0,0,0);stroke: none;"></path>
  <path d="M55.949768 76.034515L56.330154 75.404221L56.487732 73.882675L56.330154 72.361130L55.949768 71.730835L34.431000 71.730835L34.050613 72.361130L33.893036 73.882675L34.050613 75.404221L34.431000 76.034515Z" style="fill: rgb(0,0,0);stroke: none;"></path>
  <g transform="matrix(-1.000000,-0.000000,-0.000000,1.000000,0.000000,0.000000)">
    <path d="M-2.151840 14.107071C-2.151840 4.062546,-12.048981 2.151840,-23.671112 2.151840C-37.387436 2.151840,-45.190384 11.848480,-45.190384 26.062302C-45.190384 43.773880,-45.190384 56.171646,-45.190384 73.883224" style="stroke:rgb(0,0,0); stroke-width: 4.303680;stroke-linecap: round;stroke-linejoin: round;stroke-miterlimit: 10.000000;fill: none;"></path>
  </g>
  <path d="M4.303680 2.151840L3.673386 1.771454L2.151840 1.613876L0.630295 1.771454L0.000000 2.151840L0.000000 14.106796L0.630295 14.487183L2.151840 14.644760L3.673386 14.487183L4.303680 14.106796Z" style="fill: rgb(0,0,0);stroke: none;"></path>
  <path d="M55.949768 76.034515L56.330154 75.404221L56.487732 73.882675L56.330154 72.361130L55.949768 71.730835L34.431000 71.730835L34.050613 72.361130L33.893036 73.882675L34.050613 75.404221L34.431000 76.034515Z" style="fill: rgb(0,0,0);stroke: none;"></path>
</svg>
