<?xml version="1.0"?>
<!-- Created by MetaPost 2.11 on 2026.02.09:1107 -->
<svg version="1.1" xmlns="http://www.w3.org/2000/svg" xmlns:xlink="http://www.w3.org/1999/xlink" width="47.342224" height="76.572479" viewBox="0 0 47.342224 76.572479">
<!-- Original BoundingBox: -45.190384 -38.017258 2.151840 38.555222 -->
  <g transform="matrix(-1.000000,-0.000000,-0.000000,1.000000,0.000000,0.000000)">
    <path d="M-23.671112 26.599716C-37.387436 26.599716,-45.190384 36.296356,-45.190384 50.510178C-45.190384 64.723999,-37.387436 74.420639,-23.671112 74.420639C-9.954788 74.420639,-2.151840 64.723999,-2.151840 50.510178C-2.151840 36.296356,-9.954788 26.599716,-23.671112 26.599716Z" style="stroke:rgb(0,0,0); stroke-width: 4.303680;stroke-linecap: round;stroke-linejoin: round;stroke-miterlimit: 10.000000;fill: none;"></path>
  </g>
  <g transform="matrix(-1.000000,-0.000000,-0.000000,1.000000,0.000000,0.000000)">
    <path d="M-45.190384 14.645035C-45.190384 4.600510,-35.293243 2.689804,-23.671112 2.689804C-9.954788 2.689804,-2.151840 12.386444,-2.151840 26.600266C-2.151840 35.455841,-2.151840 41.654602,-2.151840 50.510178C-2.151840 57.617081,-4.102570 63.594696,-7.767838 67.795578" style="stroke:rgb(0,0,0); stroke-width: 4.303680;stroke-linecap: round;stroke-linejoin: round;stroke-miterlimit: 10.000000;fill: none;"></path>
  </g>
  <path d="M47.342224 0.537964L46.711929 0.157578L45.190384 -0.000000L43.668839 0.157578L43.038544 0.537964L43.038544 14.644760L43.668839 15.025146L45.190384 15.182724L46.711929 15.025146L47.342224 14.644760Z" style="fill: rgb(0,0,0);stroke: none;"></path>
  <g transform="matrix(-1.000000,-0.000000,-0.000000,1.000000,0.000000,0.000000)">
    <path d="M-23.671112 26.599716C-37.387436 26.599716,-45.190384 36.296356,-45.190384 50.510178C-45.190384 64.723999,-37.387436 74.420639,-23.671112 74.420639C-9.954788 74.420639,-2.151840 64.723999,-2.151840 50.510178C-2.151840 36.296356,-9.954788 26.599716,-23.671112 26.599716Z" style="stroke:rgb(0,0,0); stroke-width: 4.303680;stroke-linecap: round;stroke-linejoin: round;stroke-miterlimit: 10.000000;fill: none;"></path>
  </g>
  <g transform="matrix(-1.000000,-0.000000,-0.000000,1.000000,0.000000,0.000000)">
    <path d="M-45.190384 14.645035C-45.190384 4.600510,-35.293243 2.689804,-23.671112 2.689804C-9.954788 2.689804,-2.151840 12.386444,-2.151840 26.600266C-2.151840 35.455841,-2.151840 41.654602,-2.151840 50.510178C-2.151840 57.617081,-4.102570 63.594696,-7.767838 67.795578" style="stroke:rgb(0,0,0); stroke-width: 4.303680;stroke-linecap: round;stroke-linejoin: round;stroke-miterlimit: 10.000000;fill: none;"></path>
  </g>
  <path d="M47.342224 0.537964L46.711929 0.157578L45.190384 -0.000000L43.668839 0.157578L43.038544 0.537964L43.038544 14.644760L43.668839 15.025146L45.190384 15.182724L46.711929 15.025146L47.342224 14.644760Z" style="fill: rgb(0,0,0);stroke: none;"></path>
</svg>
