<?xml version="1.0"?>
<!-- Created by MetaPost 2.11 on 2026.02.09:1107 -->
<svg version="1.1" xmlns="http://www.w3.org/2000/svg" xmlns:xlink="http://www.w3.org/1999/xlink" width="47.342224" height="77.110443" viewBox="0 0 47.342224 77.110443">
<!-- Original BoundingBox: -45.190384 -38.555222 2.151840 38.555222 -->
  <g transform="matrix(-1.000000,-0.000000,-0.000000,1.000000,0.000000,0.000000)">
    <path d="M-2.151840 14.645035C-2.151840 4.600510,-12.048981 2.689804,-23.671112 2.689804C-37.387436 2.689804,-45.190384 12.386444,-45.190384 26.600266C-45.190384 35.456055,-45.190384 41.654938,-45.190384 50.510727C-45.190384 64.724548,-37.387436 74.421188,-23.671112 74.421188C-12.048981 74.421188,-2.151840 72.510483,-2.151840 62.465958" style="stroke:rgb(0,0,0); stroke-width: 4.303680;stroke-linecap: round;stroke-linejoin: round;stroke-miterlimit: 10.000000;fill: none;"></path>
  </g>
  <path d="M4.303680 0.537964L3.673386 0.157578L2.151840 -0.000000L0.630295 0.157578L0.000000 0.537964L0.000000 14.644760L0.630295 15.025146L2.151840 15.182724L3.673386 15.025146L4.303680 14.644760Z" style="fill: rgb(0,0,0);stroke: none;"></path>
  <path d="M0.000000 76.572479L0.630295 76.952866L2.151840 77.110443L3.673386 76.952866L4.303680 76.572479L4.303680 62.465683L3.673386 62.085297L2.151840 61.927719L0.630295 62.085297L0.000000 62.465683Z" style="fill: rgb(0,0,0);stroke: none;"></path>
  <g transform="matrix(-1.000000,-0.000000,-0.000000,1.000000,0.000000,0.000000)">
    <path d="M-2.151840 14.645035C-2.151840 4.600510,-12.048981 2.689804,-23.671112 2.689804C-37.387436 2.689804,-45.190384 12.386444,-45.190384 26.600266C-45.190384 35.456055,-45.190384 41.654938,-45.190384 50.510727C-45.190384 64.724548,-37.387436 74.421188,-23.671112 74.421188C-12.048981 74.421188,-2.151840 72.510483,-2.151840 62.465958" style="stroke:rgb(0,0,0); stroke-width: 4.303680;stroke-linecap: round;stroke-linejoin: round;stroke-miterlimit: 10.000000;fill: none;"></path>
  </g>
  <path d="M4.303680 0.537964L3.673386 0.157578L2.151840 -0.000000L0.630295 0.157578L0.000000 0.537964L0.000000 14.644760L0.630295 15.025146L2.151840 15.182724L3.673386 15.025146L4.303680 14.644760Z" style="fill: rgb(0,0,0);stroke: none;"></path>
  <path d="M0.000000 76.572479L0.630295 76.952866L2.151840 77.110443L3.673386 76.952866L4.303680 76.572479L4.303680 62.465683L3.673386 62.085297L2.151840 61.927719L0.630295 62.085297L0.000000 62.465683Z" style="fill: rgb(0,0,0);stroke: none;"></path>
</svg>
