<?xml version="1.0"?>
<!-- Created by MetaPost 2.11 on 2026.02.09:1107 -->
<svg version="1.1" xmlns="http://www.w3.org/2000/svg" xmlns:xlink="http://www.w3.org/1999/xlink" width="56.487732" height="76.035065" viewBox="0 0 56.487732 76.035065">
<!-- Original BoundingBox: -2.151840 -38.017807 54.335892 38.017258 -->
  <path d="M45.190384 14.107071C45.190384 4.062546,35.293243 2.151840,23.671112 2.151840C9.954788 2.151840,2.151840 11.848480,2.151840 26.062302C2.151840 34.918091,2.151840 41.116974,2.151840 49.972763C2.151840 64.186584,9.954788 73.883224,23.671112 73.883224C35.293243 73.883224,45.190384 71.972519,45.190384 61.927994" style="stroke:rgb(0,0,0); stroke-width: 4.303680;stroke-linecap: round;stroke-linejoin: round;stroke-miterlimit: 10.000000;fill: none;"></path>
  <path d="M47.342224 0.537964L46.711929 0.157578L45.190384 -0.000000L43.668839 0.157578L43.038544 0.537964L43.038544 75.496552L43.668839 75.876938L45.190384 76.034515L46.711929 75.876938L47.342224 75.496552Z" style="fill: rgb(0,0,0);stroke: none;"></path>
  <path d="M45.190384 -0.000000L44.809998 0.630295L44.652420 2.151840L44.809998 3.673386L45.190384 4.303680L55.949768 4.303680L56.330154 3.673386L56.487732 2.151840L56.330154 0.630295L55.949768 -0.000000Z" style="fill: rgb(0,0,0);stroke: none;"></path>
  <path d="M45.190384 71.730835L44.809998 72.361130L44.652420 73.882675L44.809998 75.404221L45.190384 76.034515L55.949768 76.034515L56.330154 75.404221L56.487732 73.882675L56.330154 72.361130L55.949768 71.730835Z" style="fill: rgb(0,0,0);stroke: none;"></path>
  <path d="M34.430496 21.519470L34.050110 22.149765L33.892532 23.671310L34.050110 25.192856L34.430496 25.823151L55.949265 25.823151L56.329651 25.192856L56.487228 23.671310L56.329651 22.149765L55.949265 21.519470Z" style="fill: rgb(0,0,0);stroke: none;"></path>
  <path d="M23.671112 2.151840C23.671112 13.600372,24.596954 23.671310,34.430496 23.671310" style="stroke:rgb(0,0,0); stroke-width: 4.303680;stroke-linecap: round;stroke-linejoin: round;stroke-miterlimit: 10.000000;fill: none;"></path>
</svg>
