<?xml version="1.0"?>
<!-- Created by MetaPost 2.11 on 2026.02.09:1107 -->
<svg version="1.1" xmlns="http://www.w3.org/2000/svg" xmlns:xlink="http://www.w3.org/1999/xlink" width="68.860992" height="76.034515" viewBox="0 0 68.860992 76.034515">
<!-- Original BoundingBox: -34.430496 -38.017258 34.430496 38.017258 -->
  <path d="M9.003845 14.058838C4.521927 20.200943,2.151840 28.423065,2.151840 38.017258C2.151840 59.337830,13.856171 73.882675,34.430496 73.882675C55.004822 73.882675,66.709152 59.337830,66.709152 38.017258C66.709152 16.696686,55.004822 2.151840,34.430496 2.151840C31.033615 2.151840,28.531998 4.865082,26.246567 7.404465C23.219940 10.767395,21.519226 15.328293,21.519226 20.084549C21.519226 24.840805,23.219940 29.401703,26.246567 32.764633C36.591003 44.258484,53.772903 46.488953,66.709152 38.017258" style="stroke:rgb(0,0,0); stroke-width: 4.303680;stroke-linecap: round;stroke-linejoin: round;stroke-miterlimit: 10.000000;fill: none;"></path>
  <path d="M13.823654 11.801346L13.646942 11.086700L12.682480 9.899368L11.495148 8.934906L10.780502 8.758194C9.578720 9.909943,8.478394 11.172180,7.482361 12.537155L7.659073 13.251801L8.623535 14.439133L9.810867 15.403595L10.525513 15.580307C11.521545 14.215332,12.621872 12.953094,13.823654 11.801346Z" style="fill: rgb(0,0,0);stroke: none;"></path>
  <path d="M41.682968 54.584747L42.313263 54.965134L43.834808 55.122711L45.356354 54.965134L45.986649 54.584747L45.986649 27.685684L45.356354 27.305298L43.834808 27.147720L42.313263 27.305298L41.682968 27.685684Z" style="fill: rgb(0,0,0);stroke: none;"></path>
</svg>
