<?xml version="1.0"?>
<!-- Created by MetaPost 2.11 on 2026.02.09:1107 -->
<svg version="1.1" xmlns="http://www.w3.org/2000/svg" xmlns:xlink="http://www.w3.org/1999/xlink" width="61.867325" height="84.642426" viewBox="0 0 61.867325 84.642426">
<!-- Original BoundingBox: -12.373260 -42.320938 49.494064 42.321487 -->
  <g transform="matrix(1.000000,-0.000000,-0.000000,-1.000000,0.000000,0.000000)">
    <path d="M55.411804 -66.231674C55.411804 -76.276199,45.514664 -78.186905,33.892532 -78.186905C20.176208 -78.186905,12.373260 -68.490265,12.373260 -54.276443C12.373260 -36.564865,12.373260 -24.167099,12.373260 -6.455521" style="stroke:rgb(0,0,0); stroke-width: 12.911026;stroke-linecap: round;stroke-linejoin: round;stroke-miterlimit: 10.000000;fill: none;"></path>
  </g>
  <path d="M61.867325 59.776154L59.976440 58.634995L55.411804 58.162277L50.847168 58.634995L48.956284 59.776154L48.956284 66.231674L50.847168 67.372833L55.411804 67.845551L59.976440 67.372833L61.867325 66.231674Z" style="fill: rgb(0,0,0);stroke: none;"></path>
  <path d="M1.613876 0.000549L0.472717 1.891434L0.000000 6.456070L0.472717 11.020706L1.613876 12.911591L23.132645 12.911591L24.273804 11.020706L24.746521 6.456070L24.273804 1.891434L23.132645 0.000549Z" style="fill: rgb(0,0,0);stroke: none;"></path>
  <g transform="matrix(1.000000,-0.000000,-0.000000,-1.000000,0.000000,0.000000)">
    <path d="M55.411804 -66.231674C55.411804 -76.276199,45.514664 -78.186905,33.892532 -78.186905C20.176208 -78.186905,12.373260 -68.490265,12.373260 -54.276443C12.373260 -36.564865,12.373260 -24.167099,12.373260 -6.455521" style="stroke:rgb(0,0,0); stroke-width: 12.911026;stroke-linecap: round;stroke-linejoin: round;stroke-miterlimit: 10.000000;fill: none;"></path>
  </g>
  <path d="M61.867325 59.776154L59.976440 58.634995L55.411804 58.162277L50.847168 58.634995L48.956284 59.776154L48.956284 66.231674L50.847168 67.372833L55.411804 67.845551L59.976440 67.372833L61.867325 66.231674Z" style="fill: rgb(0,0,0);stroke: none;"></path>
  <path d="M1.613876 0.000549L0.472717 1.891434L0.000000 6.456070L0.472717 11.020706L1.613876 12.911591L23.132645 12.911591L24.273804 11.020706L24.746521 6.456070L24.273804 1.891434L23.132645 0.000549Z" style="fill: rgb(0,0,0);stroke: none;"></path>
</svg>
