<?xml version="1.0"?>
<!-- Created by MetaPost 2.11 on 2026.02.09:1107 -->
<svg version="1.1" xmlns="http://www.w3.org/2000/svg" xmlns:xlink="http://www.w3.org/1999/xlink" width="61.867325" height="84.641876" viewBox="0 0 61.867325 84.641876">
<!-- Original BoundingBox: -6.455521 -42.320938 55.411804 42.320938 -->
  <path d="M49.494064 18.410751C49.494064 8.366226,39.596924 6.455521,27.974792 6.455521C14.258469 6.455521,6.455521 16.152161,6.455521 30.365982C6.455521 40.410507,16.352661 42.321213,27.974792 42.321213" style="stroke:rgb(0,0,0); stroke-width: 12.911026;stroke-linecap: round;stroke-linejoin: round;stroke-miterlimit: 10.000000;fill: none;"></path>
  <path d="M49.494064 66.231125C49.494064 76.275650,39.596924 78.186356,27.974792 78.186356C14.258469 78.186356,6.455521 68.489716,6.455521 54.275894C6.455521 44.231369,16.352661 42.320663,27.974792 42.320663" style="stroke:rgb(0,0,0); stroke-width: 12.911026;stroke-linecap: round;stroke-linejoin: round;stroke-miterlimit: 10.000000;fill: none;"></path>
  <path d="M55.949585 18.410751L54.058701 17.269592L49.494064 16.796875L44.929428 17.269592L43.038544 18.410751L43.038544 66.231125L44.929428 67.372284L49.494064 67.845001L54.058701 67.372284L55.949585 66.231125Z" style="fill: rgb(0,0,0);stroke: none;"></path>
  <path d="M27.974792 6.455521C27.974792 17.904053,28.900635 27.974991,38.734177 27.974991" style="stroke:rgb(0,0,0); stroke-width: 12.911026;stroke-linecap: round;stroke-linejoin: round;stroke-miterlimit: 10.000000;fill: none;"></path>
  <path d="M38.734177 21.519470L37.593018 23.410355L37.120300 27.974991L37.593018 32.539627L38.734177 34.430511L60.253448 34.430511L61.394608 32.539627L61.867325 27.974991L61.394608 23.410355L60.253448 21.519470Z" style="fill: rgb(0,0,0);stroke: none;"></path>
</svg>
