<?xml version="1.0"?>
<!-- Created by MetaPost 2.11 on 2026.02.09:1107 -->
<svg version="1.1" xmlns="http://www.w3.org/2000/svg" xmlns:xlink="http://www.w3.org/1999/xlink" width="69.398697" height="84.641876" viewBox="0 0 69.398697 84.641876">
<!-- Original BoundingBox: -38.734177 -42.320938 30.664520 42.320938 -->
  <g transform="matrix(1.000000,-0.000000,-0.000000,-1.000000,0.000000,0.000000)">
    <path d="M38.734177 -6.455521L38.734177 -60.253647" style="stroke:rgb(0,0,0); stroke-width: 12.911026;stroke-linecap: round;stroke-linejoin: round;stroke-miterlimit: 10.000000;fill: none;"></path>
  </g>
  <path d="M27.974792 -0.000000L26.833633 1.890884L26.360916 6.455521L26.833633 11.020157L27.974792 12.911041L49.493561 12.911041L50.634720 11.020157L51.107437 6.455521L50.634720 1.890884L49.493561 -0.000000Z" style="fill: rgb(0,0,0);stroke: none;"></path>
  <g transform="matrix(1.000000,-0.000000,-0.000000,-1.000000,0.000000,0.000000)">
    <path d="M38.734177 -60.253647C38.734177 -70.913940,32.882019 -78.186356,22.594849 -78.186356C12.307678 -78.186356,6.455521 -70.913940,6.455521 -60.253647C6.455521 -45.186981,21.301117 -42.320938,38.734177 -42.320938C53.412399 -42.320938,62.943176 -51.142838,62.943176 -65.633240" style="stroke:rgb(0,0,0); stroke-width: 12.911026;stroke-linecap: round;stroke-linejoin: round;stroke-miterlimit: 10.000000;fill: none;"></path>
  </g>
  <path d="M69.398697 65.633240L67.507812 64.492081L62.943176 64.019363L58.378540 64.492081L56.487656 65.633240L56.487656 79.800232L58.378540 80.941391L62.943176 81.414108L67.507812 80.941391L69.398697 79.800232Z" style="fill: rgb(0,0,0);stroke: none;"></path>
  <g transform="matrix(1.000000,-0.000000,-0.000000,-1.000000,0.000000,0.000000)">
    <path d="M38.734177 -6.455521L38.734177 -60.253647" style="stroke:rgb(0,0,0); stroke-width: 12.911026;stroke-linecap: round;stroke-linejoin: round;stroke-miterlimit: 10.000000;fill: none;"></path>
  </g>
  <path d="M27.974792 -0.000000L26.833633 1.890884L26.360916 6.455521L26.833633 11.020157L27.974792 12.911041L49.493561 12.911041L50.634720 11.020157L51.107437 6.455521L50.634720 1.890884L49.493561 -0.000000Z" style="fill: rgb(0,0,0);stroke: none;"></path>
  <g transform="matrix(1.000000,-0.000000,-0.000000,-1.000000,0.000000,0.000000)">
    <path d="M38.734177 -60.253647C38.734177 -70.913940,32.882019 -78.186356,22.594849 -78.186356C12.307678 -78.186356,6.455521 -70.913940,6.455521 -60.253647C6.455521 -45.186981,21.301117 -42.320938,38.734177 -42.320938C53.412399 -42.320938,62.943176 -51.142838,62.943176 -65.633240" style="stroke:rgb(0,0,0); stroke-width: 12.911026;stroke-linecap: round;stroke-linejoin: round;stroke-miterlimit: 10.000000;fill: none;"></path>
  </g>
  <path d="M69.398697 65.633240L67.507812 64.492081L62.943176 64.019363L58.378540 64.492081L56.487656 65.633240L56.487656 79.800232L58.378540 80.941391L62.943176 81.414108L67.507812 80.941391L69.398697 79.800232Z" style="fill: rgb(0,0,0);stroke: none;"></path>
</svg>
