<?xml version="1.0"?>
<!-- Created by MetaPost 2.11 on 2026.02.09:1107 -->
<svg version="1.1" xmlns="http://www.w3.org/2000/svg" xmlns:xlink="http://www.w3.org/1999/xlink" width="110.823105" height="84.641876" viewBox="0 0 110.823105 84.641876">
<!-- Original BoundingBox: -12.373260 -42.320938 98.449844 42.320938 -->
  <path d="M12.373260 54.275894C12.373260 68.489716,20.176208 78.186356,33.892532 78.186356C47.608856 78.186356,55.411804 68.489716,55.411804 54.275894" style="stroke:rgb(0,0,0); stroke-width: 12.911026;stroke-linecap: round;stroke-linejoin: round;stroke-miterlimit: 10.000000;fill: none;"></path>
  <path d="M55.411301 54.275894C55.411301 68.489716,63.214249 78.186356,76.930573 78.186356C90.646896 78.186356,98.449844 68.489716,98.449844 54.275894" style="stroke:rgb(0,0,0); stroke-width: 12.911026;stroke-linecap: round;stroke-linejoin: round;stroke-miterlimit: 10.000000;fill: none;"></path>
  <path d="M18.828781 6.455521L16.937897 5.314362L12.373260 4.841644L7.808624 5.314362L5.917740 6.455521L5.917740 54.275894L7.808624 55.417053L12.373260 55.889771L16.937897 55.417053L18.828781 54.275894Z" style="fill: rgb(0,0,0);stroke: none;"></path>
  <path d="M61.866821 6.455521L59.975937 5.314362L55.411301 4.841644L50.846664 5.314362L48.955780 6.455521L48.955780 54.275894L50.846664 55.417053L55.411301 55.889771L59.975937 55.417053L61.866821 54.275894Z" style="fill: rgb(0,0,0);stroke: none;"></path>
  <path d="M104.905365 6.455521L103.014481 5.314362L98.449844 4.841644L93.885208 5.314362L91.994324 6.455521L91.994324 54.275894L93.885208 55.417053L98.449844 55.889771L103.014481 55.417053L104.905365 54.275894Z" style="fill: rgb(0,0,0);stroke: none;"></path>
  <path d="M1.613876 -0.000000L0.472717 1.890884L0.000000 6.455521L0.472717 11.020157L1.613876 12.911041L23.132645 12.911041L24.273804 11.020157L24.746521 6.455521L24.273804 1.890884L23.132645 -0.000000Z" style="fill: rgb(0,0,0);stroke: none;"></path>
  <path d="M44.651917 -0.000000L43.510757 1.890884L43.038040 6.455521L43.510757 11.020157L44.651917 12.911041L66.170685 12.911041L67.311844 11.020157L67.784561 6.455521L67.311844 1.890884L66.170685 -0.000000Z" style="fill: rgb(0,0,0);stroke: none;"></path>
  <path d="M87.690460 -0.000000L86.549301 1.890884L86.076584 6.455521L86.549301 11.020157L87.690460 12.911041L109.209229 12.911041L110.350388 11.020157L110.823105 6.455521L110.350388 1.890884L109.209229 -0.000000Z" style="fill: rgb(0,0,0);stroke: none;"></path>
</svg>
