<?xml version="1.0"?>
<!-- Created by MetaPost 2.11 on 2026.02.09:1107 -->
<svg version="1.1" xmlns="http://www.w3.org/2000/svg" xmlns:xlink="http://www.w3.org/1999/xlink" width="55.949585" height="83.996277" viewBox="0 0 55.949585 83.996277">
<!-- Original BoundingBox: -49.494064 -41.675339 6.455521 42.320938 -->
  <path d="M43.038544 82.382401L44.929428 83.523560L49.494064 83.996277L54.058701 83.523560L55.949585 82.382401L55.949585 25.437241L54.058701 24.296082L49.494064 23.823364L44.929428 24.296082L43.038544 25.437241Z" style="fill: rgb(0,0,0);stroke: none;"></path>
  <path d="M4.355865 58.711914L2.774261 60.253418L1.164337 64.550827L0.469238 69.086945L1.096008 71.204712C2.352570 71.935715,3.559616 72.612823,4.736771 73.244202L6.318375 71.702698L7.928299 67.405289L8.623398 62.869171L7.996628 60.751404C6.819473 60.120026,5.612427 59.442917,4.355865 58.711914Z" style="fill: rgb(0,0,0);stroke: none;"></path>
  <path d="M5.207642 59.229507L3.646332 60.791580L2.092773 65.109665L1.457062 69.654495L2.111481 71.763870C3.806870 72.732635,5.417938 73.603363,6.995697 74.397278L8.557007 72.835205L10.110565 68.517120L10.746277 63.972290L10.091858 61.862915C8.514099 61.069000,6.903030 60.198273,5.207642 59.229507Z" style="fill: rgb(0,0,0);stroke: none;"></path>
  <path d="M7.390015 60.472122L5.849289 62.054474L4.352371 66.392517L3.776199 70.945251L4.458160 73.045883C6.087387 73.929871,7.655472 74.725479,9.213425 75.453918L10.754150 73.871567L12.251068 69.533524L12.827240 64.980789L12.145279 62.880157C10.587326 62.151718,9.019241 61.356110,7.390015 60.472122Z" style="fill: rgb(0,0,0);stroke: none;"></path>
  <path d="M9.495636 61.605927L7.975754 63.208298L6.535782 67.565552L6.019272 72.125412L6.728668 74.216919C8.312912 75.024979,9.859192 75.754303,11.418533 76.426102L12.938416 74.823730L14.378387 70.466476L14.894897 65.906616L14.185501 63.815109C12.626160 63.143311,11.079880 62.413986,9.495636 61.605927Z" style="fill: rgb(0,0,0);stroke: none;"></path>
  <path d="M11.554688 62.643417L10.055908 64.265579L8.673065 68.641342L8.216278 73.207626L8.953003 75.289688C10.513245 76.030533,12.058716 76.702286,13.640411 77.326172L15.139191 75.704010L16.522034 71.328247L16.978821 66.761963L16.242096 64.679901C14.660400 64.056015,13.114929 63.384262,11.554688 62.643417Z" style="fill: rgb(0,0,0);stroke: none;"></path>
  <path d="M13.595123 63.596451L12.117722 65.238098L10.792343 69.631561L10.395401 74.203400L11.159332 76.275620C12.716736 76.958054,14.282562 77.581039,15.907806 78.165802L17.385208 76.524155L18.710587 72.130692L19.107529 67.558853L18.343597 65.486633C16.718353 64.901871,15.152527 64.278885,13.595123 63.596451Z" style="fill: rgb(0,0,0);stroke: none;"></path>
  <path d="M15.645905 64.476852L14.190109 66.137665L12.922318 70.548096L12.585220 75.124725L13.376190 77.186752C14.951752 77.819519,16.558914 78.402496,18.248703 78.956894L19.704498 77.296082L20.972290 72.885651L21.309387 68.309021L20.518417 66.246994C18.828629 65.692596,17.221466 65.109619,15.645905 64.476852Z" style="fill: rgb(0,0,0);stroke: none;"></path>
  <path d="M17.735672 65.296509L16.301727 66.976242L15.091721 71.402924L14.814545 75.983627L15.632431 78.035156C17.247284 78.627045,18.916931 79.178787,20.692383 79.711609L22.126328 78.031876L23.336334 73.605194L23.613510 69.024490L22.795624 66.972961C21.020172 66.440140,19.350525 65.888397,17.735672 65.296509Z" style="fill: rgb(0,0,0);stroke: none;"></path>
  <path d="M19.892380 66.067352L18.480560 67.765717L17.328659 72.207855L17.111511 76.791779L17.956192 78.832397C19.631378 79.392181,21.384521 79.921448,23.266647 80.441467L24.678467 78.743103L25.830368 74.300964L26.047516 69.717041L25.202835 67.676422C23.320709 67.156403,21.567566 66.627136,19.892380 66.067352Z" style="fill: rgb(0,0,0);stroke: none;"></path>
  <path d="M22.146332 66.801697L20.756866 68.518402L19.663208 72.975220L19.506073 77.561584L20.377411 79.590973C21.654953 79.981110,22.986008 80.360229,24.390198 80.736481C24.916733 80.877563,25.434570 81.013153,25.944809 81.143402L27.334274 79.426697L28.427933 74.969879L28.585068 70.383514L27.713730 68.354126C27.203491 68.223877,26.685654 68.088287,26.159119 67.947205C24.754929 67.570953,23.423874 67.191833,22.146332 66.801697Z" style="fill: rgb(0,0,0);stroke: none;"></path>
  <path d="M24.525604 67.511261L23.158707 69.246017L22.123459 73.716766L22.026321 78.304794L22.924133 80.322632C23.431137 80.464951,23.947388 80.606445,24.473923 80.747528C25.878113 81.123779,27.220398 81.460983,28.521866 81.761887L29.888763 80.027130L30.924011 75.556381L31.021149 70.968353L30.123337 68.950516C28.821869 68.649612,27.479584 68.312408,26.075394 67.936157C25.548859 67.795074,25.032608 67.653580,24.525604 67.511261Z" style="fill: rgb(0,0,0);stroke: none;"></path>
  <path d="M27.033539 68.201172L25.689468 69.953674L24.712830 74.437607L24.675766 79.026520L25.599915 81.032440C27.489899 81.523163,29.272812 81.941376,31.003448 82.294174L32.347519 80.541672L33.324158 76.057739L33.361221 71.468826L32.437073 69.462906C30.706436 69.110107,28.923523 68.691895,27.033539 68.201172Z" style="fill: rgb(0,0,0);stroke: none;"></path>
  <path d="M29.465652 68.817337L28.144653 70.587234L27.226776 75.083527L27.249786 79.672501L28.200089 81.666122C30.003998 82.092377,31.725754 82.449341,33.420135 82.744156L34.741135 80.974258L35.659012 76.477966L35.636002 71.888992L34.685699 69.895370C32.991318 69.600555,31.269562 69.243591,29.465652 68.817337Z" style="fill: rgb(0,0,0);stroke: none;"></path>
  <path d="M31.794998 69.348419L30.497269 71.135498L29.638382 75.643448L29.721512 80.231750L30.697861 82.212769C32.438477 82.577530,34.121826 82.876251,35.802704 83.116043L37.100433 81.328964L37.959320 76.821014L37.876190 72.232712L36.899841 70.251694C35.218964 70.011902,33.535614 69.713181,31.794998 69.348419Z" style="fill: rgb(0,0,0);stroke: none;"></path>
  <path d="M34.054108 69.798965L32.779907 71.602875L31.980072 76.121658L32.123230 80.708466L33.125427 82.676529C34.825256 82.982712,36.492737 83.226089,38.182648 83.413773L39.456848 81.609863L40.256683 77.091080L40.113525 72.504272L39.111328 70.536209C37.421417 70.348526,35.753937 70.105148,34.054108 69.798965Z" style="fill: rgb(0,0,0);stroke: none;"></path>
  <path d="M36.272995 70.172745L35.022507 71.993149L34.281906 76.522034L34.485092 81.106552L35.512955 83.061325C37.194748 83.311890,38.869095 83.502884,40.590775 83.641418L41.841263 81.821014L42.581863 77.292130L42.378677 72.707611L41.350815 70.752838C39.629135 70.614304,37.954788 70.423309,36.272995 70.172745Z" style="fill: rgb(0,0,0);stroke: none;"></path>
  <path d="M38.482559 70.473740L37.256012 72.310379L36.574768 76.848572L36.837982 81.430038L37.891342 83.371201C39.577652 83.569061,41.281418 83.710602,43.057419 83.802917L44.283966 81.966278L44.965210 77.428085L44.701996 72.846619L43.648636 70.905457C41.872635 70.813141,40.168869 70.671600,38.482559 70.473740Z" style="fill: rgb(0,0,0);stroke: none;"></path>
  <path d="M40.713745 70.705978L39.511337 72.558517L38.889526 77.105255L39.212662 81.682907L40.291351 83.610123C42.004868 83.758240,43.760757 83.853271,45.613785 83.902313L46.816193 82.049774L47.438004 77.503036L47.114868 72.925385L46.036179 70.998169C44.183151 70.949127,42.427261 70.854095,40.713745 70.705978Z" style="fill: rgb(0,0,0);stroke: none;"></path>
  <path d="M42.996719 70.873520L41.818665 72.741608L41.256393 77.296066L41.639374 81.869080L42.743179 83.781998C44.506500 83.883316,46.337082 83.934799,48.289719 83.943512L49.467773 82.075424L50.030045 77.520966L49.647064 72.947952L48.543259 71.035034C46.590622 71.026321,44.760040 70.974838,42.996719 70.873520Z" style="fill: rgb(0,0,0);stroke: none;"></path>
  <path d="M45.363693 70.980270L44.210175 72.863663L43.707596 77.425140L44.150421 81.992783L45.279190 83.891129C46.614334 83.932922,47.998215 83.950058,49.451935 83.945267L50.605453 82.061874L51.108032 77.500397L50.665207 72.932755L49.536438 71.034409C48.082718 71.039200,46.698837 71.022064,45.363693 70.980270Z" style="fill: rgb(0,0,0);stroke: none;"></path>
  <path d="M27.974792 6.455521C14.258469 6.455521,6.455521 16.152161,6.455521 30.365982C6.455521 44.579803,14.258469 54.276443,27.974792 54.276443C41.691116 54.276443,49.494064 44.579803,49.494064 30.365982C49.494064 16.152161,41.691116 6.455521,27.974792 6.455521Z" style="stroke:rgb(0,0,0); stroke-width: 12.911026;stroke-linecap: round;stroke-linejoin: round;stroke-miterlimit: 10.000000;fill: none;"></path>
</svg>
