<?xml version="1.0"?>
<!-- Created by MetaPost 2.11 on 2026.02.09:1107 -->
<svg version="1.1" xmlns="http://www.w3.org/2000/svg" xmlns:xlink="http://www.w3.org/1999/xlink" width="61.398087" height="83.996277" viewBox="0 0 61.398087 83.996277">
<!-- Original BoundingBox: -49.024826 -41.675339 12.373260 42.320938 -->
  <path d="M42.569305 82.382401L44.460190 83.523560L49.024826 83.996277L53.589462 83.523560L55.480347 82.382401L55.480347 6.455521L53.589462 5.314362L49.024826 4.841644L44.460190 5.314362L42.569305 6.455521Z" style="fill: rgb(0,0,0);stroke: none;"></path>
  <path d="M38.265442 -0.000000L37.124283 1.890884L36.651566 6.455521L37.124283 11.020157L38.265442 12.911041L59.784210 12.911041L60.925369 11.020157L61.398087 6.455521L60.925369 1.890884L59.784210 -0.000000Z" style="fill: rgb(0,0,0);stroke: none;"></path>
  <path d="M3.886627 58.711914L2.305023 60.253418L0.695099 64.550827L0.000000 69.086945L0.626770 71.204712C1.883331 71.935715,3.090378 72.612823,4.267532 73.244202L5.849136 71.702698L7.459061 67.405289L8.154160 62.869171L7.527390 60.751404C6.350235 60.120026,5.143188 59.442917,3.886627 58.711914Z" style="fill: rgb(0,0,0);stroke: none;"></path>
  <path d="M4.738403 59.229507L3.177094 60.791580L1.623535 65.109665L0.987823 69.654495L1.642242 71.763870C3.337631 72.732635,4.948700 73.603363,6.526459 74.397278L8.087769 72.835205L9.641327 68.517120L10.277039 63.972290L9.622620 61.862915C8.044861 61.069000,6.433792 60.198273,4.738403 59.229507Z" style="fill: rgb(0,0,0);stroke: none;"></path>
  <path d="M6.920776 60.472122L5.380051 62.054474L3.883133 66.392517L3.306961 70.945251L3.988922 73.045883C5.618149 73.929871,7.186234 74.725479,8.744186 75.453918L10.284912 73.871567L11.781830 69.533524L12.358002 64.980789L11.676041 62.880157C10.118088 62.151718,8.550003 61.356110,6.920776 60.472122Z" style="fill: rgb(0,0,0);stroke: none;"></path>
  <path d="M9.026398 61.605927L7.506516 63.208298L6.066544 67.565552L5.550034 72.125412L6.259430 74.216919C7.843674 75.024979,9.389954 75.754303,10.949295 76.426102L12.469177 74.823730L13.909149 70.466476L14.425659 65.906616L13.716263 63.815109C12.156921 63.143311,10.610641 62.413986,9.026398 61.605927Z" style="fill: rgb(0,0,0);stroke: none;"></path>
  <path d="M11.085449 62.643417L9.586670 64.265579L8.203827 68.641342L7.747040 73.207626L8.483765 75.289688C10.044006 76.030533,11.589478 76.702286,13.171173 77.326172L14.669952 75.704010L16.052795 71.328247L16.509583 66.761963L15.772858 64.679901C14.191162 64.056015,12.645691 63.384262,11.085449 62.643417Z" style="fill: rgb(0,0,0);stroke: none;"></path>
  <path d="M13.125885 63.596451L11.648483 65.238098L10.323105 69.631561L9.926163 74.203400L10.690094 76.275620C12.247498 76.958054,13.813324 77.581039,15.438568 78.165802L16.915970 76.524155L18.241348 72.130692L18.638290 67.558853L17.874359 65.486633C16.249115 64.901871,14.683289 64.278885,13.125885 63.596451Z" style="fill: rgb(0,0,0);stroke: none;"></path>
  <path d="M15.176666 64.476852L13.720871 66.137665L12.453079 70.548096L12.115982 75.124725L12.906952 77.186752C14.482513 77.819519,16.089676 78.402496,17.779465 78.956894L19.235260 77.296082L20.503052 72.885651L20.840149 68.309021L20.049179 66.246994C18.359390 65.692596,16.752228 65.109619,15.176666 64.476852Z" style="fill: rgb(0,0,0);stroke: none;"></path>
  <path d="M17.266434 65.296509L15.832489 66.976242L14.622482 71.402924L14.345306 75.983627L15.163193 78.035156C16.778046 78.627045,18.447693 79.178787,20.223145 79.711609L21.657089 78.031876L22.867096 73.605194L23.144272 69.024490L22.326385 66.972961C20.550934 66.440140,18.881287 65.888397,17.266434 65.296509Z" style="fill: rgb(0,0,0);stroke: none;"></path>
  <path d="M19.423141 66.067352L18.011322 67.765717L16.859421 72.207855L16.642273 76.791779L17.486954 78.832397C19.162140 79.392181,20.915283 79.921448,22.797409 80.441467L24.209229 78.743103L25.361130 74.300964L25.578278 69.717041L24.733597 67.676422C22.851471 67.156403,21.098328 66.627136,19.423141 66.067352Z" style="fill: rgb(0,0,0);stroke: none;"></path>
  <path d="M21.677094 66.801697L20.287628 68.518402L19.193970 72.975220L19.036835 77.561584L19.908173 79.590973C21.185715 79.981110,22.516769 80.360229,23.920959 80.736481C24.447495 80.877563,24.965332 81.013153,25.475571 81.143402L26.865036 79.426697L27.958694 74.969879L28.115829 70.383514L27.244492 68.354126C26.734253 68.223877,26.216415 68.088287,25.689880 67.947205C24.285690 67.570953,22.954636 67.191833,21.677094 66.801697Z" style="fill: rgb(0,0,0);stroke: none;"></path>
  <path d="M24.056366 67.511261L22.689468 69.246017L21.654221 73.716766L21.557083 78.304794L22.454895 80.322632C22.961899 80.464951,23.478149 80.606445,24.004684 80.747528C25.408875 81.123779,26.751160 81.460983,28.052628 81.761887L29.419525 80.027130L30.454773 75.556381L30.551910 70.968353L29.654099 68.950516C28.352631 68.649612,27.010345 68.312408,25.606155 67.936157C25.079620 67.795074,24.563370 67.653580,24.056366 67.511261Z" style="fill: rgb(0,0,0);stroke: none;"></path>
  <path d="M26.564301 68.201172L25.220230 69.953674L24.243591 74.437607L24.206528 79.026520L25.130676 81.032440C27.020660 81.523163,28.803574 81.941376,30.534210 82.294174L31.878281 80.541672L32.854919 76.057739L32.891983 71.468826L31.967834 69.462906C30.237198 69.110107,28.454285 68.691895,26.564301 68.201172Z" style="fill: rgb(0,0,0);stroke: none;"></path>
  <path d="M28.996414 68.817337L27.675415 70.587234L26.757538 75.083527L26.780548 79.672501L27.730850 81.666122C29.534760 82.092377,31.256516 82.449341,32.950897 82.744156L34.271896 80.974258L35.189774 76.477966L35.166763 71.888992L34.216461 69.895370C32.522079 69.600555,30.800323 69.243591,28.996414 68.817337Z" style="fill: rgb(0,0,0);stroke: none;"></path>
  <path d="M31.325760 69.348419L30.028030 71.135498L29.169144 75.643448L29.252274 80.231750L30.228622 82.212769C31.969238 82.577530,33.652588 82.876251,35.333466 83.116043L36.631195 81.328964L37.490082 76.821014L37.406952 72.232712L36.430603 70.251694C34.749725 70.011902,33.066376 69.713181,31.325760 69.348419Z" style="fill: rgb(0,0,0);stroke: none;"></path>
  <path d="M33.584869 69.798965L32.310669 71.602875L31.510834 76.121658L31.653992 80.708466L32.656189 82.676529C34.356018 82.982712,36.023499 83.226089,37.713409 83.413773L38.987610 81.609863L39.787445 77.091080L39.644287 72.504272L38.642090 70.536209C36.952179 70.348526,35.284698 70.105148,33.584869 69.798965Z" style="fill: rgb(0,0,0);stroke: none;"></path>
  <path d="M35.803757 70.172745L34.553268 71.993149L33.812668 76.522034L34.015854 81.106552L35.043716 83.061325C36.725510 83.311890,38.399857 83.502884,40.121536 83.641418L41.372025 81.821014L42.112625 77.292130L41.909439 72.707611L40.881577 70.752838C39.159897 70.614304,37.485550 70.423309,35.803757 70.172745Z" style="fill: rgb(0,0,0);stroke: none;"></path>
  <path d="M38.013321 70.473740L36.786774 72.310379L36.105530 76.848572L36.368744 81.430038L37.422104 83.371201C39.108414 83.569061,40.812180 83.710602,42.588181 83.802917L43.814728 81.966278L44.495972 77.428085L44.232758 72.846619L43.179398 70.905457C41.403397 70.813141,39.699631 70.671600,38.013321 70.473740Z" style="fill: rgb(0,0,0);stroke: none;"></path>
  <path d="M40.244507 70.705978L39.042099 72.558517L38.420288 77.105255L38.743423 81.682907L39.822113 83.610123C41.535629 83.758240,43.291519 83.853271,45.144547 83.902313L46.346954 82.049774L46.968765 77.503036L46.645630 72.925385L45.566940 70.998169C43.713913 70.949127,41.958023 70.854095,40.244507 70.705978Z" style="fill: rgb(0,0,0);stroke: none;"></path>
  <path d="M42.527481 70.873520L41.349426 72.741608L40.787155 77.296066L41.170135 81.869080L42.273941 83.781998C44.037262 83.883316,45.867844 83.934799,47.820480 83.943512L48.998535 82.075424L49.560806 77.520966L49.177826 72.947952L48.074020 71.035034C46.121384 71.026321,44.290802 70.974838,42.527481 70.873520Z" style="fill: rgb(0,0,0);stroke: none;"></path>
  <path d="M44.894455 70.980270L43.740936 72.863663L43.238358 77.425140L43.681183 81.992783L44.809952 83.891129C46.145096 83.932922,47.528976 83.950058,48.982697 83.945267L50.136215 82.061874L50.638794 77.500397L50.195969 72.932755L49.067200 71.034409C47.613480 71.039200,46.229599 71.022064,44.894455 70.980270Z" style="fill: rgb(0,0,0);stroke: none;"></path>
</svg>
