<?xml version="1.0"?>
<!-- Created by MetaPost 2.11 on 2026.02.09:1107 -->
<svg version="1.1" xmlns="http://www.w3.org/2000/svg" xmlns:xlink="http://www.w3.org/1999/xlink" width="55.949585" height="87.869629" viewBox="0 0 55.949585 87.869629">
<!-- Original BoundingBox: -49.494064 -43.934814 6.455521 43.934814 -->
  <g transform="matrix(-1.000000,-0.000000,-0.000000,1.000000,0.000000,0.000000)">
    <path d="M-6.455521 20.024628C-6.455521 9.980103,-16.352661 8.069397,-27.974792 8.069397C-41.691116 8.069397,-49.494064 17.766037,-49.494064 31.979858C-49.494064 40.835648,-49.494064 47.034531,-49.494064 55.890320C-49.494064 70.104141,-41.691116 79.800781,-27.974792 79.800781C-16.352661 79.800781,-6.455521 77.890076,-6.455521 67.845551" style="stroke:rgb(0,0,0); stroke-width: 12.911026;stroke-linecap: round;stroke-linejoin: round;stroke-miterlimit: 10.000000;fill: none;"></path>
  </g>
  <path d="M12.911041 1.613876L11.020157 0.472717L6.455521 -0.000000L1.890884 0.472717L0.000000 1.613876L0.000000 20.024353L1.890884 21.165512L6.455521 21.638229L11.020157 21.165512L12.911041 20.024353Z" style="fill: rgb(0,0,0);stroke: none;"></path>
  <path d="M0.000000 86.255753L1.890884 87.396912L6.455521 87.869629L11.020157 87.396912L12.911041 86.255753L12.911041 67.845276L11.020157 66.704117L6.455521 66.231400L1.890884 66.704117L0.000000 67.845276Z" style="fill: rgb(0,0,0);stroke: none;"></path>
  <g transform="matrix(-1.000000,-0.000000,-0.000000,1.000000,0.000000,0.000000)">
    <path d="M-6.455521 20.024628C-6.455521 9.980103,-16.352661 8.069397,-27.974792 8.069397C-41.691116 8.069397,-49.494064 17.766037,-49.494064 31.979858C-49.494064 40.835648,-49.494064 47.034531,-49.494064 55.890320C-49.494064 70.104141,-41.691116 79.800781,-27.974792 79.800781C-16.352661 79.800781,-6.455521 77.890076,-6.455521 67.845551" style="stroke:rgb(0,0,0); stroke-width: 12.911026;stroke-linecap: round;stroke-linejoin: round;stroke-miterlimit: 10.000000;fill: none;"></path>
  </g>
  <path d="M12.911041 1.613876L11.020157 0.472717L6.455521 -0.000000L1.890884 0.472717L0.000000 1.613876L0.000000 20.024353L1.890884 21.165512L6.455521 21.638229L11.020157 21.165512L12.911041 20.024353Z" style="fill: rgb(0,0,0);stroke: none;"></path>
  <path d="M0.000000 86.255753L1.890884 87.396912L6.455521 87.869629L11.020157 87.396912L12.911041 86.255753L12.911041 67.845276L11.020157 66.704117L6.455521 66.231400L1.890884 66.704117L0.000000 67.845276Z" style="fill: rgb(0,0,0);stroke: none;"></path>
</svg>
