<?xml version="1.0"?>
<!-- Created by MetaPost 2.11 on 2026.02.09:1107 -->
<svg version="1.1" xmlns="http://www.w3.org/2000/svg" xmlns:xlink="http://www.w3.org/1999/xlink" width="67.246765" height="84.641876" viewBox="0 0 67.246765 84.641876">
<!-- Original BoundingBox: -12.373260 -42.320938 54.873505 42.320938 -->
  <g transform="matrix(-1.000000,-0.000000,-0.000000,-1.000000,0.000000,0.000000)">
    <path d="M-12.373260 -6.455521L-12.373260 -78.186356" style="stroke:rgb(0,0,0); stroke-width: 12.911026;stroke-linecap: round;stroke-linejoin: round;stroke-miterlimit: 10.000000;fill: none;"></path>
  </g>
  <path d="M23.132645 84.641876L24.273804 82.750992L24.746521 78.186356L24.273804 73.621719L23.132645 71.730835L1.613876 71.730835L0.472717 73.621719L0.000000 78.186356L0.472717 82.750992L1.613876 84.641876Z" style="fill: rgb(0,0,0);stroke: none;"></path>
  <path d="M23.132645 12.911041L24.273804 11.020157L24.746521 6.455521L24.273804 1.890884L23.132645 -0.000000L1.613876 -0.000000L0.472717 1.890884L0.000000 6.455521L0.472717 11.020157L1.613876 12.911041Z" style="fill: rgb(0,0,0);stroke: none;"></path>
  <path d="M67.246765 1.613892L65.355881 0.472733L60.791245 0.000015L56.226608 0.472733L54.335724 1.613892L54.335724 7.889893L56.226608 9.031052L60.791245 9.503769L65.355881 9.031052L67.246765 7.889893Z" style="fill: rgb(0,0,0);stroke: none;"></path>
  <g transform="matrix(-1.000000,-0.000000,-0.000000,-1.000000,0.000000,0.000000)">
    <path d="M-12.373260 -6.455521C-12.373260 -12.876434,-14.924347 -19.033585,-19.464264 -23.573517C-24.004196 -28.113434,-30.161346 -30.664520,-36.582260 -30.664520C-43.003174 -30.664520,-49.160324 -28.113434,-53.700256 -23.573517C-57.899902 -19.373856,-60.397675 -13.790329,-60.748505 -7.894272" style="stroke:rgb(0,0,0); stroke-width: 12.911026;stroke-linecap: round;stroke-linejoin: round;stroke-miterlimit: 10.000000;fill: none;"></path>
  </g>
  <g transform="matrix(-1.000000,-0.000000,-0.000000,-1.000000,0.000000,0.000000)">
    <path d="M-12.373260 -6.455521L-12.373260 -78.186356" style="stroke:rgb(0,0,0); stroke-width: 12.911026;stroke-linecap: round;stroke-linejoin: round;stroke-miterlimit: 10.000000;fill: none;"></path>
  </g>
  <path d="M23.132645 84.641876L24.273804 82.750992L24.746521 78.186356L24.273804 73.621719L23.132645 71.730835L1.613876 71.730835L0.472717 73.621719L0.000000 78.186356L0.472717 82.750992L1.613876 84.641876Z" style="fill: rgb(0,0,0);stroke: none;"></path>
  <path d="M23.132645 12.911041L24.273804 11.020157L24.746521 6.455521L24.273804 1.890884L23.132645 -0.000000L1.613876 -0.000000L0.472717 1.890884L0.000000 6.455521L0.472717 11.020157L1.613876 12.911041Z" style="fill: rgb(0,0,0);stroke: none;"></path>
  <path d="M67.246765 1.613892L65.355881 0.472733L60.791245 0.000015L56.226608 0.472733L54.335724 1.613892L54.335724 7.889893L56.226608 9.031052L60.791245 9.503769L65.355881 9.031052L67.246765 7.889893Z" style="fill: rgb(0,0,0);stroke: none;"></path>
  <g transform="matrix(-1.000000,-0.000000,-0.000000,-1.000000,0.000000,0.000000)">
    <path d="M-12.373260 -6.455521C-12.373260 -12.876434,-14.924347 -19.033585,-19.464264 -23.573517C-24.004196 -28.113434,-30.161346 -30.664520,-36.582260 -30.664520C-43.003174 -30.664520,-49.160324 -28.113434,-53.700256 -23.573517C-57.899902 -19.373856,-60.397675 -13.790329,-60.748505 -7.894272" style="stroke:rgb(0,0,0); stroke-width: 12.911026;stroke-linecap: round;stroke-linejoin: round;stroke-miterlimit: 10.000000;fill: none;"></path>
  </g>
</svg>
