<?xml version="1.0"?>
<!-- Created by MetaPost 2.11 on 2026.02.09:1107 -->
<svg version="1.1" xmlns="http://www.w3.org/2000/svg" xmlns:xlink="http://www.w3.org/1999/xlink" width="55.949585" height="84.641876" viewBox="0 0 55.949585 84.641876">
<!-- Original BoundingBox: -27.974792 -42.320938 27.974792 42.320938 -->
  <g transform="matrix(-1.000000,-0.000000,-0.000000,-1.000000,0.000000,0.000000)">
    <path d="M-27.974792 -54.276443C-41.691116 -54.276443,-49.494064 -44.579803,-49.494064 -30.365982C-49.494064 -16.152161,-41.691116 -6.455521,-27.974792 -6.455521C-14.258469 -6.455521,-6.455521 -16.152161,-6.455521 -30.365982C-6.455521 -44.579803,-14.258469 -54.276443,-27.974792 -54.276443Z" style="stroke:rgb(0,0,0); stroke-width: 12.911026;stroke-linecap: round;stroke-linejoin: round;stroke-miterlimit: 10.000000;fill: none;"></path>
  </g>
  <g transform="matrix(-1.000000,-0.000000,-0.000000,-1.000000,0.000000,0.000000)">
    <path d="M-49.494064 -30.365982C-49.494064 -55.453156,-49.529633 -78.186356,-27.974792 -78.186356" style="stroke:rgb(0,0,0); stroke-width: 12.911026;stroke-linecap: round;stroke-linejoin: round;stroke-miterlimit: 10.000000;fill: none;"></path>
  </g>
  <g transform="matrix(-1.000000,-0.000000,-0.000000,-1.000000,0.000000,0.000000)">
    <path d="M-6.455521 -66.231125C-6.455521 -76.275650,-16.352661 -78.186356,-27.974792 -78.186356" style="stroke:rgb(0,0,0); stroke-width: 12.911026;stroke-linecap: round;stroke-linejoin: round;stroke-miterlimit: 10.000000;fill: none;"></path>
  </g>
  <g transform="matrix(-1.000000,-0.000000,-0.000000,-1.000000,0.000000,0.000000)">
    <path d="M-27.974792 -54.276443C-41.691116 -54.276443,-49.494064 -44.579803,-49.494064 -30.365982C-49.494064 -16.152161,-41.691116 -6.455521,-27.974792 -6.455521C-14.258469 -6.455521,-6.455521 -16.152161,-6.455521 -30.365982C-6.455521 -44.579803,-14.258469 -54.276443,-27.974792 -54.276443Z" style="stroke:rgb(0,0,0); stroke-width: 12.911026;stroke-linecap: round;stroke-linejoin: round;stroke-miterlimit: 10.000000;fill: none;"></path>
  </g>
  <g transform="matrix(-1.000000,-0.000000,-0.000000,-1.000000,0.000000,0.000000)">
    <path d="M-49.494064 -30.365982C-49.494064 -55.453156,-49.529633 -78.186356,-27.974792 -78.186356" style="stroke:rgb(0,0,0); stroke-width: 12.911026;stroke-linecap: round;stroke-linejoin: round;stroke-miterlimit: 10.000000;fill: none;"></path>
  </g>
  <g transform="matrix(-1.000000,-0.000000,-0.000000,-1.000000,0.000000,0.000000)">
    <path d="M-6.455521 -66.231125C-6.455521 -76.275650,-16.352661 -78.186356,-27.974792 -78.186356" style="stroke:rgb(0,0,0); stroke-width: 12.911026;stroke-linecap: round;stroke-linejoin: round;stroke-miterlimit: 10.000000;fill: none;"></path>
  </g>
</svg>
