<?xml version="1.0"?>
<!-- Created by MetaPost 2.11 on 2026.02.09:1107 -->
<svg version="1.1" xmlns="http://www.w3.org/2000/svg" xmlns:xlink="http://www.w3.org/1999/xlink" width="13.449341" height="72.686371" viewBox="0 0 13.449341 72.686371">
<!-- Original BoundingBox: -6.993820 -54.275894 6.455521 18.410477 -->
  <path d="M6.993820 6.455521l0 0" style="stroke:rgb(0,0,0); stroke-width: 12.911026;stroke-linecap: round;stroke-linejoin: round;stroke-miterlimit: 10.000000;fill: none;"></path>
  <path d="M6.993820 54.275894l0 0" style="stroke:rgb(0,0,0); stroke-width: 12.911026;stroke-linecap: round;stroke-linejoin: round;stroke-miterlimit: 10.000000;fill: none;"></path>
  <path d="M8.607697 54.275894L8.134979 49.711258L6.993820 47.820374L5.852661 49.711258L5.379944 54.275894C5.379944 55.027252,5.345398 55.744217,5.274231 56.431427L5.746948 51.866791C5.518188 54.075729,4.910995 55.977219,3.856033 57.725281L4.997192 55.834396C4.161728 57.218750,3.045425 58.506897,1.613876 59.775330L0.472717 61.666214L0.000000 66.230850L0.472717 70.795486L1.613876 72.686371C3.045425 71.417938,4.161728 70.129791,4.997192 68.745422L6.138351 66.854538C7.193314 65.106476,7.800507 63.205002,8.029266 60.996063L8.501984 56.431427C8.573151 55.744217,8.607697 55.027252,8.607697 54.275894Z" style="fill: rgb(0,0,0);stroke: none;"></path>
</svg>
