<?xml version="1.0"?>
<!-- Created by MetaPost 2.11 on 2026.02.09:1107 -->
<svg version="1.1" xmlns="http://www.w3.org/2000/svg" xmlns:xlink="http://www.w3.org/1999/xlink" width="57.025192" height="84.641876" viewBox="0 0 57.025192 84.641876">
<!-- Original BoundingBox: -44.651932 -42.320938 12.373260 42.320938 -->
  <path d="M44.651932 78.186356L44.651932 6.455521" style="stroke:rgb(0,0,0); stroke-width: 12.911026;stroke-linecap: round;stroke-linejoin: round;stroke-miterlimit: 10.000000;fill: none;"></path>
  <path d="M33.892548 71.730835L32.751389 73.621719L32.278671 78.186356L32.751389 82.750992L33.892548 84.641876L55.411316 84.641876L56.552475 82.750992L57.025192 78.186356L56.552475 73.621719L55.411316 71.730835Z" style="fill: rgb(0,0,0);stroke: none;"></path>
  <path d="M55.411316 12.911041L56.552475 11.020157L57.025192 6.455521L56.552475 1.890884L55.411316 -0.000000L1.613892 -0.000000L0.472733 1.890884L0.000015 6.455521L0.472733 11.020157L1.613892 12.911041Z" style="fill: rgb(0,0,0);stroke: none;"></path>
  <path d="M12.911041 6.455521L11.020157 5.314362L6.455521 4.841644L1.890884 5.314362L0.000000 6.455521C0.000000 10.374146,0.000000 13.117126,0.000000 17.035751L1.890884 18.176910L6.455521 18.649628L11.020157 18.176910L12.911041 17.035751C12.911041 13.117126,12.911041 10.374146,12.911041 6.455521Z" style="fill: rgb(0,0,0);stroke: none;"></path>
</svg>
