<?xml version="1.0"?>
<!-- Created by MetaPost 2.11 on 2026.02.09:1107 -->
<svg version="1.1" xmlns="http://www.w3.org/2000/svg" xmlns:xlink="http://www.w3.org/1999/xlink" width="80.884857" height="84.168686" viewBox="0 0 80.884857 84.168686">
<!-- Original BoundingBox: -68.511597 -41.847748 12.373260 42.320938 -->
  <path d="M62.056076 82.382401L63.946960 83.523560L68.511597 83.996277L73.076233 83.523560L74.967117 82.382401L74.967117 6.455521L73.076233 5.314362L68.511597 4.841644L63.946960 5.314362L62.056076 6.455521Z" style="fill: rgb(0,0,0);stroke: none;"></path>
  <path d="M57.752213 -0.000000L56.611053 1.890884L56.138336 6.455521L56.611053 11.020157L57.752213 12.911041L79.270981 12.911041L80.412140 11.020157L80.884857 6.455521L80.412140 1.890884L79.270981 -0.000000Z" style="fill: rgb(0,0,0);stroke: none;"></path>
  <path d="M35.065460 61.844803L33.483856 63.386307L31.873932 67.683716L31.178833 72.219833L31.805603 74.337601C32.214798 74.652359,32.694565 74.995071,33.224075 75.353760L34.805679 73.812256L36.415604 69.514847L37.110703 64.978729L36.483932 62.860962C35.954422 62.502274,35.474655 62.159561,35.065460 61.844803Z" style="fill: rgb(0,0,0);stroke: none;"></path>
  <path d="M35.303497 62.065186L33.742188 63.627258L32.188629 67.945343L31.552917 72.490173L32.207336 74.599548C32.816711 75.050522,33.549652 75.548706,34.352020 76.062912L35.913330 74.500839L37.466888 70.182755L38.102600 65.637924L37.448181 63.528549C36.645813 63.014343,35.912872 62.516159,35.303497 62.065186Z" style="fill: rgb(0,0,0);stroke: none;"></path>
  <path d="M36.123840 62.686829L34.583115 64.269180L33.086197 68.607224L32.510025 73.159958L33.191986 75.260590C33.902496 75.748016,34.711960 76.268478,35.566223 76.790787L37.106949 75.208435L38.603867 70.870392L39.180038 66.317657L38.498077 64.217026C37.643814 63.694717,36.834351 63.174255,36.123840 62.686829Z" style="fill: rgb(0,0,0);stroke: none;"></path>
  <path d="M37.066284 63.350266L35.546402 64.952637L34.106430 69.309891L33.589920 73.869751L34.299316 75.961258C35.088608 76.472290,35.952240 77.002182,36.836075 77.519760L38.355957 75.917389L39.795929 71.560135L40.312439 67.000275L39.603043 64.908768C38.719208 64.391190,37.855576 63.861298,37.066284 63.350266Z" style="fill: rgb(0,0,0);stroke: none;"></path>
  <path d="M38.100983 64.038284L36.602203 65.660446L35.219360 70.036209L34.762573 74.602493L35.499298 76.684555C36.344971 77.206268,37.240372 77.732681,38.131363 78.232605L39.630142 76.610443L41.012985 72.234680L41.469772 67.668396L40.733047 65.586334C39.842056 65.086411,38.946655 64.559998,38.100983 64.038284Z" style="fill: rgb(0,0,0);stroke: none;"></path>
  <path d="M39.197067 64.733307L37.719666 66.374954L36.394287 70.768417L35.997345 75.340256L36.761276 77.412476C37.641006 77.932037,38.545853 78.442108,39.421677 78.911530L40.899078 77.269882L42.224457 72.876419L42.621399 68.304581L41.857468 66.232361C40.981644 65.762939,40.076797 65.252869,39.197067 64.733307Z" style="fill: rgb(0,0,0);stroke: none;"></path>
  <path d="M40.324188 65.417648L38.868393 67.078461L37.600601 71.488892L37.263504 76.065521L38.054474 78.127548C38.945831 78.632034,39.837708 79.112869,40.675934 79.538879L42.131729 77.878067L43.399521 73.467636L43.736618 68.891006L42.945648 66.828979C42.107422 66.402969,41.215546 65.922134,40.324188 65.417648Z" style="fill: rgb(0,0,0);stroke: none;"></path>
  <path d="M41.451736 66.073654L40.017792 67.753387L38.807785 72.180069L38.530609 76.760773L39.348495 78.812302C40.229141 79.288849,41.085678 79.727570,41.863968 80.097275L43.297913 78.417542L44.507919 73.990860L44.785095 69.410156L43.967209 67.358627C43.188919 66.988922,42.332382 66.550201,41.451736 66.073654Z" style="fill: rgb(0,0,0);stroke: none;"></path>
  <path d="M42.548752 66.683762L41.136932 68.382126L39.985031 72.824265L39.767883 77.408188L40.612564 79.448807C41.460114 79.884537,42.258957 80.268265,42.954941 80.568832L44.366760 78.870468L45.518661 74.428329L45.735809 69.844406L44.891129 67.803787C44.195145 67.503220,43.396301 67.119492,42.548752 66.683762Z" style="fill: rgb(0,0,0);stroke: none;"></path>
  <path d="M43.585648 67.230698L42.196182 68.947403L41.102524 73.404221L40.945389 77.990585L41.816727 80.019974C42.392792 80.297806,42.930069 80.540634,43.407730 80.736481C43.761307 80.881454,44.136902 81.023346,44.531967 81.161835L45.921432 79.445129L47.015091 74.988312L47.172226 70.401947L46.300888 68.372559C45.905823 68.234070,45.530228 68.092178,45.176651 67.947205C44.698990 67.751358,44.161713 67.508530,43.585648 67.230698Z" style="fill: rgb(0,0,0);stroke: none;"></path>
  <path d="M44.531540 67.696655L43.164642 69.431412L42.129395 73.902161L42.032257 78.490189L42.930069 80.508026C43.124847 80.594040,43.312347 80.674088,43.491455 80.747528C44.434387 81.134140,45.533951 81.498856,46.741745 81.835403L48.108643 80.100647L49.143890 75.629898L49.241028 71.041870L48.343216 69.024033C47.135422 68.687485,46.035858 68.322769,45.092926 67.936157C44.913818 67.862717,44.726318 67.782669,44.531540 67.696655Z" style="fill: rgb(0,0,0);stroke: none;"></path>
  <path d="M45.744965 68.212021L44.400894 69.964523L43.424255 74.448456L43.387192 79.037369L44.311340 81.043289C45.711395 81.559280,47.384705 82.030914,49.205444 82.441833L50.549515 80.689331L51.526154 76.205399L51.563217 71.616486L50.639069 69.610565C48.818329 69.199646,47.145020 68.728012,45.744965 68.212021Z" style="fill: rgb(0,0,0);stroke: none;"></path>
  <path d="M47.727753 68.877884L46.406754 70.647781L45.488876 75.144073L45.511887 79.733047L46.462189 81.726669C48.084625 82.198944,49.923096 82.619415,51.851837 82.971756L53.172836 81.201859L54.090714 76.705566L54.067703 72.116592L53.117401 70.122971C51.188660 69.770630,49.350189 69.350159,47.727753 68.877884Z" style="fill: rgb(0,0,0);stroke: none;"></path>
  <path d="M49.977493 69.480347L48.679764 71.267426L47.820877 75.775375L47.904007 80.363678L48.880356 82.344696C50.673233 82.766525,52.625000 83.129135,54.609848 83.416168L55.907578 81.629089L56.766464 77.121140L56.683334 72.532837L55.706985 70.551819C53.722137 70.264786,51.770370 69.902176,49.977493 69.480347Z" style="fill: rgb(0,0,0);stroke: none;"></path>
  <path d="M52.424896 70.010727L51.150696 71.814636L50.350861 76.333420L50.494019 80.920227L51.496216 82.888290C53.407501 83.252899,55.420486 83.550858,57.409378 83.765808L58.683578 81.961899L59.483414 77.443115L59.340256 72.856308L58.338058 70.888245C56.349167 70.673294,54.336182 70.375336,52.424896 70.010727Z" style="fill: rgb(0,0,0);stroke: none;"></path>
  <path d="M54.998276 70.459595L53.747787 72.279999L53.007187 76.808884L53.210373 81.393402L54.238235 83.348175C56.216064 83.648819,58.238403 83.875366,60.179443 84.011475L61.429932 82.191071L62.170532 77.662186L61.967346 73.077667L60.939484 71.122894C58.998444 70.986786,56.976105 70.760239,54.998276 70.459595Z" style="fill: rgb(0,0,0);stroke: none;"></path>
  <path d="M57.626770 70.817673L56.400223 72.654312L55.718979 77.192505L55.982193 81.773972L57.035553 83.715134C59.027817 83.945038,61.007401 84.093414,62.848526 84.143921L64.075073 82.307281L64.756317 77.769089L64.493103 73.187622L63.439743 71.246460C61.598618 71.195953,59.619034 71.047577,57.626770 70.817673Z" style="fill: rgb(0,0,0);stroke: none;"></path>
  <path d="M60.239563 71.075775L59.037155 72.928314L58.415344 77.475052L58.738480 82.052704L59.817169 83.979919C61.771942 84.132324,63.656860 84.195770,65.346100 84.153915L66.548508 82.301376L67.170319 77.754639L66.847183 73.176987L65.768494 71.249771C64.079254 71.291626,62.194336 71.228180,60.239563 71.075775Z" style="fill: rgb(0,0,0);stroke: none;"></path>
  <path d="M62.764954 71.224731L61.586899 73.092819L61.024628 77.647278L61.407608 82.220291L62.511414 84.133209C64.376709 84.201385,66.114975 84.173187,67.600403 84.032257L68.778458 82.164169L69.340729 77.609711L68.957748 73.036697L67.853943 71.123779C66.368515 71.264709,64.630249 71.292908,62.764954 71.224731Z" style="fill: rgb(0,0,0);stroke: none;"></path>
  <path d="M65.133591 71.255249L63.980072 73.138641L63.477493 77.700119L63.920319 82.267761L65.049088 84.166107C66.302780 84.149506,67.459045 84.077988,68.469467 83.945267L69.622986 82.061874L70.125565 77.500397L69.682739 72.932755L68.553970 71.034409C67.543549 71.167130,66.387283 71.238647,65.133591 71.255249Z" style="fill: rgb(0,0,0);stroke: none;"></path>
  <path d="M3.886627 61.844803L2.305023 63.386307L0.695099 67.683716L0.000000 72.219833L0.626770 74.337601C1.035965 74.652359,1.515732 74.995071,2.045242 75.353760L3.626846 73.812256L5.236771 69.514847L5.931870 64.978729L5.305099 62.860962C4.775589 62.502274,4.295822 62.159561,3.886627 61.844803Z" style="fill: rgb(0,0,0);stroke: none;"></path>
  <path d="M4.124664 62.065186L2.563354 63.627258L1.009796 67.945343L0.374084 72.490173L1.028503 74.599548C1.637878 75.050522,2.370819 75.548706,3.173187 76.062912L4.734497 74.500839L6.288055 70.182755L6.923767 65.637924L6.269348 63.528549C5.466980 63.014343,4.734039 62.516159,4.124664 62.065186Z" style="fill: rgb(0,0,0);stroke: none;"></path>
  <path d="M4.945007 62.686829L3.404282 64.269180L1.907364 68.607224L1.331192 73.159958L2.013153 75.260590C2.723663 75.748016,3.533127 76.268478,4.387390 76.790787L5.928116 75.208435L7.425034 70.870392L8.001205 66.317657L7.319244 64.217026C6.464981 63.694717,5.655518 63.174255,4.945007 62.686829Z" style="fill: rgb(0,0,0);stroke: none;"></path>
  <path d="M5.887451 63.350266L4.367569 64.952637L2.927597 69.309891L2.411087 73.869751L3.120483 75.961258C3.909775 76.472290,4.773407 77.002182,5.657242 77.519760L7.177124 75.917389L8.617096 71.560135L9.133606 67.000275L8.424210 64.908768C7.540375 64.391190,6.676743 63.861298,5.887451 63.350266Z" style="fill: rgb(0,0,0);stroke: none;"></path>
  <path d="M6.922150 64.038284L5.423370 65.660446L4.040527 70.036209L3.583740 74.602493L4.320465 76.684555C5.166138 77.206268,6.061539 77.732681,6.952530 78.232605L8.451309 76.610443L9.834152 72.234680L10.290939 67.668396L9.554214 65.586334C8.663223 65.086411,7.767822 64.559998,6.922150 64.038284Z" style="fill: rgb(0,0,0);stroke: none;"></path>
  <path d="M8.018234 64.733307L6.540833 66.374954L5.215454 70.768417L4.818512 75.340256L5.582443 77.412476C6.462173 77.932037,7.367020 78.442108,8.242844 78.911530L9.720245 77.269882L11.045624 72.876419L11.442566 68.304581L10.678635 66.232361C9.802811 65.762939,8.897964 65.252869,8.018234 64.733307Z" style="fill: rgb(0,0,0);stroke: none;"></path>
  <path d="M9.145355 65.417648L7.689560 67.078461L6.421768 71.488892L6.084671 76.065521L6.875641 78.127548C7.766998 78.632034,8.658875 79.112869,9.497101 79.538879L10.952896 77.878067L12.220688 73.467636L12.557785 68.891006L11.766815 66.828979C10.928589 66.402969,10.036713 65.922134,9.145355 65.417648Z" style="fill: rgb(0,0,0);stroke: none;"></path>
  <path d="M10.272903 66.073654L8.838959 67.753387L7.628952 72.180069L7.351776 76.760773L8.169662 78.812302C9.050308 79.288849,9.906845 79.727570,10.685135 80.097275L12.119080 78.417542L13.329086 73.990860L13.606262 69.410156L12.788376 67.358627C12.010086 66.988922,11.153549 66.550201,10.272903 66.073654Z" style="fill: rgb(0,0,0);stroke: none;"></path>
  <path d="M11.369919 66.683762L9.958099 68.382126L8.806198 72.824265L8.589050 77.408188L9.433731 79.448807C10.281281 79.884537,11.080124 80.268265,11.776108 80.568832L13.187927 78.870468L14.339828 74.428329L14.556976 69.844406L13.712296 67.803787C13.016312 67.503220,12.217468 67.119492,11.369919 66.683762Z" style="fill: rgb(0,0,0);stroke: none;"></path>
  <path d="M12.406815 67.230698L11.017349 68.947403L9.923691 73.404221L9.766556 77.990585L10.637894 80.019974C11.213959 80.297806,11.751236 80.540634,12.228897 80.736481C12.582474 80.881454,12.958069 81.023346,13.353134 81.161835L14.742599 79.445129L15.836258 74.988312L15.993393 70.401947L15.122055 68.372559C14.726990 68.234070,14.351395 68.092178,13.997818 67.947205C13.520157 67.751358,12.982880 67.508530,12.406815 67.230698Z" style="fill: rgb(0,0,0);stroke: none;"></path>
  <path d="M13.352707 67.696655L11.985809 69.431412L10.950562 73.902161L10.853424 78.490189L11.751236 80.508026C11.946014 80.594040,12.133514 80.674088,12.312622 80.747528C13.255554 81.134140,14.355118 81.498856,15.562912 81.835403L16.929810 80.100647L17.965057 75.629898L18.062195 71.041870L17.164383 69.024033C15.956589 68.687485,14.857025 68.322769,13.914093 67.936157C13.734985 67.862717,13.547485 67.782669,13.352707 67.696655Z" style="fill: rgb(0,0,0);stroke: none;"></path>
  <path d="M14.566132 68.212021L13.222061 69.964523L12.245422 74.448456L12.208359 79.037369L13.132507 81.043289C14.532562 81.559280,16.205872 82.030914,18.026611 82.441833L19.370682 80.689331L20.347321 76.205399L20.384384 71.616486L19.460236 69.610565C17.639496 69.199646,15.966187 68.728012,14.566132 68.212021Z" style="fill: rgb(0,0,0);stroke: none;"></path>
  <path d="M16.548920 68.877884L15.227921 70.647781L14.310043 75.144073L14.333054 79.733047L15.283356 81.726669C16.905792 82.198944,18.744263 82.619415,20.673004 82.971756L21.994003 81.201859L22.911880 76.705566L22.888870 72.116592L21.938568 70.122971C20.009827 69.770630,18.171356 69.350159,16.548920 68.877884Z" style="fill: rgb(0,0,0);stroke: none;"></path>
  <path d="M18.798660 69.480347L17.500931 71.267426L16.642044 75.775375L16.725174 80.363678L17.701523 82.344696C19.494400 82.766525,21.446167 83.129135,23.431015 83.416168L24.728745 81.629089L25.587631 77.121140L25.504501 72.532837L24.528152 70.551819C22.543304 70.264786,20.591537 69.902176,18.798660 69.480347Z" style="fill: rgb(0,0,0);stroke: none;"></path>
  <path d="M21.246063 70.010727L19.971863 71.814636L19.172028 76.333420L19.315186 80.920227L20.317383 82.888290C22.228668 83.252899,24.241653 83.550858,26.230545 83.765808L27.504745 81.961899L28.304581 77.443115L28.161423 72.856308L27.159225 70.888245C25.170334 70.673294,23.157349 70.375336,21.246063 70.010727Z" style="fill: rgb(0,0,0);stroke: none;"></path>
  <path d="M23.819443 70.459595L22.568954 72.279999L21.828354 76.808884L22.031540 81.393402L23.059402 83.348175C25.037231 83.648819,27.059570 83.875366,29.000610 84.011475L30.251099 82.191071L30.991699 77.662186L30.788513 73.077667L29.760651 71.122894C27.819611 70.986786,25.797272 70.760239,23.819443 70.459595Z" style="fill: rgb(0,0,0);stroke: none;"></path>
  <path d="M26.447937 70.817673L25.221390 72.654312L24.540146 77.192505L24.803360 81.773972L25.856720 83.715134C27.848984 83.945038,29.828568 84.093414,31.669693 84.143921L32.896240 82.307281L33.577484 77.769089L33.314270 73.187622L32.260910 71.246460C30.419785 71.195953,28.440201 71.047577,26.447937 70.817673Z" style="fill: rgb(0,0,0);stroke: none;"></path>
  <path d="M29.060730 71.075775L27.858322 72.928314L27.236511 77.475052L27.559647 82.052704L28.638336 83.979919C30.593109 84.132324,32.478027 84.195770,34.167267 84.153915L35.369675 82.301376L35.991486 77.754639L35.668350 73.176987L34.589661 71.249771C32.900421 71.291626,31.015503 71.228180,29.060730 71.075775Z" style="fill: rgb(0,0,0);stroke: none;"></path>
  <path d="M31.586121 71.224731L30.408066 73.092819L29.845795 77.647278L30.228775 82.220291L31.332581 84.133209C33.197876 84.201385,34.936142 84.173187,36.421570 84.032257L37.599625 82.164169L38.161896 77.609711L37.778915 73.036697L36.675110 71.123779C35.189682 71.264709,33.451416 71.292908,31.586121 71.224731Z" style="fill: rgb(0,0,0);stroke: none;"></path>
  <path d="M33.954758 71.255249L32.801239 73.138641L32.298660 77.700119L32.741486 82.267761L33.870255 84.166107C35.123947 84.149506,36.280212 84.077988,37.290634 83.945267L38.444153 82.061874L38.946732 77.500397L38.503906 72.932755L37.375137 71.034409C36.364716 71.167130,35.208450 71.238647,33.954758 71.255249Z" style="fill: rgb(0,0,0);stroke: none;"></path>
  <path d="M35.024582 61.834259L33.453094 63.386078L31.871307 67.693939L31.205872 72.234528L31.846481 74.348145L32.470093 75.851944L34.041580 74.300125L35.623367 69.992264L36.288803 65.451675L35.648193 63.338058Z" style="fill: rgb(0,0,0);stroke: none;"></path>
  <path d="M35.016159 62.170731L33.485809 63.763123L32.017319 68.110886L31.470947 72.667297L32.166641 74.763412L33.024078 76.831177L34.554428 75.238785L36.022919 70.891022L36.569290 66.334610L35.873596 64.238495Z" style="fill: rgb(0,0,0);stroke: none;"></path>
  <path d="M35.240509 63.075500L33.752396 64.707428L32.398270 69.092163L31.971420 73.661316L32.721771 75.738495L33.579208 77.806213L35.067322 76.174286L36.421448 71.789551L36.848297 67.220398L36.097946 65.143219Z" style="fill: rgb(0,0,0);stroke: none;"></path>
  <path d="M35.464111 63.984680L34.019241 65.654999L32.780365 70.073624L32.473282 74.652344L33.277740 76.709167L34.135132 78.776855L35.580002 77.106537L36.818878 72.687912L37.125961 68.109192L36.321503 66.052368Z" style="fill: rgb(0,0,0);stroke: none;"></path>
  <path d="M36.544968 66.933044L35.686951 64.897980L34.286270 66.605560L33.163437 71.055130L32.976273 75.640381L33.833664 77.708054L34.691681 79.743118L36.092361 78.035538L37.215195 73.585968L37.402359 69.000717Z" style="fill: rgb(0,0,0);stroke: none;"></path>
  <path d="M36.820129 67.827744L35.909134 65.815842L34.553619 67.559494L33.547668 72.036942L33.480591 76.625534L34.338028 78.693268L35.249023 80.705170L36.604538 78.961517L37.610489 74.484070L37.677567 69.895477Z" style="fill: rgb(0,0,0);stroke: none;"></path>
  <path d="M37.094116 68.725342L36.130783 66.737961L34.821381 68.516479L33.932953 73.018723L33.985992 77.607452L34.843430 79.675171L35.806763 81.662552L37.116165 79.884033L38.004593 75.381790L37.951553 70.793060Z" style="fill: rgb(0,0,0);stroke: none;"></path>
  <path d="M37.367081 69.626068L36.352020 67.664597L35.089645 69.476807L34.319412 74.000778L34.492599 78.586578L35.350037 80.654297L36.365097 82.615768L37.627472 80.803558L38.397705 76.279587L38.224518 71.693787Z" style="fill: rgb(0,0,0);stroke: none;"></path>
  <path d="M37.639069 70.529968L36.573029 68.595749L35.358521 70.440369L34.706955 74.982880L35.000092 79.562531L35.857529 81.630249L36.923569 83.564468L38.138077 81.719849L38.789642 77.177338L38.496506 72.597687Z" style="fill: rgb(0,0,0);stroke: none;"></path>
  <path d="M37.910080 71.436752L36.793793 69.531113L35.627975 71.406876L35.095551 75.964905L35.508469 80.535324L36.132080 82.039124L37.248367 83.944763L38.414185 82.069000L38.946609 77.510971L38.533691 72.940552Z" style="fill: rgb(0,0,0);stroke: none;"></path>
</svg>
