<?xml version="1.0"?>
<!-- Created by MetaPost 2.11 on 2026.02.09:1107 -->
<svg version="1.1" xmlns="http://www.w3.org/2000/svg" xmlns:xlink="http://www.w3.org/1999/xlink" width="57.025192" height="84.641876" viewBox="0 0 57.025192 84.641876">
<!-- Original BoundingBox: -12.373260 -42.320938 44.651932 42.320938 -->
  <g transform="matrix(-1.000000,-0.000000,-0.000000,-1.000000,0.000000,0.000000)">
    <path d="M-12.373260 -6.455521L-12.373260 -78.186356" style="stroke:rgb(0,0,0); stroke-width: 12.911026;stroke-linecap: round;stroke-linejoin: round;stroke-miterlimit: 10.000000;fill: none;"></path>
  </g>
  <path d="M23.132645 12.911041L24.273804 11.020157L24.746521 6.455521L24.273804 1.890884L23.132645 -0.000000L1.613876 -0.000000L0.472717 1.890884L0.000000 6.455521L0.472717 11.020157L1.613876 12.911041Z" style="fill: rgb(0,0,0);stroke: none;"></path>
  <path d="M1.613876 71.730835L0.472717 73.621719L0.000000 78.186356L0.472717 82.750992L1.613876 84.641876L55.411301 84.641876L56.552460 82.750992L57.025177 78.186356L56.552460 73.621719L55.411301 71.730835Z" style="fill: rgb(0,0,0);stroke: none;"></path>
  <path d="M44.114151 78.186356L46.005035 79.327515L50.569672 79.800232L55.134308 79.327515L57.025192 78.186356C57.025192 74.267731,57.025192 71.524750,57.025192 67.606125L55.134308 66.464966L50.569672 65.992249L46.005035 66.464966L44.114151 67.606125C44.114151 71.524750,44.114151 74.267731,44.114151 78.186356Z" style="fill: rgb(0,0,0);stroke: none;"></path>
  <g transform="matrix(-1.000000,-0.000000,-0.000000,-1.000000,0.000000,0.000000)">
    <path d="M-12.373260 -6.455521L-12.373260 -78.186356" style="stroke:rgb(0,0,0); stroke-width: 12.911026;stroke-linecap: round;stroke-linejoin: round;stroke-miterlimit: 10.000000;fill: none;"></path>
  </g>
  <path d="M23.132645 12.911041L24.273804 11.020157L24.746521 6.455521L24.273804 1.890884L23.132645 -0.000000L1.613876 -0.000000L0.472717 1.890884L0.000000 6.455521L0.472717 11.020157L1.613876 12.911041Z" style="fill: rgb(0,0,0);stroke: none;"></path>
  <path d="M1.613876 71.730835L0.472717 73.621719L0.000000 78.186356L0.472717 82.750992L1.613876 84.641876L55.411301 84.641876L56.552460 82.750992L57.025177 78.186356L56.552460 73.621719L55.411301 71.730835Z" style="fill: rgb(0,0,0);stroke: none;"></path>
  <path d="M44.114151 78.186356L46.005035 79.327515L50.569672 79.800232L55.134308 79.327515L57.025192 78.186356C57.025192 74.267731,57.025192 71.524750,57.025192 67.606125L55.134308 66.464966L50.569672 65.992249L46.005035 66.464966L44.114151 67.606125C44.114151 71.524750,44.114151 74.267731,44.114151 78.186356Z" style="fill: rgb(0,0,0);stroke: none;"></path>
</svg>
