<?xml version="1.0"?>
<!-- Created by MetaPost 2.11 on 2026.02.09:1107 -->
<svg version="1.1" xmlns="http://www.w3.org/2000/svg" xmlns:xlink="http://www.w3.org/1999/xlink" width="75.316437" height="84.641876" viewBox="0 0 75.316437 84.641876">
<!-- Original BoundingBox: -36.582260 -42.320938 38.734177 42.320938 -->
  <g transform="matrix(-1.000000,-0.000000,-0.000000,1.000000,0.000000,0.000000)">
    <path d="M-36.582260 78.186356L-36.582260 24.388229" style="stroke:rgb(0,0,0); stroke-width: 12.911026;stroke-linecap: round;stroke-linejoin: round;stroke-miterlimit: 10.000000;fill: none;"></path>
  </g>
  <path d="M47.341644 84.641876L48.482803 82.750992L48.955521 78.186356L48.482803 73.621719L47.341644 71.730835L25.822876 71.730835L24.681717 73.621719L24.209000 78.186356L24.681717 82.750992L25.822876 84.641876Z" style="fill: rgb(0,0,0);stroke: none;"></path>
  <g transform="matrix(-1.000000,-0.000000,-0.000000,1.000000,0.000000,0.000000)">
    <path d="M-36.582260 24.388229C-36.582260 13.727936,-42.434418 6.455521,-52.721588 6.455521C-63.008759 6.455521,-68.860916 13.727936,-68.860916 24.388229C-68.860916 39.454895,-54.015320 42.320938,-36.582260 42.320938C-21.904037 42.320938,-12.373260 33.499039,-12.373260 19.008636L-12.373260 6.455521" style="stroke:rgb(0,0,0); stroke-width: 12.911026;stroke-linecap: round;stroke-linejoin: round;stroke-miterlimit: 10.000000;fill: none;"></path>
  </g>
  <path d="M23.132645 12.911041L24.273804 11.020157L24.746521 6.455521L24.273804 1.890884L23.132645 -0.000000L1.613876 -0.000000L0.472717 1.890884L0.000000 6.455521L0.472717 11.020157L1.613876 12.911041Z" style="fill: rgb(0,0,0);stroke: none;"></path>
  <g transform="matrix(-1.000000,-0.000000,-0.000000,1.000000,0.000000,0.000000)">
    <path d="M-36.582260 78.186356L-36.582260 24.388229" style="stroke:rgb(0,0,0); stroke-width: 12.911026;stroke-linecap: round;stroke-linejoin: round;stroke-miterlimit: 10.000000;fill: none;"></path>
  </g>
  <path d="M47.341644 84.641876L48.482803 82.750992L48.955521 78.186356L48.482803 73.621719L47.341644 71.730835L25.822876 71.730835L24.681717 73.621719L24.209000 78.186356L24.681717 82.750992L25.822876 84.641876Z" style="fill: rgb(0,0,0);stroke: none;"></path>
  <g transform="matrix(-1.000000,-0.000000,-0.000000,1.000000,0.000000,0.000000)">
    <path d="M-36.582260 24.388229C-36.582260 13.727936,-42.434418 6.455521,-52.721588 6.455521C-63.008759 6.455521,-68.860916 13.727936,-68.860916 24.388229C-68.860916 39.454895,-54.015320 42.320938,-36.582260 42.320938C-21.904037 42.320938,-12.373260 33.499039,-12.373260 19.008636L-12.373260 6.455521" style="stroke:rgb(0,0,0); stroke-width: 12.911026;stroke-linecap: round;stroke-linejoin: round;stroke-miterlimit: 10.000000;fill: none;"></path>
  </g>
  <path d="M23.132645 12.911041L24.273804 11.020157L24.746521 6.455521L24.273804 1.890884L23.132645 -0.000000L1.613876 -0.000000L0.472717 1.890884L0.000000 6.455521L0.472717 11.020157L1.613876 12.911041Z" style="fill: rgb(0,0,0);stroke: none;"></path>
</svg>
