<?xml version="1.0"?>
<!-- Created by MetaPost 2.11 on 2026.02.09:1107 -->
<svg version="1.1" xmlns="http://www.w3.org/2000/svg" xmlns:xlink="http://www.w3.org/1999/xlink" width="57.025177" height="84.641876" viewBox="0 0 57.025177 84.641876">
<!-- Original BoundingBox: -28.512589 -42.320938 28.512589 42.320938 -->
  <path d="M44.651917 6.455521L28.512589 42.320938" style="stroke:rgb(0,0,0); stroke-width: 12.911026;stroke-linecap: round;stroke-linejoin: round;stroke-miterlimit: 10.000000;fill: none;"></path>
  <path d="M12.373260 6.455521L28.512589 42.320938" style="stroke:rgb(0,0,0); stroke-width: 12.911026;stroke-linecap: round;stroke-linejoin: round;stroke-miterlimit: 10.000000;fill: none;"></path>
  <path d="M33.892532 -0.000000L32.751373 1.890884L32.278656 6.455521L32.751373 11.020157L33.892532 12.911041L55.411301 12.911041L56.552460 11.020157L57.025177 6.455521L56.552460 1.890884L55.411301 -0.000000Z" style="fill: rgb(0,0,0);stroke: none;"></path>
  <path d="M1.613876 -0.000000L0.472717 1.890884L0.000000 6.455521L0.472717 11.020157L1.613876 12.911041L23.132645 12.911041L24.273804 11.020157L24.746521 6.455521L24.273804 1.890884L23.132645 -0.000000Z" style="fill: rgb(0,0,0);stroke: none;"></path>
  <path d="M28.512589 42.320938C18.225418 42.320938,12.373260 49.593353,12.373260 60.253647C12.373260 70.913940,18.225418 78.186356,28.512589 78.186356C38.799759 78.186356,44.651917 70.913940,44.651917 60.253647C44.651917 49.593353,38.799759 42.320938,28.512589 42.320938Z" style="stroke:rgb(0,0,0); stroke-width: 12.911026;stroke-linecap: round;stroke-linejoin: round;stroke-miterlimit: 10.000000;fill: none;"></path>
</svg>
