<?xml version="1.0"?>
<!-- Created by MetaPost 2.11 on 2026.02.09:1107 -->
<svg version="1.1" xmlns="http://www.w3.org/2000/svg" xmlns:xlink="http://www.w3.org/1999/xlink" width="55.950089" height="87.869629" viewBox="0 0 55.950089 87.869629">
<!-- Original BoundingBox: -6.456024 -43.934814 49.494064 43.934814 -->
  <path d="M49.494568 20.024628C49.494568 9.980103,39.597427 8.069397,27.975296 8.069397C14.258972 8.069397,6.456024 17.766037,6.456024 31.979858C6.456024 42.024384,16.353165 43.935089,27.975296 43.935089" style="stroke:rgb(0,0,0); stroke-width: 12.911026;stroke-linecap: round;stroke-linejoin: round;stroke-miterlimit: 10.000000;fill: none;"></path>
  <path d="M6.455521 67.845001C6.455521 77.889526,16.352661 79.800232,27.974792 79.800232C41.691116 79.800232,49.494064 70.103592,49.494064 55.889771C49.494064 45.845245,39.596924 43.934540,27.974792 43.934540" style="stroke:rgb(0,0,0); stroke-width: 12.911026;stroke-linecap: round;stroke-linejoin: round;stroke-miterlimit: 10.000000;fill: none;"></path>
  <path d="M55.950089 1.613876L54.059204 0.472717L49.494568 -0.000000L44.929932 0.472717L43.039047 1.613876L43.039047 20.024353L44.929932 21.165512L49.494568 21.638229L54.059204 21.165512L55.950089 20.024353Z" style="fill: rgb(0,0,0);stroke: none;"></path>
  <path d="M0.000000 86.255753L1.890884 87.396912L6.455521 87.869629L11.020157 87.396912L12.911041 86.255753L12.911041 67.845276L11.020157 66.704117L6.455521 66.231400L1.890884 66.704117L0.000000 67.845276Z" style="fill: rgb(0,0,0);stroke: none;"></path>
</svg>
