<?xml version="1.0"?>
<!-- Created by MetaPost 2.11 on 2026.02.09:1107 -->
<svg version="1.1" xmlns="http://www.w3.org/2000/svg" xmlns:xlink="http://www.w3.org/1999/xlink" width="55.949585" height="84.641876" viewBox="0 0 55.949585 84.641876">
<!-- Original BoundingBox: -49.494064 -42.320938 6.455521 42.320938 -->
  <g transform="matrix(-1.000000,-0.000000,-0.000000,1.000000,0.000000,0.000000)">
    <path d="M-6.455521 18.410751C-6.455521 8.366226,-16.352661 6.455521,-27.974792 6.455521C-41.691116 6.455521,-49.494064 16.152161,-49.494064 30.365982C-49.494064 40.410507,-39.596924 42.321213,-27.974792 42.321213" style="stroke:rgb(0,0,0); stroke-width: 12.911026;stroke-linecap: round;stroke-linejoin: round;stroke-miterlimit: 10.000000;fill: none;"></path>
  </g>
  <g transform="matrix(-1.000000,-0.000000,-0.000000,1.000000,0.000000,0.000000)">
    <path d="M-6.455521 66.231125C-6.455521 76.275650,-16.352661 78.186356,-27.974792 78.186356C-41.691116 78.186356,-49.494064 68.489716,-49.494064 54.275894C-49.494064 44.231369,-39.596924 42.320663,-27.974792 42.320663" style="stroke:rgb(0,0,0); stroke-width: 12.911026;stroke-linecap: round;stroke-linejoin: round;stroke-miterlimit: 10.000000;fill: none;"></path>
  </g>
  <path d="M31.740585 30.365982L29.849701 29.224823L25.285065 28.752106L20.720428 29.224823L18.829544 30.365982L18.829544 54.275894L20.720428 55.417053L25.285065 55.889771L29.849701 55.417053L31.740585 54.275894Z" style="fill: rgb(0,0,0);stroke: none;"></path>
  <g transform="matrix(-1.000000,-0.000000,-0.000000,1.000000,0.000000,0.000000)">
    <path d="M-6.455521 18.410751C-6.455521 8.366226,-16.352661 6.455521,-27.974792 6.455521C-41.691116 6.455521,-49.494064 16.152161,-49.494064 30.365982C-49.494064 40.410507,-39.596924 42.321213,-27.974792 42.321213" style="stroke:rgb(0,0,0); stroke-width: 12.911026;stroke-linecap: round;stroke-linejoin: round;stroke-miterlimit: 10.000000;fill: none;"></path>
  </g>
  <g transform="matrix(-1.000000,-0.000000,-0.000000,1.000000,0.000000,0.000000)">
    <path d="M-6.455521 66.231125C-6.455521 76.275650,-16.352661 78.186356,-27.974792 78.186356C-41.691116 78.186356,-49.494064 68.489716,-49.494064 54.275894C-49.494064 44.231369,-39.596924 42.320663,-27.974792 42.320663" style="stroke:rgb(0,0,0); stroke-width: 12.911026;stroke-linecap: round;stroke-linejoin: round;stroke-miterlimit: 10.000000;fill: none;"></path>
  </g>
  <path d="M31.740585 30.365982L29.849701 29.224823L25.285065 28.752106L20.720428 29.224823L18.829544 30.365982L18.829544 54.275894L20.720428 55.417053L25.285065 55.889771L29.849701 55.417053L31.740585 54.275894Z" style="fill: rgb(0,0,0);stroke: none;"></path>
</svg>
