<?xml version="1.0"?>
<!-- Created by MetaPost 2.11 on 2026.02.09:1107 -->
<svg version="1.1" xmlns="http://www.w3.org/2000/svg" xmlns:xlink="http://www.w3.org/1999/xlink" width="75.316437" height="84.641876" viewBox="0 0 75.316437 84.641876">
<!-- Original BoundingBox: -38.734177 -42.320938 36.582260 42.320938 -->
  <path d="M38.734177 78.186356L38.734177 6.455521" style="stroke:rgb(0,0,0); stroke-width: 12.911026;stroke-linecap: round;stroke-linejoin: round;stroke-miterlimit: 10.000000;fill: none;"></path>
  <path d="M27.974792 -0.000000L26.833633 1.890884L26.360916 6.455521L26.833633 11.020157L27.974792 12.911041L49.493561 12.911041L50.634720 11.020157L51.107437 6.455521L50.634720 1.890884L49.493561 -0.000000Z" style="fill: rgb(0,0,0);stroke: none;"></path>
  <path d="M27.974792 71.730835L26.833633 73.621719L26.360916 78.186356L26.833633 82.750992L27.974792 84.641876L49.493561 84.641876L50.634720 82.750992L51.107437 78.186356L50.634720 73.621719L49.493561 71.730835Z" style="fill: rgb(0,0,0);stroke: none;"></path>
  <path d="M38.734177 42.320938C38.734177 31.660645,32.882019 24.388229,22.594849 24.388229C12.307678 24.388229,6.455521 31.660645,6.455521 42.320938C6.455521 57.387604,21.301117 60.253647,38.734177 60.253647C53.412399 60.253647,62.943176 51.431747,62.943176 36.941345L62.943176 24.388229" style="stroke:rgb(0,0,0); stroke-width: 12.911026;stroke-linecap: round;stroke-linejoin: round;stroke-miterlimit: 10.000000;fill: none;"></path>
  <path d="M52.183792 17.932709L51.042633 19.823593L50.569916 24.388229L51.042633 28.952866L52.183792 30.843750L73.702560 30.843750L74.843719 28.952866L75.316437 24.388229L74.843719 19.823593L73.702560 17.932709Z" style="fill: rgb(0,0,0);stroke: none;"></path>
</svg>
