<?xml version="1.0"?>
<!-- Created by MetaPost 2.11 on 2026.02.09:1107 -->
<svg version="1.1" xmlns="http://www.w3.org/2000/svg" xmlns:xlink="http://www.w3.org/1999/xlink" width="61.867325" height="84.642426" viewBox="0 0 61.867325 84.642426">
<!-- Original BoundingBox: -49.494064 -42.321487 12.373260 42.320938 -->
  <g transform="matrix(-1.000000,-0.000000,-0.000000,1.000000,0.000000,0.000000)">
    <path d="M-6.455521 18.410751C-6.455521 8.366226,-16.352661 6.455521,-27.974792 6.455521C-41.691116 6.455521,-49.494064 16.152161,-49.494064 30.365982C-49.494064 48.077560,-49.494064 60.475327,-49.494064 78.186905" style="stroke:rgb(0,0,0); stroke-width: 12.911026;stroke-linecap: round;stroke-linejoin: round;stroke-miterlimit: 10.000000;fill: none;"></path>
  </g>
  <path d="M12.911041 6.455521L11.020157 5.314362L6.455521 4.841644L1.890884 5.314362L0.000000 6.455521L0.000000 18.410477L1.890884 19.551636L6.455521 20.024353L11.020157 19.551636L12.911041 18.410477Z" style="fill: rgb(0,0,0);stroke: none;"></path>
  <path d="M60.253448 84.641876L61.394608 82.750992L61.867325 78.186356L61.394608 73.621719L60.253448 71.730835L38.734680 71.730835L37.593521 73.621719L37.120804 78.186356L37.593521 82.750992L38.734680 84.641876Z" style="fill: rgb(0,0,0);stroke: none;"></path>
  <g transform="matrix(-1.000000,-0.000000,-0.000000,1.000000,0.000000,0.000000)">
    <path d="M-6.455521 18.410751C-6.455521 8.366226,-16.352661 6.455521,-27.974792 6.455521C-41.691116 6.455521,-49.494064 16.152161,-49.494064 30.365982C-49.494064 48.077560,-49.494064 60.475327,-49.494064 78.186905" style="stroke:rgb(0,0,0); stroke-width: 12.911026;stroke-linecap: round;stroke-linejoin: round;stroke-miterlimit: 10.000000;fill: none;"></path>
  </g>
  <path d="M12.911041 6.455521L11.020157 5.314362L6.455521 4.841644L1.890884 5.314362L0.000000 6.455521L0.000000 18.410477L1.890884 19.551636L6.455521 20.024353L11.020157 19.551636L12.911041 18.410477Z" style="fill: rgb(0,0,0);stroke: none;"></path>
  <path d="M60.253448 84.641876L61.394608 82.750992L61.867325 78.186356L61.394608 73.621719L60.253448 71.730835L38.734680 71.730835L37.593521 73.621719L37.120804 78.186356L37.593521 82.750992L38.734680 84.641876Z" style="fill: rgb(0,0,0);stroke: none;"></path>
</svg>
