<?xml version="1.0"?>
<!-- Created by MetaPost 2.11 on 2026.02.09:1107 -->
<svg version="1.1" xmlns="http://www.w3.org/2000/svg" xmlns:xlink="http://www.w3.org/1999/xlink" width="61.867325" height="84.641876" viewBox="0 0 61.867325 84.641876">
<!-- Original BoundingBox: -6.455521 -42.320938 55.411804 42.320938 -->
  <path d="M49.494064 18.410751C49.494064 8.366226,39.596924 6.455521,27.974792 6.455521C14.258469 6.455521,6.455521 16.152161,6.455521 30.365982C6.455521 40.410507,16.352661 42.321213,27.974792 42.321213" style="stroke:rgb(0,0,0); stroke-width: 12.911026;stroke-linecap: round;stroke-linejoin: round;stroke-miterlimit: 10.000000;fill: none;"></path>
  <path d="M49.494064 66.231125C49.494064 76.275650,39.596924 78.186356,27.974792 78.186356C14.258469 78.186356,6.455521 68.489716,6.455521 54.275894C6.455521 44.231369,16.352661 42.320663,27.974792 42.320663" style="stroke:rgb(0,0,0); stroke-width: 12.911026;stroke-linecap: round;stroke-linejoin: round;stroke-miterlimit: 10.000000;fill: none;"></path>
  <path d="M37.120041 30.365982L35.229156 29.224823L30.664520 28.752106L26.099884 29.224823L24.209000 30.365982L24.209000 54.275894L26.099884 55.417053L30.664520 55.889771L35.229156 55.417053L37.120041 54.275894Z" style="fill: rgb(0,0,0);stroke: none;"></path>
  <path d="M55.949585 1.613892L54.058701 0.472733L49.494064 0.000015L44.929428 0.472733L43.038544 1.613892L43.038544 83.027985L44.929428 84.169144L49.494064 84.641861L54.058701 84.169144L55.949585 83.027985Z" style="fill: rgb(0,0,0);stroke: none;"></path>
  <path d="M49.494064 -0.000000L48.352905 1.890884L47.880188 6.455521L48.352905 11.020157L49.494064 12.911041L60.253448 12.911041L61.394608 11.020157L61.867325 6.455521L61.394608 1.890884L60.253448 -0.000000Z" style="fill: rgb(0,0,0);stroke: none;"></path>
  <path d="M49.494064 71.730835L48.352905 73.621719L47.880188 78.186356L48.352905 82.750992L49.494064 84.641876L60.253448 84.641876L61.394608 82.750992L61.867325 78.186356L61.394608 73.621719L60.253448 71.730835Z" style="fill: rgb(0,0,0);stroke: none;"></path>
</svg>
