<?xml version="1.0"?>
<!-- Created by MetaPost 2.11 on 2026.02.09:1107 -->
<svg version="1.1" xmlns="http://www.w3.org/2000/svg" xmlns:xlink="http://www.w3.org/1999/xlink" width="35.746216" height="84.641876" viewBox="0 0 35.746216 84.641876">
<!-- Original BoundingBox: -17.873108 -42.320938 17.873108 42.320938 -->
  <path d="M17.873108 78.186356L17.873108 6.455521" style="stroke:rgb(0,0,0); stroke-width: 12.911026;stroke-linecap: round;stroke-linejoin: round;stroke-miterlimit: 10.000000;fill: none;"></path>
  <path d="M7.113724 -0.000000L5.972565 1.890884L5.499847 6.455521L5.972565 11.020157L7.113724 12.911041L28.632492 12.911041L29.773651 11.020157L30.246368 6.455521L29.773651 1.890884L28.632492 -0.000000Z" style="fill: rgb(0,0,0);stroke: none;"></path>
  <path d="M7.113724 71.730835L5.972565 73.621719L5.499847 78.186356L5.972565 82.750992L7.113724 84.641876L28.632492 84.641876L29.773651 82.750992L30.246368 78.186356L29.773651 73.621719L28.632492 71.730835Z" style="fill: rgb(0,0,0);stroke: none;"></path>
  <path d="M3.954514 31.908203L2.362823 33.439316L0.724808 37.726059L0.000000 42.257523L0.612869 44.379333L31.791702 52.733673L33.383392 51.202560L35.021408 46.915817L35.746216 42.384354L35.133347 40.262543Z" style="fill: rgb(0,0,0);stroke: none;"></path>
</svg>
