<?xml version="1.0"?>
<!-- Created by MetaPost 2.11 on 2026.02.09:1107 -->
<svg version="1.1" xmlns="http://www.w3.org/2000/svg" xmlns:xlink="http://www.w3.org/1999/xlink" width="13.449341" height="24.865997" viewBox="0 0 13.449341 24.865997">
<!-- Original BoundingBox: -6.993820 -54.275894 6.455521 -29.409897 -->
  <path d="M6.993820 6.455521l0 0" style="stroke:rgb(0,0,0); stroke-width: 12.911026;stroke-linecap: round;stroke-linejoin: round;stroke-miterlimit: 10.000000;fill: none;"></path>
  <path d="M8.607697 6.455521L8.134979 1.890884L6.993820 -0.000000L5.852661 1.890884L5.379944 6.455521C5.379944 7.206879,5.345398 7.923843,5.274231 8.611053L5.746948 4.046417C5.518188 6.255356,4.910995 8.156845,3.856033 9.904907L4.997192 8.014023C4.161728 9.398376,3.045425 10.686523,1.613876 11.954956L0.472717 13.845840L0.000000 18.410477L0.472717 22.975113L1.613876 24.865997C3.045425 23.597565,4.161728 22.309418,4.997192 20.925049L6.138351 19.034164C7.193314 17.286102,7.800507 15.384628,8.029266 13.175690L8.501984 8.611053C8.573151 7.923843,8.607697 7.206879,8.607697 6.455521Z" style="fill: rgb(0,0,0);stroke: none;"></path>
</svg>
