<?xml version="1.0"?>
<!-- Created by MetaPost 2.11 on 2026.02.09:1107 -->
<svg version="1.1" xmlns="http://www.w3.org/2000/svg" xmlns:xlink="http://www.w3.org/1999/xlink" width="73.164505" height="84.641876" viewBox="0 0 73.164505 84.641876">
<!-- Original BoundingBox: -60.791245 -42.320938 12.373260 42.320938 -->
  <path d="M60.791245 78.186356L60.791245 6.455521" style="stroke:rgb(0,0,0); stroke-width: 12.911026;stroke-linecap: round;stroke-linejoin: round;stroke-miterlimit: 10.000000;fill: none;"></path>
  <path d="M50.031860 -0.000000L48.890701 1.890884L48.417984 6.455521L48.890701 11.020157L50.031860 12.911041L71.550629 12.911041L72.691788 11.020157L73.164505 6.455521L72.691788 1.890884L71.550629 -0.000000Z" style="fill: rgb(0,0,0);stroke: none;"></path>
  <path d="M50.031860 71.730835L48.890701 73.621719L48.417984 78.186356L48.890701 82.750992L50.031860 84.641876L71.550629 84.641876L72.691788 82.750992L73.164505 78.186356L72.691788 73.621719L71.550629 71.730835Z" style="fill: rgb(0,0,0);stroke: none;"></path>
  <path d="M1.613876 71.730835L0.472717 73.621719L0.000000 78.186356L0.472717 82.750992L1.613876 84.641876L23.132645 84.641876L24.273804 82.750992L24.746521 78.186356L24.273804 73.621719L23.132645 71.730835Z" style="fill: rgb(0,0,0);stroke: none;"></path>
  <path d="M60.791245 78.186356C60.791245 71.765442,58.240158 65.608292,53.700241 61.068359C49.160309 56.528442,43.003159 53.977356,36.582245 53.977356C30.161331 53.977356,24.004181 56.528442,19.464249 61.068359C14.924332 65.608292,12.373245 71.765442,12.373245 78.186356" style="stroke:rgb(0,0,0); stroke-width: 12.911026;stroke-linecap: round;stroke-linejoin: round;stroke-miterlimit: 10.000000;fill: none;"></path>
</svg>
