<?xml version="1.0"?>
<!-- Created by MetaPost 2.11 on 2026.02.09:1107 -->
<svg version="1.1" xmlns="http://www.w3.org/2000/svg" xmlns:xlink="http://www.w3.org/1999/xlink" width="55.949585" height="86.256302" viewBox="0 0 55.949585 86.256302">
<!-- Original BoundingBox: -6.455521 -42.321487 49.494064 43.934814 -->
  <path d="M49.494064 20.024628C49.494064 9.980103,39.596924 8.069397,27.974792 8.069397C14.258469 8.069397,6.455521 17.766037,6.455521 31.979858C6.455521 40.835648,6.455521 47.034531,6.455521 55.890320C6.455521 70.104141,14.258469 79.800781,27.974792 79.800781C39.596924 79.800781,49.494064 77.890076,49.494064 67.845551" style="stroke:rgb(0,0,0); stroke-width: 12.911026;stroke-linecap: round;stroke-linejoin: round;stroke-miterlimit: 10.000000;fill: none;"></path>
  <path d="M55.949585 1.613876L54.058701 0.472717L49.494064 -0.000000L44.929428 0.472717L43.038544 1.613876L43.038544 20.024353L44.929428 21.165512L49.494064 21.638229L54.058701 21.165512L55.949585 20.024353Z" style="fill: rgb(0,0,0);stroke: none;"></path>
  <path d="M55.949585 61.390030L54.058701 60.248871L49.494064 59.776154L44.929428 60.248871L43.038544 61.390030L43.038544 67.845551L44.929428 68.986710L49.494064 69.459427L54.058701 68.986710L55.949585 67.845551Z" style="fill: rgb(0,0,0);stroke: none;"></path>
</svg>
