<?xml version="1.0"?>
<!-- Created by MetaPost 2.11 on 2026.02.09:1107 -->
<svg version="1.1" xmlns="http://www.w3.org/2000/svg" xmlns:xlink="http://www.w3.org/1999/xlink" width="35.506409" height="39.093170" viewBox="0 0 35.506409 39.093170">
<!-- Original BoundingBox: -17.753204 -19.546585 17.753204 19.546585 -->
  <path d="M1.613876 4.124710L0.472717 6.015594L0.000000 10.580231L0.472717 15.144867L1.613876 17.035751L33.892532 17.035751L35.033691 15.144867L35.506409 10.580231L35.033691 6.015594L33.892532 4.124710Z" style="fill: rgb(0,0,0);stroke: none;"></path>
  <path d="M1.613876 22.057419L0.472717 23.948303L0.000000 28.512939L0.472717 33.077576L1.613876 34.968460L33.892532 34.968460L35.033691 33.077576L35.506409 28.512939L35.033691 23.948303L33.892532 22.057419Z" style="fill: rgb(0,0,0);stroke: none;"></path>
  <path d="M16.139053 1.613876L14.248169 0.472717L9.683533 -0.000000L5.118896 0.472717L3.228012 1.613876L3.228012 37.479294L5.118896 38.620453L9.683533 39.093170L14.248169 38.620453L16.139053 37.479294Z" style="fill: rgb(0,0,0);stroke: none;"></path>
  <path d="M32.278397 1.613876L30.387512 0.472717L25.822876 -0.000000L21.258240 0.472717L19.367355 1.613876L19.367355 37.479294L21.258240 38.620453L25.822876 39.093170L30.387512 38.620453L32.278397 37.479294Z" style="fill: rgb(0,0,0);stroke: none;"></path>
</svg>
