<?xml version="1.0"?>
<!-- Created by MetaPost 2.11 on 2026.02.09:1107 -->
<svg version="1.1" xmlns="http://www.w3.org/2000/svg" xmlns:xlink="http://www.w3.org/1999/xlink" width="61.867325" height="84.642426" viewBox="0 0 61.867325 84.642426">
<!-- Original BoundingBox: -55.411804 -42.321487 6.455521 42.320938 -->
  <g transform="matrix(-1.000000,-0.000000,-0.000000,1.000000,0.000000,0.000000)">
    <path d="M-12.373260 18.410751C-12.373260 8.366226,-22.270401 6.455521,-33.892532 6.455521C-47.608856 6.455521,-55.411804 16.152161,-55.411804 30.365982C-55.411804 39.221771,-55.411804 45.420654,-55.411804 54.276443C-55.411804 68.490265,-47.608856 78.186905,-33.892532 78.186905C-22.270401 78.186905,-12.373260 76.276199,-12.373260 66.231674" style="stroke:rgb(0,0,0); stroke-width: 12.911026;stroke-linecap: round;stroke-linejoin: round;stroke-miterlimit: 10.000000;fill: none;"></path>
  </g>
  <path d="M18.828781 1.613892L16.937897 0.472733L12.373260 0.000015L7.808624 0.472733L5.917740 1.613892L5.917740 83.027985L7.808624 84.169144L12.373260 84.641861L16.937897 84.169144L18.828781 83.027985Z" style="fill: rgb(0,0,0);stroke: none;"></path>
  <path d="M12.373260 12.911041L13.514420 11.020157L13.987137 6.455521L13.514420 1.890884L12.373260 -0.000000L1.613876 -0.000000L0.472717 1.890884L0.000000 6.455521L0.472717 11.020157L1.613876 12.911041Z" style="fill: rgb(0,0,0);stroke: none;"></path>
  <path d="M12.373260 84.641876L13.514420 82.750992L13.987137 78.186356L13.514420 73.621719L12.373260 71.730835L1.613876 71.730835L0.472717 73.621719L0.000000 78.186356L0.472717 82.750992L1.613876 84.641876Z" style="fill: rgb(0,0,0);stroke: none;"></path>
  <g transform="matrix(-1.000000,-0.000000,-0.000000,1.000000,0.000000,0.000000)">
    <path d="M-12.373260 18.410751C-12.373260 8.366226,-22.270401 6.455521,-33.892532 6.455521C-47.608856 6.455521,-55.411804 16.152161,-55.411804 30.365982C-55.411804 39.221771,-55.411804 45.420654,-55.411804 54.276443C-55.411804 68.490265,-47.608856 78.186905,-33.892532 78.186905C-22.270401 78.186905,-12.373260 76.276199,-12.373260 66.231674" style="stroke:rgb(0,0,0); stroke-width: 12.911026;stroke-linecap: round;stroke-linejoin: round;stroke-miterlimit: 10.000000;fill: none;"></path>
  </g>
  <path d="M18.828781 1.613892L16.937897 0.472733L12.373260 0.000015L7.808624 0.472733L5.917740 1.613892L5.917740 83.027985L7.808624 84.169144L12.373260 84.641861L16.937897 84.169144L18.828781 83.027985Z" style="fill: rgb(0,0,0);stroke: none;"></path>
  <path d="M12.373260 12.911041L13.514420 11.020157L13.987137 6.455521L13.514420 1.890884L12.373260 -0.000000L1.613876 -0.000000L0.472717 1.890884L0.000000 6.455521L0.472717 11.020157L1.613876 12.911041Z" style="fill: rgb(0,0,0);stroke: none;"></path>
  <path d="M12.373260 84.641876L13.514420 82.750992L13.987137 78.186356L13.514420 73.621719L12.373260 71.730835L1.613876 71.730835L0.472717 73.621719L0.000000 78.186356L0.472717 82.750992L1.613876 84.641876Z" style="fill: rgb(0,0,0);stroke: none;"></path>
</svg>
