<?xml version="1.0"?>
<!-- Created by MetaPost 2.11 on 2026.02.09:1107 -->
<svg version="1.1" xmlns="http://www.w3.org/2000/svg" xmlns:xlink="http://www.w3.org/1999/xlink" width="55.949585" height="86.255753" viewBox="0 0 55.949585 86.255753">
<!-- Original BoundingBox: -49.494064 -42.320938 6.455521 43.934814 -->
  <g transform="matrix(-1.000000,-0.000000,-0.000000,1.000000,0.000000,0.000000)">
    <path d="M-27.974792 31.979309C-41.691116 31.979309,-49.494064 41.675949,-49.494064 55.889771C-49.494064 70.103592,-41.691116 79.800232,-27.974792 79.800232C-14.258469 79.800232,-6.455521 70.103592,-6.455521 55.889771C-6.455521 41.675949,-14.258469 31.979309,-27.974792 31.979309Z" style="stroke:rgb(0,0,0); stroke-width: 12.911026;stroke-linecap: round;stroke-linejoin: round;stroke-miterlimit: 10.000000;fill: none;"></path>
  </g>
  <g transform="matrix(-1.000000,-0.000000,-0.000000,1.000000,0.000000,0.000000)">
    <path d="M-49.494064 20.024628C-49.494064 9.980103,-39.596924 8.069397,-27.974792 8.069397C-14.258469 8.069397,-6.455521 17.766037,-6.455521 31.979858C-6.455521 40.835434,-6.455521 47.034195,-6.455521 55.889771C-6.455521 62.996674,-8.406250 68.974289,-12.071518 73.175171" style="stroke:rgb(0,0,0); stroke-width: 12.911026;stroke-linecap: round;stroke-linejoin: round;stroke-miterlimit: 10.000000;fill: none;"></path>
  </g>
  <path d="M55.949585 1.613876L54.058701 0.472717L49.494064 -0.000000L44.929428 0.472717L43.038544 1.613876L43.038544 20.024353L44.929428 21.165512L49.494064 21.638229L54.058701 21.165512L55.949585 20.024353Z" style="fill: rgb(0,0,0);stroke: none;"></path>
  <g transform="matrix(-1.000000,-0.000000,-0.000000,1.000000,0.000000,0.000000)">
    <path d="M-27.974792 31.979309C-41.691116 31.979309,-49.494064 41.675949,-49.494064 55.889771C-49.494064 70.103592,-41.691116 79.800232,-27.974792 79.800232C-14.258469 79.800232,-6.455521 70.103592,-6.455521 55.889771C-6.455521 41.675949,-14.258469 31.979309,-27.974792 31.979309Z" style="stroke:rgb(0,0,0); stroke-width: 12.911026;stroke-linecap: round;stroke-linejoin: round;stroke-miterlimit: 10.000000;fill: none;"></path>
  </g>
  <g transform="matrix(-1.000000,-0.000000,-0.000000,1.000000,0.000000,0.000000)">
    <path d="M-49.494064 20.024628C-49.494064 9.980103,-39.596924 8.069397,-27.974792 8.069397C-14.258469 8.069397,-6.455521 17.766037,-6.455521 31.979858C-6.455521 40.835434,-6.455521 47.034195,-6.455521 55.889771C-6.455521 62.996674,-8.406250 68.974289,-12.071518 73.175171" style="stroke:rgb(0,0,0); stroke-width: 12.911026;stroke-linecap: round;stroke-linejoin: round;stroke-miterlimit: 10.000000;fill: none;"></path>
  </g>
  <path d="M55.949585 1.613876L54.058701 0.472717L49.494064 -0.000000L44.929428 0.472717L43.038544 1.613876L43.038544 20.024353L44.929428 21.165512L49.494064 21.638229L54.058701 21.165512L55.949585 20.024353Z" style="fill: rgb(0,0,0);stroke: none;"></path>
</svg>
