<?xml version="1.0"?>
<!-- Created by MetaPost 2.11 on 2026.02.09:1107 -->
<svg version="1.1" xmlns="http://www.w3.org/2000/svg" xmlns:xlink="http://www.w3.org/1999/xlink" width="61.867325" height="86.255753" viewBox="0 0 61.867325 86.255753">
<!-- Original BoundingBox: -6.455521 -42.320938 55.411804 43.934814 -->
  <path d="M49.494064 20.024628C49.494064 9.980103,39.596924 8.069397,27.974792 8.069397C14.258469 8.069397,6.455521 17.766037,6.455521 31.979858C6.455521 46.193680,14.258469 55.890320,27.974792 55.890320C39.596924 55.890320,49.494064 53.979614,49.494064 43.935089" style="stroke:rgb(0,0,0); stroke-width: 12.911026;stroke-linecap: round;stroke-linejoin: round;stroke-miterlimit: 10.000000;fill: none;"></path>
  <path d="M49.494064 79.800232L49.494064 43.935089" style="stroke:rgb(0,0,0); stroke-width: 12.911026;stroke-linecap: round;stroke-linejoin: round;stroke-miterlimit: 10.000000;fill: none;"></path>
  <path d="M38.734680 73.344711L37.593521 75.235596L37.120804 79.800232L37.593521 84.364868L38.734680 86.255753L60.253448 86.255753L61.394608 84.364868L61.867325 79.800232L61.394608 75.235596L60.253448 73.344711Z" style="fill: rgb(0,0,0);stroke: none;"></path>
  <path d="M55.949585 1.613876L54.058701 0.472717L49.494064 -0.000000L44.929428 0.472717L43.038544 1.613876L43.038544 20.024353L44.929428 21.165512L49.494064 21.638229L54.058701 21.165512L55.949585 20.024353Z" style="fill: rgb(0,0,0);stroke: none;"></path>
</svg>
