<?xml version="1.0"?>
<!-- Created by MetaPost 2.11 on 2026.02.09:1107 -->
<svg version="1.1" xmlns="http://www.w3.org/2000/svg" xmlns:xlink="http://www.w3.org/1999/xlink" width="77.468353" height="84.641876" viewBox="0 0 77.468353 84.641876">
<!-- Original BoundingBox: -38.734177 -42.320938 38.734177 42.320938 -->
  <path d="M13.307526 18.362518C8.825607 24.504623,6.455521 32.726746,6.455521 42.320938C6.455521 63.641510,18.159851 78.186356,38.734177 78.186356C59.308502 78.186356,71.012833 63.641510,71.012833 42.320938C71.012833 21.000366,59.308502 6.455521,38.734177 6.455521C35.337296 6.455521,32.835678 9.168762,30.550247 11.708145C27.523621 15.071075,25.822906 19.631973,25.822906 24.388229C25.822906 29.144485,27.523621 33.705383,30.550247 37.068314C40.894684 48.562164,58.076584 50.792633,71.012833 42.320938" style="stroke:rgb(0,0,0); stroke-width: 12.911026;stroke-linecap: round;stroke-linejoin: round;stroke-miterlimit: 10.000000;fill: none;"></path>
  <path d="M21.170502 19.148193L20.640366 17.004227L17.746948 13.442261L14.184982 10.548843L12.041016 10.018707C10.839233 11.170456,9.738907 12.432693,8.742874 13.797668L9.273010 15.941635L12.166428 19.503601L15.728394 22.397018L17.872360 22.927155C18.868393 21.562180,19.968719 20.299942,21.170502 19.148193Z" style="fill: rgb(0,0,0);stroke: none;"></path>
</svg>
