<?xml version="1.0"?>
<!-- Created by MetaPost 2.11 on 2026.02.09:1107 -->
<svg version="1.1" xmlns="http://www.w3.org/2000/svg" xmlns:xlink="http://www.w3.org/1999/xlink" width="104.246445" height="84.641876" viewBox="0 0 104.246445 84.641876">
<!-- Original BoundingBox: -6.617264 -42.320938 97.629181 42.320938 -->
  <path d="M6.617264 54.275894C6.617264 68.489716,14.420212 78.186356,28.136536 78.186356C41.852859 78.186356,49.655807 68.489716,49.655807 54.275894" style="stroke:rgb(0,0,0); stroke-width: 12.911026;stroke-linecap: round;stroke-linejoin: round;stroke-miterlimit: 10.000000;fill: none;"></path>
  <path d="M49.655304 54.275894C49.655304 68.489716,57.458252 78.186356,71.174576 78.186356C84.890900 78.186356,92.693848 68.489716,92.693848 54.275894" style="stroke:rgb(0,0,0); stroke-width: 12.911026;stroke-linecap: round;stroke-linejoin: round;stroke-miterlimit: 10.000000;fill: none;"></path>
  <path d="M6.617264 54.275894C6.617264 49.845245,6.253342 46.738388,6.617264 42.320938C8.552902 18.824600,25.387558 6.455521,49.655304 6.455521C74.734726 6.455521,92.693848 18.711151,92.693848 42.320938C92.693848 46.748734,92.693848 49.848099,92.693848 54.275894" style="stroke:rgb(0,0,0); stroke-width: 12.911026;stroke-linecap: round;stroke-linejoin: round;stroke-miterlimit: 10.000000;fill: none;"></path>
  <path d="M38.895920 47.820374L37.754761 49.711258L37.282043 54.275894L37.754761 58.840530L38.895920 60.731415L60.414688 60.731415L61.555847 58.840530L62.028564 54.275894L61.555847 49.711258L60.414688 47.820374Z" style="fill: rgb(0,0,0);stroke: none;"></path>
  <path d="M49.655304 6.455521C49.655304 27.141998,68.476028 34.001251,91.873184 34.001251" style="stroke:rgb(0,0,0); stroke-width: 12.911026;stroke-linecap: round;stroke-linejoin: round;stroke-miterlimit: 10.000000;fill: none;"></path>
  <path d="M91.873184 27.545731L90.732025 29.436615L90.259308 34.001251L90.732025 38.565887L91.873184 40.456772L102.632568 40.456772L103.773727 38.565887L104.246445 34.001251L103.773727 29.436615L102.632568 27.545731Z" style="fill: rgb(0,0,0);stroke: none;"></path>
</svg>
