<?xml version="1.0"?>
<!-- Created by MetaPost 2.11 on 2026.02.09:1107 -->
<svg version="1.1" xmlns="http://www.w3.org/2000/svg" xmlns:xlink="http://www.w3.org/1999/xlink" width="27.731262" height="31.501541" viewBox="0 0 27.731262 31.501541">
<!-- Original BoundingBox: -13.865631 4.466446 13.865631 31.501541 -->
  <path d="M7.410110 13.568832L9.300995 14.709991L13.865631 15.182709L18.430267 14.709991L20.321152 13.568832L20.321152 1.613876L18.430267 0.472717L13.865631 -0.000000L9.300995 0.472717L7.410110 1.613876Z" style="fill: rgb(0,0,0);stroke: none;"></path>
  <path d="M11.870743 19.708359L13.540359 18.262680L15.400513 14.067551L16.361496 9.580276L15.860519 7.429306L4.490753 3.734970L2.821136 5.180649L0.960983 9.375778L0.000000 13.863052L0.500977 16.014023Z" style="fill: rgb(0,0,0);stroke: none;"></path>
  <path d="M19.088287 17.363281L18.229279 15.328629L14.814240 12.263168L10.843506 9.962601L8.642975 9.774384L1.616043 19.446198L2.475052 21.480850L5.890091 24.546310L9.860825 26.846878L12.061356 27.035095Z" style="fill: rgb(0,0,0);stroke: none;"></path>
  <path d="M19.088287 9.774384L16.887756 9.962601L12.917023 12.263168L9.501984 15.328629L8.642975 17.363281L15.669907 27.035095L17.870438 26.846878L21.841171 24.546310L25.256210 21.480850L26.115219 19.446198Z" style="fill: rgb(0,0,0);stroke: none;"></path>
  <path d="M11.870743 7.429306L11.369766 9.580276L12.330750 14.067551L14.190903 18.262680L15.860519 19.708359L27.230286 16.014023L27.731262 13.863052L26.770279 9.375778L24.910126 5.180649L23.240509 3.734970Z" style="fill: rgb(0,0,0);stroke: none;"></path>
</svg>
