<?xml version="1.0"?>
<!-- Created by MetaPost 2.11 on 2026.02.09:1107 -->
<svg version="1.1" xmlns="http://www.w3.org/2000/svg" xmlns:xlink="http://www.w3.org/1999/xlink" width="55.949585" height="84.641876" viewBox="0 0 55.949585 84.641876">
<!-- Original BoundingBox: -6.455521 -42.320938 49.494064 42.320938 -->
  <path d="M27.974792 30.365433C14.258469 30.365433,6.455521 40.062073,6.455521 54.275894C6.455521 68.489716,14.258469 78.186356,27.974792 78.186356C41.691116 78.186356,49.494064 68.489716,49.494064 54.275894" style="stroke:rgb(0,0,0); stroke-width: 12.911026;stroke-linecap: round;stroke-linejoin: round;stroke-miterlimit: 10.000000;fill: none;"></path>
  <path d="M6.455521 18.410751C6.455521 8.366226,16.352661 6.455521,27.974792 6.455521C41.691116 6.455521,49.494064 16.152161,49.494064 30.365982C49.494064 39.221558,49.494064 45.420319,49.494064 54.275894C49.494064 61.382797,47.543335 67.360413,43.878067 71.561295" style="stroke:rgb(0,0,0); stroke-width: 12.911026;stroke-linecap: round;stroke-linejoin: round;stroke-miterlimit: 10.000000;fill: none;"></path>
  <path d="M34.430313 30.365433L32.539429 29.224274L27.974792 28.751556L23.410156 29.224274L21.519272 30.365433L21.519272 42.320389L23.410156 43.461548L27.974792 43.934265L32.539429 43.461548L34.430313 42.320389Z" style="fill: rgb(0,0,0);stroke: none;"></path>
</svg>
