<?xml version="1.0"?>
<!-- Created by MetaPost 2.11 on 2026.02.09:1107 -->
<svg version="1.1" xmlns="http://www.w3.org/2000/svg" xmlns:xlink="http://www.w3.org/1999/xlink" width="103.821411" height="84.641876" viewBox="0 0 103.821411 84.641876">
<!-- Original BoundingBox: -58.908356 -42.320938 44.913055 42.320938 -->
  <path d="M91.187012 6.455521L58.908356 78.186356" style="stroke:rgb(0,0,0); stroke-width: 12.911026;stroke-linecap: round;stroke-linejoin: round;stroke-miterlimit: 10.000000;fill: none;"></path>
  <path d="M80.427628 -0.000000L79.286469 1.890884L78.813751 6.455521L79.286469 11.020157L80.427628 12.911041L101.946396 12.911041L103.087555 11.020157L103.560272 6.455521L103.087555 1.890884L101.946396 -0.000000Z" style="fill: rgb(0,0,0);stroke: none;"></path>
  <path d="M18.560028 32.009552C15.349579 32.009552,12.270996 30.734009,10.001022 28.464050C7.731064 26.194077,6.455521 23.115494,6.455521 19.905045C6.455521 16.694595,7.731064 13.616013,10.001022 11.346039C12.270996 9.076080,15.349579 7.800537,18.560028 7.800537" style="stroke:rgb(0,0,0); stroke-width: 12.911026;stroke-linecap: round;stroke-linejoin: round;stroke-miterlimit: 10.000000;fill: none;"></path>
  <path d="M58.908356 78.186356L42.769028 42.320938C36.252670 27.840042,34.291229 7.800537,18.560028 7.800537" style="stroke:rgb(0,0,0); stroke-width: 12.911026;stroke-linecap: round;stroke-linejoin: round;stroke-miterlimit: 10.000000;fill: none;"></path>
  <path d="M18.560028 32.009552L83.117340 32.009552C88.590286 32.009552,92.763672 33.567978,96.134689 36.961044" style="stroke:rgb(0,0,0); stroke-width: 12.911026;stroke-linecap: round;stroke-linejoin: round;stroke-miterlimit: 10.000000;fill: none;"></path>
  <path d="M87.682083 27.444809L85.538116 27.974945L81.976151 30.868362L79.082733 34.430328L78.552597 36.574295C85.849854 36.574295,90.836792 39.344833,94.691925 45.540649L96.835892 45.010513L100.397858 42.117096L103.291275 38.555130L103.821411 36.411163C99.966278 30.215347,94.979340 27.444809,87.682083 27.444809Z" style="fill: rgb(0,0,0);stroke: none;"></path>
</svg>
