<?xml version="1.0"?>
<!-- Created by MetaPost 2.11 on 2026.02.09:1107 -->
<svg version="1.1" xmlns="http://www.w3.org/2000/svg" xmlns:xlink="http://www.w3.org/1999/xlink" width="55.949585" height="82.181686" viewBox="0 0 55.949585 82.181686">
<!-- Original BoundingBox: -27.974792 -39.860748 27.974792 42.320938 -->
  <path d="M6.455521 6.455521L49.494064 6.455521" style="stroke:rgb(0,0,0); stroke-width: 12.911026;stroke-linecap: round;stroke-linejoin: round;stroke-miterlimit: 10.000000;fill: none;"></path>
  <path d="M49.494064 6.455521L23.670639 75.317596" style="stroke:rgb(0,0,0); stroke-width: 12.911026;stroke-linecap: round;stroke-linejoin: round;stroke-miterlimit: 10.000000;fill: none;"></path>
  <path d="M12.911041 6.455521L11.020157 5.314362L6.455521 4.841644L1.890884 5.314362L0.000000 6.455521C0.000000 10.883316,0.000000 13.982681,0.000000 18.410477L1.890884 19.551636L6.455521 20.024353L11.020157 19.551636L12.911041 18.410477C12.911041 13.982681,12.911041 10.883316,12.911041 6.455521Z" style="fill: rgb(0,0,0);stroke: none;"></path>
  <path d="M29.648193 77.664429L28.106689 76.082825L23.809280 74.472900L19.273163 73.777802L17.155396 74.404572L17.019394 74.767258L18.560898 76.348862L22.858307 77.958786L27.394424 78.653885L29.512192 78.027115Z" style="fill: rgb(0,0,0);stroke: none;"></path>
  <path d="M29.634964 77.673264L28.072891 76.111954L23.754807 74.558395L19.209976 73.922684L17.100601 74.577103L16.913605 75.075745L18.475677 76.637054L22.793762 78.190613L27.338593 78.826324L29.447968 78.171906Z" style="fill: rgb(0,0,0);stroke: none;"></path>
  <path d="M29.569656 77.817795L27.987305 76.277069L23.649261 74.780151L19.096527 74.203979L16.995895 74.885941L16.808899 75.384628L18.391251 76.925354L22.729294 78.422272L27.282028 78.998444L29.382660 78.316483Z" style="fill: rgb(0,0,0);stroke: none;"></path>
  <path d="M29.503311 77.961945L27.900940 76.442062L23.543686 75.002090L18.983826 74.485580L16.892319 75.194977L16.705322 75.693665L18.307693 77.213547L22.664948 78.653519L27.224808 79.170029L29.316315 78.460632Z" style="fill: rgb(0,0,0);stroke: none;"></path>
  <path d="M29.435944 78.105988L27.813782 76.607208L23.438019 75.224365L18.871735 74.767578L16.789673 75.504303L16.602676 76.002991L18.224838 77.501770L22.600601 78.884613L27.166885 79.341400L29.248947 78.604675Z" style="fill: rgb(0,0,0);stroke: none;"></path>
  <path d="M29.367386 78.249725L27.725739 76.772324L23.332275 75.446945L18.760437 75.050003L16.688217 75.813934L16.501221 76.312576L18.142868 77.789978L22.536331 79.115356L27.108170 79.512299L29.180389 78.748367Z" style="fill: rgb(0,0,0);stroke: none;"></path>
  <path d="M29.297745 78.393372L27.636932 76.937576L23.226501 75.669785L18.649872 75.332687L16.587845 76.123657L16.400848 76.622299L18.061661 78.078094L22.472092 79.345886L27.048721 79.682983L29.110748 78.892014Z" style="fill: rgb(0,0,0);stroke: none;"></path>
  <path d="M29.227112 78.536819L27.547379 77.102875L23.120697 75.892868L18.539993 75.615692L16.488464 76.433578L16.301468 76.932266L17.981201 78.366211L22.407883 79.576218L26.988586 79.853394L29.040115 79.035507Z" style="fill: rgb(0,0,0);stroke: none;"></path>
  <path d="M29.155304 78.679901L27.456940 77.268082L23.014801 76.116180L18.430878 75.899033L16.390259 76.743713L16.203262 77.242401L17.901627 78.654221L22.343765 79.806122L26.927689 80.023270L28.968307 79.178589Z" style="fill: rgb(0,0,0);stroke: none;"></path>
  <path d="M29.082458 78.822952L27.365753 77.433487L22.908936 76.339828L18.322571 76.182693L16.293182 77.054031L16.106186 77.552673L17.822891 78.942139L22.279709 80.035797L26.866074 80.192932L28.895462 79.321594Z" style="fill: rgb(0,0,0);stroke: none;"></path>
  <path d="M29.008499 78.965912L27.273743 77.599014L22.802994 76.563766L18.214966 76.466629L16.197128 77.364441L16.010132 77.863129L17.744888 79.230026L22.215637 80.265274L26.803665 80.362411L28.821503 79.464600Z" style="fill: rgb(0,0,0);stroke: none;"></path>
  <path d="M28.933441 79.108673L27.180939 77.764603L22.697006 76.787964L18.108093 76.750900L16.102173 77.675049L15.915176 78.173737L17.667679 79.517807L22.151611 80.494446L26.740524 80.531509L28.746445 79.607361Z" style="fill: rgb(0,0,0);stroke: none;"></path>
  <path d="M28.857193 79.251328L27.087296 77.930328L22.591003 77.012451L18.002029 77.035461L16.008408 77.985764L15.821411 78.484406L17.591309 79.805405L22.087601 80.723282L26.676575 80.700272L28.670197 79.749969Z" style="fill: rgb(0,0,0);stroke: none;"></path>
  <path d="M28.779968 79.393707L26.992889 78.095978L22.484940 77.237091L17.896637 77.320221L15.915619 78.296570L15.728622 78.795258L17.515701 80.092987L22.023651 80.951874L26.611954 80.868744L28.592972 79.892395Z" style="fill: rgb(0,0,0);stroke: none;"></path>
  <path d="M28.701569 79.536163L26.897659 78.261963L22.378876 77.462128L17.792068 77.605286L15.824005 78.607483L15.637009 79.106171L17.440918 80.380371L21.959702 81.180206L26.546509 81.037048L28.514572 80.034851Z" style="fill: rgb(0,0,0);stroke: none;"></path>
  <path d="M28.622070 79.678528L26.801666 78.428040L22.272781 77.687439L17.688263 77.890625L15.733490 78.918488L15.546494 79.417175L17.366898 80.667664L21.895782 81.408264L26.480301 81.205078L28.435074 80.177216Z" style="fill: rgb(0,0,0);stroke: none;"></path>
  <path d="M28.541504 79.820801L26.704865 78.594254L22.166672 77.913010L17.585205 78.176224L15.644043 79.229584L15.457047 79.728271L17.293686 80.954819L21.831879 81.636063L26.413345 81.372849L28.354507 80.319489Z" style="fill: rgb(0,0,0);stroke: none;"></path>
  <path d="M28.459839 79.963074L26.607300 78.760666L22.060562 78.138855L17.482910 78.461990L15.555695 79.540680L15.368698 80.039368L17.221237 81.241776L21.767975 81.863586L26.345627 81.540451L28.272842 80.461761Z" style="fill: rgb(0,0,0);stroke: none;"></path>
  <path d="M28.377045 80.105240L26.508957 78.927185L21.954498 78.364914L17.381485 78.747894L15.468567 79.851700L15.281570 80.350388L17.149658 81.528442L21.704117 82.090714L26.277130 81.707733L28.190048 80.603928Z" style="fill: rgb(0,0,0);stroke: none;"></path>
  <path d="M28.293228 80.247406L26.409836 79.093887L21.848358 78.591309L17.280716 79.034134L15.382370 80.162903L15.246368 80.525589L17.129761 81.679108L21.691238 82.181686L26.258881 81.738861L28.157227 80.610092Z" style="fill: rgb(0,0,0);stroke: none;"></path>
</svg>
