<?xml version="1.0"?>
<!-- Created by MetaPost 2.11 on 2026.02.09:1107 -->
<svg version="1.1" xmlns="http://www.w3.org/2000/svg" xmlns:xlink="http://www.w3.org/1999/xlink" width="93.607697" height="84.641876" viewBox="0 0 93.607697 84.641876">
<!-- Original BoundingBox: -46.803848 -42.320938 46.803848 42.320938 -->
  <path d="M46.803848 6.455521C33.062531 6.455521,22.594849 11.883087,22.594849 24.388229C22.594849 36.893372,33.062531 42.320938,46.803848 42.320938C60.545166 42.320938,71.012848 47.748505,71.012848 60.253647C71.012848 72.758789,60.545166 78.186356,46.803848 78.186356C33.062531 78.186356,22.594849 72.758789,22.594849 60.253647C22.594849 47.748505,33.062531 42.320938,46.803848 42.320938C60.545166 42.320938,71.012848 36.893372,71.012848 24.388229C71.012848 13.133667,59.170944 6.455521,46.803848 6.455521Z" style="stroke:rgb(0,0,0); stroke-width: 12.911026;stroke-linecap: round;stroke-linejoin: round;stroke-miterlimit: 10.000000;fill: none;"></path>
  <path d="M46.803848 42.320938C67.937393 42.320938,87.152176 42.087921,87.152176 60.253647" style="stroke:rgb(0,0,0); stroke-width: 12.911026;stroke-linecap: round;stroke-linejoin: round;stroke-miterlimit: 10.000000;fill: none;"></path>
  <path d="M46.803848 42.320938C25.670303 42.320938,6.455521 42.553955,6.455521 24.388229" style="stroke:rgb(0,0,0); stroke-width: 12.911026;stroke-linecap: round;stroke-linejoin: round;stroke-miterlimit: 10.000000;fill: none;"></path>
  <path d="M12.911041 17.932709L11.020157 16.791550L6.455521 16.318832L1.890884 16.791550L0.000000 17.932709L0.000000 24.388229L1.890884 25.529388L6.455521 26.002106L11.020157 25.529388L12.911041 24.388229Z" style="fill: rgb(0,0,0);stroke: none;"></path>
  <path d="M80.696655 66.709167L82.587540 67.850327L87.152176 68.323044L91.716812 67.850327L93.607697 66.709167L93.607697 60.253647L91.716812 59.112488L87.152176 58.639771L82.587540 59.112488L80.696655 60.253647Z" style="fill: rgb(0,0,0);stroke: none;"></path>
</svg>
