<?xml version="1.0"?>
<!-- Created by MetaPost 2.11 on 2026.02.09:1107 -->
<svg version="1.1" xmlns="http://www.w3.org/2000/svg" xmlns:xlink="http://www.w3.org/1999/xlink" width="61.867325" height="84.642426" viewBox="0 0 61.867325 84.642426">
<!-- Original BoundingBox: -6.455521 -42.321487 55.411804 42.320938 -->
  <path d="M49.494064 18.410751C49.494064 8.366226,39.596924 6.455521,27.974792 6.455521C14.258469 6.455521,6.455521 16.152161,6.455521 30.365982C6.455521 39.221771,6.455521 45.420654,6.455521 54.276443C6.455521 68.490265,14.258469 78.186905,27.974792 78.186905C39.596924 78.186905,49.494064 76.276199,49.494064 66.231674" style="stroke:rgb(0,0,0); stroke-width: 12.911026;stroke-linecap: round;stroke-linejoin: round;stroke-miterlimit: 10.000000;fill: none;"></path>
  <path d="M55.949585 1.613892L54.058701 0.472733L49.494064 0.000015L44.929428 0.472733L43.038544 1.613892L43.038544 83.027985L44.929428 84.169144L49.494064 84.641861L54.058701 84.169144L55.949585 83.027985Z" style="fill: rgb(0,0,0);stroke: none;"></path>
  <path d="M49.494064 -0.000000L48.352905 1.890884L47.880188 6.455521L48.352905 11.020157L49.494064 12.911041L60.253448 12.911041L61.394608 11.020157L61.867325 6.455521L61.394608 1.890884L60.253448 -0.000000Z" style="fill: rgb(0,0,0);stroke: none;"></path>
  <path d="M49.494064 71.730835L48.352905 73.621719L47.880188 78.186356L48.352905 82.750992L49.494064 84.641876L60.253448 84.641876L61.394608 82.750992L61.867325 78.186356L61.394608 73.621719L60.253448 71.730835Z" style="fill: rgb(0,0,0);stroke: none;"></path>
  <path d="M38.734177 21.519470L37.593018 23.410355L37.120300 27.974991L37.593018 32.539627L38.734177 34.430511L60.252945 34.430511L61.394104 32.539627L61.866821 27.974991L61.394104 23.410355L60.252945 21.519470Z" style="fill: rgb(0,0,0);stroke: none;"></path>
  <path d="M27.974792 6.455521C27.974792 17.904053,28.900635 27.974991,38.734177 27.974991" style="stroke:rgb(0,0,0); stroke-width: 12.911026;stroke-linecap: round;stroke-linejoin: round;stroke-miterlimit: 10.000000;fill: none;"></path>
</svg>
