<?xml version="1.0"?>
<!-- Created by MetaPost 2.11 on 2026.02.09:1107 -->
<svg version="1.1" xmlns="http://www.w3.org/2000/svg" xmlns:xlink="http://www.w3.org/1999/xlink" width="51.646408" height="82.490051" viewBox="0 0 51.646408 82.490051">
<!-- Original BoundingBox: -4.304184 -41.245026 47.342224 41.245026 -->
  <path d="M47.342728 17.334839C47.342728 7.290314,37.445587 5.379608,25.823456 5.379608C12.107132 5.379608,4.304184 15.076248,4.304184 29.290070C4.304184 39.334595,14.201324 41.245300,25.823456 41.245300" style="stroke:rgb(0,0,0); stroke-width: 8.607346;stroke-linecap: round;stroke-linejoin: round;stroke-miterlimit: 10.000000;fill: none;"></path>
  <path d="M4.303680 65.155212C4.303680 75.199738,14.200821 77.110443,25.822952 77.110443C39.539276 77.110443,47.342224 67.413803,47.342224 53.199982C47.342224 43.155457,37.445084 41.244751,25.822952 41.244751" style="stroke:rgb(0,0,0); stroke-width: 8.607346;stroke-linecap: round;stroke-linejoin: round;stroke-miterlimit: 10.000000;fill: none;"></path>
  <path d="M51.646408 1.075928L50.385818 0.315155L47.342728 -0.000000L44.299637 0.315155L43.039047 1.075928L43.039047 17.334564L44.299637 18.095337L47.342728 18.410492L50.385818 18.095337L51.646408 17.334564Z" style="fill: rgb(0,0,0);stroke: none;"></path>
  <path d="M0.000000 81.414124L1.260590 82.174896L4.303680 82.490051L7.346771 82.174896L8.607361 81.414124L8.607361 65.155487L7.346771 64.394714L4.303680 64.079559L1.260590 64.394714L0.000000 65.155487Z" style="fill: rgb(0,0,0);stroke: none;"></path>
</svg>
