<?xml version="1.0"?>
<!-- Created by MetaPost 2.11 on 2026.02.09:1107 -->
<svg version="1.1" xmlns="http://www.w3.org/2000/svg" xmlns:xlink="http://www.w3.org/1999/xlink" width="59.177536" height="80.338196" viewBox="0 0 59.177536 80.338196">
<!-- Original BoundingBox: -4.303680 -40.169098 54.873856 40.169098 -->
  <path d="M47.342224 16.258911C47.342224 6.214386,37.445084 4.303680,25.822952 4.303680C12.106628 4.303680,4.303680 14.000320,4.303680 28.214142C4.303680 38.258667,14.200821 40.169373,25.822952 40.169373" style="stroke:rgb(0,0,0); stroke-width: 8.607346;stroke-linecap: round;stroke-linejoin: round;stroke-miterlimit: 10.000000;fill: none;"></path>
  <path d="M47.342224 64.079285C47.342224 74.123810,37.445084 76.034515,25.822952 76.034515C12.106628 76.034515,4.303680 66.337875,4.303680 52.124054C4.303680 42.079529,14.200821 40.168823,25.822952 40.168823" style="stroke:rgb(0,0,0); stroke-width: 8.607346;stroke-linecap: round;stroke-linejoin: round;stroke-miterlimit: 10.000000;fill: none;"></path>
  <path d="M51.645905 16.258911L50.385315 15.498138L47.342224 15.182983L44.299133 15.498138L43.038544 16.258911L43.038544 64.079285L44.299133 64.840057L47.342224 65.155212L50.385315 64.840057L51.645905 64.079285Z" style="fill: rgb(0,0,0);stroke: none;"></path>
  <path d="M25.822952 4.303680C25.822952 15.752213,26.748795 25.823151,36.582336 25.823151" style="stroke:rgb(0,0,0); stroke-width: 8.607346;stroke-linecap: round;stroke-linejoin: round;stroke-miterlimit: 10.000000;fill: none;"></path>
  <path d="M36.582336 21.519470L35.821564 22.780060L35.506409 25.823151L35.821564 28.866241L36.582336 30.126831L58.101608 30.126831L58.862381 28.866241L59.177536 25.823151L58.862381 22.780060L58.101608 21.519470Z" style="fill: rgb(0,0,0);stroke: none;"></path>
</svg>
