<?xml version="1.0"?>
<!-- Created by MetaPost 2.11 on 2026.02.09:1107 -->
<svg version="1.1" xmlns="http://www.w3.org/2000/svg" xmlns:xlink="http://www.w3.org/1999/xlink" width="51.645905" height="77.980804" viewBox="0 0 51.645905 77.980804">
<!-- Original BoundingBox: -25.822952 -37.811707 25.822952 40.169098 -->
  <path d="M4.303680 4.303680L47.342224 4.303680" style="stroke:rgb(0,0,0); stroke-width: 8.607346;stroke-linecap: round;stroke-linejoin: round;stroke-miterlimit: 10.000000;fill: none;"></path>
  <path d="M47.342224 4.303680L21.518799 73.165756" style="stroke:rgb(0,0,0); stroke-width: 8.607346;stroke-linecap: round;stroke-linejoin: round;stroke-miterlimit: 10.000000;fill: none;"></path>
  <path d="M8.607361 4.303680L7.346771 3.542908L4.303680 3.227753L1.260590 3.542908L0.000000 4.303680C0.000000 8.731476,0.000000 11.830841,0.000000 16.258636L1.260590 17.019409L4.303680 17.334564L7.346771 17.019409L8.607361 16.258636C8.607361 11.830841,8.607361 8.731476,8.607361 4.303680Z" style="fill: rgb(0,0,0);stroke: none;"></path>
  <path d="M25.414215 74.969284L24.386566 73.914871L21.521606 72.841583L18.497528 72.378189L17.085693 72.796036L16.995010 73.037827L18.022659 74.092239L20.887619 75.165527L23.911697 75.628922L25.323532 75.211075Z" style="fill: rgb(0,0,0);stroke: none;"></path>
  <path d="M25.405411 74.975189L24.364044 73.934311L21.485306 72.898590L18.455414 72.474808L17.049179 72.911072L16.924530 73.243500L17.965897 74.284378L20.844635 75.320099L23.874527 75.743881L25.280762 75.307617Z" style="fill: rgb(0,0,0);stroke: none;"></path>
  <path d="M25.361877 75.071518L24.306976 74.044357L21.414948 73.046417L18.379791 72.662308L16.979370 73.116959L16.854675 73.449432L17.909576 74.476593L20.801605 75.474533L23.836761 75.858643L25.237183 75.403992Z" style="fill: rgb(0,0,0);stroke: none;"></path>
  <path d="M25.317612 75.167618L24.249359 74.154373L21.344528 73.194382L18.304626 72.850052L16.910294 73.322983L16.785645 73.655441L17.853897 74.668686L20.758728 75.628677L23.798630 75.973007L25.192963 75.500076Z" style="fill: rgb(0,0,0);stroke: none;"></path>
  <path d="M25.272705 75.263657L24.191269 74.264465L21.274094 73.342575L18.229904 73.038055L16.841858 73.529221L16.717163 73.861694L17.798599 74.860886L20.715775 75.782776L23.759964 76.087296L25.148010 75.596130Z" style="fill: rgb(0,0,0);stroke: none;"></path>
  <path d="M25.227005 75.359497L24.132568 74.374557L21.203598 73.490952L18.155701 73.226334L16.774216 73.735626L16.649567 74.068054L17.744003 75.052994L20.672974 75.936600L23.720871 76.201218L25.102356 75.691925Z" style="fill: rgb(0,0,0);stroke: none;"></path>
  <path d="M25.180573 75.455246L24.073364 74.484711L21.133087 73.639511L18.082001 73.414795L16.707306 73.942093L16.582657 74.274521L17.689865 75.245056L20.630142 76.090256L23.681229 76.314972L25.055923 75.787674Z" style="fill: rgb(0,0,0);stroke: none;"></path>
  <path d="M25.133484 75.550888L24.013657 74.594925L21.062546 73.788239L18.008743 73.603470L16.641052 74.148727L16.516403 74.481201L17.636230 75.437164L20.587341 76.243851L23.641144 76.428619L25.008835 75.883362Z" style="fill: rgb(0,0,0);stroke: none;"></path>
  <path d="M25.085663 75.646271L23.953415 74.705048L20.991989 73.937103L17.936050 73.792358L16.575623 74.355469L16.450928 74.687943L17.583176 75.629166L20.544601 76.397110L23.600540 76.541855L24.960968 75.978745Z" style="fill: rgb(0,0,0);stroke: none;"></path>
  <path d="M25.037064 75.741638L23.892593 74.815323L20.921387 74.086212L17.863815 73.981461L16.510880 74.562347L16.386230 74.894775L17.530701 75.821091L20.501907 76.550201L23.559479 76.654953L24.912415 76.074066Z" style="fill: rgb(0,0,0);stroke: none;"></path>
  <path d="M24.987747 75.836929L23.831253 74.925659L20.850754 74.235474L17.792068 74.170746L16.446854 74.769272L16.322205 75.101730L17.478699 76.013000L20.459198 76.703186L23.517883 76.767914L24.863098 76.169388Z" style="fill: rgb(0,0,0);stroke: none;"></path>
  <path d="M24.937714 75.932114L23.769394 75.036072L20.780106 74.384964L17.720810 74.360260L16.383545 74.976364L16.258896 75.308792L17.427216 76.204834L20.416504 76.855942L23.475800 76.880646L24.813065 76.264542Z" style="fill: rgb(0,0,0);stroke: none;"></path>
  <path d="M24.886887 76.027206L23.706940 75.146530L20.709427 74.534607L17.650116 74.549942L16.321030 75.183487L16.196381 75.515915L17.376328 76.396591L20.373840 77.008514L23.433151 76.993179L24.762238 76.359634Z" style="fill: rgb(0,0,0);stroke: none;"></path>
  <path d="M24.835403 76.122131L23.644028 75.256989L20.638718 74.684387L17.579849 74.739807L16.259171 75.390717L16.134521 75.723175L17.325897 76.588318L20.331207 77.160919L23.390076 77.105499L24.710754 76.454590Z" style="fill: rgb(0,0,0);stroke: none;"></path>
  <path d="M24.783127 76.217133L23.580536 75.367645L20.568008 74.834427L17.510132 74.929871L16.198105 75.597992L16.073456 75.930420L17.276047 76.779907L20.288574 77.313126L23.346451 77.217682L24.658478 76.549561Z" style="fill: rgb(0,0,0);stroke: none;"></path>
  <path d="M24.730133 76.312027L23.516525 75.478363L20.497284 74.984619L17.440933 75.120087L16.137756 75.805313L16.013107 76.137787L17.226715 76.971451L20.245956 77.465195L23.302307 77.329727L24.605484 76.644501Z" style="fill: rgb(0,0,0);stroke: none;"></path>
  <path d="M24.676422 76.406845L23.451996 75.589142L20.426544 75.134979L17.372223 75.310455L16.078125 76.012711L15.953476 76.345184L17.177902 77.162888L20.203354 77.617050L23.257675 77.441574L24.551773 76.739319Z" style="fill: rgb(0,0,0);stroke: none;"></path>
  <path d="M24.621979 76.501724L23.386948 75.700119L20.355804 75.285583L17.304031 75.501022L16.019226 76.220139L15.894577 76.552567L17.129608 77.354172L20.160751 77.768707L23.212524 77.553268L24.497330 76.834152Z" style="fill: rgb(0,0,0);stroke: none;"></path>
  <path d="M24.566803 76.596512L23.321396 75.811127L20.285110 75.436279L17.236435 75.691620L15.961151 76.427475L15.836456 76.759903L17.081863 77.545288L20.118149 77.920135L23.166824 77.664795L24.442108 76.928940Z" style="fill: rgb(0,0,0);stroke: none;"></path>
  <path d="M24.510925 76.691269L23.255325 75.922256L20.214355 75.587189L17.169235 75.882431L15.903687 76.634933L15.813004 76.876724L17.068604 77.645737L20.109573 77.980804L23.154694 77.685562L24.420242 76.933060Z" style="fill: rgb(0,0,0);stroke: none;"></path>
</svg>
