<?xml version="1.0"?>
<!-- Created by MetaPost 2.11 on 2026.02.09:1107 -->
<svg version="1.1" xmlns="http://www.w3.org/2000/svg" xmlns:xlink="http://www.w3.org/1999/xlink" width="51.645905" height="82.490051" viewBox="0 0 51.645905 82.490051">
<!-- Original BoundingBox: -47.342224 -41.245026 4.303680 41.245026 -->
  <g transform="matrix(-1.000000,-0.000000,-0.000000,1.000000,0.000000,0.000000)">
    <path d="M-4.303680 17.334839C-4.303680 7.290314,-14.200821 5.379608,-25.822952 5.379608C-39.539276 5.379608,-47.342224 15.076248,-47.342224 29.290070C-47.342224 38.145859,-47.342224 44.344742,-47.342224 53.200531C-47.342224 67.414352,-39.539276 77.110992,-25.822952 77.110992C-14.200821 77.110992,-4.303680 75.200287,-4.303680 65.155762" style="stroke:rgb(0,0,0); stroke-width: 8.607346;stroke-linecap: round;stroke-linejoin: round;stroke-miterlimit: 10.000000;fill: none;"></path>
  </g>
  <path d="M8.607361 1.075928L7.346771 0.315155L4.303680 -0.000000L1.260590 0.315155L0.000000 1.075928L0.000000 17.334564L1.260590 18.095337L4.303680 18.410492L7.346771 18.095337L8.607361 17.334564Z" style="fill: rgb(0,0,0);stroke: none;"></path>
  <path d="M0.000000 81.414124L1.260590 82.174896L4.303680 82.490051L7.346771 82.174896L8.607361 81.414124L8.607361 65.155487L7.346771 64.394714L4.303680 64.079559L1.260590 64.394714L0.000000 65.155487Z" style="fill: rgb(0,0,0);stroke: none;"></path>
  <g transform="matrix(-1.000000,-0.000000,-0.000000,1.000000,0.000000,0.000000)">
    <path d="M-4.303680 17.334839C-4.303680 7.290314,-14.200821 5.379608,-25.822952 5.379608C-39.539276 5.379608,-47.342224 15.076248,-47.342224 29.290070C-47.342224 38.145859,-47.342224 44.344742,-47.342224 53.200531C-47.342224 67.414352,-39.539276 77.110992,-25.822952 77.110992C-14.200821 77.110992,-4.303680 75.200287,-4.303680 65.155762" style="stroke:rgb(0,0,0); stroke-width: 8.607346;stroke-linecap: round;stroke-linejoin: round;stroke-miterlimit: 10.000000;fill: none;"></path>
  </g>
  <path d="M8.607361 1.075928L7.346771 0.315155L4.303680 -0.000000L1.260590 0.315155L0.000000 1.075928L0.000000 17.334564L1.260590 18.095337L4.303680 18.410492L7.346771 18.095337L8.607361 17.334564Z" style="fill: rgb(0,0,0);stroke: none;"></path>
  <path d="M0.000000 81.414124L1.260590 82.174896L4.303680 82.490051L7.346771 82.174896L8.607361 81.414124L8.607361 65.155487L7.346771 64.394714L4.303680 64.079559L1.260590 64.394714L0.000000 65.155487Z" style="fill: rgb(0,0,0);stroke: none;"></path>
</svg>
