<?xml version="1.0"?>
<!-- Created by MetaPost 2.11 on 2026.02.09:1107 -->
<svg version="1.1" xmlns="http://www.w3.org/2000/svg" xmlns:xlink="http://www.w3.org/1999/xlink" width="72.626648" height="80.338196" viewBox="0 0 72.626648 80.338196">
<!-- Original BoundingBox: -36.582336 -40.169098 36.044312 40.169098 -->
  <path d="M36.582336 76.034515L36.582336 4.303680" style="stroke:rgb(0,0,0); stroke-width: 8.607346;stroke-linecap: round;stroke-linejoin: round;stroke-miterlimit: 10.000000;fill: none;"></path>
  <path d="M25.822952 -0.000000L25.062180 1.260590L24.747025 4.303680L25.062180 7.346771L25.822952 8.607361L47.341721 8.607361L48.102493 7.346771L48.417648 4.303680L48.102493 1.260590L47.341721 -0.000000Z" style="fill: rgb(0,0,0);stroke: none;"></path>
  <path d="M25.822952 71.730835L25.062180 72.991425L24.747025 76.034515L25.062180 79.077606L25.822952 80.338196L47.341721 80.338196L48.102493 79.077606L48.417648 76.034515L48.102493 72.991425L47.341721 71.730835Z" style="fill: rgb(0,0,0);stroke: none;"></path>
  <path d="M36.582336 40.169098C36.582336 29.508804,30.730179 22.236389,20.443008 22.236389C10.155838 22.236389,4.303680 29.508804,4.303680 40.169098C4.303680 55.235764,19.149277 58.101807,36.582336 58.101807C51.260559 58.101807,60.791336 49.279907,60.791336 34.789505L60.791336 22.236389" style="stroke:rgb(0,0,0); stroke-width: 8.607346;stroke-linecap: round;stroke-linejoin: round;stroke-miterlimit: 10.000000;fill: none;"></path>
  <path d="M50.031952 17.932709L49.271179 19.193298L48.956024 22.236389L49.271179 25.279480L50.031952 26.540070L71.550720 26.540070L72.311493 25.279480L72.626648 22.236389L72.311493 19.193298L71.550720 17.932709Z" style="fill: rgb(0,0,0);stroke: none;"></path>
</svg>
