<?xml version="1.0"?>
<!-- Created by MetaPost 2.11 on 2026.02.09:1107 -->
<svg version="1.1" xmlns="http://www.w3.org/2000/svg" xmlns:xlink="http://www.w3.org/1999/xlink" width="34.223755" height="80.338196" viewBox="0 0 34.223755 80.338196">
<!-- Original BoundingBox: -17.111877 -40.169098 17.111877 40.169098 -->
  <path d="M17.111877 76.034515L17.111877 4.303680" style="stroke:rgb(0,0,0); stroke-width: 8.607346;stroke-linecap: round;stroke-linejoin: round;stroke-miterlimit: 10.000000;fill: none;"></path>
  <path d="M6.352493 -0.000000L5.591721 1.260590L5.276566 4.303680L5.591721 7.346771L6.352493 8.607361L27.871262 8.607361L28.632034 7.346771L28.947189 4.303680L28.632034 1.260590L27.871262 -0.000000Z" style="fill: rgb(0,0,0);stroke: none;"></path>
  <path d="M6.352493 71.730835L5.591721 72.991425L5.276566 76.034515L5.591721 79.077606L6.352493 80.338196L27.871262 80.338196L28.632034 79.077606L28.947189 76.034515L28.632034 72.991425L27.871262 71.730835Z" style="fill: rgb(0,0,0);stroke: none;"></path>
  <path d="M2.636337 31.834885L1.575226 32.855621L0.483200 35.713455L0.000000 38.734436L0.408585 40.148972L31.587418 48.503311L32.648529 47.482574L33.740555 44.624741L34.223755 41.603760L33.815170 40.189224Z" style="fill: rgb(0,0,0);stroke: none;"></path>
</svg>
