<?xml version="1.0"?>
<!-- Created by MetaPost 2.11 on 2026.02.09:1107 -->
<svg version="1.1" xmlns="http://www.w3.org/2000/svg" xmlns:xlink="http://www.w3.org/1999/xlink" width="26.067352" height="30.963593" viewBox="0 0 26.067352 30.963593">
<!-- Original BoundingBox: -13.033676 5.731262 13.033676 30.963593 -->
  <path d="M8.729996 13.030884L9.990585 13.791656L13.033676 14.106812L16.076767 13.791656L17.337357 13.030884L17.337357 1.075928L16.076767 0.315155L13.033676 -0.000000L9.990585 0.315155L8.729996 1.075928Z" style="fill: rgb(0,0,0);stroke: none;"></path>
  <path d="M11.703751 17.123901L12.816818 16.160110L14.056931 13.363373L14.697586 10.371841L14.363602 8.937866L2.993835 5.243530L1.880768 6.207321L0.640656 9.004059L0.000000 11.995590L0.333984 13.429565Z" style="fill: rgb(0,0,0);stroke: none;"></path>
  <path d="M16.515442 15.560516L15.942780 14.204086L13.666092 12.160431L11.018921 10.626724L9.551910 10.501251L2.524979 20.173065L3.097641 21.529495L5.374329 23.573151L8.021500 25.106857L9.488510 25.232330Z" style="fill: rgb(0,0,0);stroke: none;"></path>
  <path d="M16.515442 10.501251L15.048431 10.626724L12.401260 12.160431L10.124573 14.204086L9.551910 15.560516L16.578842 25.232330L18.045853 25.106857L20.693024 23.573151L22.969711 21.529495L23.542374 20.173065Z" style="fill: rgb(0,0,0);stroke: none;"></path>
  <path d="M11.703751 8.937866L11.369766 10.371841L12.010422 13.363373L13.250534 16.160110L14.363602 17.123901L25.733368 13.429565L26.067352 11.995590L25.426697 9.004059L24.186584 6.207321L23.073517 5.243530Z" style="fill: rgb(0,0,0);stroke: none;"></path>
</svg>
