<?xml version="1.0"?>
<!-- Created by MetaPost 2.11 on 2026.02.09:1107 -->
<svg version="1.1" xmlns="http://www.w3.org/2000/svg" xmlns:xlink="http://www.w3.org/1999/xlink" width="51.645905" height="81.414673" viewBox="0 0 51.645905 81.414673">
<!-- Original BoundingBox: -4.303680 -40.169647 47.342224 41.245026 -->
  <path d="M47.342224 17.334839C47.342224 7.290314,37.445084 5.379608,25.822952 5.379608C12.106628 5.379608,4.303680 15.076248,4.303680 29.290070C4.303680 38.145859,4.303680 44.344742,4.303680 53.200531C4.303680 67.414352,12.106628 77.110992,25.822952 77.110992C37.445084 77.110992,47.342224 75.200287,47.342224 65.155762" style="stroke:rgb(0,0,0); stroke-width: 8.607346;stroke-linecap: round;stroke-linejoin: round;stroke-miterlimit: 10.000000;fill: none;"></path>
  <path d="M51.645905 1.075928L50.385315 0.315155L47.342224 -0.000000L44.299133 0.315155L43.038544 1.075928L43.038544 17.334564L44.299133 18.095337L47.342224 18.410492L50.385315 18.095337L51.645905 17.334564Z" style="fill: rgb(0,0,0);stroke: none;"></path>
  <path d="M51.645905 60.852081L50.385315 60.091309L47.342224 59.776154L44.299133 60.091309L43.038544 60.852081L43.038544 65.155762L44.299133 65.916534L47.342224 66.231689L50.385315 65.916534L51.645905 65.155762Z" style="fill: rgb(0,0,0);stroke: none;"></path>
</svg>
