<?xml version="1.0"?>
<!-- Created by MetaPost 2.11 on 2026.02.09:1107 -->
<svg version="1.1" xmlns="http://www.w3.org/2000/svg" xmlns:xlink="http://www.w3.org/1999/xlink" width="55.949280" height="80.338196" viewBox="0 0 55.949280 80.338196">
<!-- Original BoundingBox: -44.113968 -40.169098 11.835312 40.169098 -->
  <path d="M44.113968 76.034515L44.113968 4.303680" style="stroke:rgb(0,0,0); stroke-width: 8.607346;stroke-linecap: round;stroke-linejoin: round;stroke-miterlimit: 10.000000;fill: none;"></path>
  <path d="M33.354584 71.730835L32.593811 72.991425L32.278656 76.034515L32.593811 79.077606L33.354584 80.338196L54.873352 80.338196L55.634125 79.077606L55.949280 76.034515L55.634125 72.991425L54.873352 71.730835Z" style="fill: rgb(0,0,0);stroke: none;"></path>
  <path d="M54.873352 8.607361L55.634125 7.346771L55.949280 4.303680L55.634125 1.260590L54.873352 -0.000000L1.075928 -0.000000L0.315155 1.260590L0.000000 4.303680L0.315155 7.346771L1.075928 8.607361Z" style="fill: rgb(0,0,0);stroke: none;"></path>
  <path d="M8.607361 4.303680L7.346771 3.542908L4.303680 3.227753L1.260590 3.542908L0.000000 4.303680C0.000000 8.023071,0.000000 10.626556,0.000000 14.345947L1.260590 15.106720L4.303680 15.421875L7.346771 15.106720L8.607361 14.345947C8.607361 10.626556,8.607361 8.023071,8.607361 4.303680Z" style="fill: rgb(0,0,0);stroke: none;"></path>
</svg>
