<?xml version="1.0"?>
<!-- Created by MetaPost 2.11 on 2026.02.09:1107 -->
<svg version="1.1" xmlns="http://www.w3.org/2000/svg" xmlns:xlink="http://www.w3.org/1999/xlink" width="109.747208" height="80.338196" viewBox="0 0 109.747208 80.338196">
<!-- Original BoundingBox: -11.835312 -40.169098 97.911896 40.169098 -->
  <path d="M11.835312 52.124054C11.835312 66.337875,19.638260 76.034515,33.354584 76.034515C47.070908 76.034515,54.873856 66.337875,54.873856 52.124054" style="stroke:rgb(0,0,0); stroke-width: 8.607346;stroke-linecap: round;stroke-linejoin: round;stroke-miterlimit: 10.000000;fill: none;"></path>
  <path d="M54.873352 52.124054C54.873352 66.337875,62.676300 76.034515,76.392624 76.034515C90.108948 76.034515,97.911896 66.337875,97.911896 52.124054" style="stroke:rgb(0,0,0); stroke-width: 8.607346;stroke-linecap: round;stroke-linejoin: round;stroke-miterlimit: 10.000000;fill: none;"></path>
  <path d="M16.138992 4.303680L14.878403 3.542908L11.835312 3.227753L8.792221 3.542908L7.531631 4.303680L7.531631 52.124054L8.792221 52.884827L11.835312 53.199982L14.878403 52.884827L16.138992 52.124054Z" style="fill: rgb(0,0,0);stroke: none;"></path>
  <path d="M59.177032 4.303680L57.916443 3.542908L54.873352 3.227753L51.830261 3.542908L50.569672 4.303680L50.569672 52.124054L51.830261 52.884827L54.873352 53.199982L57.916443 52.884827L59.177032 52.124054Z" style="fill: rgb(0,0,0);stroke: none;"></path>
  <path d="M102.215576 4.303680L100.954987 3.542908L97.911896 3.227753L94.868805 3.542908L93.608215 4.303680L93.608215 52.124054L94.868805 52.884827L97.911896 53.199982L100.954987 52.884827L102.215576 52.124054Z" style="fill: rgb(0,0,0);stroke: none;"></path>
  <path d="M1.075928 -0.000000L0.315155 1.260590L0.000000 4.303680L0.315155 7.346771L1.075928 8.607361L22.594696 8.607361L23.355469 7.346771L23.670624 4.303680L23.355469 1.260590L22.594696 -0.000000Z" style="fill: rgb(0,0,0);stroke: none;"></path>
  <path d="M44.113968 -0.000000L43.353195 1.260590L43.038040 4.303680L43.353195 7.346771L44.113968 8.607361L65.632736 8.607361L66.393509 7.346771L66.708664 4.303680L66.393509 1.260590L65.632736 -0.000000Z" style="fill: rgb(0,0,0);stroke: none;"></path>
  <path d="M87.152512 -0.000000L86.391739 1.260590L86.076584 4.303680L86.391739 7.346771L87.152512 8.607361L108.671280 8.607361L109.432053 7.346771L109.747208 4.303680L109.432053 1.260590L108.671280 -0.000000Z" style="fill: rgb(0,0,0);stroke: none;"></path>
</svg>
