<?xml version="1.0"?>
<!-- Created by MetaPost 2.11 on 2026.02.09:1107 -->
<svg version="1.1" xmlns="http://www.w3.org/2000/svg" xmlns:xlink="http://www.w3.org/1999/xlink" width="94.845688" height="80.338196" viewBox="0 0 94.845688 80.338196">
<!-- Original BoundingBox: -4.465424 -40.169098 90.380264 40.169098 -->
  <path d="M4.465424 52.124054C4.465424 66.337875,12.268372 76.034515,25.984695 76.034515C39.701019 76.034515,47.503967 66.337875,47.503967 52.124054" style="stroke:rgb(0,0,0); stroke-width: 8.607346;stroke-linecap: round;stroke-linejoin: round;stroke-miterlimit: 10.000000;fill: none;"></path>
  <path d="M47.503464 52.124054C47.503464 66.337875,55.306412 76.034515,69.022736 76.034515C82.739059 76.034515,90.542007 66.337875,90.542007 52.124054" style="stroke:rgb(0,0,0); stroke-width: 8.607346;stroke-linecap: round;stroke-linejoin: round;stroke-miterlimit: 10.000000;fill: none;"></path>
  <path d="M4.465424 52.124054C4.465424 47.693405,4.101501 44.586548,4.465424 40.169098C6.401062 16.672760,23.235718 4.303680,47.503464 4.303680C72.582886 4.303680,90.542007 16.559311,90.542007 40.169098C90.542007 44.596893,90.542007 47.696259,90.542007 52.124054" style="stroke:rgb(0,0,0); stroke-width: 8.607346;stroke-linecap: round;stroke-linejoin: round;stroke-miterlimit: 10.000000;fill: none;"></path>
  <path d="M47.503967 52.124054L47.503967 40.169098" style="stroke:rgb(0,0,0); stroke-width: 8.607346;stroke-linecap: round;stroke-linejoin: round;stroke-miterlimit: 10.000000;fill: none;"></path>
  <path d="M36.744080 35.865417L35.983307 37.126007L35.668152 40.169098L35.983307 43.212189L36.744080 44.472778L58.262848 44.472778L59.023621 43.212189L59.338776 40.169098L59.023621 37.126007L58.262848 35.865417Z" style="fill: rgb(0,0,0);stroke: none;"></path>
</svg>
