<?xml version="1.0"?>
<!-- Created by MetaPost 2.11 on 2026.02.09:1107 -->
<svg version="1.1" xmlns="http://www.w3.org/2000/svg" xmlns:xlink="http://www.w3.org/1999/xlink" width="59.177536" height="80.338745" viewBox="0 0 59.177536 80.338745">
<!-- Original BoundingBox: -11.835312 -40.169098 47.342224 40.169647 -->
  <g transform="matrix(1.000000,-0.000000,-0.000000,-1.000000,0.000000,0.000000)">
    <path d="M54.873856 -64.079834C54.873856 -74.124359,44.976715 -76.035065,33.354584 -76.035065C19.638260 -76.035065,11.835312 -66.338425,11.835312 -52.124603C11.835312 -34.413025,11.835312 -22.015259,11.835312 -4.303680" style="stroke:rgb(0,0,0); stroke-width: 8.607346;stroke-linecap: round;stroke-linejoin: round;stroke-miterlimit: 10.000000;fill: none;"></path>
  </g>
  <path d="M59.177536 59.776154L57.916946 59.015381L54.873856 58.700226L51.830765 59.015381L50.570175 59.776154L50.570175 64.079834L51.830765 64.840607L54.873856 65.155762L57.916946 64.840607L59.177536 64.079834Z" style="fill: rgb(0,0,0);stroke: none;"></path>
  <path d="M1.075928 0.000549L0.315155 1.261139L0.000000 4.304230L0.315155 7.347321L1.075928 8.607910L22.594696 8.607910L23.355469 7.347321L23.670624 4.304230L23.355469 1.261139L22.594696 0.000549Z" style="fill: rgb(0,0,0);stroke: none;"></path>
  <g transform="matrix(1.000000,-0.000000,-0.000000,-1.000000,0.000000,0.000000)">
    <path d="M54.873856 -64.079834C54.873856 -74.124359,44.976715 -76.035065,33.354584 -76.035065C19.638260 -76.035065,11.835312 -66.338425,11.835312 -52.124603C11.835312 -34.413025,11.835312 -22.015259,11.835312 -4.303680" style="stroke:rgb(0,0,0); stroke-width: 8.607346;stroke-linecap: round;stroke-linejoin: round;stroke-miterlimit: 10.000000;fill: none;"></path>
  </g>
  <path d="M59.177536 59.776154L57.916946 59.015381L54.873856 58.700226L51.830765 59.015381L50.570175 59.776154L50.570175 64.079834L51.830765 64.840607L54.873856 65.155762L57.916946 64.840607L59.177536 64.079834Z" style="fill: rgb(0,0,0);stroke: none;"></path>
  <path d="M1.075928 0.000549L0.315155 1.261139L0.000000 4.304230L0.315155 7.347321L1.075928 8.607910L22.594696 8.607910L23.355469 7.347321L23.670624 4.304230L23.355469 1.261139L22.594696 0.000549Z" style="fill: rgb(0,0,0);stroke: none;"></path>
</svg>
