<?xml version="1.0"?>
<!-- Created by MetaPost 2.11 on 2026.02.09:1107 -->
<svg version="1.1" xmlns="http://www.w3.org/2000/svg" xmlns:xlink="http://www.w3.org/1999/xlink" width="72.088608" height="80.338196" viewBox="0 0 72.088608 80.338196">
<!-- Original BoundingBox: -11.835312 -40.169098 60.253296 40.169098 -->
  <path d="M11.835312 76.034515L11.835312 4.303680" style="stroke:rgb(0,0,0); stroke-width: 8.607346;stroke-linecap: round;stroke-linejoin: round;stroke-miterlimit: 10.000000;fill: none;"></path>
  <path d="M60.253296 76.034515L60.253296 4.303680" style="stroke:rgb(0,0,0); stroke-width: 8.607346;stroke-linecap: round;stroke-linejoin: round;stroke-miterlimit: 10.000000;fill: none;"></path>
  <path d="M1.075928 -0.000000L0.315155 1.260590L0.000000 4.303680L0.315155 7.346771L1.075928 8.607361L22.594696 8.607361L23.355469 7.346771L23.670624 4.303680L23.355469 1.260590L22.594696 -0.000000Z" style="fill: rgb(0,0,0);stroke: none;"></path>
  <path d="M49.493912 71.730835L48.733139 72.991425L48.417984 76.034515L48.733139 79.077606L49.493912 80.338196L71.012680 80.338196L71.773453 79.077606L72.088608 76.034515L71.773453 72.991425L71.012680 71.730835Z" style="fill: rgb(0,0,0);stroke: none;"></path>
  <path d="M60.253296 -0.000000L59.492523 1.260590L59.177368 4.303680L59.492523 7.346771L60.253296 8.607361L71.012680 8.607361L71.773453 7.346771L72.088608 4.303680L71.773453 1.260590L71.012680 -0.000000Z" style="fill: rgb(0,0,0);stroke: none;"></path>
  <path d="M11.835312 76.034515L60.253296 4.303680" style="stroke:rgb(0,0,0); stroke-width: 8.607346;stroke-linecap: round;stroke-linejoin: round;stroke-miterlimit: 10.000000;fill: none;"></path>
</svg>
