<?xml version="1.0"?>
<!-- Created by MetaPost 2.11 on 2026.02.09:1107 -->
<svg version="1.1" xmlns="http://www.w3.org/2000/svg" xmlns:xlink="http://www.w3.org/1999/xlink" width="100.870483" height="80.338196" viewBox="0 0 100.870483 80.338196">
<!-- Original BoundingBox: -56.756516 -40.169098 44.113968 40.169098 -->
  <path d="M89.035172 4.303680L56.756516 76.034515" style="stroke:rgb(0,0,0); stroke-width: 8.607346;stroke-linecap: round;stroke-linejoin: round;stroke-miterlimit: 10.000000;fill: none;"></path>
  <path d="M78.275787 -0.000000L77.515015 1.260590L77.199860 4.303680L77.515015 7.346771L78.275787 8.607361L99.794556 8.607361L100.555328 7.346771L100.870483 4.303680L100.555328 1.260590L99.794556 -0.000000Z" style="fill: rgb(0,0,0);stroke: none;"></path>
  <path d="M16.408188 29.857712C13.197739 29.857712,10.119156 28.582169,7.849182 26.312210C5.579224 24.042236,4.303680 20.963654,4.303680 17.753204C4.303680 14.542755,5.579224 11.464172,7.849182 9.194199C10.119156 6.924240,13.197739 5.648697,16.408188 5.648697" style="stroke:rgb(0,0,0); stroke-width: 8.607346;stroke-linecap: round;stroke-linejoin: round;stroke-miterlimit: 10.000000;fill: none;"></path>
  <path d="M56.756516 76.034515L40.617188 40.169098C34.100830 25.688202,32.139389 5.648697,16.408188 5.648697" style="stroke:rgb(0,0,0); stroke-width: 8.607346;stroke-linecap: round;stroke-linejoin: round;stroke-miterlimit: 10.000000;fill: none;"></path>
  <path d="M16.408188 29.857712L80.965500 29.857712C86.438446 29.857712,90.611832 31.416138,93.982849 34.809204" style="stroke:rgb(0,0,0); stroke-width: 8.607346;stroke-linecap: round;stroke-linejoin: round;stroke-miterlimit: 10.000000;fill: none;"></path>
  <path d="M84.008667 26.814545L82.579346 27.167969L80.204697 29.096909L78.275757 31.471558L77.922333 32.900879C85.219589 32.900879,90.206528 35.671417,94.061661 41.867233L95.490982 41.513809L97.865631 39.584869L99.794571 37.210220L100.147995 35.780899C96.292862 29.585083,91.305923 26.814545,84.008667 26.814545Z" style="fill: rgb(0,0,0);stroke: none;"></path>
</svg>
