<?xml version="1.0"?>
<!-- Created by MetaPost 2.11 on 2026.02.09:1107 -->
<svg version="1.1" xmlns="http://www.w3.org/2000/svg" xmlns:xlink="http://www.w3.org/1999/xlink" width="59.177536" height="80.338745" viewBox="0 0 59.177536 80.338745">
<!-- Original BoundingBox: -54.873856 -40.169647 4.303680 40.169098 -->
  <g transform="matrix(-1.000000,-0.000000,-0.000000,1.000000,0.000000,0.000000)">
    <path d="M-11.835312 16.258911C-11.835312 6.214386,-21.732452 4.303680,-33.354584 4.303680C-47.070908 4.303680,-54.873856 14.000320,-54.873856 28.214142C-54.873856 37.069931,-54.873856 43.268814,-54.873856 52.124603C-54.873856 66.338425,-47.070908 76.035065,-33.354584 76.035065C-21.732452 76.035065,-11.835312 74.124359,-11.835312 64.079834" style="stroke:rgb(0,0,0); stroke-width: 8.607346;stroke-linecap: round;stroke-linejoin: round;stroke-miterlimit: 10.000000;fill: none;"></path>
  </g>
  <path d="M16.138992 1.075928L14.878403 0.315155L11.835312 -0.000000L8.792221 0.315155L7.531631 1.075928L7.531631 79.262268L8.792221 80.023041L11.835312 80.338196L14.878403 80.023041L16.138992 79.262268Z" style="fill: rgb(0,0,0);stroke: none;"></path>
  <path d="M11.835312 8.607361L12.596085 7.346771L12.911240 4.303680L12.596085 1.260590L11.835312 -0.000000L1.075928 -0.000000L0.315155 1.260590L0.000000 4.303680L0.315155 7.346771L1.075928 8.607361Z" style="fill: rgb(0,0,0);stroke: none;"></path>
  <path d="M11.835312 80.338196L12.596085 79.077606L12.911240 76.034515L12.596085 72.991425L11.835312 71.730835L1.075928 71.730835L0.315155 72.991425L0.000000 76.034515L0.315155 79.077606L1.075928 80.338196Z" style="fill: rgb(0,0,0);stroke: none;"></path>
  <g transform="matrix(-1.000000,-0.000000,-0.000000,1.000000,0.000000,0.000000)">
    <path d="M-11.835312 16.258911C-11.835312 6.214386,-21.732452 4.303680,-33.354584 4.303680C-47.070908 4.303680,-54.873856 14.000320,-54.873856 28.214142C-54.873856 37.069931,-54.873856 43.268814,-54.873856 52.124603C-54.873856 66.338425,-47.070908 76.035065,-33.354584 76.035065C-21.732452 76.035065,-11.835312 74.124359,-11.835312 64.079834" style="stroke:rgb(0,0,0); stroke-width: 8.607346;stroke-linecap: round;stroke-linejoin: round;stroke-miterlimit: 10.000000;fill: none;"></path>
  </g>
  <path d="M16.138992 1.075928L14.878403 0.315155L11.835312 -0.000000L8.792221 0.315155L7.531631 1.075928L7.531631 79.262268L8.792221 80.023041L11.835312 80.338196L14.878403 80.023041L16.138992 79.262268Z" style="fill: rgb(0,0,0);stroke: none;"></path>
  <path d="M11.835312 8.607361L12.596085 7.346771L12.911240 4.303680L12.596085 1.260590L11.835312 -0.000000L1.075928 -0.000000L0.315155 1.260590L0.000000 4.303680L0.315155 7.346771L1.075928 8.607361Z" style="fill: rgb(0,0,0);stroke: none;"></path>
  <path d="M11.835312 80.338196L12.596085 79.077606L12.911240 76.034515L12.596085 72.991425L11.835312 71.730835L1.075928 71.730835L0.315155 72.991425L0.000000 76.034515L0.315155 79.077606L1.075928 80.338196Z" style="fill: rgb(0,0,0);stroke: none;"></path>
</svg>
