<?xml version="1.0"?>
<!-- Created by MetaPost 2.11 on 2026.02.09:1107 -->
<svg version="1.1" xmlns="http://www.w3.org/2000/svg" xmlns:xlink="http://www.w3.org/1999/xlink" width="10.759552" height="68.382690" viewBox="0 0 10.759552 68.382690">
<!-- Original BoundingBox: -6.455872 -52.124054 4.303680 16.258636 -->
  <path d="M6.455872 4.303680l0 0" style="stroke:rgb(0,0,0); stroke-width: 8.607346;stroke-linecap: round;stroke-linejoin: round;stroke-miterlimit: 10.000000;fill: none;"></path>
  <path d="M6.455872 52.124054l0 0" style="stroke:rgb(0,0,0); stroke-width: 8.607346;stroke-linecap: round;stroke-linejoin: round;stroke-miterlimit: 10.000000;fill: none;"></path>
  <path d="M7.531799 52.124054L7.216644 49.080963L6.455872 47.820374L5.695099 49.080963L5.379944 52.124054C5.379944 52.875443,5.345398 53.592422,5.274231 54.279648L5.589386 51.236557C5.360626 53.445480,4.753418 55.346939,3.698456 57.094986L4.459229 55.834396C3.623764 57.218750,2.507477 58.506897,1.075928 59.775330L0.315155 61.035919L0.000000 64.079010L0.315155 67.122101L1.075928 68.382690C2.507477 67.114258,3.623779 65.826111,4.459244 64.441742L5.220016 63.181152C6.274963 61.433105,6.882172 59.531647,7.110931 57.322739L7.426086 54.279648C7.497253 53.592422,7.531799 52.875443,7.531799 52.124054Z" style="fill: rgb(0,0,0);stroke: none;"></path>
</svg>
