<?xml version="1.0"?>
<!-- Created by MetaPost 2.11 on 2026.02.09:1107 -->
<svg version="1.1" xmlns="http://www.w3.org/2000/svg" xmlns:xlink="http://www.w3.org/1999/xlink" width="65.095016" height="80.338196" viewBox="0 0 65.095016 80.338196">
<!-- Original BoundingBox: -36.582336 -40.169098 28.512680 40.169098 -->
  <g transform="matrix(1.000000,-0.000000,-0.000000,-1.000000,0.000000,0.000000)">
    <path d="M36.582336 -4.303680L36.582336 -58.101807" style="stroke:rgb(0,0,0); stroke-width: 8.607346;stroke-linecap: round;stroke-linejoin: round;stroke-miterlimit: 10.000000;fill: none;"></path>
  </g>
  <path d="M25.822952 -0.000000L25.062180 1.260590L24.747025 4.303680L25.062180 7.346771L25.822952 8.607361L47.341721 8.607361L48.102493 7.346771L48.417648 4.303680L48.102493 1.260590L47.341721 -0.000000Z" style="fill: rgb(0,0,0);stroke: none;"></path>
  <g transform="matrix(1.000000,-0.000000,-0.000000,-1.000000,0.000000,0.000000)">
    <path d="M36.582336 -58.101807C36.582336 -68.762100,30.730179 -76.034515,20.443008 -76.034515C10.155838 -76.034515,4.303680 -68.762100,4.303680 -58.101807C4.303680 -43.035141,19.149277 -40.169098,36.582336 -40.169098C51.260559 -40.169098,60.791336 -48.990997,60.791336 -63.481400" style="stroke:rgb(0,0,0); stroke-width: 8.607346;stroke-linecap: round;stroke-linejoin: round;stroke-miterlimit: 10.000000;fill: none;"></path>
  </g>
  <path d="M65.095016 63.481400L63.834427 62.720627L60.791336 62.405472L57.748245 62.720627L56.487656 63.481400L56.487656 77.110428L57.748245 77.871201L60.791336 78.186356L63.834427 77.871201L65.095016 77.110428Z" style="fill: rgb(0,0,0);stroke: none;"></path>
  <g transform="matrix(1.000000,-0.000000,-0.000000,-1.000000,0.000000,0.000000)">
    <path d="M36.582336 -4.303680L36.582336 -58.101807" style="stroke:rgb(0,0,0); stroke-width: 8.607346;stroke-linecap: round;stroke-linejoin: round;stroke-miterlimit: 10.000000;fill: none;"></path>
  </g>
  <path d="M25.822952 -0.000000L25.062180 1.260590L24.747025 4.303680L25.062180 7.346771L25.822952 8.607361L47.341721 8.607361L48.102493 7.346771L48.417648 4.303680L48.102493 1.260590L47.341721 -0.000000Z" style="fill: rgb(0,0,0);stroke: none;"></path>
  <g transform="matrix(1.000000,-0.000000,-0.000000,-1.000000,0.000000,0.000000)">
    <path d="M36.582336 -58.101807C36.582336 -68.762100,30.730179 -76.034515,20.443008 -76.034515C10.155838 -76.034515,4.303680 -68.762100,4.303680 -58.101807C4.303680 -43.035141,19.149277 -40.169098,36.582336 -40.169098C51.260559 -40.169098,60.791336 -48.990997,60.791336 -63.481400" style="stroke:rgb(0,0,0); stroke-width: 8.607346;stroke-linecap: round;stroke-linejoin: round;stroke-miterlimit: 10.000000;fill: none;"></path>
  </g>
  <path d="M65.095016 63.481400L63.834427 62.720627L60.791336 62.405472L57.748245 62.720627L56.487656 63.481400L56.487656 77.110428L57.748245 77.871201L60.791336 78.186356L63.834427 77.871201L65.095016 77.110428Z" style="fill: rgb(0,0,0);stroke: none;"></path>
</svg>
