<?xml version="1.0"?>
<!-- Created by MetaPost 2.11 on 2026.02.09:1107 -->
<svg version="1.1" xmlns="http://www.w3.org/2000/svg" xmlns:xlink="http://www.w3.org/1999/xlink" width="59.177536" height="81.414124" viewBox="0 0 59.177536 81.414124">
<!-- Original BoundingBox: -4.303680 -40.169098 54.873856 41.245026 -->
  <path d="M47.342224 17.334839C47.342224 7.290314,37.445084 5.379608,25.822952 5.379608C12.106628 5.379608,4.303680 15.076248,4.303680 29.290070C4.303680 43.503891,12.106628 53.200531,25.822952 53.200531C37.445084 53.200531,47.342224 51.289825,47.342224 41.245300" style="stroke:rgb(0,0,0); stroke-width: 8.607346;stroke-linecap: round;stroke-linejoin: round;stroke-miterlimit: 10.000000;fill: none;"></path>
  <path d="M47.342224 77.110443L47.342224 41.245300" style="stroke:rgb(0,0,0); stroke-width: 8.607346;stroke-linecap: round;stroke-linejoin: round;stroke-miterlimit: 10.000000;fill: none;"></path>
  <path d="M36.582840 72.806763L35.822067 74.067352L35.506912 77.110443L35.822067 80.153534L36.582840 81.414124L58.101608 81.414124L58.862381 80.153534L59.177536 77.110443L58.862381 74.067352L58.101608 72.806763Z" style="fill: rgb(0,0,0);stroke: none;"></path>
  <path d="M51.645905 1.075928L50.385315 0.315155L47.342224 -0.000000L44.299133 0.315155L43.038544 1.075928L43.038544 17.334564L44.299133 18.095337L47.342224 18.410492L50.385315 18.095337L51.645905 17.334564Z" style="fill: rgb(0,0,0);stroke: none;"></path>
</svg>
