<?xml version="1.0"?>
<!-- Created by MetaPost 2.11 on 2026.02.09:1107 -->
<svg version="1.1" xmlns="http://www.w3.org/2000/svg" xmlns:xlink="http://www.w3.org/1999/xlink" width="55.949280" height="80.338196" viewBox="0 0 55.949280 80.338196">
<!-- Original BoundingBox: -11.835312 -40.169098 44.113968 40.169098 -->
  <g transform="matrix(-1.000000,-0.000000,-0.000000,-1.000000,0.000000,0.000000)">
    <path d="M-11.835312 -4.303680L-11.835312 -76.034515" style="stroke:rgb(0,0,0); stroke-width: 8.607346;stroke-linecap: round;stroke-linejoin: round;stroke-miterlimit: 10.000000;fill: none;"></path>
  </g>
  <path d="M22.594696 8.607361L23.355469 7.346771L23.670624 4.303680L23.355469 1.260590L22.594696 -0.000000L1.075928 -0.000000L0.315155 1.260590L0.000000 4.303680L0.315155 7.346771L1.075928 8.607361Z" style="fill: rgb(0,0,0);stroke: none;"></path>
  <path d="M1.075928 71.730835L0.315155 72.991425L0.000000 76.034515L0.315155 79.077606L1.075928 80.338196L54.873352 80.338196L55.634125 79.077606L55.949280 76.034515L55.634125 72.991425L54.873352 71.730835Z" style="fill: rgb(0,0,0);stroke: none;"></path>
  <path d="M47.341919 76.034515L48.602509 76.795288L51.645599 77.110443L54.688690 76.795288L55.949280 76.034515C55.949280 72.315125,55.949280 69.711639,55.949280 65.992249L54.688690 65.231476L51.645599 64.916321L48.602509 65.231476L47.341919 65.992249C47.341919 69.711639,47.341919 72.315125,47.341919 76.034515Z" style="fill: rgb(0,0,0);stroke: none;"></path>
  <g transform="matrix(-1.000000,-0.000000,-0.000000,-1.000000,0.000000,0.000000)">
    <path d="M-11.835312 -4.303680L-11.835312 -76.034515" style="stroke:rgb(0,0,0); stroke-width: 8.607346;stroke-linecap: round;stroke-linejoin: round;stroke-miterlimit: 10.000000;fill: none;"></path>
  </g>
  <path d="M22.594696 8.607361L23.355469 7.346771L23.670624 4.303680L23.355469 1.260590L22.594696 -0.000000L1.075928 -0.000000L0.315155 1.260590L0.000000 4.303680L0.315155 7.346771L1.075928 8.607361Z" style="fill: rgb(0,0,0);stroke: none;"></path>
  <path d="M1.075928 71.730835L0.315155 72.991425L0.000000 76.034515L0.315155 79.077606L1.075928 80.338196L54.873352 80.338196L55.634125 79.077606L55.949280 76.034515L55.634125 72.991425L54.873352 71.730835Z" style="fill: rgb(0,0,0);stroke: none;"></path>
  <path d="M47.341919 76.034515L48.602509 76.795288L51.645599 77.110443L54.688690 76.795288L55.949280 76.034515C55.949280 72.315125,55.949280 69.711639,55.949280 65.992249L54.688690 65.231476L51.645599 64.916321L48.602509 65.231476L47.341919 65.992249C47.341919 69.711639,47.341919 72.315125,47.341919 76.034515Z" style="fill: rgb(0,0,0);stroke: none;"></path>
</svg>
