<?xml version="1.0"?>
<!-- Created by MetaPost 2.11 on 2026.02.09:1107 -->
<svg version="1.1" xmlns="http://www.w3.org/2000/svg" xmlns:xlink="http://www.w3.org/1999/xlink" width="72.088608" height="80.338196" viewBox="0 0 72.088608 80.338196">
<!-- Original BoundingBox: -60.253296 -40.169098 11.835312 40.169098 -->
  <path d="M60.253296 76.034515L60.253296 4.303680" style="stroke:rgb(0,0,0); stroke-width: 8.607346;stroke-linecap: round;stroke-linejoin: round;stroke-miterlimit: 10.000000;fill: none;"></path>
  <path d="M49.493912 -0.000000L48.733139 1.260590L48.417984 4.303680L48.733139 7.346771L49.493912 8.607361L71.012680 8.607361L71.773453 7.346771L72.088608 4.303680L71.773453 1.260590L71.012680 -0.000000Z" style="fill: rgb(0,0,0);stroke: none;"></path>
  <path d="M49.493912 71.730835L48.733139 72.991425L48.417984 76.034515L48.733139 79.077606L49.493912 80.338196L71.012680 80.338196L71.773453 79.077606L72.088608 76.034515L71.773453 72.991425L71.012680 71.730835Z" style="fill: rgb(0,0,0);stroke: none;"></path>
  <path d="M1.075928 71.730835L0.315155 72.991425L0.000000 76.034515L0.315155 79.077606L1.075928 80.338196L22.594696 80.338196L23.355469 79.077606L23.670624 76.034515L23.355469 72.991425L22.594696 71.730835Z" style="fill: rgb(0,0,0);stroke: none;"></path>
  <path d="M60.253296 76.034515C60.253296 69.613602,57.702209 63.456451,53.162292 58.916519C48.622360 54.376602,42.465210 51.825516,36.044296 51.825516C29.623383 51.825516,23.466232 54.376602,18.926300 58.916519C14.386383 63.456451,11.835297 69.613602,11.835297 76.034515" style="stroke:rgb(0,0,0); stroke-width: 8.607346;stroke-linecap: round;stroke-linejoin: round;stroke-miterlimit: 10.000000;fill: none;"></path>
</svg>
