<?xml version="1.0"?>
<!-- Created by MetaPost 2.11 on 2026.02.09:1107 -->
<svg version="1.1" xmlns="http://www.w3.org/2000/svg" xmlns:xlink="http://www.w3.org/1999/xlink" width="51.645905" height="81.414124" viewBox="0 0 51.645905 81.414124">
<!-- Original BoundingBox: -47.342224 -40.169098 4.303680 41.245026 -->
  <g transform="matrix(-1.000000,-0.000000,-0.000000,1.000000,0.000000,0.000000)">
    <path d="M-25.822952 29.289520C-39.539276 29.289520,-47.342224 38.986160,-47.342224 53.199982C-47.342224 67.413803,-39.539276 77.110443,-25.822952 77.110443C-12.106628 77.110443,-4.303680 67.413803,-4.303680 53.199982C-4.303680 38.986160,-12.106628 29.289520,-25.822952 29.289520Z" style="stroke:rgb(0,0,0); stroke-width: 8.607346;stroke-linecap: round;stroke-linejoin: round;stroke-miterlimit: 10.000000;fill: none;"></path>
  </g>
  <g transform="matrix(-1.000000,-0.000000,-0.000000,1.000000,0.000000,0.000000)">
    <path d="M-47.342224 17.334839C-47.342224 7.290314,-37.445084 5.379608,-25.822952 5.379608C-12.106628 5.379608,-4.303680 15.076248,-4.303680 29.290070C-4.303680 38.145645,-4.303680 44.344406,-4.303680 53.199982C-4.303680 60.306885,-6.254410 66.284500,-9.919678 70.485382" style="stroke:rgb(0,0,0); stroke-width: 8.607346;stroke-linecap: round;stroke-linejoin: round;stroke-miterlimit: 10.000000;fill: none;"></path>
  </g>
  <path d="M51.645905 1.075928L50.385315 0.315155L47.342224 -0.000000L44.299133 0.315155L43.038544 1.075928L43.038544 17.334564L44.299133 18.095337L47.342224 18.410492L50.385315 18.095337L51.645905 17.334564Z" style="fill: rgb(0,0,0);stroke: none;"></path>
  <g transform="matrix(-1.000000,-0.000000,-0.000000,1.000000,0.000000,0.000000)">
    <path d="M-25.822952 29.289520C-39.539276 29.289520,-47.342224 38.986160,-47.342224 53.199982C-47.342224 67.413803,-39.539276 77.110443,-25.822952 77.110443C-12.106628 77.110443,-4.303680 67.413803,-4.303680 53.199982C-4.303680 38.986160,-12.106628 29.289520,-25.822952 29.289520Z" style="stroke:rgb(0,0,0); stroke-width: 8.607346;stroke-linecap: round;stroke-linejoin: round;stroke-miterlimit: 10.000000;fill: none;"></path>
  </g>
  <g transform="matrix(-1.000000,-0.000000,-0.000000,1.000000,0.000000,0.000000)">
    <path d="M-47.342224 17.334839C-47.342224 7.290314,-37.445084 5.379608,-25.822952 5.379608C-12.106628 5.379608,-4.303680 15.076248,-4.303680 29.290070C-4.303680 38.145645,-4.303680 44.344406,-4.303680 53.199982C-4.303680 60.306885,-6.254410 66.284500,-9.919678 70.485382" style="stroke:rgb(0,0,0); stroke-width: 8.607346;stroke-linecap: round;stroke-linejoin: round;stroke-miterlimit: 10.000000;fill: none;"></path>
  </g>
  <path d="M51.645905 1.075928L50.385315 0.315155L47.342224 -0.000000L44.299133 0.315155L43.038544 1.075928L43.038544 17.334564L44.299133 18.095337L47.342224 18.410492L50.385315 18.095337L51.645905 17.334564Z" style="fill: rgb(0,0,0);stroke: none;"></path>
</svg>
