<?xml version="1.0"?>
<!-- Created by MetaPost 2.11 on 2026.02.09:1107 -->
<svg version="1.1" xmlns="http://www.w3.org/2000/svg" xmlns:xlink="http://www.w3.org/1999/xlink" width="101.556656" height="80.338196" viewBox="0 0 101.556656 80.338196">
<!-- Original BoundingBox: -4.465424 -40.169098 97.091232 40.169098 -->
  <path d="M4.465424 52.124054C4.465424 66.337875,12.268372 76.034515,25.984695 76.034515C39.701019 76.034515,47.503967 66.337875,47.503967 52.124054" style="stroke:rgb(0,0,0); stroke-width: 8.607346;stroke-linecap: round;stroke-linejoin: round;stroke-miterlimit: 10.000000;fill: none;"></path>
  <path d="M47.503464 52.124054C47.503464 66.337875,55.306412 76.034515,69.022736 76.034515C82.739059 76.034515,90.542007 66.337875,90.542007 52.124054" style="stroke:rgb(0,0,0); stroke-width: 8.607346;stroke-linecap: round;stroke-linejoin: round;stroke-miterlimit: 10.000000;fill: none;"></path>
  <path d="M4.465424 52.124054C4.465424 47.693405,4.101501 44.586548,4.465424 40.169098C6.401062 16.672760,23.235718 4.303680,47.503464 4.303680C72.582886 4.303680,90.542007 16.559311,90.542007 40.169098C90.542007 44.596893,90.542007 47.696259,90.542007 52.124054" style="stroke:rgb(0,0,0); stroke-width: 8.607346;stroke-linecap: round;stroke-linejoin: round;stroke-miterlimit: 10.000000;fill: none;"></path>
  <path d="M36.744080 47.820374L35.983307 49.080963L35.668152 52.124054L35.983307 55.167145L36.744080 56.427734L58.262848 56.427734L59.023621 55.167145L59.338776 52.124054L59.023621 49.080963L58.262848 47.820374Z" style="fill: rgb(0,0,0);stroke: none;"></path>
  <path d="M47.503464 4.303680C47.503464 24.990158,66.324188 31.849411,89.721344 31.849411" style="stroke:rgb(0,0,0); stroke-width: 8.607346;stroke-linecap: round;stroke-linejoin: round;stroke-miterlimit: 10.000000;fill: none;"></path>
  <path d="M89.721344 27.545731L88.960571 28.806320L88.645416 31.849411L88.960571 34.892502L89.721344 36.153091L100.480728 36.153091L101.241501 34.892502L101.556656 31.849411L101.241501 28.806320L100.480728 27.545731Z" style="fill: rgb(0,0,0);stroke: none;"></path>
</svg>
