<?xml version="1.0"?>
<!-- Created by MetaPost 2.11 on 2026.02.09:1107 -->
<svg version="1.1" xmlns="http://www.w3.org/2000/svg" xmlns:xlink="http://www.w3.org/1999/xlink" width="60.107910" height="79.907806" viewBox="0 0 60.107910 79.907806">
<!-- Original BoundingBox: -48.272598 -39.738708 11.835312 40.169098 -->
  <path d="M43.968918 78.831879L45.229507 79.592651L48.272598 79.907806L51.315689 79.592651L52.576279 78.831879L52.576279 4.303680L51.315689 3.542908L48.272598 3.227753L45.229507 3.542908L43.968918 4.303680Z" style="fill: rgb(0,0,0);stroke: none;"></path>
  <path d="M37.513214 -0.000000L36.752441 1.260590L36.437286 4.303680L36.752441 7.346771L37.513214 8.607361L59.031982 8.607361L59.792755 7.346771L60.107910 4.303680L59.792755 1.260590L59.031982 -0.000000Z" style="fill: rgb(0,0,0);stroke: none;"></path>
  <path d="M2.591095 58.642212L1.536682 59.669861L0.463394 62.534821L0.000000 65.558899L0.417847 66.970734C1.724075 67.584259,2.973663 68.155319,4.186981 68.691345L5.241394 67.663696L6.314682 64.798737L6.778076 61.774658L6.360229 60.362823C5.146912 59.826797,3.897324 59.255737,2.591095 58.642212Z" style="fill: rgb(0,0,0);stroke: none;"></path>
  <path d="M3.506073 59.080734L2.465195 60.122101L1.429474 63.000839L1.005692 66.030731L1.441956 67.436966C3.200806 68.251999,4.862213 68.990250,6.479111 69.671082L7.519989 68.629715L8.555710 65.750977L8.979492 62.721085L8.543228 61.314850C6.926331 60.634018,5.264923 59.895767,3.506073 59.080734Z" style="fill: rgb(0,0,0);stroke: none;"></path>
  <path d="M5.794418 60.133270L4.767258 61.188171L3.769318 64.080200L3.385208 67.115356L3.839859 68.515778C5.520996 69.264984,7.128769 69.946213,8.716110 70.578827L9.743271 69.523926L10.741211 66.631897L11.125320 63.596741L10.670670 62.196320C9.083328 61.563705,7.475555 60.882477,5.794418 60.133270Z" style="fill: rgb(0,0,0);stroke: none;"></path>
  <path d="M7.990921 61.101974L6.977676 62.170227L6.017685 65.075058L5.673355 68.114960L6.146286 69.509293C7.771729 70.200729,9.347855 70.832993,10.927612 71.425430L11.940857 70.357178L12.900848 67.452347L13.245178 64.412445L12.772247 63.018112C11.192490 62.425674,9.616364 61.793411,7.990921 61.101974Z" style="fill: rgb(0,0,0);stroke: none;"></path>
  <path d="M10.126846 61.998260L9.127655 63.079697L8.205765 65.996872L7.901245 69.041061L8.392410 70.429108C9.983917 71.070724,11.550186 71.661972,13.144165 72.222198L14.143356 71.140762L15.065247 68.223587L15.369766 65.179398L14.878601 63.791351C13.284622 63.231125,11.718353 62.639877,10.126846 61.998260Z" style="fill: rgb(0,0,0);stroke: none;"></path>
  <path d="M12.231277 62.832886L11.246338 63.927322L10.362732 66.856293L10.098114 69.904190L10.607407 71.285675C12.186966 71.885513,13.765350 72.443771,15.395523 72.979797L16.380463 71.885361L17.264069 68.956390L17.528687 65.908493L17.019394 64.527008C15.389221 63.990982,13.810837 63.432724,12.231277 62.832886Z" style="fill: rgb(0,0,0);stroke: none;"></path>
  <path d="M14.334183 63.616669L13.363647 64.723877L12.518448 67.664154L12.293732 70.715240L12.821030 72.089935C14.410431 72.655960,16.022736 73.189209,17.710892 73.709030L18.681427 72.601822L19.526627 69.661545L19.751343 66.610458L19.224045 65.235764C17.535889 64.715942,15.923584 64.182693,14.334183 63.616669Z" style="fill: rgb(0,0,0);stroke: none;"></path>
  <path d="M16.465347 64.360489L15.509384 65.480316L14.702698 68.431427L14.517929 71.485229L15.063187 72.852921C16.684372 73.393143,18.352524 73.909393,20.120605 74.421021L21.076569 73.301193L21.883255 70.350082L22.068024 67.296280L21.522766 65.928589C19.754684 65.416962,18.086533 64.900711,16.465347 64.360489Z" style="fill: rgb(0,0,0);stroke: none;"></path>
  <path d="M18.653870 65.075119L17.712646 66.207367L16.944702 69.168793L16.799957 72.224731L17.363068 73.585159C19.037872 74.107590,20.783707 74.614838,22.653534 75.126236L23.594757 73.993988L24.362701 71.032562L24.507446 67.976624L23.944336 66.616196C22.074509 66.104797,20.328674 65.597549,18.653870 65.075119Z" style="fill: rgb(0,0,0);stroke: none;"></path>
  <path d="M20.931061 65.771896L20.004745 66.916367L19.275635 69.887573L19.170883 72.945145L19.751770 74.298080C21.024750 74.670898,22.348038 75.040344,23.742004 75.413849C24.264709 75.553909,24.778519 75.689499,25.284561 75.820801L26.210876 74.676331L26.939987 71.705124L27.044739 68.647552L26.463852 67.294617C25.957809 67.163315,25.444000 67.027725,24.921295 66.887665C23.527328 66.514160,22.204041 66.144714,20.931061 65.771896Z" style="fill: rgb(0,0,0);stroke: none;"></path>
  <path d="M23.326096 66.461456L22.414825 67.617950L21.724640 70.598450L21.659912 73.657135L22.258438 75.002350C22.762344 75.141663,23.275116 75.281143,23.797821 75.421204C25.191788 75.794708,26.522507 76.136398,27.811356 76.450012L28.722626 75.293518L29.412811 72.313019L29.477539 69.254333L28.879013 67.909119C27.590164 67.595505,26.259445 67.253815,24.865479 66.880310C24.342773 66.740250,23.830002 66.600769,23.326096 66.461456Z" style="fill: rgb(0,0,0);stroke: none;"></path>
  <path d="M25.843674 67.147949L24.947632 68.316269L24.296524 71.305557L24.271820 74.364853L24.887924 75.702118C26.762955 76.194138,28.528519 76.627777,30.240158 77.012741L31.136200 75.844421L31.787308 72.855133L31.812012 69.795837L31.195908 68.458572C29.484268 68.073608,27.718704 67.639969,25.843674 67.147949Z" style="fill: rgb(0,0,0);stroke: none;"></path>
  <path d="M28.281998 67.777786L27.401321 68.957733L26.789398 71.955246L26.804733 75.014557L27.438278 76.343643C29.225220 76.784576,30.927933 77.171555,32.601974 77.514267L33.482651 76.334320L34.094574 73.336807L34.079239 70.277496L33.445694 68.948410C31.771652 68.605698,30.068939 68.218719,28.281998 67.777786Z" style="fill: rgb(0,0,0);stroke: none;"></path>
  <path d="M30.615067 68.341217L29.749924 69.532593L29.177322 72.537903L29.232742 75.596771L29.883652 76.917450C31.605576 77.311356,33.268509 77.655701,34.927994 77.960220L35.793137 76.768845L36.365738 73.763535L36.310318 70.704666L35.659409 69.383987C33.999924 69.079468,32.336990 68.735123,30.615067 68.341217Z" style="fill: rgb(0,0,0);stroke: none;"></path>
  <path d="M32.875763 68.844193L32.026276 70.046783L31.493057 73.059311L31.588501 76.117188L32.256622 77.429214C33.936356 77.780075,35.582352 78.085785,37.250153 78.356079L38.099640 77.153488L38.632858 74.140961L38.537415 71.083084L37.869293 69.771057C36.201492 69.500763,34.555496 69.195053,32.875763 68.844193Z" style="fill: rgb(0,0,0);stroke: none;"></path>
  <path d="M35.094543 69.291916L34.260880 70.505524L33.767136 73.524765L33.902603 76.581116L34.587830 77.884293C36.248428 78.196136,37.900528 78.467239,39.599686 78.707352L40.433350 77.493744L40.927094 74.474503L40.791626 71.418152L40.106400 70.114975C38.407242 69.874863,36.755142 69.603760,35.094543 69.291916Z" style="fill: rgb(0,0,0);stroke: none;"></path>
  <path d="M37.302750 69.689865L36.485046 70.914291L36.030884 73.939743L36.206360 76.994064L36.908615 78.288162C38.572937 78.564972,40.254013 78.805481,42.007385 79.019409L42.825089 77.794983L43.279251 74.769531L43.103775 71.715210L42.401520 70.421112C40.648148 70.207184,38.967072 69.966675,37.302750 69.689865Z" style="fill: rgb(0,0,0);stroke: none;"></path>
  <path d="M39.531738 70.043549L38.730133 71.278580L38.315598 74.309723L38.531036 77.361496L39.250153 78.646301C40.941193 78.892120,42.674255 79.106049,44.504852 79.297791L45.306458 78.062759L45.720993 75.031616L45.505554 71.979843L44.786438 70.695038C42.955841 70.503296,41.222778 70.289368,39.531738 70.043549Z" style="fill: rgb(0,0,0);stroke: none;"></path>
  <path d="M41.812073 70.358368L41.026688 71.603775L40.651840 74.640060L40.907181 77.688736L41.643036 78.964020C43.383728 79.182861,45.191650 79.374222,47.122375 79.547821L47.907761 78.302414L48.282608 75.266129L48.027267 72.217453L47.291412 70.942169C45.360687 70.768570,43.552765 70.577209,41.812073 70.358368Z" style="fill: rgb(0,0,0);stroke: none;"></path>
  <path d="M44.176407 70.639893L43.407394 71.895493L43.072327 74.936462L43.367569 77.981583L44.120071 79.247131C45.438858 79.389572,46.806564 79.519821,48.244553 79.641617L49.013565 78.386017L49.348633 75.345047L49.053391 72.299927L48.300888 71.034378C46.862900 70.912582,45.495193 70.782333,44.176407 70.639893Z" style="fill: rgb(0,0,0);stroke: none;"></path>
</svg>
