<?xml version="1.0"?>
<!-- Created by MetaPost 2.11 on 2026.02.09:1107 -->
<svg version="1.1" xmlns="http://www.w3.org/2000/svg" xmlns:xlink="http://www.w3.org/1999/xlink" width="51.645905" height="80.338196" viewBox="0 0 51.645905 80.338196">
<!-- Original BoundingBox: -4.303680 -40.169098 47.342224 40.169098 -->
  <path d="M47.342224 16.258911C47.342224 6.214386,37.445084 4.303680,25.822952 4.303680C12.106628 4.303680,4.303680 14.000320,4.303680 28.214142C4.303680 38.258667,14.200821 40.169373,25.822952 40.169373" style="stroke:rgb(0,0,0); stroke-width: 8.607346;stroke-linecap: round;stroke-linejoin: round;stroke-miterlimit: 10.000000;fill: none;"></path>
  <path d="M47.342224 64.079285C47.342224 74.123810,37.445084 76.034515,25.822952 76.034515C12.106628 76.034515,4.303680 66.337875,4.303680 52.124054C4.303680 42.079529,14.200821 40.168823,25.822952 40.168823" style="stroke:rgb(0,0,0); stroke-width: 8.607346;stroke-linecap: round;stroke-linejoin: round;stroke-miterlimit: 10.000000;fill: none;"></path>
  <path d="M32.816360 28.214142L31.555771 27.453369L28.512680 27.138214L25.469589 27.453369L24.209000 28.214142L24.209000 52.124054L25.469589 52.884827L28.512680 53.199982L31.555771 52.884827L32.816360 52.124054Z" style="fill: rgb(0,0,0);stroke: none;"></path>
</svg>
