<?xml version="1.0"?>
<!-- Created by MetaPost 2.11 on 2026.02.09:1107 -->
<svg version="1.1" xmlns="http://www.w3.org/2000/svg" xmlns:xlink="http://www.w3.org/1999/xlink" width="73.164673" height="80.338196" viewBox="0 0 73.164673 80.338196">
<!-- Original BoundingBox: -36.582336 -40.169098 36.582336 40.169098 -->
  <path d="M11.155685 16.210678C6.673767 22.352783,4.303680 30.574905,4.303680 40.169098C4.303680 61.489670,16.008011 76.034515,36.582336 76.034515C57.156662 76.034515,68.860992 61.489670,68.860992 40.169098C68.860992 18.848526,57.156662 4.303680,36.582336 4.303680C33.185455 4.303680,30.683838 7.016922,28.398407 9.556305C25.371780 12.919235,23.671066 17.480133,23.671066 22.236389C23.671066 26.992645,25.371780 31.553543,28.398407 34.916473C38.742844 46.410324,55.924744 48.640793,68.860992 40.169098" style="stroke:rgb(0,0,0); stroke-width: 8.607346;stroke-linecap: round;stroke-linejoin: round;stroke-miterlimit: 10.000000;fill: none;"></path>
  <path d="M17.497086 15.474777L17.143661 14.045456L15.214722 11.670807L12.840073 9.741867L11.410751 9.388443C10.208969 10.540192,9.108643 11.802429,8.112610 13.167404L8.466034 14.596725L10.394974 16.971375L12.769623 18.900314L14.198944 19.253738C15.194977 17.888763,16.295303 16.626526,17.497086 15.474777Z" style="fill: rgb(0,0,0);stroke: none;"></path>
</svg>
