<?xml version="1.0"?>
<!-- Created by MetaPost 2.11 on 2026.02.09:1107 -->
<svg version="1.1" xmlns="http://www.w3.org/2000/svg" xmlns:xlink="http://www.w3.org/1999/xlink" width="10.759552" height="20.562317" viewBox="0 0 10.759552 20.562317">
<!-- Original BoundingBox: -6.455872 -52.124054 4.303680 -31.561737 -->
  <path d="M6.455872 4.303680l0 0" style="stroke:rgb(0,0,0); stroke-width: 8.607346;stroke-linecap: round;stroke-linejoin: round;stroke-miterlimit: 10.000000;fill: none;"></path>
  <path d="M7.531799 4.303680L7.216644 1.260590L6.455872 -0.000000L5.695099 1.260590L5.379944 4.303680C5.379944 5.055069,5.345398 5.772049,5.274231 6.459274L5.589386 3.416183C5.360626 5.625107,4.753418 7.526566,3.698456 9.274612L4.459229 8.014023C3.623764 9.398376,2.507477 10.686523,1.075928 11.954956L0.315155 13.215546L0.000000 16.258636L0.315155 19.301727L1.075928 20.562317C2.507477 19.293884,3.623779 18.005737,4.459244 16.621368L5.220016 15.360779C6.274963 13.612732,6.882172 11.711273,7.110931 9.502365L7.426086 6.459274C7.497253 5.772049,7.531799 5.055069,7.531799 4.303680Z" style="fill: rgb(0,0,0);stroke: none;"></path>
</svg>
