<?xml version="1.0"?>
<!-- Created by MetaPost 2.11 on 2026.02.09:1107 -->
<svg version="1.1" xmlns="http://www.w3.org/2000/svg" xmlns:xlink="http://www.w3.org/1999/xlink" width="59.177536" height="80.338196" viewBox="0 0 59.177536 80.338196">
<!-- Original BoundingBox: -4.303680 -40.169098 54.873856 40.169098 -->
  <path d="M47.342224 16.258911C47.342224 6.214386,37.445084 4.303680,25.822952 4.303680C12.106628 4.303680,4.303680 14.000320,4.303680 28.214142C4.303680 38.258667,14.200821 40.169373,25.822952 40.169373" style="stroke:rgb(0,0,0); stroke-width: 8.607346;stroke-linecap: round;stroke-linejoin: round;stroke-miterlimit: 10.000000;fill: none;"></path>
  <path d="M47.342224 64.079285C47.342224 74.123810,37.445084 76.034515,25.822952 76.034515C12.106628 76.034515,4.303680 66.337875,4.303680 52.124054C4.303680 42.079529,14.200821 40.168823,25.822952 40.168823" style="stroke:rgb(0,0,0); stroke-width: 8.607346;stroke-linecap: round;stroke-linejoin: round;stroke-miterlimit: 10.000000;fill: none;"></path>
  <path d="M32.816360 28.214142L31.555771 27.453369L28.512680 27.138214L25.469589 27.453369L24.209000 28.214142L24.209000 52.124054L25.469589 52.884827L28.512680 53.199982L31.555771 52.884827L32.816360 52.124054Z" style="fill: rgb(0,0,0);stroke: none;"></path>
  <path d="M51.645905 1.075928L50.385315 0.315155L47.342224 -0.000000L44.299133 0.315155L43.038544 1.075928L43.038544 79.262268L44.299133 80.023041L47.342224 80.338196L50.385315 80.023041L51.645905 79.262268Z" style="fill: rgb(0,0,0);stroke: none;"></path>
  <path d="M47.342224 -0.000000L46.581451 1.260590L46.266296 4.303680L46.581451 7.346771L47.342224 8.607361L58.101608 8.607361L58.862381 7.346771L59.177536 4.303680L58.862381 1.260590L58.101608 -0.000000Z" style="fill: rgb(0,0,0);stroke: none;"></path>
  <path d="M47.342224 71.730835L46.581451 72.991425L46.266296 76.034515L46.581451 79.077606L47.342224 80.338196L58.101608 80.338196L58.862381 79.077606L59.177536 76.034515L58.862381 72.991425L58.101608 71.730835Z" style="fill: rgb(0,0,0);stroke: none;"></path>
</svg>
