<?xml version="1.0"?>
<!-- Created by MetaPost 2.11 on 2026.02.09:1107 -->
<svg version="1.1" xmlns="http://www.w3.org/2000/svg" xmlns:xlink="http://www.w3.org/1999/xlink" width="51.645905" height="80.338196" viewBox="0 0 51.645905 80.338196">
<!-- Original BoundingBox: -4.303680 -40.169098 47.342224 40.169098 -->
  <path d="M25.822952 28.213593C12.106628 28.213593,4.303680 37.910233,4.303680 52.124054C4.303680 66.337875,12.106628 76.034515,25.822952 76.034515C39.539276 76.034515,47.342224 66.337875,47.342224 52.124054" style="stroke:rgb(0,0,0); stroke-width: 8.607346;stroke-linecap: round;stroke-linejoin: round;stroke-miterlimit: 10.000000;fill: none;"></path>
  <path d="M4.303680 16.258911C4.303680 6.214386,14.200821 4.303680,25.822952 4.303680C39.539276 4.303680,47.342224 14.000320,47.342224 28.214142C47.342224 37.069717,47.342224 43.268478,47.342224 52.124054C47.342224 59.230957,45.391495 65.208572,41.726227 69.409454" style="stroke:rgb(0,0,0); stroke-width: 8.607346;stroke-linecap: round;stroke-linejoin: round;stroke-miterlimit: 10.000000;fill: none;"></path>
  <path d="M30.126633 28.213593L28.866043 27.452820L25.822952 27.137665L22.779861 27.452820L21.519272 28.213593L21.519272 40.168549L22.779861 40.929321L25.822952 41.244476L28.866043 40.929321L30.126633 40.168549Z" style="fill: rgb(0,0,0);stroke: none;"></path>
</svg>
