<?xml version="1.0"?>
<!-- Created by MetaPost 2.11 on 2026.02.09:1107 -->
<svg version="1.1" xmlns="http://www.w3.org/2000/svg" xmlns:xlink="http://www.w3.org/1999/xlink" width="59.177536" height="80.338745" viewBox="0 0 59.177536 80.338745">
<!-- Original BoundingBox: -47.342224 -40.169647 11.835312 40.169098 -->
  <g transform="matrix(-1.000000,-0.000000,-0.000000,1.000000,0.000000,0.000000)">
    <path d="M-4.303680 16.258911C-4.303680 6.214386,-14.200821 4.303680,-25.822952 4.303680C-39.539276 4.303680,-47.342224 14.000320,-47.342224 28.214142C-47.342224 45.925720,-47.342224 58.323486,-47.342224 76.035065" style="stroke:rgb(0,0,0); stroke-width: 8.607346;stroke-linecap: round;stroke-linejoin: round;stroke-miterlimit: 10.000000;fill: none;"></path>
  </g>
  <path d="M8.607361 4.303680L7.346771 3.542908L4.303680 3.227753L1.260590 3.542908L0.000000 4.303680L0.000000 16.258636L1.260590 17.019409L4.303680 17.334564L7.346771 17.019409L8.607361 16.258636Z" style="fill: rgb(0,0,0);stroke: none;"></path>
  <path d="M58.101608 80.338196L58.862381 79.077606L59.177536 76.034515L58.862381 72.991425L58.101608 71.730835L36.582840 71.730835L35.822067 72.991425L35.506912 76.034515L35.822067 79.077606L36.582840 80.338196Z" style="fill: rgb(0,0,0);stroke: none;"></path>
  <g transform="matrix(-1.000000,-0.000000,-0.000000,1.000000,0.000000,0.000000)">
    <path d="M-4.303680 16.258911C-4.303680 6.214386,-14.200821 4.303680,-25.822952 4.303680C-39.539276 4.303680,-47.342224 14.000320,-47.342224 28.214142C-47.342224 45.925720,-47.342224 58.323486,-47.342224 76.035065" style="stroke:rgb(0,0,0); stroke-width: 8.607346;stroke-linecap: round;stroke-linejoin: round;stroke-miterlimit: 10.000000;fill: none;"></path>
  </g>
  <path d="M8.607361 4.303680L7.346771 3.542908L4.303680 3.227753L1.260590 3.542908L0.000000 4.303680L0.000000 16.258636L1.260590 17.019409L4.303680 17.334564L7.346771 17.019409L8.607361 16.258636Z" style="fill: rgb(0,0,0);stroke: none;"></path>
  <path d="M58.101608 80.338196L58.862381 79.077606L59.177536 76.034515L58.862381 72.991425L58.101608 71.730835L36.582840 71.730835L35.822067 72.991425L35.506912 76.034515L35.822067 79.077606L36.582840 80.338196Z" style="fill: rgb(0,0,0);stroke: none;"></path>
</svg>
