<?xml version="1.0"?>
<!-- Created by MetaPost 2.11 on 2026.02.09:1107 -->
<svg version="1.1" xmlns="http://www.w3.org/2000/svg" xmlns:xlink="http://www.w3.org/1999/xlink" width="34.430511" height="38.017273" viewBox="0 0 34.430511 38.017273">
<!-- Original BoundingBox: -17.215256 -19.008636 17.215256 19.008636 -->
  <path d="M1.075928 5.738602L0.315155 6.999191L0.000000 10.042282L0.315155 13.085373L1.075928 14.345963L33.354584 14.345963L34.115356 13.085373L34.430511 10.042282L34.115356 6.999191L33.354584 5.738602Z" style="fill: rgb(0,0,0);stroke: none;"></path>
  <path d="M1.075928 23.671310L0.315155 24.931900L0.000000 27.974991L0.315155 31.018082L1.075928 32.278671L33.354584 32.278671L34.115356 31.018082L34.430511 27.974991L34.115356 24.931900L33.354584 23.671310Z" style="fill: rgb(0,0,0);stroke: none;"></path>
  <path d="M13.449265 1.075928L12.188675 0.315155L9.145584 -0.000000L6.102493 0.315155L4.841904 1.075928L4.841904 36.941345L6.102493 37.702118L9.145584 38.017273L12.188675 37.702118L13.449265 36.941345Z" style="fill: rgb(0,0,0);stroke: none;"></path>
  <path d="M29.588608 1.075928L28.328018 0.315155L25.284927 -0.000000L22.241837 0.315155L20.981247 1.075928L20.981247 36.941345L22.241837 37.702118L25.284927 38.017273L28.328018 37.702118L29.588608 36.941345Z" style="fill: rgb(0,0,0);stroke: none;"></path>
</svg>
