<?xml version="1.0"?>
<!-- Created by MetaPost 2.11 on 2026.02.09:1107 -->
<svg version="1.1" xmlns="http://www.w3.org/2000/svg" xmlns:xlink="http://www.w3.org/1999/xlink" width="51.645905" height="80.338196" viewBox="0 0 51.645905 80.338196">
<!-- Original BoundingBox: -47.342224 -40.169098 4.303680 40.169098 -->
  <g transform="matrix(-1.000000,-0.000000,-0.000000,1.000000,0.000000,0.000000)">
    <path d="M-4.303680 16.258911C-4.303680 6.214386,-14.200821 4.303680,-25.822952 4.303680C-39.539276 4.303680,-47.342224 14.000320,-47.342224 28.214142C-47.342224 38.258667,-37.445084 40.169373,-25.822952 40.169373" style="stroke:rgb(0,0,0); stroke-width: 8.607346;stroke-linecap: round;stroke-linejoin: round;stroke-miterlimit: 10.000000;fill: none;"></path>
  </g>
  <g transform="matrix(-1.000000,-0.000000,-0.000000,1.000000,0.000000,0.000000)">
    <path d="M-4.303680 64.079285C-4.303680 74.123810,-14.200821 76.034515,-25.822952 76.034515C-39.539276 76.034515,-47.342224 66.337875,-47.342224 52.124054C-47.342224 42.079529,-37.445084 40.168823,-25.822952 40.168823" style="stroke:rgb(0,0,0); stroke-width: 8.607346;stroke-linecap: round;stroke-linejoin: round;stroke-miterlimit: 10.000000;fill: none;"></path>
  </g>
  <path d="M27.436905 28.214142L26.176315 27.453369L23.133224 27.138214L20.090134 27.453369L18.829544 28.214142L18.829544 52.124054L20.090134 52.884827L23.133224 53.199982L26.176315 52.884827L27.436905 52.124054Z" style="fill: rgb(0,0,0);stroke: none;"></path>
  <path d="M8.607361 16.258911L7.346771 15.498138L4.303680 15.182983L1.260590 15.498138L0.000000 16.258911L0.000000 64.079285L1.260590 64.840057L4.303680 65.155212L7.346771 64.840057L8.607361 64.079285Z" style="fill: rgb(0,0,0);stroke: none;"></path>
  <g transform="matrix(-1.000000,-0.000000,-0.000000,1.000000,0.000000,0.000000)">
    <path d="M-4.303680 16.258911C-4.303680 6.214386,-14.200821 4.303680,-25.822952 4.303680C-39.539276 4.303680,-47.342224 14.000320,-47.342224 28.214142C-47.342224 38.258667,-37.445084 40.169373,-25.822952 40.169373" style="stroke:rgb(0,0,0); stroke-width: 8.607346;stroke-linecap: round;stroke-linejoin: round;stroke-miterlimit: 10.000000;fill: none;"></path>
  </g>
  <g transform="matrix(-1.000000,-0.000000,-0.000000,1.000000,0.000000,0.000000)">
    <path d="M-4.303680 64.079285C-4.303680 74.123810,-14.200821 76.034515,-25.822952 76.034515C-39.539276 76.034515,-47.342224 66.337875,-47.342224 52.124054C-47.342224 42.079529,-37.445084 40.168823,-25.822952 40.168823" style="stroke:rgb(0,0,0); stroke-width: 8.607346;stroke-linecap: round;stroke-linejoin: round;stroke-miterlimit: 10.000000;fill: none;"></path>
  </g>
  <path d="M27.436905 28.214142L26.176315 27.453369L23.133224 27.138214L20.090134 27.453369L18.829544 28.214142L18.829544 52.124054L20.090134 52.884827L23.133224 53.199982L26.176315 52.884827L27.436905 52.124054Z" style="fill: rgb(0,0,0);stroke: none;"></path>
  <path d="M8.607361 16.258911L7.346771 15.498138L4.303680 15.182983L1.260590 15.498138L0.000000 16.258911L0.000000 64.079285L1.260590 64.840057L4.303680 65.155212L7.346771 64.840057L8.607361 64.079285Z" style="fill: rgb(0,0,0);stroke: none;"></path>
</svg>
