<?xml version="1.0"?>
<!-- Created by MetaPost 2.11 on 2026.02.09:1107 -->
<svg version="1.1" xmlns="http://www.w3.org/2000/svg" xmlns:xlink="http://www.w3.org/1999/xlink" width="89.304016" height="80.338196" viewBox="0 0 89.304016 80.338196">
<!-- Original BoundingBox: -44.652008 -40.169098 44.652008 40.169098 -->
  <path d="M44.652008 4.303680C30.910690 4.303680,20.443008 9.731247,20.443008 22.236389C20.443008 34.741531,30.910690 40.169098,44.652008 40.169098C58.393326 40.169098,68.861008 45.596664,68.861008 58.101807C68.861008 70.606949,58.393326 76.034515,44.652008 76.034515C30.910690 76.034515,20.443008 70.606949,20.443008 58.101807C20.443008 45.596664,30.910690 40.169098,44.652008 40.169098C58.393326 40.169098,68.861008 34.741531,68.861008 22.236389C68.861008 10.981827,57.019104 4.303680,44.652008 4.303680Z" style="stroke:rgb(0,0,0); stroke-width: 8.607346;stroke-linecap: round;stroke-linejoin: round;stroke-miterlimit: 10.000000;fill: none;"></path>
  <path d="M44.652008 40.169098C65.785553 40.169098,85.000336 39.936081,85.000336 58.101807" style="stroke:rgb(0,0,0); stroke-width: 8.607346;stroke-linecap: round;stroke-linejoin: round;stroke-miterlimit: 10.000000;fill: none;"></path>
  <path d="M44.652008 40.169098C23.518463 40.169098,4.303680 40.402115,4.303680 22.236389" style="stroke:rgb(0,0,0); stroke-width: 8.607346;stroke-linecap: round;stroke-linejoin: round;stroke-miterlimit: 10.000000;fill: none;"></path>
  <path d="M8.607361 17.932709L7.346771 17.171936L4.303680 16.856781L1.260590 17.171936L0.000000 17.932709L0.000000 22.236389L1.260590 22.997162L4.303680 23.312317L7.346771 22.997162L8.607361 22.236389Z" style="fill: rgb(0,0,0);stroke: none;"></path>
  <path d="M80.696655 62.405487L81.957245 63.166260L85.000336 63.481415L88.043427 63.166260L89.304016 62.405487L89.304016 58.101807L88.043427 57.341034L85.000336 57.025879L81.957245 57.341034L80.696655 58.101807Z" style="fill: rgb(0,0,0);stroke: none;"></path>
</svg>
