<?xml version="1.0"?>
<!-- Created by MetaPost 2.11 on 2026.02.09:1107 -->
<svg version="1.1" xmlns="http://www.w3.org/2000/svg" xmlns:xlink="http://www.w3.org/1999/xlink" width="51.645905" height="80.338196" viewBox="0 0 51.645905 80.338196">
<!-- Original BoundingBox: -25.822952 -40.169098 25.822952 40.169098 -->
  <g transform="matrix(-1.000000,-0.000000,-0.000000,-1.000000,0.000000,0.000000)">
    <path d="M-25.822952 -52.124603C-39.539276 -52.124603,-47.342224 -42.427963,-47.342224 -28.214142C-47.342224 -14.000320,-39.539276 -4.303680,-25.822952 -4.303680C-12.106628 -4.303680,-4.303680 -14.000320,-4.303680 -28.214142C-4.303680 -42.427963,-12.106628 -52.124603,-25.822952 -52.124603Z" style="stroke:rgb(0,0,0); stroke-width: 8.607346;stroke-linecap: round;stroke-linejoin: round;stroke-miterlimit: 10.000000;fill: none;"></path>
  </g>
  <g transform="matrix(-1.000000,-0.000000,-0.000000,-1.000000,0.000000,0.000000)">
    <path d="M-47.342224 -28.214142C-47.342224 -53.301315,-47.377792 -76.034515,-25.822952 -76.034515" style="stroke:rgb(0,0,0); stroke-width: 8.607346;stroke-linecap: round;stroke-linejoin: round;stroke-miterlimit: 10.000000;fill: none;"></path>
  </g>
  <g transform="matrix(-1.000000,-0.000000,-0.000000,-1.000000,0.000000,0.000000)">
    <path d="M-4.303680 -64.079285C-4.303680 -74.123810,-14.200821 -76.034515,-25.822952 -76.034515" style="stroke:rgb(0,0,0); stroke-width: 8.607346;stroke-linecap: round;stroke-linejoin: round;stroke-miterlimit: 10.000000;fill: none;"></path>
  </g>
  <g transform="matrix(-1.000000,-0.000000,-0.000000,-1.000000,0.000000,0.000000)">
    <path d="M-25.822952 -52.124603C-39.539276 -52.124603,-47.342224 -42.427963,-47.342224 -28.214142C-47.342224 -14.000320,-39.539276 -4.303680,-25.822952 -4.303680C-12.106628 -4.303680,-4.303680 -14.000320,-4.303680 -28.214142C-4.303680 -42.427963,-12.106628 -52.124603,-25.822952 -52.124603Z" style="stroke:rgb(0,0,0); stroke-width: 8.607346;stroke-linecap: round;stroke-linejoin: round;stroke-miterlimit: 10.000000;fill: none;"></path>
  </g>
  <g transform="matrix(-1.000000,-0.000000,-0.000000,-1.000000,0.000000,0.000000)">
    <path d="M-47.342224 -28.214142C-47.342224 -53.301315,-47.377792 -76.034515,-25.822952 -76.034515" style="stroke:rgb(0,0,0); stroke-width: 8.607346;stroke-linecap: round;stroke-linejoin: round;stroke-miterlimit: 10.000000;fill: none;"></path>
  </g>
  <g transform="matrix(-1.000000,-0.000000,-0.000000,-1.000000,0.000000,0.000000)">
    <path d="M-4.303680 -64.079285C-4.303680 -74.123810,-14.200821 -76.034515,-25.822952 -76.034515" style="stroke:rgb(0,0,0); stroke-width: 8.607346;stroke-linecap: round;stroke-linejoin: round;stroke-miterlimit: 10.000000;fill: none;"></path>
  </g>
</svg>
