<?xml version="1.0"?>
<!-- Created by MetaPost 2.11 on 2026.02.09:1107 -->
<svg version="1.1" xmlns="http://www.w3.org/2000/svg" xmlns:xlink="http://www.w3.org/1999/xlink" width="64.556976" height="80.338196" viewBox="0 0 64.556976 80.338196">
<!-- Original BoundingBox: -11.835312 -40.169098 52.721664 40.169098 -->
  <g transform="matrix(-1.000000,-0.000000,-0.000000,-1.000000,0.000000,0.000000)">
    <path d="M-11.835312 -4.303680L-11.835312 -76.034515" style="stroke:rgb(0,0,0); stroke-width: 8.607346;stroke-linecap: round;stroke-linejoin: round;stroke-miterlimit: 10.000000;fill: none;"></path>
  </g>
  <path d="M22.594696 80.338196L23.355469 79.077606L23.670624 76.034515L23.355469 72.991425L22.594696 71.730835L1.075928 71.730835L0.315155 72.991425L0.000000 76.034515L0.315155 79.077606L1.075928 80.338196Z" style="fill: rgb(0,0,0);stroke: none;"></path>
  <path d="M22.594696 8.607361L23.355469 7.346771L23.670624 4.303680L23.355469 1.260590L22.594696 -0.000000L1.075928 -0.000000L0.315155 1.260590L0.000000 4.303680L0.315155 7.346771L1.075928 8.607361Z" style="fill: rgb(0,0,0);stroke: none;"></path>
  <path d="M64.556976 1.075928L63.296387 0.315155L60.253296 -0.000000L57.210205 0.315155L55.949615 1.075928L55.949615 5.738052L57.210205 6.498825L60.253296 6.813980L63.296387 6.498825L64.556976 5.738052Z" style="fill: rgb(0,0,0);stroke: none;"></path>
  <g transform="matrix(-1.000000,-0.000000,-0.000000,-1.000000,0.000000,0.000000)">
    <path d="M-11.835312 -4.303680C-11.835312 -10.724594,-14.386398 -16.881744,-18.926315 -21.421677C-23.466248 -25.961594,-29.623398 -28.512680,-36.044312 -28.512680C-42.465225 -28.512680,-48.622375 -25.961594,-53.162308 -21.421677C-57.361954 -17.222015,-59.859726 -11.638489,-60.210556 -5.742432" style="stroke:rgb(0,0,0); stroke-width: 8.607346;stroke-linecap: round;stroke-linejoin: round;stroke-miterlimit: 10.000000;fill: none;"></path>
  </g>
  <g transform="matrix(-1.000000,-0.000000,-0.000000,-1.000000,0.000000,0.000000)">
    <path d="M-11.835312 -4.303680L-11.835312 -76.034515" style="stroke:rgb(0,0,0); stroke-width: 8.607346;stroke-linecap: round;stroke-linejoin: round;stroke-miterlimit: 10.000000;fill: none;"></path>
  </g>
  <path d="M22.594696 80.338196L23.355469 79.077606L23.670624 76.034515L23.355469 72.991425L22.594696 71.730835L1.075928 71.730835L0.315155 72.991425L0.000000 76.034515L0.315155 79.077606L1.075928 80.338196Z" style="fill: rgb(0,0,0);stroke: none;"></path>
  <path d="M22.594696 8.607361L23.355469 7.346771L23.670624 4.303680L23.355469 1.260590L22.594696 -0.000000L1.075928 -0.000000L0.315155 1.260590L0.000000 4.303680L0.315155 7.346771L1.075928 8.607361Z" style="fill: rgb(0,0,0);stroke: none;"></path>
  <path d="M64.556976 1.075928L63.296387 0.315155L60.253296 -0.000000L57.210205 0.315155L55.949615 1.075928L55.949615 5.738052L57.210205 6.498825L60.253296 6.813980L63.296387 6.498825L64.556976 5.738052Z" style="fill: rgb(0,0,0);stroke: none;"></path>
  <g transform="matrix(-1.000000,-0.000000,-0.000000,-1.000000,0.000000,0.000000)">
    <path d="M-11.835312 -4.303680C-11.835312 -10.724594,-14.386398 -16.881744,-18.926315 -21.421677C-23.466248 -25.961594,-29.623398 -28.512680,-36.044312 -28.512680C-42.465225 -28.512680,-48.622375 -25.961594,-53.162308 -21.421677C-57.361954 -17.222015,-59.859726 -11.638489,-60.210556 -5.742432" style="stroke:rgb(0,0,0); stroke-width: 8.607346;stroke-linecap: round;stroke-linejoin: round;stroke-miterlimit: 10.000000;fill: none;"></path>
  </g>
</svg>
