<?xml version="1.0"?>
<!-- Created by MetaPost 2.11 on 2026.02.09:1107 -->
<svg version="1.1" xmlns="http://www.w3.org/2000/svg" xmlns:xlink="http://www.w3.org/1999/xlink" width="79.594681" height="79.907806" viewBox="0 0 79.594681 79.907806">
<!-- Original BoundingBox: -67.759369 -39.738708 11.835312 40.169098 -->
  <path d="M63.455688 78.831879L64.716278 79.592651L67.759369 79.907806L70.802460 79.592651L72.063049 78.831879L72.063049 4.303680L70.802460 3.542908L67.759369 3.227753L64.716278 3.542908L63.455688 4.303680Z" style="fill: rgb(0,0,0);stroke: none;"></path>
  <path d="M56.999985 -0.000000L56.239212 1.260590L55.924057 4.303680L56.239212 7.346771L56.999985 8.607361L78.518753 8.607361L79.279526 7.346771L79.594681 4.303680L79.279526 1.260590L78.518753 -0.000000Z" style="fill: rgb(0,0,0);stroke: none;"></path>
  <path d="M33.769928 61.775101L32.715515 62.802750L31.642227 65.667709L31.178833 68.691788L31.596680 70.103622C32.033600 70.357635,32.539780 70.636139,33.094025 70.929214L34.148438 69.901566L35.221725 67.036606L35.685120 64.012527L35.267273 62.600693C34.713028 62.307617,34.206848 62.029114,33.769928 61.775101Z" style="fill: rgb(0,0,0);stroke: none;"></path>
  <path d="M34.055786 61.956238L33.014908 62.997604L31.979187 65.876343L31.555405 68.906235L31.991669 70.312469C32.638214 70.677719,33.405701 71.084579,34.239029 71.507278L35.279907 70.465912L36.315628 67.587173L36.739410 64.557281L36.303146 63.151047C35.469818 62.728348,34.702332 62.321487,34.055786 61.956238Z" style="fill: rgb(0,0,0);stroke: none;"></path>
  <path d="M34.952484 62.464554L33.925323 63.519455L32.927383 66.411484L32.543274 69.446640L32.997925 70.847061C33.743011 71.244812,34.583984 71.672440,35.465759 72.104187L36.492920 71.049286L37.490860 68.157257L37.874969 65.122101L37.420319 63.721680C36.538544 63.289932,35.697571 62.862305,34.952484 62.464554Z" style="fill: rgb(0,0,0);stroke: none;"></path>
  <path d="M35.967575 63.010513L34.954330 64.078766L33.994339 66.983597L33.650009 70.023499L34.122940 71.417831C34.943832 71.837433,35.835571 72.275208,36.743088 72.705383L37.756332 71.637131L38.716324 68.732300L39.060654 65.692398L38.587723 64.298065C37.680206 63.867889,36.788467 63.430115,35.967575 63.010513Z" style="fill: rgb(0,0,0);stroke: none;"></path>
  <path d="M37.070663 63.579819L36.071472 64.661255L35.149582 67.578430L34.845062 70.622620L35.336227 72.010666C36.210129 72.441452,37.129852 72.878708,38.040298 73.296631L39.039490 72.215195L39.961380 69.298019L40.265900 66.253830L39.774734 64.865784C38.864288 64.447861,37.944565 64.010605,37.070663 63.579819Z" style="fill: rgb(0,0,0);stroke: none;"></path>
  <path d="M38.230392 64.157898L37.245453 65.252335L36.361847 68.181305L36.097229 71.229202L36.606522 72.610687C37.510727 73.042038,38.435699 73.468140,39.326370 73.863190L40.311310 72.768753L41.194916 69.839783L41.459534 66.791885L40.950241 65.410400C40.059570 65.015350,39.134598 64.589249,38.230392 64.157898Z" style="fill: rgb(0,0,0);stroke: none;"></path>
  <path d="M39.415787 64.730209L38.445251 65.837418L37.600052 68.777695L37.375336 71.828781L37.902634 73.203476C38.814331 73.624710,39.721756 74.028961,40.569824 74.390457L41.540359 73.283249L42.385559 70.342972L42.610275 67.291885L42.082977 65.917191C41.234909 65.555695,40.327484 65.151443,39.415787 64.730209Z" style="fill: rgb(0,0,0);stroke: none;"></path>
  <path d="M40.595749 65.282120L39.639786 66.401947L38.833099 69.353058L38.648331 72.406860L39.193588 73.774551C40.090027 74.175034,40.957169 74.546814,41.739914 74.864120L42.695877 73.744293L43.502563 70.793182L43.687332 67.739380L43.142075 66.371689C42.359329 66.054382,41.492188 65.682602,40.595749 65.282120Z" style="fill: rgb(0,0,0);stroke: none;"></path>
  <path d="M41.738861 65.799088L40.797638 66.931335L40.029694 69.892761L39.884949 72.948700L40.448059 74.309128C41.306488 74.678192,42.110565 75.006851,42.805222 75.269318L43.746445 74.137070L44.514389 71.175644L44.659134 68.119705L44.096024 66.759277C43.401367 66.496811,42.597290 66.168152,41.738861 65.799088Z" style="fill: rgb(0,0,0);stroke: none;"></path>
  <path d="M42.814880 66.266830L41.888565 67.411301L41.159454 70.382507L41.054703 73.440079L41.635590 74.793015C42.215698 75.030838,42.753830 75.241089,43.228775 75.413849C43.582886 75.542648,43.958069 75.671127,44.351883 75.798843L45.278198 74.654373L46.007309 71.683167L46.112061 68.625595L45.531174 67.272659C45.137360 67.144943,44.762177 67.016464,44.408066 66.887665C43.933121 66.714905,43.394989 66.504654,42.814880 66.266830Z" style="fill: rgb(0,0,0);stroke: none;"></path>
  <path d="M43.792419 66.670685L42.881149 67.827179L42.190964 70.807678L42.126236 73.866364L42.724762 75.211578C42.919510 75.286377,43.106491 75.356430,43.284592 75.421204C44.228928 75.764679,45.323212 76.105850,46.520996 76.436600L47.432266 75.280106L48.122452 72.299606L48.187180 69.240921L47.588654 67.895706C46.390869 67.564957,45.296585 67.223785,44.352249 66.880310C44.174149 66.815536,43.987167 66.745483,43.792419 66.670685Z" style="fill: rgb(0,0,0);stroke: none;"></path>
  <path d="M45.032074 67.130768L44.136032 68.299088L43.484924 71.288376L43.460220 74.347672L44.076324 75.684937C45.473892 76.154938,47.132996 76.616730,48.932922 77.049225L49.828964 75.880905L50.480072 72.891617L50.504776 69.832321L49.888672 68.495056C48.088745 68.062561,46.429642 67.600769,45.032074 67.130768Z" style="fill: rgb(0,0,0);stroke: none;"></path>
  <path d="M47.032700 67.758789L46.152023 68.938736L45.540100 71.936249L45.555435 74.995560L46.188980 76.324646C47.799316 76.782822,49.616302 77.223190,51.519241 77.624649L52.399918 76.444702L53.011841 73.447189L52.996506 70.387878L52.362961 69.058792C50.460022 68.657333,48.643036 68.216965,47.032700 67.758789Z" style="fill: rgb(0,0,0);stroke: none;"></path>
  <path d="M49.288666 68.365234L48.423523 69.556610L47.850922 72.561920L47.906342 75.620789L48.557251 76.941467C50.330551 77.379120,52.255661 77.789383,54.211868 78.151138L55.077011 76.959763L55.649612 73.954453L55.594193 70.895584L54.943283 69.574905C52.987076 69.213150,51.061966 68.802887,49.288666 68.365234Z" style="fill: rgb(0,0,0);stroke: none;"></path>
  <path d="M51.733536 68.938690L50.884048 70.141281L50.350830 73.153809L50.446274 76.211685L51.114395 77.523712C53.000717 77.932083,54.983978 78.303482,56.943466 78.616776L57.792953 77.414185L58.326172 74.401657L58.230728 71.343781L57.562607 70.031754C55.603119 69.718460,53.619858 69.347061,51.733536 68.938690Z" style="fill: rgb(0,0,0);stroke: none;"></path>
  <path d="M54.298523 69.467026L53.464859 70.680634L52.971115 73.699875L53.106583 76.756226L53.791809 78.059402C55.741379 78.429794,57.733032 78.753616,59.646042 79.009735L60.479706 77.796127L60.973450 74.776886L60.837982 71.720535L60.152756 70.417358C58.239746 70.161240,56.248093 69.837418,54.298523 69.467026Z" style="fill: rgb(0,0,0);stroke: none;"></path>
  <path d="M56.915588 69.938309L56.097885 71.162735L55.643723 74.188187L55.819199 77.242508L56.521454 78.536606C58.484299 78.860291,60.434341 79.127792,62.250885 79.318008L63.068588 78.093582L63.522751 75.068130L63.347275 72.013809L62.645020 70.719711C60.828476 70.529495,58.878433 70.261993,56.915588 69.938309Z" style="fill: rgb(0,0,0);stroke: none;"></path>
  <path d="M59.516800 70.340683L58.715195 71.575714L58.300659 74.606857L58.516098 77.658630L59.235214 78.943436C61.161499 79.211685,63.020126 79.414154,64.690384 79.529724L65.491989 78.294693L65.906525 75.263550L65.691086 72.211777L64.971970 70.926971C63.301712 70.811401,61.443085 70.608932,59.516800 70.340683Z" style="fill: rgb(0,0,0);stroke: none;"></path>
  <path d="M62.033340 70.662186L61.247955 71.907593L60.873108 74.943878L61.128448 77.992554L61.864304 79.267838C63.704163 79.471939,65.421509 79.600677,66.895630 79.632935L67.681015 78.387527L68.055862 75.351242L67.800522 72.302567L67.064667 71.027283C65.590546 70.995026,63.873199 70.866287,62.033340 70.662186Z" style="fill: rgb(0,0,0);stroke: none;"></path>
  <path d="M64.398727 70.891037L63.629715 72.146637L63.294647 75.187607L63.589890 78.232727L64.342392 79.498276C65.581345 79.593704,66.726471 79.644196,67.731323 79.641617L68.500336 78.386017L68.835403 75.345047L68.540161 72.299927L67.787659 71.034378C66.782806 71.036957,65.637680 70.986465,64.398727 70.891037Z" style="fill: rgb(0,0,0);stroke: none;"></path>
  <path d="M2.591095 61.775101L1.536682 62.802750L0.463394 65.667709L0.000000 68.691788L0.417847 70.103622C0.854767 70.357635,1.360947 70.636139,1.915192 70.929214L2.969604 69.901566L4.042892 67.036606L4.506287 64.012527L4.088440 62.600693C3.534195 62.307617,3.028015 62.029114,2.591095 61.775101Z" style="fill: rgb(0,0,0);stroke: none;"></path>
  <path d="M2.876953 61.956238L1.836075 62.997604L0.800354 65.876343L0.376572 68.906235L0.812836 70.312469C1.459381 70.677719,2.226868 71.084579,3.060196 71.507278L4.101074 70.465912L5.136795 67.587173L5.560577 64.557281L5.124313 63.151047C4.290985 62.728348,3.523499 62.321487,2.876953 61.956238Z" style="fill: rgb(0,0,0);stroke: none;"></path>
  <path d="M3.773651 62.464554L2.746490 63.519455L1.748550 66.411484L1.364441 69.446640L1.819092 70.847061C2.564178 71.244812,3.405151 71.672440,4.286926 72.104187L5.314087 71.049286L6.312027 68.157257L6.696136 65.122101L6.241486 63.721680C5.359711 63.289932,4.518738 62.862305,3.773651 62.464554Z" style="fill: rgb(0,0,0);stroke: none;"></path>
  <path d="M4.788742 63.010513L3.775497 64.078766L2.815506 66.983597L2.471176 70.023499L2.944107 71.417831C3.764999 71.837433,4.656738 72.275208,5.564255 72.705383L6.577499 71.637131L7.537491 68.732300L7.881821 65.692398L7.408890 64.298065C6.501373 63.867889,5.609634 63.430115,4.788742 63.010513Z" style="fill: rgb(0,0,0);stroke: none;"></path>
  <path d="M5.891830 63.579819L4.892639 64.661255L3.970749 67.578430L3.666229 70.622620L4.157394 72.010666C5.031296 72.441452,5.951019 72.878708,6.861465 73.296631L7.860657 72.215195L8.782547 69.298019L9.087067 66.253830L8.595901 64.865784C7.685455 64.447861,6.765732 64.010605,5.891830 63.579819Z" style="fill: rgb(0,0,0);stroke: none;"></path>
  <path d="M7.051559 64.157898L6.066620 65.252335L5.183014 68.181305L4.918396 71.229202L5.427689 72.610687C6.331894 73.042038,7.256866 73.468140,8.147537 73.863190L9.132477 72.768753L10.016083 69.839783L10.280701 66.791885L9.771408 65.410400C8.880737 65.015350,7.955765 64.589249,7.051559 64.157898Z" style="fill: rgb(0,0,0);stroke: none;"></path>
  <path d="M8.236954 64.730209L7.266418 65.837418L6.421219 68.777695L6.196503 71.828781L6.723801 73.203476C7.635498 73.624710,8.542923 74.028961,9.390991 74.390457L10.361526 73.283249L11.206726 70.342972L11.431442 67.291885L10.904144 65.917191C10.056076 65.555695,9.148651 65.151443,8.236954 64.730209Z" style="fill: rgb(0,0,0);stroke: none;"></path>
  <path d="M9.416916 65.282120L8.460953 66.401947L7.654266 69.353058L7.469498 72.406860L8.014755 73.774551C8.911194 74.175034,9.778336 74.546814,10.561081 74.864120L11.517044 73.744293L12.323730 70.793182L12.508499 67.739380L11.963242 66.371689C11.180496 66.054382,10.313354 65.682602,9.416916 65.282120Z" style="fill: rgb(0,0,0);stroke: none;"></path>
  <path d="M10.560028 65.799088L9.618805 66.931335L8.850861 69.892761L8.706116 72.948700L9.269226 74.309128C10.127655 74.678192,10.931732 75.006851,11.626389 75.269318L12.567612 74.137070L13.335556 71.175644L13.480301 68.119705L12.917191 66.759277C12.222534 66.496811,11.418457 66.168152,10.560028 65.799088Z" style="fill: rgb(0,0,0);stroke: none;"></path>
  <path d="M11.636047 66.266830L10.709732 67.411301L9.980621 70.382507L9.875870 73.440079L10.456757 74.793015C11.036865 75.030838,11.574997 75.241089,12.049942 75.413849C12.404053 75.542648,12.779236 75.671127,13.173050 75.798843L14.099365 74.654373L14.828476 71.683167L14.933228 68.625595L14.352341 67.272659C13.958527 67.144943,13.583344 67.016464,13.229233 66.887665C12.754288 66.714905,12.216156 66.504654,11.636047 66.266830Z" style="fill: rgb(0,0,0);stroke: none;"></path>
  <path d="M12.613586 66.670685L11.702316 67.827179L11.012131 70.807678L10.947403 73.866364L11.545929 75.211578C11.740677 75.286377,11.927658 75.356430,12.105759 75.421204C13.050095 75.764679,14.144379 76.105850,15.342163 76.436600L16.253433 75.280106L16.943619 72.299606L17.008347 69.240921L16.409821 67.895706C15.212036 67.564957,14.117752 67.223785,13.173416 66.880310C12.995316 66.815536,12.808334 66.745483,12.613586 66.670685Z" style="fill: rgb(0,0,0);stroke: none;"></path>
  <path d="M13.853241 67.130768L12.957199 68.299088L12.306091 71.288376L12.281387 74.347672L12.897491 75.684937C14.295059 76.154938,15.954163 76.616730,17.754089 77.049225L18.650131 75.880905L19.301239 72.891617L19.325943 69.832321L18.709839 68.495056C16.909912 68.062561,15.250809 67.600769,13.853241 67.130768Z" style="fill: rgb(0,0,0);stroke: none;"></path>
  <path d="M15.853867 67.758789L14.973190 68.938736L14.361267 71.936249L14.376602 74.995560L15.010147 76.324646C16.620483 76.782822,18.437469 77.223190,20.340408 77.624649L21.221085 76.444702L21.833008 73.447189L21.817673 70.387878L21.184128 69.058792C19.281189 68.657333,17.464203 68.216965,15.853867 67.758789Z" style="fill: rgb(0,0,0);stroke: none;"></path>
  <path d="M18.109833 68.365234L17.244690 69.556610L16.672089 72.561920L16.727509 75.620789L17.378418 76.941467C19.151718 77.379120,21.076828 77.789383,23.033035 78.151138L23.898178 76.959763L24.470779 73.954453L24.415359 70.895584L23.764450 69.574905C21.808243 69.213150,19.883133 68.802887,18.109833 68.365234Z" style="fill: rgb(0,0,0);stroke: none;"></path>
  <path d="M20.554703 68.938690L19.705215 70.141281L19.171997 73.153809L19.267441 76.211685L19.935562 77.523712C21.821884 77.932083,23.805145 78.303482,25.764633 78.616776L26.614120 77.414185L27.147339 74.401657L27.051895 71.343781L26.383774 70.031754C24.424286 69.718460,22.441025 69.347061,20.554703 68.938690Z" style="fill: rgb(0,0,0);stroke: none;"></path>
  <path d="M23.119690 69.467026L22.286026 70.680634L21.792282 73.699875L21.927750 76.756226L22.612976 78.059402C24.562546 78.429794,26.554199 78.753616,28.467209 79.009735L29.300873 77.796127L29.794617 74.776886L29.659149 71.720535L28.973923 70.417358C27.060913 70.161240,25.069260 69.837418,23.119690 69.467026Z" style="fill: rgb(0,0,0);stroke: none;"></path>
  <path d="M25.736755 69.938309L24.919052 71.162735L24.464890 74.188187L24.640366 77.242508L25.342621 78.536606C27.305466 78.860291,29.255508 79.127792,31.072052 79.318008L31.889755 78.093582L32.343918 75.068130L32.168442 72.013809L31.466187 70.719711C29.649643 70.529495,27.699600 70.261993,25.736755 69.938309Z" style="fill: rgb(0,0,0);stroke: none;"></path>
  <path d="M28.337967 70.340683L27.536362 71.575714L27.121826 74.606857L27.337265 77.658630L28.056381 78.943436C29.982666 79.211685,31.841293 79.414154,33.511551 79.529724L34.313156 78.294693L34.727692 75.263550L34.512253 72.211777L33.793137 70.926971C32.122879 70.811401,30.264252 70.608932,28.337967 70.340683Z" style="fill: rgb(0,0,0);stroke: none;"></path>
  <path d="M30.854507 70.662186L30.069122 71.907593L29.694275 74.943878L29.949615 77.992554L30.685471 79.267838C32.525330 79.471939,34.242676 79.600677,35.716797 79.632935L36.502182 78.387527L36.877029 75.351242L36.621689 72.302567L35.885834 71.027283C34.411713 70.995026,32.694366 70.866287,30.854507 70.662186Z" style="fill: rgb(0,0,0);stroke: none;"></path>
  <path d="M33.219894 70.891037L32.450882 72.146637L32.115814 75.187607L32.411057 78.232727L33.163559 79.498276C34.402512 79.593704,35.547638 79.644196,36.552490 79.641617L37.321503 78.386017L37.656570 75.345047L37.361328 72.299927L36.608826 71.034378C35.603973 71.036957,34.458847 70.986465,33.219894 70.891037Z" style="fill: rgb(0,0,0);stroke: none;"></path>
  <path d="M33.742676 61.768066L32.695007 62.802612L31.640472 65.674515L31.196869 68.701569L31.623932 70.110657L32.247543 71.614456L33.295212 70.579910L34.349747 67.708008L34.793350 64.680954L34.366287 63.271866Z" style="fill: rgb(0,0,0);stroke: none;"></path>
  <path d="M33.789001 62.117676L32.768768 63.179276L31.789780 66.077774L31.425537 69.115372L31.889343 70.512787L32.746780 72.580551L33.767014 71.518951L34.746002 68.620453L35.110245 65.582855L34.646439 64.185440Z" style="fill: rgb(0,0,0);stroke: none;"></path>
  <path d="M34.068497 63.034149L33.076416 64.122116L32.173660 67.045258L31.889099 70.091385L32.389328 71.476166L33.246765 73.543884L34.238846 72.455917L35.141602 69.532776L35.426163 66.486649L34.925934 65.101868Z" style="fill: rgb(0,0,0);stroke: none;"></path>
  <path d="M34.347488 63.953598L33.384232 65.067139L32.558319 68.012878L32.353592 71.065369L32.889908 72.436569L33.747299 74.504257L34.710556 73.390717L35.536469 70.444977L35.741196 67.392487L35.204880 66.021286Z" style="fill: rgb(0,0,0);stroke: none;"></path>
  <path d="M35.197952 66.232422L34.625946 64.875717L33.692154 66.014099L32.943588 68.980484L32.818832 72.037323L33.676224 74.104996L34.248230 75.461700L35.182022 74.323318L35.930588 71.356934L36.055344 68.300095Z" style="fill: rgb(0,0,0);stroke: none;"></path>
  <path d="M35.511322 67.142212L34.903976 65.800934L34.000305 66.963379L33.329651 69.948334L33.284943 73.007385L34.142380 75.075119L34.749725 76.416397L35.653397 75.253952L36.324051 72.268997L36.368759 69.209946Z" style="fill: rgb(0,0,0);stroke: none;"></path>
  <path d="M35.823868 68.053848L35.181641 66.728943L34.308701 67.914627L33.716415 70.916107L33.751785 73.975266L34.609222 76.042984L35.251450 77.367889L36.124390 76.182205L36.716675 73.180725L36.681305 70.121567Z" style="fill: rgb(0,0,0);stroke: none;"></path>
  <path d="M36.135773 68.967651L35.459076 67.660004L34.617493 68.868134L34.103989 71.884125L34.219452 74.941315L35.076889 77.009033L35.753586 78.316681L36.595169 77.108551L37.108673 74.092560L36.993210 71.035370Z" style="fill: rgb(0,0,0);stroke: none;"></path>
  <path d="M36.447006 69.883545L35.736313 68.594070L34.926651 69.823822L34.492264 72.852173L34.687698 75.905273L35.545135 77.972992L36.255829 79.262466L37.065491 78.032715L37.499878 75.004364L37.304443 71.951263Z" style="fill: rgb(0,0,0);stroke: none;"></path>
  <path d="M36.757584 70.801346L36.013397 69.530914L35.236191 70.781418L34.881210 73.820114L35.156509 76.867050L35.780121 78.370850L36.524307 79.641281L37.301514 78.390778L37.656494 75.352081L37.381195 72.305145Z" style="fill: rgb(0,0,0);stroke: none;"></path>
</svg>
