<?xml version="1.0"?>
<!-- Created by MetaPost 2.11 on 2026.02.09:1107 -->
<svg version="1.1" xmlns="http://www.w3.org/2000/svg" xmlns:xlink="http://www.w3.org/1999/xlink" width="72.626648" height="80.338196" viewBox="0 0 72.626648 80.338196">
<!-- Original BoundingBox: -36.044312 -40.169098 36.582336 40.169098 -->
  <g transform="matrix(-1.000000,-0.000000,-0.000000,1.000000,0.000000,0.000000)">
    <path d="M-36.044312 76.034515L-36.044312 22.236389" style="stroke:rgb(0,0,0); stroke-width: 8.607346;stroke-linecap: round;stroke-linejoin: round;stroke-miterlimit: 10.000000;fill: none;"></path>
  </g>
  <path d="M46.803696 80.338196L47.564468 79.077606L47.879623 76.034515L47.564468 72.991425L46.803696 71.730835L25.284927 71.730835L24.524155 72.991425L24.209000 76.034515L24.524155 79.077606L25.284927 80.338196Z" style="fill: rgb(0,0,0);stroke: none;"></path>
  <g transform="matrix(-1.000000,-0.000000,-0.000000,1.000000,0.000000,0.000000)">
    <path d="M-36.044312 22.236389C-36.044312 11.576096,-41.896469 4.303680,-52.183640 4.303680C-62.470810 4.303680,-68.322968 11.576096,-68.322968 22.236389C-68.322968 37.303055,-53.477371 40.169098,-36.044312 40.169098C-21.366089 40.169098,-11.835312 31.347198,-11.835312 16.856796L-11.835312 4.303680" style="stroke:rgb(0,0,0); stroke-width: 8.607346;stroke-linecap: round;stroke-linejoin: round;stroke-miterlimit: 10.000000;fill: none;"></path>
  </g>
  <path d="M22.594696 8.607361L23.355469 7.346771L23.670624 4.303680L23.355469 1.260590L22.594696 -0.000000L1.075928 -0.000000L0.315155 1.260590L0.000000 4.303680L0.315155 7.346771L1.075928 8.607361Z" style="fill: rgb(0,0,0);stroke: none;"></path>
  <g transform="matrix(-1.000000,-0.000000,-0.000000,1.000000,0.000000,0.000000)">
    <path d="M-36.044312 76.034515L-36.044312 22.236389" style="stroke:rgb(0,0,0); stroke-width: 8.607346;stroke-linecap: round;stroke-linejoin: round;stroke-miterlimit: 10.000000;fill: none;"></path>
  </g>
  <path d="M46.803696 80.338196L47.564468 79.077606L47.879623 76.034515L47.564468 72.991425L46.803696 71.730835L25.284927 71.730835L24.524155 72.991425L24.209000 76.034515L24.524155 79.077606L25.284927 80.338196Z" style="fill: rgb(0,0,0);stroke: none;"></path>
  <g transform="matrix(-1.000000,-0.000000,-0.000000,1.000000,0.000000,0.000000)">
    <path d="M-36.044312 22.236389C-36.044312 11.576096,-41.896469 4.303680,-52.183640 4.303680C-62.470810 4.303680,-68.322968 11.576096,-68.322968 22.236389C-68.322968 37.303055,-53.477371 40.169098,-36.044312 40.169098C-21.366089 40.169098,-11.835312 31.347198,-11.835312 16.856796L-11.835312 4.303680" style="stroke:rgb(0,0,0); stroke-width: 8.607346;stroke-linecap: round;stroke-linejoin: round;stroke-miterlimit: 10.000000;fill: none;"></path>
  </g>
  <path d="M22.594696 8.607361L23.355469 7.346771L23.670624 4.303680L23.355469 1.260590L22.594696 -0.000000L1.075928 -0.000000L0.315155 1.260590L0.000000 4.303680L0.315155 7.346771L1.075928 8.607361Z" style="fill: rgb(0,0,0);stroke: none;"></path>
</svg>
