<?xml version="1.0"?>
<!-- Created by MetaPost 2.11 on 2026.02.09:1107 -->
<svg version="1.1" xmlns="http://www.w3.org/2000/svg" xmlns:xlink="http://www.w3.org/1999/xlink" width="9.414642" height="66.230835" viewBox="0 0 9.414642 66.230835">
<!-- Original BoundingBox: -6.186890 -51.048126 3.227753 15.182709 -->
  <path d="M6.186890 3.227753l0 0" style="stroke:rgb(0,0,0); stroke-width: 6.455505;stroke-linecap: round;stroke-linejoin: round;stroke-miterlimit: 10.000000;fill: none;"></path>
  <path d="M6.186890 51.048126l0 0" style="stroke:rgb(0,0,0); stroke-width: 6.455505;stroke-linecap: round;stroke-linejoin: round;stroke-miterlimit: 10.000000;fill: none;"></path>
  <path d="M6.993835 51.048126L6.757477 48.765808L6.186890 47.820374L5.616302 48.765808L5.379944 51.048126C5.379944 51.799484,5.345398 52.516449,5.274231 53.203659L5.510590 50.921341C5.281830 53.130325,4.674606 55.031845,3.619614 56.779938L4.190201 55.834503C3.354736 57.218826,2.238464 58.506927,0.806946 59.775330L0.236359 60.720764L0.000000 63.003082L0.236359 65.285400L0.806946 66.230835C2.238464 64.962433,3.354736 63.674332,4.190201 62.290009L4.760788 61.344574C5.815796 59.596481,6.423004 57.694962,6.651764 55.485977L6.888123 53.203659C6.959290 52.516449,6.993835 51.799484,6.993835 51.048126Z" style="fill: rgb(0,0,0);stroke: none;"></path>
</svg>
