<?xml version="1.0"?>
<!-- Created by MetaPost 2.11 on 2026.02.09:1107 -->
<svg version="1.1" xmlns="http://www.w3.org/2000/svg" xmlns:xlink="http://www.w3.org/1999/xlink" width="49.494049" height="78.186340" viewBox="0 0 49.494049 78.186340">
<!-- Original BoundingBox: -3.227753 -39.093170 46.266296 39.093170 -->
  <path d="M46.266296 15.182983C46.266296 5.138458,36.369156 3.227753,24.747025 3.227753C11.030701 3.227753,3.227753 12.924393,3.227753 27.138214C3.227753 37.182739,13.124893 39.093445,24.747025 39.093445" style="stroke:rgb(0,0,0); stroke-width: 6.455505;stroke-linecap: round;stroke-linejoin: round;stroke-miterlimit: 10.000000;fill: none;"></path>
  <path d="M46.266296 63.003357C46.266296 73.047882,36.369156 74.958588,24.747025 74.958588C11.030701 74.958588,3.227753 65.261948,3.227753 51.048126C3.227753 41.003601,13.124893 39.092896,24.747025 39.092896" style="stroke:rgb(0,0,0); stroke-width: 6.455505;stroke-linecap: round;stroke-linejoin: round;stroke-miterlimit: 10.000000;fill: none;"></path>
  <path d="M49.494049 15.182983L48.548615 14.612396L46.266296 14.376038L43.983978 14.612396L43.038544 15.182983L43.038544 63.003357L43.983978 63.573944L46.266296 63.810303L48.548615 63.573944L49.494049 63.003357Z" style="fill: rgb(0,0,0);stroke: none;"></path>
</svg>
