<?xml version="1.0"?>
<!-- Created by MetaPost 2.11 on 2026.02.09:1107 -->
<svg version="1.1" xmlns="http://www.w3.org/2000/svg" xmlns:xlink="http://www.w3.org/1999/xlink" width="70.611023" height="77.863556" viewBox="0 0 70.611023 77.863556">
<!-- Original BoundingBox: -67.383270 -38.770386 3.227753 39.093170 -->
  <path d="M64.155518 77.056610L65.100952 77.627197L67.383270 77.863556L69.665588 77.627197L70.611023 77.056610L70.611023 21.684967L69.665588 21.114380L67.383270 20.878021L65.100952 21.114380L64.155518 21.684967Z" style="fill: rgb(0,0,0);stroke: none;"></path>
  <path d="M33.122177 61.740250L32.331360 62.510971L31.526398 64.659683L31.178833 66.927750L31.492233 67.986618C31.941437 68.209732,32.459549 68.455734,33.025162 68.715714L33.815979 67.944992L34.620941 65.796280L34.968506 63.528214L34.655106 62.469345C34.089493 62.209366,33.571381 61.963364,33.122177 61.740250Z" style="fill: rgb(0,0,0);stroke: none;"></path>
  <path d="M33.430786 61.901367L32.650131 62.682404L31.873352 64.841446L31.555496 67.113861L31.882721 68.168549C32.545914 68.490311,33.329269 68.851120,34.177170 69.227844L34.957825 68.446808L35.734604 66.287766L36.052460 64.015350L35.725235 62.960663C34.877335 62.583939,34.093979 62.223129,33.430786 61.901367Z" style="fill: rgb(0,0,0);stroke: none;"></path>
  <path d="M34.363373 62.352356L33.593002 63.143524L32.844543 65.312546L32.556473 67.588928L32.897461 68.639221C33.658371 68.991684,34.514160 69.372696,35.409225 69.759094L36.179596 68.967926L36.928055 66.798904L37.216125 64.522522L36.875137 63.472229C35.980072 63.085831,35.124283 62.704819,34.363373 62.352356Z" style="fill: rgb(0,0,0);stroke: none;"></path>
  <path d="M35.413086 62.839081L34.653137 63.640259L33.933151 65.818878L33.674896 68.098816L34.029602 69.144562C34.865295 69.518204,35.770599 69.909866,36.689896 70.296402L37.449844 69.495224L38.169830 67.316605L38.428085 65.036667L38.073380 63.990921C37.154083 63.604385,36.248779 63.212723,35.413086 62.839081Z" style="fill: rgb(0,0,0);stroke: none;"></path>
  <path d="M36.549332 63.348801L35.799927 64.159866L35.108521 66.347748L34.880127 68.630905L35.248489 69.671921C36.135956 70.057159,37.067749 70.449890,37.988266 70.826981L38.737671 70.015915L39.429077 67.828033L39.657471 65.544876L39.289108 64.503860C38.368591 64.126770,37.436798 63.734039,36.549332 63.348801Z" style="fill: rgb(0,0,0);stroke: none;"></path>
  <path d="M37.740387 63.868408L37.001694 64.689209L36.338989 66.885956L36.140518 69.171875L36.522491 70.207977C37.438797 70.595261,38.374146 70.979538,39.272934 71.337631L40.011627 70.516830L40.674332 68.320084L40.872803 66.034164L40.490829 64.998062C39.592041 64.639969,38.656693 64.255692,37.740387 63.868408Z" style="fill: rgb(0,0,0);stroke: none;"></path>
  <path d="M38.955002 64.384827L38.227112 65.215210L37.593201 67.420425L37.424652 69.708740L37.820145 70.739746C38.742264 71.119492,39.658157 71.485703,40.512192 71.815231L41.240082 70.984848L41.873993 68.779633L42.042542 66.491318L41.647049 65.460312C40.793015 65.130783,39.877121 64.764572,38.955002 64.384827Z" style="fill: rgb(0,0,0);stroke: none;"></path>
  <path d="M40.161789 64.884933L39.444809 65.724792L38.839813 67.938141L38.701218 70.228485L39.110184 71.254257C40.015152 71.616913,40.888611 71.955521,41.674942 72.246918L42.391922 71.407059L42.996918 69.193710L43.135513 66.903366L42.726547 65.877594C41.940216 65.586197,41.066757 65.247589,40.161789 64.884933Z" style="fill: rgb(0,0,0);stroke: none;"></path>
  <path d="M41.329025 65.355667L40.623123 66.204834L40.047165 68.425903L39.938583 70.717865L40.360947 71.738174C41.225784 72.074188,42.033844 72.375626,42.729492 72.619339L43.435394 71.770172L44.011353 69.549103L44.119934 67.257141L43.697571 66.236832C43.001923 65.993118,42.193863 65.691681,41.329025 65.355667Z" style="fill: rgb(0,0,0);stroke: none;"></path>
  <path d="M42.426163 65.784241L41.731430 66.642578L41.184601 68.870987L41.106033 71.164185L41.541702 72.178864C42.124786 72.396896,42.664459 72.591080,43.139328 72.752502C43.494278 72.873169,43.869873 72.994888,44.263687 73.117172L44.958420 72.258835L45.505249 70.030426L45.583817 67.737228L45.148148 66.722549C44.754333 66.600266,44.378738 66.478546,44.023788 66.357880C43.548920 66.196457,43.009247 66.002274,42.426163 65.784241Z" style="fill: rgb(0,0,0);stroke: none;"></path>
  <path d="M43.421509 66.157410L42.738068 67.024780L42.220428 69.260147L42.171875 71.554169L42.620789 72.563080C42.815948 72.632355,43.003128 72.697495,43.181198 72.758026C44.127792 73.079803,45.221176 73.409088,46.415680 73.736832L47.099121 72.869461L47.616760 70.634094L47.665314 68.340073L47.216400 67.331161C46.021896 67.003418,44.928513 66.674133,43.981918 66.352356C43.803848 66.291824,43.616669 66.226685,43.421509 66.157410Z" style="fill: rgb(0,0,0);stroke: none;"></path>
  <path d="M44.676849 66.590027L44.004807 67.466263L43.516495 69.708237L43.497971 72.002701L43.960052 73.005646C45.358612 73.452469,47.013092 73.909180,48.804794 74.352325L49.476837 73.476089L49.965149 71.234116L49.983673 68.939651L49.521591 67.936707C47.729889 67.493561,46.075409 67.036850,44.676849 66.590027Z" style="fill: rgb(0,0,0);stroke: none;"></path>
  <path d="M46.689560 67.198914L46.029053 68.083862L45.570114 70.332001L45.581604 72.626495L46.056778 73.623291C47.663437 74.074249,49.472046 74.524429,51.363922 74.950363L52.024429 74.065414L52.483368 71.817276L52.471878 69.522781L51.996704 68.525986C50.104828 68.100052,48.296219 67.649872,46.689560 67.198914Z" style="fill: rgb(0,0,0);stroke: none;"></path>
  <path d="M48.951813 67.807144L48.302948 68.700668L47.873505 70.954651L47.915070 73.248795L48.403259 74.239304C50.169022 74.684723,52.082794 75.118698,54.025909 75.517761L54.674774 74.624237L55.104218 72.370255L55.062653 70.076111L54.574463 69.085602C52.631348 68.686539,50.717575 68.252563,48.951813 67.807144Z" style="fill: rgb(0,0,0);stroke: none;"></path>
  <path d="M51.398285 68.401962L50.761169 69.303894L50.361252 71.563293L50.432831 73.856689L50.933929 74.840714C52.809677 75.270874,54.779495 75.678925,56.724701 76.041382L57.361816 75.139450L57.761734 72.880051L57.690155 70.586655L57.189056 69.602631C55.243851 69.240173,53.274033 68.832123,51.398285 68.401962Z" style="fill: rgb(0,0,0);stroke: none;"></path>
  <path d="M53.961334 68.969910L53.336075 69.880112L52.965775 72.144547L53.067368 74.436813L53.581299 75.414185C55.518112 75.819397,57.495041 76.191833,59.393387 76.508011L60.018646 75.597809L60.388947 73.333374L60.287354 71.041107L59.773422 70.063736C57.875076 69.747559,55.898148 69.375122,53.961334 68.969910Z" style="fill: rgb(0,0,0);stroke: none;"></path>
  <path d="M56.574036 69.497757L55.960754 70.416061L55.620148 72.685150L55.751740 74.975906L56.278442 75.946457C58.227158 76.317017,60.162048 76.644119,61.964417 76.904312L62.577698 75.986008L62.918304 73.716919L62.786713 71.426163L62.260010 70.455612C60.457642 70.195419,58.522751 69.868317,56.574036 69.497757Z" style="fill: rgb(0,0,0);stroke: none;"></path>
  <path d="M59.169601 69.972275L58.568390 70.898544L58.257492 73.171906L58.419067 75.460739L58.958420 76.424332C60.870056 76.750534,62.713898 77.022629,64.371262 77.217133L64.972473 76.290863L65.283371 74.017502L65.121796 71.728668L64.582443 70.765076C62.925079 70.570572,61.081238 70.298477,59.169601 69.972275Z" style="fill: rgb(0,0,0);stroke: none;"></path>
  <path d="M61.680374 70.380173L61.091324 71.314224L60.810196 73.591431L61.001694 75.877945L61.553604 76.834396C63.379105 77.106567,65.082886 77.313950,66.546234 77.433090L67.135284 76.499039L67.416412 74.221832L67.224915 71.935318L66.673004 70.978867C65.209656 70.859726,63.505875 70.652344,61.680374 70.380173Z" style="fill: rgb(0,0,0);stroke: none;"></path>
  <path d="M64.040955 70.708374L63.464188 71.650055L63.212891 73.930801L63.434311 76.214630L63.998688 77.163788C65.228027 77.315369,66.364441 77.427048,67.362259 77.489777L67.939026 76.548096L68.190323 74.267349L67.968903 71.983521L67.404526 71.034363C66.406708 70.971634,65.270294 70.859955,64.040955 70.708374Z" style="fill: rgb(0,0,0);stroke: none;"></path>
  <path d="M1.943344 61.740250L1.152527 62.510971L0.347565 64.659683L0.000000 66.927750L0.313400 67.986618C0.762604 68.209732,1.280716 68.455734,1.846329 68.715714L2.637146 67.944992L3.442108 65.796280L3.789673 63.528214L3.476273 62.469345C2.910660 62.209366,2.392548 61.963364,1.943344 61.740250Z" style="fill: rgb(0,0,0);stroke: none;"></path>
  <path d="M2.251953 61.901367L1.471298 62.682404L0.694519 64.841446L0.376663 67.113861L0.703888 68.168549C1.367081 68.490311,2.150436 68.851120,2.998337 69.227844L3.778992 68.446808L4.555771 66.287766L4.873627 64.015350L4.546402 62.960663C3.698502 62.583939,2.915146 62.223129,2.251953 61.901367Z" style="fill: rgb(0,0,0);stroke: none;"></path>
  <path d="M3.184540 62.352356L2.414169 63.143524L1.665710 65.312546L1.377640 67.588928L1.718628 68.639221C2.479538 68.991684,3.335327 69.372696,4.230392 69.759094L5.000763 68.967926L5.749222 66.798904L6.037292 64.522522L5.696304 63.472229C4.801239 63.085831,3.945450 62.704819,3.184540 62.352356Z" style="fill: rgb(0,0,0);stroke: none;"></path>
  <path d="M4.234253 62.839081L3.474304 63.640259L2.754318 65.818878L2.496063 68.098816L2.850769 69.144562C3.686462 69.518204,4.591766 69.909866,5.511063 70.296402L6.271011 69.495224L6.990997 67.316605L7.249252 65.036667L6.894547 63.990921C5.975250 63.604385,5.069946 63.212723,4.234253 62.839081Z" style="fill: rgb(0,0,0);stroke: none;"></path>
  <path d="M5.370499 63.348801L4.621094 64.159866L3.929688 66.347748L3.701294 68.630905L4.069656 69.671921C4.957123 70.057159,5.888916 70.449890,6.809433 70.826981L7.558838 70.015915L8.250244 67.828033L8.478638 65.544876L8.110275 64.503860C7.189758 64.126770,6.257965 63.734039,5.370499 63.348801Z" style="fill: rgb(0,0,0);stroke: none;"></path>
  <path d="M6.561554 63.868408L5.822861 64.689209L5.160156 66.885956L4.961685 69.171875L5.343658 70.207977C6.259964 70.595261,7.195312 70.979538,8.094101 71.337631L8.832794 70.516830L9.495499 68.320084L9.693970 66.034164L9.311996 64.998062C8.413208 64.639969,7.477859 64.255692,6.561554 63.868408Z" style="fill: rgb(0,0,0);stroke: none;"></path>
  <path d="M7.776169 64.384827L7.048279 65.215210L6.414368 67.420425L6.245819 69.708740L6.641312 70.739746C7.563431 71.119492,8.479324 71.485703,9.333359 71.815231L10.061249 70.984848L10.695160 68.779633L10.863708 66.491318L10.468216 65.460312C9.614182 65.130783,8.698288 64.764572,7.776169 64.384827Z" style="fill: rgb(0,0,0);stroke: none;"></path>
  <path d="M8.982956 64.884933L8.265976 65.724792L7.660980 67.938141L7.522385 70.228485L7.931351 71.254257C8.836319 71.616913,9.709778 71.955521,10.496109 72.246918L11.213089 71.407059L11.818085 69.193710L11.956680 66.903366L11.547714 65.877594C10.761383 65.586197,9.887924 65.247589,8.982956 64.884933Z" style="fill: rgb(0,0,0);stroke: none;"></path>
  <path d="M10.150192 65.355667L9.444290 66.204834L8.868332 68.425903L8.759750 70.717865L9.182114 71.738174C10.046951 72.074188,10.855011 72.375626,11.550659 72.619339L12.256561 71.770172L12.832520 69.549103L12.941101 67.257141L12.518738 66.236832C11.823090 65.993118,11.015030 65.691681,10.150192 65.355667Z" style="fill: rgb(0,0,0);stroke: none;"></path>
  <path d="M11.247330 65.784241L10.552597 66.642578L10.005768 68.870987L9.927200 71.164185L10.362869 72.178864C10.945953 72.396896,11.485626 72.591080,11.960495 72.752502C12.315445 72.873169,12.691040 72.994888,13.084854 73.117172L13.779587 72.258835L14.326416 70.030426L14.404984 67.737228L13.969315 66.722549C13.575500 66.600266,13.199905 66.478546,12.844955 66.357880C12.370087 66.196457,11.830414 66.002274,11.247330 65.784241Z" style="fill: rgb(0,0,0);stroke: none;"></path>
  <path d="M12.242676 66.157410L11.559235 67.024780L11.041595 69.260147L10.993042 71.554169L11.441956 72.563080C11.637115 72.632355,11.824295 72.697495,12.002365 72.758026C12.948959 73.079803,14.042343 73.409088,15.236847 73.736832L15.920288 72.869461L16.437927 70.634094L16.486481 68.340073L16.037567 67.331161C14.843063 67.003418,13.749680 66.674133,12.803085 66.352356C12.625015 66.291824,12.437836 66.226685,12.242676 66.157410Z" style="fill: rgb(0,0,0);stroke: none;"></path>
  <path d="M13.498016 66.590027L12.825974 67.466263L12.337662 69.708237L12.319138 72.002701L12.781219 73.005646C14.179779 73.452469,15.834259 73.909180,17.625961 74.352325L18.298004 73.476089L18.786316 71.234116L18.804840 68.939651L18.342758 67.936707C16.551056 67.493561,14.896576 67.036850,13.498016 66.590027Z" style="fill: rgb(0,0,0);stroke: none;"></path>
  <path d="M15.510727 67.198914L14.850220 68.083862L14.391281 70.332001L14.402771 72.626495L14.877945 73.623291C16.484604 74.074249,18.293213 74.524429,20.185089 74.950363L20.845596 74.065414L21.304535 71.817276L21.293045 69.522781L20.817871 68.525986C18.925995 68.100052,17.117386 67.649872,15.510727 67.198914Z" style="fill: rgb(0,0,0);stroke: none;"></path>
  <path d="M17.772980 67.807144L17.124115 68.700668L16.694672 70.954651L16.736237 73.248795L17.224426 74.239304C18.990189 74.684723,20.903961 75.118698,22.847076 75.517761L23.495941 74.624237L23.925385 72.370255L23.883820 70.076111L23.395630 69.085602C21.452515 68.686539,19.538742 68.252563,17.772980 67.807144Z" style="fill: rgb(0,0,0);stroke: none;"></path>
  <path d="M20.219452 68.401962L19.582336 69.303894L19.182419 71.563293L19.253998 73.856689L19.755096 74.840714C21.630844 75.270874,23.600662 75.678925,25.545868 76.041382L26.182983 75.139450L26.582901 72.880051L26.511322 70.586655L26.010223 69.602631C24.065018 69.240173,22.095200 68.832123,20.219452 68.401962Z" style="fill: rgb(0,0,0);stroke: none;"></path>
  <path d="M22.782501 68.969910L22.157242 69.880112L21.786942 72.144547L21.888535 74.436813L22.402466 75.414185C24.339279 75.819397,26.316208 76.191833,28.214554 76.508011L28.839813 75.597809L29.210114 73.333374L29.108521 71.041107L28.594589 70.063736C26.696243 69.747559,24.719315 69.375122,22.782501 68.969910Z" style="fill: rgb(0,0,0);stroke: none;"></path>
  <path d="M25.395203 69.497757L24.781921 70.416061L24.441315 72.685150L24.572906 74.975906L25.099609 75.946457C27.048325 76.317017,28.983215 76.644119,30.785583 76.904312L31.398865 75.986008L31.739471 73.716919L31.607880 71.426163L31.081177 70.455612C29.278809 70.195419,27.343918 69.868317,25.395203 69.497757Z" style="fill: rgb(0,0,0);stroke: none;"></path>
  <path d="M27.990768 69.972275L27.389557 70.898544L27.078659 73.171906L27.240234 75.460739L27.779587 76.424332C29.691223 76.750534,31.535065 77.022629,33.192429 77.217133L33.793640 76.290863L34.104538 74.017502L33.942963 71.728668L33.403610 70.765076C31.746246 70.570572,29.902405 70.298477,27.990768 69.972275Z" style="fill: rgb(0,0,0);stroke: none;"></path>
  <path d="M30.501541 70.380173L29.912491 71.314224L29.631363 73.591431L29.822861 75.877945L30.374771 76.834396C32.200272 77.106567,33.904053 77.313950,35.367401 77.433090L35.956451 76.499039L36.237579 74.221832L36.046082 71.935318L35.494171 70.978867C34.030823 70.859726,32.327042 70.652344,30.501541 70.380173Z" style="fill: rgb(0,0,0);stroke: none;"></path>
  <path d="M32.862122 70.708374L32.285355 71.650055L32.034058 73.930801L32.255478 76.214630L32.819855 77.163788C34.049194 77.315369,35.185608 77.427048,36.183426 77.489777L36.760193 76.548096L37.011490 74.267349L36.790070 71.983521L36.225693 71.034363C35.227875 70.971634,34.091461 70.859955,32.862122 70.708374Z" style="fill: rgb(0,0,0);stroke: none;"></path>
  <path d="M33.101730 61.734970L32.315964 62.510864L31.525085 64.664795L31.192368 66.935089L31.512680 67.991898L32.136292 69.495697L32.922058 68.719803L33.712936 66.565872L34.045654 64.295578L33.725342 63.238770Z" style="fill: rgb(0,0,0);stroke: none;"></path>
  <path d="M33.175446 62.091141L32.410263 62.887329L31.676025 65.061203L31.402847 67.339417L31.750702 68.387466L32.608139 70.455231L33.373322 69.659042L34.107559 67.485168L34.380737 65.206955L34.032883 64.158905Z" style="fill: rgb(0,0,0);stroke: none;"></path>
  <path d="M33.482498 63.013489L32.738419 63.829437L32.061371 66.021805L31.847946 68.306396L32.223129 69.344971L33.080566 71.412689L33.824646 70.596741L34.501694 68.404373L34.715118 66.119781L34.339935 65.081207Z" style="fill: rgb(0,0,0);stroke: none;"></path>
  <path d="M33.789200 63.938049L33.066742 64.773193L32.447311 66.982513L32.293762 69.271881L32.695999 70.300262L33.553391 72.367950L34.275848 71.532806L34.895279 69.323486L35.048828 67.034119L34.646591 66.005737Z" style="fill: rgb(0,0,0);stroke: none;"></path>
  <path d="M34.524475 65.882111L34.095459 64.864578L33.395111 65.718353L32.833694 67.943146L32.740112 70.235779L33.597504 72.303452L34.026520 73.320984L34.726868 72.467209L35.288284 70.242416L35.381866 67.949783Z" style="fill: rgb(0,0,0);stroke: none;"></path>
  <path d="M34.856934 66.799423L34.401413 65.793472L33.723663 66.665298L33.220673 68.904022L33.187134 71.198318L34.044571 73.266052L34.500092 74.272003L35.177841 73.400177L35.680832 71.161453L35.714371 68.867157Z" style="fill: rgb(0,0,0);stroke: none;"></path>
  <path d="M35.188766 67.718109L34.707092 66.724426L34.052383 67.613678L33.608170 69.864792L33.634689 72.159149L34.492126 74.226868L34.973801 75.220551L35.628510 74.331299L36.072723 72.080185L36.046204 69.785828Z" style="fill: rgb(0,0,0);stroke: none;"></path>
  <path d="M35.520142 68.638443L35.012604 67.657700L34.381409 68.563797L33.996292 70.825775L34.082886 73.118668L34.940323 75.186386L35.447861 76.167130L36.079056 75.261032L36.464172 72.999054L36.377579 70.706161Z" style="fill: rgb(0,0,0);stroke: none;"></path>
  <path d="M35.850998 69.560333L35.317978 68.593246L34.710709 69.515533L34.384933 71.786804L34.531509 74.076630L35.388947 76.144348L35.921967 77.111435L36.529236 76.189148L36.855011 73.917877L36.708435 71.628052Z" style="fill: rgb(0,0,0);stroke: none;"></path>
  <path d="M36.181366 70.483643L35.623199 69.530807L35.040283 70.468689L34.774078 72.747711L34.980530 75.032898L35.604141 76.536697L36.162308 77.489532L36.745224 76.551651L37.011429 74.272629L36.804977 71.987442Z" style="fill: rgb(0,0,0);stroke: none;"></path>
  <path d="M45.863998 3.227753C32.147675 3.227753,24.344727 12.924393,24.344727 27.138214C24.344727 41.352036,32.147675 51.048676,45.863998 51.048676C59.580322 51.048676,67.383270 41.352036,67.383270 27.138214C67.383270 12.924393,59.580322 3.227753,45.863998 3.227753Z" style="stroke:rgb(0,0,0); stroke-width: 6.455505;stroke-linecap: round;stroke-linejoin: round;stroke-miterlimit: 10.000000;fill: none;"></path>
</svg>
