<?xml version="1.0"?>
<!-- Created by MetaPost 2.11 on 2026.02.09:1107 -->
<svg version="1.1" xmlns="http://www.w3.org/2000/svg" xmlns:xlink="http://www.w3.org/1999/xlink" width="49.494064" height="78.186356" viewBox="0 0 49.494064 78.186356">
<!-- Original BoundingBox: -24.747040 -39.093185 24.747025 39.093170 -->
  <path d="M3.227768 15.182983C3.227768 5.138458,13.124908 3.227753,24.747040 3.227753C38.463364 3.227753,46.266312 12.924393,46.266312 27.138214" style="stroke:rgb(0,0,0); stroke-width: 6.455505;stroke-linecap: round;stroke-linejoin: round;stroke-miterlimit: 10.000000;fill: none;"></path>
  <path d="M46.266312 27.138214C46.266312 54.475296,3.227768 47.621506,3.227768 74.958588" style="stroke:rgb(0,0,0); stroke-width: 6.455505;stroke-linecap: round;stroke-linejoin: round;stroke-miterlimit: 10.000000;fill: none;"></path>
  <path d="M0.806946 71.730835L0.236359 72.676270L0.000000 74.958588L0.236359 77.240906L0.806946 78.186340L46.266312 78.186340L46.836899 77.240906L47.073257 74.958588L46.836899 72.676270L46.266312 71.730835Z" style="fill: rgb(0,0,0);stroke: none;"></path>
  <path d="M43.038559 77.379410L43.983994 77.949997L46.266312 78.186356L48.548630 77.949997L49.494064 77.379410L49.494064 62.196686L48.548630 61.626099L46.266312 61.389740L43.983994 61.626099L43.038559 62.196686Z" style="fill: rgb(0,0,0);stroke: none;"></path>
</svg>
