<?xml version="1.0"?>
<!-- Created by MetaPost 2.11 on 2026.02.09:1107 -->
<svg version="1.1" xmlns="http://www.w3.org/2000/svg" xmlns:xlink="http://www.w3.org/1999/xlink" width="71.550644" height="78.186340" viewBox="0 0 71.550644 78.186340">
<!-- Original BoundingBox: -59.984314 -39.093170 11.566330 39.093170 -->
  <path d="M59.984314 74.958588L59.984314 3.227753" style="stroke:rgb(0,0,0); stroke-width: 6.455505;stroke-linecap: round;stroke-linejoin: round;stroke-miterlimit: 10.000000;fill: none;"></path>
  <path d="M49.224930 -0.000000L48.654343 0.945435L48.417984 3.227753L48.654343 5.510071L49.224930 6.455505L70.743698 6.455505L71.314285 5.510071L71.550644 3.227753L71.314285 0.945435L70.743698 -0.000000Z" style="fill: rgb(0,0,0);stroke: none;"></path>
  <path d="M49.224930 71.730835L48.654343 72.676270L48.417984 74.958588L48.654343 77.240906L49.224930 78.186340L70.743698 78.186340L71.314285 77.240906L71.550644 74.958588L71.314285 72.676270L70.743698 71.730835Z" style="fill: rgb(0,0,0);stroke: none;"></path>
  <path d="M0.806946 71.730835L0.236359 72.676270L0.000000 74.958588L0.236359 77.240906L0.806946 78.186340L22.325714 78.186340L22.896301 77.240906L23.132660 74.958588L22.896301 72.676270L22.325714 71.730835Z" style="fill: rgb(0,0,0);stroke: none;"></path>
  <path d="M59.984314 74.958588C59.984314 68.537674,57.433228 62.380524,52.893311 57.840591C48.353378 53.300674,42.196228 50.749588,35.775314 50.749588C29.354401 50.749588,23.197250 53.300674,18.657318 57.840591C14.117401 62.380524,11.566315 68.537674,11.566315 74.958588" style="stroke:rgb(0,0,0); stroke-width: 6.455505;stroke-linecap: round;stroke-linejoin: round;stroke-miterlimit: 10.000000;fill: none;"></path>
  <path d="M14.051590 22.747360L13.255753 23.512894L12.436737 25.656281L12.074326 27.922012L12.380783 28.982895C20.684509 32.444138,26.657516 34.479141,35.347198 36.807541C44.036880 39.135941,50.227173 40.360092,59.149033 41.514420L59.944870 40.748886L60.763885 38.605499L61.126297 36.339767L60.819839 35.278885C51.897980 34.124557,45.707687 32.900406,37.018005 30.572006C28.328323 28.243607,22.355316 26.208603,14.051590 22.747360Z" style="fill: rgb(0,0,0);stroke: none;"></path>
</svg>
