<?xml version="1.0"?>
<!-- Created by MetaPost 2.11 on 2026.02.09:1107 -->
<svg version="1.1" xmlns="http://www.w3.org/2000/svg" xmlns:xlink="http://www.w3.org/1999/xlink" width="71.281738" height="78.186340" viewBox="0 0 71.281738 78.186340">
<!-- Original BoundingBox: -35.775330 -39.093170 35.506409 39.093170 -->
  <g transform="matrix(-1.000000,-0.000000,-0.000000,1.000000,0.000000,0.000000)">
    <path d="M-35.775330 74.958588L-35.775330 21.160461" style="stroke:rgb(0,0,0); stroke-width: 6.455505;stroke-linecap: round;stroke-linejoin: round;stroke-miterlimit: 10.000000;fill: none;"></path>
  </g>
  <path d="M46.534714 78.186340L47.105301 77.240906L47.341660 74.958588L47.105301 72.676270L46.534714 71.730835L25.015945 71.730835L24.445358 72.676270L24.209000 74.958588L24.445358 77.240906L25.015945 78.186340Z" style="fill: rgb(0,0,0);stroke: none;"></path>
  <g transform="matrix(-1.000000,-0.000000,-0.000000,1.000000,0.000000,0.000000)">
    <path d="M-35.775330 21.160461C-35.775330 10.500168,-41.627487 3.227753,-51.914658 3.227753C-62.201828 3.227753,-68.053986 10.500168,-68.053986 21.160461C-68.053986 36.227127,-53.208389 39.093170,-35.775330 39.093170C-21.097107 39.093170,-11.566330 30.271271,-11.566330 15.780869L-11.566330 3.227753" style="stroke:rgb(0,0,0); stroke-width: 6.455505;stroke-linecap: round;stroke-linejoin: round;stroke-miterlimit: 10.000000;fill: none;"></path>
  </g>
  <path d="M22.325714 6.455505L22.896301 5.510071L23.132660 3.227753L22.896301 0.945435L22.325714 -0.000000L0.806946 -0.000000L0.236359 0.945435L0.000000 3.227753L0.236359 5.510071L0.806946 6.455505Z" style="fill: rgb(0,0,0);stroke: none;"></path>
  <g transform="matrix(-1.000000,-0.000000,-0.000000,1.000000,0.000000,0.000000)">
    <path d="M-35.775330 74.958588L-35.775330 21.160461" style="stroke:rgb(0,0,0); stroke-width: 6.455505;stroke-linecap: round;stroke-linejoin: round;stroke-miterlimit: 10.000000;fill: none;"></path>
  </g>
  <path d="M46.534714 78.186340L47.105301 77.240906L47.341660 74.958588L47.105301 72.676270L46.534714 71.730835L25.015945 71.730835L24.445358 72.676270L24.209000 74.958588L24.445358 77.240906L25.015945 78.186340Z" style="fill: rgb(0,0,0);stroke: none;"></path>
  <g transform="matrix(-1.000000,-0.000000,-0.000000,1.000000,0.000000,0.000000)">
    <path d="M-35.775330 21.160461C-35.775330 10.500168,-41.627487 3.227753,-51.914658 3.227753C-62.201828 3.227753,-68.053986 10.500168,-68.053986 21.160461C-68.053986 36.227127,-53.208389 39.093170,-35.775330 39.093170C-21.097107 39.093170,-11.566330 30.271271,-11.566330 15.780869L-11.566330 3.227753" style="stroke:rgb(0,0,0); stroke-width: 6.455505;stroke-linecap: round;stroke-linejoin: round;stroke-miterlimit: 10.000000;fill: none;"></path>
  </g>
  <path d="M22.325714 6.455505L22.896301 5.510071L23.132660 3.227753L22.896301 0.945435L22.325714 -0.000000L0.806946 -0.000000L0.236359 0.945435L0.000000 3.227753L0.236359 5.510071L0.806946 6.455505Z" style="fill: rgb(0,0,0);stroke: none;"></path>
</svg>
