<?xml version="1.0"?>
<!-- Created by MetaPost 2.11 on 2026.02.09:1107 -->
<svg version="1.1" xmlns="http://www.w3.org/2000/svg" xmlns:xlink="http://www.w3.org/1999/xlink" width="57.832626" height="78.186905" viewBox="0 0 57.832626 78.186905">
<!-- Original BoundingBox: -54.604874 -39.093719 3.227753 39.093185 -->
  <g transform="matrix(-1.000000,-0.000000,-0.000000,1.000000,0.000000,0.000000)">
    <path d="M-11.566330 15.182999C-11.566330 5.138474,-21.463470 3.227768,-33.085602 3.227768C-46.801926 3.227768,-54.604874 12.924408,-54.604874 27.138229C-54.604874 35.994019,-54.604874 42.192902,-54.604874 51.048691C-54.604874 65.262512,-46.801926 74.959152,-33.085602 74.959152C-21.463470 74.959152,-11.566330 73.048447,-11.566330 63.003922" style="stroke:rgb(0,0,0); stroke-width: 6.455505;stroke-linecap: round;stroke-linejoin: round;stroke-miterlimit: 10.000000;fill: none;"></path>
  </g>
  <path d="M14.794083 0.806946L13.848648 0.236359L11.566330 -0.000000L9.284012 0.236359L8.338577 0.806946L8.338577 77.379425L9.284012 77.950012L11.566330 78.186371L13.848648 77.950012L14.794083 77.379425Z" style="fill: rgb(0,0,0);stroke: none;"></path>
  <path d="M11.566330 6.455521L12.136917 5.510086L12.373276 3.227768L12.136917 0.945450L11.566330 0.000015L0.806946 0.000015L0.236359 0.945450L0.000000 3.227768L0.236359 5.510086L0.806946 6.455521Z" style="fill: rgb(0,0,0);stroke: none;"></path>
  <path d="M11.566330 78.186356L12.136917 77.240921L12.373276 74.958603L12.136917 72.676285L11.566330 71.730850L0.806946 71.730850L0.236359 72.676285L0.000000 74.958603L0.236359 77.240921L0.806946 78.186356Z" style="fill: rgb(0,0,0);stroke: none;"></path>
  <g transform="matrix(-1.000000,-0.000000,-0.000000,1.000000,0.000000,0.000000)">
    <path d="M-11.566330 15.182999C-11.566330 5.138474,-21.463470 3.227768,-33.085602 3.227768C-46.801926 3.227768,-54.604874 12.924408,-54.604874 27.138229C-54.604874 35.994019,-54.604874 42.192902,-54.604874 51.048691C-54.604874 65.262512,-46.801926 74.959152,-33.085602 74.959152C-21.463470 74.959152,-11.566330 73.048447,-11.566330 63.003922" style="stroke:rgb(0,0,0); stroke-width: 6.455505;stroke-linecap: round;stroke-linejoin: round;stroke-miterlimit: 10.000000;fill: none;"></path>
  </g>
  <path d="M14.794083 0.806946L13.848648 0.236359L11.566330 -0.000000L9.284012 0.236359L8.338577 0.806946L8.338577 77.379425L9.284012 77.950012L11.566330 78.186371L13.848648 77.950012L14.794083 77.379425Z" style="fill: rgb(0,0,0);stroke: none;"></path>
  <path d="M11.566330 6.455521L12.136917 5.510086L12.373276 3.227768L12.136917 0.945450L11.566330 0.000015L0.806946 0.000015L0.236359 0.945450L0.000000 3.227768L0.236359 5.510086L0.806946 6.455521Z" style="fill: rgb(0,0,0);stroke: none;"></path>
  <path d="M11.566330 78.186356L12.136917 77.240921L12.373276 74.958603L12.136917 72.676285L11.566330 71.730850L0.806946 71.730850L0.236359 72.676285L0.000000 74.958603L0.236359 77.240921L0.806946 78.186356Z" style="fill: rgb(0,0,0);stroke: none;"></path>
</svg>
