<?xml version="1.0"?>
<!-- Created by MetaPost 2.11 on 2026.02.09:1107 -->
<svg version="1.1" xmlns="http://www.w3.org/2000/svg" xmlns:xlink="http://www.w3.org/1999/xlink" width="100.211746" height="78.186340" viewBox="0 0 100.211746 78.186340">
<!-- Original BoundingBox: -3.389496 -39.093170 96.822250 39.093170 -->
  <path d="M3.389496 51.048126C3.389496 65.261948,11.192444 74.958588,24.908768 74.958588C38.625092 74.958588,46.428040 65.261948,46.428040 51.048126" style="stroke:rgb(0,0,0); stroke-width: 6.455505;stroke-linecap: round;stroke-linejoin: round;stroke-miterlimit: 10.000000;fill: none;"></path>
  <path d="M46.427536 51.048126C46.427536 65.261948,54.230484 74.958588,67.946808 74.958588C81.663132 74.958588,89.466080 65.261948,89.466080 51.048126" style="stroke:rgb(0,0,0); stroke-width: 6.455505;stroke-linecap: round;stroke-linejoin: round;stroke-miterlimit: 10.000000;fill: none;"></path>
  <path d="M3.389496 51.048126C3.389496 46.617477,3.025574 43.510620,3.389496 39.093170C5.325134 15.596832,22.159790 3.227753,46.427536 3.227753C71.506958 3.227753,89.466080 15.483383,89.466080 39.093170C89.466080 43.520966,89.466080 46.620331,89.466080 51.048126" style="stroke:rgb(0,0,0); stroke-width: 6.455505;stroke-linecap: round;stroke-linejoin: round;stroke-miterlimit: 10.000000;fill: none;"></path>
  <path d="M35.668152 47.820374L35.097565 48.765808L34.861206 51.048126L35.097565 53.330444L35.668152 54.275879L57.186920 54.275879L57.757507 53.330444L57.993866 51.048126L57.757507 48.765808L57.186920 47.820374Z" style="fill: rgb(0,0,0);stroke: none;"></path>
  <path d="M46.427536 3.227753C46.427536 23.914230,65.248260 30.773483,88.645416 30.773483" style="stroke:rgb(0,0,0); stroke-width: 6.455505;stroke-linecap: round;stroke-linejoin: round;stroke-miterlimit: 10.000000;fill: none;"></path>
  <path d="M88.645416 27.545731L88.074829 28.491165L87.838470 30.773483L88.074829 33.055801L88.645416 34.001236L99.404800 34.001236L99.975388 33.055801L100.211746 30.773483L99.975388 28.491165L99.404800 27.545731Z" style="fill: rgb(0,0,0);stroke: none;"></path>
</svg>
