<?xml version="1.0"?>
<!-- Created by MetaPost 2.11 on 2026.02.09:1107 -->
<svg version="1.1" xmlns="http://www.w3.org/2000/svg" xmlns:xlink="http://www.w3.org/1999/xlink" width="49.494049" height="78.186340" viewBox="0 0 49.494049 78.186340">
<!-- Original BoundingBox: -3.227753 -39.093170 46.266296 39.093170 -->
  <path d="M24.747025 27.137665C11.030701 27.137665,3.227753 36.834305,3.227753 51.048126C3.227753 65.261948,11.030701 74.958588,24.747025 74.958588C38.463348 74.958588,46.266296 65.261948,46.266296 51.048126" style="stroke:rgb(0,0,0); stroke-width: 6.455505;stroke-linecap: round;stroke-linejoin: round;stroke-miterlimit: 10.000000;fill: none;"></path>
  <path d="M3.227753 15.182983C3.227753 5.138458,13.124893 3.227753,24.747025 3.227753C38.463348 3.227753,46.266296 12.924393,46.266296 27.138214C46.266296 35.993790,46.266296 42.192551,46.266296 51.048126C46.266296 58.155029,44.315567 64.132645,40.650299 68.333527" style="stroke:rgb(0,0,0); stroke-width: 6.455505;stroke-linecap: round;stroke-linejoin: round;stroke-miterlimit: 10.000000;fill: none;"></path>
  <path d="M27.974777 27.137665L27.029343 26.567078L24.747025 26.330719L22.464706 26.567078L21.519272 27.137665L21.519272 39.092621L22.464706 39.663208L24.747025 39.899567L27.029343 39.663208L27.974777 39.092621Z" style="fill: rgb(0,0,0);stroke: none;"></path>
</svg>
