<?xml version="1.0"?>
<!-- Created by MetaPost 2.11 on 2026.02.09:1107 -->
<svg version="1.1" xmlns="http://www.w3.org/2000/svg" xmlns:xlink="http://www.w3.org/1999/xlink" width="62.943161" height="78.186340" viewBox="0 0 62.943161 78.186340">
<!-- Original BoundingBox: -35.506409 -39.093170 27.436752 39.093170 -->
  <g transform="matrix(1.000000,-0.000000,-0.000000,-1.000000,0.000000,0.000000)">
    <path d="M35.506409 -3.227753L35.506409 -57.025879" style="stroke:rgb(0,0,0); stroke-width: 6.455505;stroke-linecap: round;stroke-linejoin: round;stroke-miterlimit: 10.000000;fill: none;"></path>
  </g>
  <path d="M24.747025 -0.000000L24.176437 0.945435L23.940079 3.227753L24.176437 5.510071L24.747025 6.455505L46.265793 6.455505L46.836380 5.510071L47.072739 3.227753L46.836380 0.945435L46.265793 -0.000000Z" style="fill: rgb(0,0,0);stroke: none;"></path>
  <g transform="matrix(1.000000,-0.000000,-0.000000,-1.000000,0.000000,0.000000)">
    <path d="M35.506409 -57.025879C35.506409 -67.686172,29.654251 -74.958588,19.367081 -74.958588C9.079910 -74.958588,3.227753 -67.686172,3.227753 -57.025879C3.227753 -41.959213,18.073349 -39.093170,35.506409 -39.093170C50.184631 -39.093170,59.715408 -47.915070,59.715408 -62.405472" style="stroke:rgb(0,0,0); stroke-width: 6.455505;stroke-linecap: round;stroke-linejoin: round;stroke-miterlimit: 10.000000;fill: none;"></path>
  </g>
  <path d="M62.943161 62.405472L61.997726 61.834885L59.715408 61.598526L57.433090 61.834885L56.487656 62.405472L56.487656 75.765533L57.433090 76.336121L59.715408 76.572479L61.997726 76.336121L62.943161 75.765533Z" style="fill: rgb(0,0,0);stroke: none;"></path>
  <g transform="matrix(1.000000,-0.000000,-0.000000,-1.000000,0.000000,0.000000)">
    <path d="M35.506409 -3.227753L35.506409 -57.025879" style="stroke:rgb(0,0,0); stroke-width: 6.455505;stroke-linecap: round;stroke-linejoin: round;stroke-miterlimit: 10.000000;fill: none;"></path>
  </g>
  <path d="M24.747025 -0.000000L24.176437 0.945435L23.940079 3.227753L24.176437 5.510071L24.747025 6.455505L46.265793 6.455505L46.836380 5.510071L47.072739 3.227753L46.836380 0.945435L46.265793 -0.000000Z" style="fill: rgb(0,0,0);stroke: none;"></path>
  <g transform="matrix(1.000000,-0.000000,-0.000000,-1.000000,0.000000,0.000000)">
    <path d="M35.506409 -57.025879C35.506409 -67.686172,29.654251 -74.958588,19.367081 -74.958588C9.079910 -74.958588,3.227753 -67.686172,3.227753 -57.025879C3.227753 -41.959213,18.073349 -39.093170,35.506409 -39.093170C50.184631 -39.093170,59.715408 -47.915070,59.715408 -62.405472" style="stroke:rgb(0,0,0); stroke-width: 6.455505;stroke-linecap: round;stroke-linejoin: round;stroke-miterlimit: 10.000000;fill: none;"></path>
  </g>
  <path d="M62.943161 62.405472L61.997726 61.834885L59.715408 61.598526L57.433090 61.834885L56.487656 62.405472L56.487656 75.765533L57.433090 76.336121L59.715408 76.572479L61.997726 76.336121L62.943161 75.765533Z" style="fill: rgb(0,0,0);stroke: none;"></path>
</svg>
