<?xml version="1.0"?>
<!-- Created by MetaPost 2.11 on 2026.02.09:1107 -->
<svg version="1.1" xmlns="http://www.w3.org/2000/svg" xmlns:xlink="http://www.w3.org/1999/xlink" width="49.494049" height="75.880341" viewBox="0 0 49.494049 75.880341">
<!-- Original BoundingBox: -24.747025 -36.787170 24.747025 39.093170 -->
  <path d="M3.227753 3.227753L46.266296 3.227753" style="stroke:rgb(0,0,0); stroke-width: 6.455505;stroke-linecap: round;stroke-linejoin: round;stroke-miterlimit: 10.000000;fill: none;"></path>
  <path d="M46.266296 3.227753L20.442871 72.089828" style="stroke:rgb(0,0,0); stroke-width: 6.455505;stroke-linecap: round;stroke-linejoin: round;stroke-miterlimit: 10.000000;fill: none;"></path>
  <path d="M6.455505 3.227753L5.510071 2.657166L3.227753 2.420807L0.945435 2.657166L0.000000 3.227753C0.000000 7.655548,0.000000 10.754913,0.000000 15.182709L0.945435 15.753296L3.227753 15.989655L5.510071 15.753296L6.455505 15.182709C6.455505 10.754913,6.455505 7.655548,6.455505 3.227753Z" style="fill: rgb(0,0,0);stroke: none;"></path>
  <path d="M23.297211 73.621704L22.526489 72.830887L20.377777 72.025925L18.109711 71.678360L17.050842 71.991760L16.982834 72.173080L17.753555 72.963898L19.902267 73.768860L22.170334 74.116425L23.229202 73.803024Z" style="fill: rgb(0,0,0);stroke: none;"></path>
  <path d="M23.290634 73.626129L22.509598 72.845474L20.350555 72.068695L18.078140 71.750839L17.023453 72.078064L16.929947 72.327408L17.710983 73.108063L19.870026 73.884842L22.142441 74.202698L23.197128 73.875473Z" style="fill: rgb(0,0,0);stroke: none;"></path>
  <path d="M23.257950 73.698364L22.466782 72.927994L20.297760 72.179535L18.021378 71.891464L16.971085 72.232452L16.877563 72.481796L17.668732 73.252167L19.837753 74.000626L22.114136 74.288696L23.164429 73.947708Z" style="fill: rgb(0,0,0);stroke: none;"></path>
  <path d="M23.224777 73.770477L22.423599 73.010529L20.244980 72.290543L17.965042 72.032288L16.919296 72.386993L16.825775 72.636337L17.626953 73.396286L19.805573 74.116272L22.085510 74.374527L23.131256 74.019821Z" style="fill: rgb(0,0,0);stroke: none;"></path>
  <path d="M23.191071 73.842499L22.380005 73.093094L20.192123 72.401688L17.908966 72.173294L16.867950 72.541656L16.774429 72.791000L17.585495 73.540405L19.773376 74.231812L22.056534 74.460205L23.097549 74.091843Z" style="fill: rgb(0,0,0);stroke: none;"></path>
  <path d="M23.156815 73.914368L22.336014 73.175674L20.139267 72.512970L17.853348 72.314499L16.817245 72.696472L16.723740 72.945816L17.544540 73.684509L19.741287 74.347214L22.027206 74.545685L23.063309 74.163712Z" style="fill: rgb(0,0,0);stroke: none;"></path>
  <path d="M23.121979 73.986191L22.291595 73.258301L20.086380 72.624390L17.798065 72.455841L16.767059 72.851334L16.673584 73.100647L17.503967 73.828537L19.709183 74.462448L21.997498 74.630997L23.028503 74.235504Z" style="fill: rgb(0,0,0);stroke: none;"></path>
  <path d="M23.086685 74.057877L22.246826 73.340897L20.033478 72.735901L17.743134 72.597305L16.717361 73.006271L16.623840 73.255615L17.463699 73.972595L19.677048 74.577591L21.967392 74.716187L22.993164 74.307220Z" style="fill: rgb(0,0,0);stroke: none;"></path>
  <path d="M23.050797 74.129440L22.201630 73.423538L19.980560 72.847580L17.688599 72.738998L16.668289 73.161362L16.574768 73.410706L17.423935 74.116608L19.645004 74.692566L21.936966 74.801147L22.957275 74.378784Z" style="fill: rgb(0,0,0);stroke: none;"></path>
  <path d="M23.014328 74.200974L22.155991 73.506241L19.927582 72.959412L17.634384 72.880844L16.619705 73.316513L16.526199 73.565857L17.384537 74.260590L19.612946 74.807419L21.906143 74.885986L22.920822 74.450317Z" style="fill: rgb(0,0,0);stroke: none;"></path>
  <path d="M22.977371 74.272446L22.110001 73.589005L19.874634 73.071365L17.580612 73.022812L16.571701 73.471725L16.478180 73.721069L17.345551 74.404510L19.580917 74.922150L21.874939 74.970703L22.883850 74.521790Z" style="fill: rgb(0,0,0);stroke: none;"></path>
  <path d="M22.939835 74.343826L22.063599 73.671783L19.821625 73.183472L17.527161 73.164948L16.524216 73.627029L16.430695 73.876373L17.306931 74.548416L19.548904 75.036728L21.843369 75.055252L22.846313 74.593170Z" style="fill: rgb(0,0,0);stroke: none;"></path>
  <path d="M22.901718 74.415131L22.016769 73.754623L19.768631 73.295685L17.474136 73.307175L16.477341 73.782349L16.383835 74.031693L17.268784 74.692200L19.516922 75.151138L21.811417 75.139648L22.808212 74.664474Z" style="fill: rgb(0,0,0);stroke: none;"></path>
  <path d="M22.863098 74.486343L21.969574 73.837479L19.715591 73.408035L17.421448 73.449600L16.430939 73.937790L16.337418 74.187134L17.230942 74.835999L19.484924 75.265442L21.779068 75.223877L22.769577 74.735687Z" style="fill: rgb(0,0,0);stroke: none;"></path>
  <path d="M22.823898 74.557587L21.921967 73.920471L19.662567 73.520554L17.369171 73.592133L16.385147 74.093231L16.291641 74.342575L17.193573 74.979691L19.452972 75.379608L21.746368 75.308029L22.730392 74.806931Z" style="fill: rgb(0,0,0);stroke: none;"></path>
  <path d="M22.784149 74.628769L21.873947 74.003510L19.609512 73.633209L17.317245 73.734802L16.339874 74.248734L16.246353 74.498077L17.156555 75.123337L19.420990 75.493637L21.713257 75.392044L22.690628 74.878113Z" style="fill: rgb(0,0,0);stroke: none;"></path>
  <path d="M22.743881 74.699890L21.825577 74.086609L19.556488 73.746002L17.265732 73.877594L16.295181 74.404297L16.201660 74.653641L17.119965 75.266922L19.389053 75.607529L21.679810 75.475937L22.650360 74.949234Z" style="fill: rgb(0,0,0);stroke: none;"></path>
  <path d="M22.703033 74.770996L21.776764 74.169785L19.503403 73.858887L17.214569 74.020462L16.250977 74.559814L16.157501 74.809158L17.083771 75.410370L19.357132 75.721268L21.645966 75.559692L22.609558 75.020340Z" style="fill: rgb(0,0,0);stroke: none;"></path>
  <path d="M22.661636 74.842133L21.727585 74.253082L19.450378 73.971954L17.163864 74.163452L16.207413 74.715363L16.113892 74.964706L17.047943 75.553757L19.325150 75.834885L21.611664 75.643387L22.568115 75.091476Z" style="fill: rgb(0,0,0);stroke: none;"></path>
  <path d="M22.619736 74.913223L21.678055 74.336456L19.397308 74.085159L17.113480 74.306580L16.164322 74.870956L16.096313 75.052277L17.037994 75.629044L19.318741 75.880341L21.602570 75.658920L22.551727 75.094543Z" style="fill: rgb(0,0,0);stroke: none;"></path>
</svg>
