<?xml version="1.0"?>
<!-- Created by MetaPost 2.11 on 2026.02.09:1107 -->
<svg version="1.1" xmlns="http://www.w3.org/2000/svg" xmlns:xlink="http://www.w3.org/1999/xlink" width="49.494049" height="78.186340" viewBox="0 0 49.494049 78.186340">
<!-- Original BoundingBox: -24.747025 -39.093170 24.747025 39.093170 -->
  <g transform="matrix(-1.000000,-0.000000,-0.000000,-1.000000,0.000000,0.000000)">
    <path d="M-24.747025 -51.048676C-38.463348 -51.048676,-46.266296 -41.352036,-46.266296 -27.138214C-46.266296 -12.924393,-38.463348 -3.227753,-24.747025 -3.227753C-11.030701 -3.227753,-3.227753 -12.924393,-3.227753 -27.138214C-3.227753 -41.352036,-11.030701 -51.048676,-24.747025 -51.048676Z" style="stroke:rgb(0,0,0); stroke-width: 6.455505;stroke-linecap: round;stroke-linejoin: round;stroke-miterlimit: 10.000000;fill: none;"></path>
  </g>
  <g transform="matrix(-1.000000,-0.000000,-0.000000,-1.000000,0.000000,0.000000)">
    <path d="M-46.266296 -27.138214C-46.266296 -52.225388,-46.301865 -74.958588,-24.747025 -74.958588" style="stroke:rgb(0,0,0); stroke-width: 6.455505;stroke-linecap: round;stroke-linejoin: round;stroke-miterlimit: 10.000000;fill: none;"></path>
  </g>
  <g transform="matrix(-1.000000,-0.000000,-0.000000,-1.000000,0.000000,0.000000)">
    <path d="M-3.227753 -63.003357C-3.227753 -73.047882,-13.124893 -74.958588,-24.747025 -74.958588" style="stroke:rgb(0,0,0); stroke-width: 6.455505;stroke-linecap: round;stroke-linejoin: round;stroke-miterlimit: 10.000000;fill: none;"></path>
  </g>
  <g transform="matrix(-1.000000,-0.000000,-0.000000,-1.000000,0.000000,0.000000)">
    <path d="M-24.747025 -51.048676C-38.463348 -51.048676,-46.266296 -41.352036,-46.266296 -27.138214C-46.266296 -12.924393,-38.463348 -3.227753,-24.747025 -3.227753C-11.030701 -3.227753,-3.227753 -12.924393,-3.227753 -27.138214C-3.227753 -41.352036,-11.030701 -51.048676,-24.747025 -51.048676Z" style="stroke:rgb(0,0,0); stroke-width: 6.455505;stroke-linecap: round;stroke-linejoin: round;stroke-miterlimit: 10.000000;fill: none;"></path>
  </g>
  <g transform="matrix(-1.000000,-0.000000,-0.000000,-1.000000,0.000000,0.000000)">
    <path d="M-46.266296 -27.138214C-46.266296 -52.225388,-46.301865 -74.958588,-24.747025 -74.958588" style="stroke:rgb(0,0,0); stroke-width: 6.455505;stroke-linecap: round;stroke-linejoin: round;stroke-miterlimit: 10.000000;fill: none;"></path>
  </g>
  <g transform="matrix(-1.000000,-0.000000,-0.000000,-1.000000,0.000000,0.000000)">
    <path d="M-3.227753 -63.003357C-3.227753 -73.047882,-13.124893 -74.958588,-24.747025 -74.958588" style="stroke:rgb(0,0,0); stroke-width: 6.455505;stroke-linecap: round;stroke-linejoin: round;stroke-miterlimit: 10.000000;fill: none;"></path>
  </g>
</svg>
