<?xml version="1.0"?>
<!-- Created by MetaPost 2.11 on 2026.02.09:1107 -->
<svg version="1.1" xmlns="http://www.w3.org/2000/svg" xmlns:xlink="http://www.w3.org/1999/xlink" width="57.832626" height="78.186890" viewBox="0 0 57.832626 78.186890">
<!-- Original BoundingBox: -11.566330 -39.093170 46.266296 39.093719 -->
  <g transform="matrix(1.000000,-0.000000,-0.000000,-1.000000,0.000000,0.000000)">
    <path d="M54.604874 -63.003906C54.604874 -73.048431,44.707733 -74.959137,33.085602 -74.959137C19.369278 -74.959137,11.566330 -65.262497,11.566330 -51.048676C11.566330 -33.337097,11.566330 -20.939331,11.566330 -3.227753" style="stroke:rgb(0,0,0); stroke-width: 6.455505;stroke-linecap: round;stroke-linejoin: round;stroke-miterlimit: 10.000000;fill: none;"></path>
  </g>
  <path d="M57.832626 59.776154L56.887192 59.205566L54.604874 58.969208L52.322556 59.205566L51.377121 59.776154L51.377121 63.003906L52.322556 63.574493L54.604874 63.810852L56.887192 63.574493L57.832626 63.003906Z" style="fill: rgb(0,0,0);stroke: none;"></path>
  <path d="M0.806946 0.000549L0.236359 0.945984L0.000000 3.228302L0.236359 5.510620L0.806946 6.456055L22.325714 6.456055L22.896301 5.510620L23.132660 3.228302L22.896301 0.945984L22.325714 0.000549Z" style="fill: rgb(0,0,0);stroke: none;"></path>
  <g transform="matrix(1.000000,-0.000000,-0.000000,-1.000000,0.000000,0.000000)">
    <path d="M54.604874 -63.003906C54.604874 -73.048431,44.707733 -74.959137,33.085602 -74.959137C19.369278 -74.959137,11.566330 -65.262497,11.566330 -51.048676C11.566330 -33.337097,11.566330 -20.939331,11.566330 -3.227753" style="stroke:rgb(0,0,0); stroke-width: 6.455505;stroke-linecap: round;stroke-linejoin: round;stroke-miterlimit: 10.000000;fill: none;"></path>
  </g>
  <path d="M57.832626 59.776154L56.887192 59.205566L54.604874 58.969208L52.322556 59.205566L51.377121 59.776154L51.377121 63.003906L52.322556 63.574493L54.604874 63.810852L56.887192 63.574493L57.832626 63.003906Z" style="fill: rgb(0,0,0);stroke: none;"></path>
  <path d="M0.806946 0.000549L0.236359 0.945984L0.000000 3.228302L0.236359 5.510620L0.806946 6.456055L22.325714 6.456055L22.896301 5.510620L23.132660 3.228302L22.896301 0.945984L22.325714 0.000549Z" style="fill: rgb(0,0,0);stroke: none;"></path>
</svg>
