<?xml version="1.0"?>
<!-- Created by MetaPost 2.11 on 2026.02.09:1107 -->
<svg version="1.1" xmlns="http://www.w3.org/2000/svg" xmlns:xlink="http://www.w3.org/1999/xlink" width="49.494049" height="78.993286" viewBox="0 0 49.494049 78.993286">
<!-- Original BoundingBox: -46.266296 -39.093170 3.227753 39.900116 -->
  <g transform="matrix(-1.000000,-0.000000,-0.000000,1.000000,0.000000,0.000000)">
    <path d="M-24.747025 27.944611C-38.463348 27.944611,-46.266296 37.641251,-46.266296 51.855072C-46.266296 66.068893,-38.463348 75.765533,-24.747025 75.765533C-11.030701 75.765533,-3.227753 66.068893,-3.227753 51.855072C-3.227753 37.641251,-11.030701 27.944611,-24.747025 27.944611Z" style="stroke:rgb(0,0,0); stroke-width: 6.455505;stroke-linecap: round;stroke-linejoin: round;stroke-miterlimit: 10.000000;fill: none;"></path>
  </g>
  <g transform="matrix(-1.000000,-0.000000,-0.000000,1.000000,0.000000,0.000000)">
    <path d="M-46.266296 15.989929C-46.266296 5.945404,-36.369156 4.034698,-24.747025 4.034698C-11.030701 4.034698,-3.227753 13.731339,-3.227753 27.945160C-3.227753 36.800735,-3.227753 42.999496,-3.227753 51.855072C-3.227753 58.961975,-5.178482 64.939590,-8.843750 69.140472" style="stroke:rgb(0,0,0); stroke-width: 6.455505;stroke-linecap: round;stroke-linejoin: round;stroke-miterlimit: 10.000000;fill: none;"></path>
  </g>
  <path d="M49.494049 0.806946L48.548615 0.236359L46.266296 -0.000000L43.983978 0.236359L43.038544 0.806946L43.038544 15.989655L43.983978 16.560242L46.266296 16.796600L48.548615 16.560242L49.494049 15.989655Z" style="fill: rgb(0,0,0);stroke: none;"></path>
  <g transform="matrix(-1.000000,-0.000000,-0.000000,1.000000,0.000000,0.000000)">
    <path d="M-24.747025 27.944611C-38.463348 27.944611,-46.266296 37.641251,-46.266296 51.855072C-46.266296 66.068893,-38.463348 75.765533,-24.747025 75.765533C-11.030701 75.765533,-3.227753 66.068893,-3.227753 51.855072C-3.227753 37.641251,-11.030701 27.944611,-24.747025 27.944611Z" style="stroke:rgb(0,0,0); stroke-width: 6.455505;stroke-linecap: round;stroke-linejoin: round;stroke-miterlimit: 10.000000;fill: none;"></path>
  </g>
  <g transform="matrix(-1.000000,-0.000000,-0.000000,1.000000,0.000000,0.000000)">
    <path d="M-46.266296 15.989929C-46.266296 5.945404,-36.369156 4.034698,-24.747025 4.034698C-11.030701 4.034698,-3.227753 13.731339,-3.227753 27.945160C-3.227753 36.800735,-3.227753 42.999496,-3.227753 51.855072C-3.227753 58.961975,-5.178482 64.939590,-8.843750 69.140472" style="stroke:rgb(0,0,0); stroke-width: 6.455505;stroke-linecap: round;stroke-linejoin: round;stroke-miterlimit: 10.000000;fill: none;"></path>
  </g>
  <path d="M49.494049 0.806946L48.548615 0.236359L46.266296 -0.000000L43.983978 0.236359L43.038544 0.806946L43.038544 15.989655L43.983978 16.560242L46.266296 16.796600L48.548615 16.560242L49.494049 15.989655Z" style="fill: rgb(0,0,0);stroke: none;"></path>
</svg>
