<?xml version="1.0"?>
<!-- Created by MetaPost 2.11 on 2026.02.09:1107 -->
<svg version="1.1" xmlns="http://www.w3.org/2000/svg" xmlns:xlink="http://www.w3.org/1999/xlink" width="99.525574" height="78.186340" viewBox="0 0 99.525574 78.186340">
<!-- Original BoundingBox: -55.680588 -39.093170 43.844986 39.093170 -->
  <path d="M87.959244 3.227753L55.680588 74.958588" style="stroke:rgb(0,0,0); stroke-width: 6.455505;stroke-linecap: round;stroke-linejoin: round;stroke-miterlimit: 10.000000;fill: none;"></path>
  <path d="M77.199860 -0.000000L76.629272 0.945435L76.392914 3.227753L76.629272 5.510071L77.199860 6.455505L98.718628 6.455505L99.289215 5.510071L99.525574 3.227753L99.289215 0.945435L98.718628 -0.000000Z" style="fill: rgb(0,0,0);stroke: none;"></path>
  <path d="M15.332260 28.781784C12.121811 28.781784,9.043228 27.506241,6.773254 25.236282C4.503296 22.966309,3.227753 19.887726,3.227753 16.677277C3.227753 13.466827,4.503296 10.388245,6.773254 8.118271C9.043228 5.848312,12.121811 4.572769,15.332260 4.572769" style="stroke:rgb(0,0,0); stroke-width: 6.455505;stroke-linecap: round;stroke-linejoin: round;stroke-miterlimit: 10.000000;fill: none;"></path>
  <path d="M55.680588 74.958588L39.541260 39.093170C33.024902 24.612274,31.063461 4.572769,15.332260 4.572769" style="stroke:rgb(0,0,0); stroke-width: 6.455505;stroke-linecap: round;stroke-linejoin: round;stroke-miterlimit: 10.000000;fill: none;"></path>
  <path d="M15.332260 28.781784L79.889572 28.781784C85.362518 28.781784,89.535904 30.340210,92.906921 33.733276" style="stroke:rgb(0,0,0); stroke-width: 6.455505;stroke-linecap: round;stroke-linejoin: round;stroke-miterlimit: 10.000000;fill: none;"></path>
  <path d="M82.171936 26.499420L81.099945 26.764465L79.318970 28.211182L77.872253 29.992157L77.607208 31.064148C84.904465 31.064148,89.891403 33.834686,93.746536 40.030502L94.818527 39.765457L96.599503 38.318741L98.046219 36.537766L98.311264 35.465775C94.456131 29.269958,89.469193 26.499420,82.171936 26.499420Z" style="fill: rgb(0,0,0);stroke: none;"></path>
</svg>
