<?xml version="1.0"?>
<!-- Created by MetaPost 2.11 on 2026.02.09:1107 -->
<svg version="1.1" xmlns="http://www.w3.org/2000/svg" xmlns:xlink="http://www.w3.org/1999/xlink" width="71.550644" height="78.186340" viewBox="0 0 71.550644 78.186340">
<!-- Original BoundingBox: -11.566330 -39.093170 59.984314 39.093170 -->
  <path d="M11.566330 74.958588L11.566330 3.227753" style="stroke:rgb(0,0,0); stroke-width: 6.455505;stroke-linecap: round;stroke-linejoin: round;stroke-miterlimit: 10.000000;fill: none;"></path>
  <path d="M59.984314 74.958588L59.984314 3.227753" style="stroke:rgb(0,0,0); stroke-width: 6.455505;stroke-linecap: round;stroke-linejoin: round;stroke-miterlimit: 10.000000;fill: none;"></path>
  <path d="M0.806946 -0.000000L0.236359 0.945435L0.000000 3.227753L0.236359 5.510071L0.806946 6.455505L22.325714 6.455505L22.896301 5.510071L23.132660 3.227753L22.896301 0.945435L22.325714 -0.000000Z" style="fill: rgb(0,0,0);stroke: none;"></path>
  <path d="M49.224930 71.730835L48.654343 72.676270L48.417984 74.958588L48.654343 77.240906L49.224930 78.186340L70.743698 78.186340L71.314285 77.240906L71.550644 74.958588L71.314285 72.676270L70.743698 71.730835Z" style="fill: rgb(0,0,0);stroke: none;"></path>
  <path d="M59.984314 -0.000000L59.413727 0.945435L59.177368 3.227753L59.413727 5.510071L59.984314 6.455505L70.743698 6.455505L71.314285 5.510071L71.550644 3.227753L71.314285 0.945435L70.743698 -0.000000Z" style="fill: rgb(0,0,0);stroke: none;"></path>
  <path d="M11.566330 74.958588L59.984314 3.227753" style="stroke:rgb(0,0,0); stroke-width: 6.455505;stroke-linecap: round;stroke-linejoin: round;stroke-miterlimit: 10.000000;fill: none;"></path>
</svg>
