<?xml version="1.0"?>
<!-- Created by MetaPost 2.11 on 2026.02.09:1107 -->
<svg version="1.1" xmlns="http://www.w3.org/2000/svg" xmlns:xlink="http://www.w3.org/1999/xlink" width="49.494049" height="79.800232" viewBox="0 0 49.494049 79.800232">
<!-- Original BoundingBox: -46.266296 -39.900116 3.227753 39.900116 -->
  <g transform="matrix(-1.000000,-0.000000,-0.000000,1.000000,0.000000,0.000000)">
    <path d="M-3.227753 15.989929C-3.227753 5.945404,-13.124893 4.034698,-24.747025 4.034698C-38.463348 4.034698,-46.266296 13.731339,-46.266296 27.945160C-46.266296 36.800949,-46.266296 42.999832,-46.266296 51.855621C-46.266296 66.069443,-38.463348 75.766083,-24.747025 75.766083C-13.124893 75.766083,-3.227753 73.855377,-3.227753 63.810852" style="stroke:rgb(0,0,0); stroke-width: 6.455505;stroke-linecap: round;stroke-linejoin: round;stroke-miterlimit: 10.000000;fill: none;"></path>
  </g>
  <path d="M6.455505 0.806946L5.510071 0.236359L3.227753 -0.000000L0.945435 0.236359L0.000000 0.806946L0.000000 15.989655L0.945435 16.560242L3.227753 16.796600L5.510071 16.560242L6.455505 15.989655Z" style="fill: rgb(0,0,0);stroke: none;"></path>
  <path d="M0.000000 78.993286L0.945435 79.563873L3.227753 79.800232L5.510071 79.563873L6.455505 78.993286L6.455505 63.810577L5.510071 63.239990L3.227753 63.003632L0.945435 63.239990L0.000000 63.810577Z" style="fill: rgb(0,0,0);stroke: none;"></path>
  <g transform="matrix(-1.000000,-0.000000,-0.000000,1.000000,0.000000,0.000000)">
    <path d="M-3.227753 15.989929C-3.227753 5.945404,-13.124893 4.034698,-24.747025 4.034698C-38.463348 4.034698,-46.266296 13.731339,-46.266296 27.945160C-46.266296 36.800949,-46.266296 42.999832,-46.266296 51.855621C-46.266296 66.069443,-38.463348 75.766083,-24.747025 75.766083C-13.124893 75.766083,-3.227753 73.855377,-3.227753 63.810852" style="stroke:rgb(0,0,0); stroke-width: 6.455505;stroke-linecap: round;stroke-linejoin: round;stroke-miterlimit: 10.000000;fill: none;"></path>
  </g>
  <path d="M6.455505 0.806946L5.510071 0.236359L3.227753 -0.000000L0.945435 0.236359L0.000000 0.806946L0.000000 15.989655L0.945435 16.560242L3.227753 16.796600L5.510071 16.560242L6.455505 15.989655Z" style="fill: rgb(0,0,0);stroke: none;"></path>
  <path d="M0.000000 78.993286L0.945435 79.563873L3.227753 79.800232L5.510071 79.563873L6.455505 78.993286L6.455505 63.810577L5.510071 63.239990L3.227753 63.003632L0.945435 63.239990L0.000000 63.810577Z" style="fill: rgb(0,0,0);stroke: none;"></path>
</svg>
