<?xml version="1.0"?>
<!-- Created by MetaPost 2.11 on 2026.02.09:1107 -->
<svg version="1.1" xmlns="http://www.w3.org/2000/svg" xmlns:xlink="http://www.w3.org/1999/xlink" width="63.212067" height="78.186356" viewBox="0 0 63.212067 78.186356">
<!-- Original BoundingBox: -11.566330 -39.093170 51.645737 39.093185 -->
  <g transform="matrix(-1.000000,-0.000000,-0.000000,-1.000000,0.000000,0.000000)">
    <path d="M-11.566330 -3.227768L-11.566330 -74.958603" style="stroke:rgb(0,0,0); stroke-width: 6.455505;stroke-linecap: round;stroke-linejoin: round;stroke-miterlimit: 10.000000;fill: none;"></path>
  </g>
  <path d="M22.325714 78.186356L22.896301 77.240921L23.132660 74.958603L22.896301 72.676285L22.325714 71.730850L0.806946 71.730850L0.236359 72.676285L0.000000 74.958603L0.236359 77.240921L0.806946 78.186356Z" style="fill: rgb(0,0,0);stroke: none;"></path>
  <path d="M22.325714 6.455521L22.896301 5.510086L23.132660 3.227768L22.896301 0.945450L22.325714 0.000015L0.806946 0.000015L0.236359 0.945450L0.000000 3.227768L0.236359 5.510086L0.806946 6.455521Z" style="fill: rgb(0,0,0);stroke: none;"></path>
  <path d="M63.212067 0.806946L62.266632 0.236359L59.984314 -0.000000L57.701996 0.236359L56.756561 0.806946L56.756561 4.662140L57.701996 5.232727L59.984314 5.469086L62.266632 5.232727L63.212067 4.662140Z" style="fill: rgb(0,0,0);stroke: none;"></path>
  <g transform="matrix(-1.000000,-0.000000,-0.000000,-1.000000,0.000000,0.000000)">
    <path d="M-11.566330 -3.227768C-11.566330 -9.648682,-14.117416 -15.805832,-18.657333 -20.345764C-23.197266 -24.885681,-29.354416 -27.436768,-35.775330 -27.436768C-42.196243 -27.436768,-48.353394 -24.885681,-52.893326 -20.345764C-57.092972 -16.146103,-59.590744 -10.562576,-59.941574 -4.666519" style="stroke:rgb(0,0,0); stroke-width: 6.455505;stroke-linecap: round;stroke-linejoin: round;stroke-miterlimit: 10.000000;fill: none;"></path>
  </g>
  <g transform="matrix(-1.000000,-0.000000,-0.000000,-1.000000,0.000000,0.000000)">
    <path d="M-11.566330 -3.227768L-11.566330 -74.958603" style="stroke:rgb(0,0,0); stroke-width: 6.455505;stroke-linecap: round;stroke-linejoin: round;stroke-miterlimit: 10.000000;fill: none;"></path>
  </g>
  <path d="M22.325714 78.186356L22.896301 77.240921L23.132660 74.958603L22.896301 72.676285L22.325714 71.730850L0.806946 71.730850L0.236359 72.676285L0.000000 74.958603L0.236359 77.240921L0.806946 78.186356Z" style="fill: rgb(0,0,0);stroke: none;"></path>
  <path d="M22.325714 6.455521L22.896301 5.510086L23.132660 3.227768L22.896301 0.945450L22.325714 0.000015L0.806946 0.000015L0.236359 0.945450L0.000000 3.227768L0.236359 5.510086L0.806946 6.455521Z" style="fill: rgb(0,0,0);stroke: none;"></path>
  <path d="M63.212067 0.806946L62.266632 0.236359L59.984314 -0.000000L57.701996 0.236359L56.756561 0.806946L56.756561 4.662140L57.701996 5.232727L59.984314 5.469086L62.266632 5.232727L63.212067 4.662140Z" style="fill: rgb(0,0,0);stroke: none;"></path>
  <g transform="matrix(-1.000000,-0.000000,-0.000000,-1.000000,0.000000,0.000000)">
    <path d="M-11.566330 -3.227768C-11.566330 -9.648682,-14.117416 -15.805832,-18.657333 -20.345764C-23.197266 -24.885681,-29.354416 -27.436768,-35.775330 -27.436768C-42.196243 -27.436768,-48.353394 -24.885681,-52.893326 -20.345764C-57.092972 -16.146103,-59.590744 -10.562576,-59.941574 -4.666519" style="stroke:rgb(0,0,0); stroke-width: 6.455505;stroke-linecap: round;stroke-linejoin: round;stroke-miterlimit: 10.000000;fill: none;"></path>
  </g>
</svg>
