<?xml version="1.0"?>
<!-- Created by MetaPost 2.11 on 2026.02.09:1107 -->
<svg version="1.1" xmlns="http://www.w3.org/2000/svg" xmlns:xlink="http://www.w3.org/1999/xlink" width="55.411316" height="78.186340" viewBox="0 0 55.411316 78.186340">
<!-- Original BoundingBox: -27.705658 -39.093170 27.705658 39.093170 -->
  <path d="M43.844986 3.227753L27.705658 39.093170" style="stroke:rgb(0,0,0); stroke-width: 6.455505;stroke-linecap: round;stroke-linejoin: round;stroke-miterlimit: 10.000000;fill: none;"></path>
  <path d="M11.566330 3.227753L27.705658 39.093170" style="stroke:rgb(0,0,0); stroke-width: 6.455505;stroke-linecap: round;stroke-linejoin: round;stroke-miterlimit: 10.000000;fill: none;"></path>
  <path d="M33.085602 -0.000000L32.515015 0.945435L32.278656 3.227753L32.515015 5.510071L33.085602 6.455505L54.604370 6.455505L55.174957 5.510071L55.411316 3.227753L55.174957 0.945435L54.604370 -0.000000Z" style="fill: rgb(0,0,0);stroke: none;"></path>
  <path d="M0.806946 -0.000000L0.236359 0.945435L0.000000 3.227753L0.236359 5.510071L0.806946 6.455505L22.325714 6.455505L22.896301 5.510071L23.132660 3.227753L22.896301 0.945435L22.325714 -0.000000Z" style="fill: rgb(0,0,0);stroke: none;"></path>
  <path d="M27.705658 39.093170C17.418488 39.093170,11.566330 46.365585,11.566330 57.025879C11.566330 67.686172,17.418488 74.958588,27.705658 74.958588C37.992828 74.958588,43.844986 67.686172,43.844986 57.025879C43.844986 46.365585,37.992828 39.093170,27.705658 39.093170Z" style="stroke:rgb(0,0,0); stroke-width: 6.455505;stroke-linecap: round;stroke-linejoin: round;stroke-miterlimit: 10.000000;fill: none;"></path>
</svg>
