<?xml version="1.0"?>
<!-- Created by MetaPost 2.11 on 2026.02.09:1107 -->
<svg version="1.1" xmlns="http://www.w3.org/2000/svg" xmlns:xlink="http://www.w3.org/1999/xlink" width="109.209244" height="78.186340" viewBox="0 0 109.209244 78.186340">
<!-- Original BoundingBox: -11.566330 -39.093170 97.642914 39.093170 -->
  <path d="M11.566330 51.048126C11.566330 65.261948,19.369278 74.958588,33.085602 74.958588C46.801926 74.958588,54.604874 65.261948,54.604874 51.048126" style="stroke:rgb(0,0,0); stroke-width: 6.455505;stroke-linecap: round;stroke-linejoin: round;stroke-miterlimit: 10.000000;fill: none;"></path>
  <path d="M54.604370 51.048126C54.604370 65.261948,62.407318 74.958588,76.123642 74.958588C89.839966 74.958588,97.642914 65.261948,97.642914 51.048126" style="stroke:rgb(0,0,0); stroke-width: 6.455505;stroke-linecap: round;stroke-linejoin: round;stroke-miterlimit: 10.000000;fill: none;"></path>
  <path d="M14.794083 3.227753L13.848648 2.657166L11.566330 2.420807L9.284012 2.657166L8.338577 3.227753L8.338577 51.048126L9.284012 51.618713L11.566330 51.855072L13.848648 51.618713L14.794083 51.048126Z" style="fill: rgb(0,0,0);stroke: none;"></path>
  <path d="M57.832123 3.227753L56.886688 2.657166L54.604370 2.420807L52.322052 2.657166L51.376617 3.227753L51.376617 51.048126L52.322052 51.618713L54.604370 51.855072L56.886688 51.618713L57.832123 51.048126Z" style="fill: rgb(0,0,0);stroke: none;"></path>
  <path d="M100.870667 3.227753L99.925232 2.657166L97.642914 2.420807L95.360596 2.657166L94.415161 3.227753L94.415161 51.048126L95.360596 51.618713L97.642914 51.855072L99.925232 51.618713L100.870667 51.048126Z" style="fill: rgb(0,0,0);stroke: none;"></path>
  <path d="M0.806946 -0.000000L0.236359 0.945435L0.000000 3.227753L0.236359 5.510071L0.806946 6.455505L22.325714 6.455505L22.896301 5.510071L23.132660 3.227753L22.896301 0.945435L22.325714 -0.000000Z" style="fill: rgb(0,0,0);stroke: none;"></path>
  <path d="M43.844986 -0.000000L43.274399 0.945435L43.038040 3.227753L43.274399 5.510071L43.844986 6.455505L65.363754 6.455505L65.934341 5.510071L66.170700 3.227753L65.934341 0.945435L65.363754 -0.000000Z" style="fill: rgb(0,0,0);stroke: none;"></path>
  <path d="M86.883530 -0.000000L86.312943 0.945435L86.076584 3.227753L86.312943 5.510071L86.883530 6.455505L108.402298 6.455505L108.972885 5.510071L109.209244 3.227753L108.972885 0.945435L108.402298 -0.000000Z" style="fill: rgb(0,0,0);stroke: none;"></path>
</svg>
