<?xml version="1.0"?>
<!-- Created by MetaPost 2.11 on 2026.02.09:1107 -->
<svg version="1.1" xmlns="http://www.w3.org/2000/svg" xmlns:xlink="http://www.w3.org/1999/xlink" width="57.832626" height="78.186371" viewBox="0 0 57.832626 78.186371">
<!-- Original BoundingBox: -3.227753 -39.093185 54.604874 39.093185 -->
  <path d="M46.266296 15.182999C46.266296 5.138474,36.369156 3.227768,24.747025 3.227768C11.030701 3.227768,3.227753 12.924408,3.227753 27.138229C3.227753 37.182755,13.124893 39.093460,24.747025 39.093460" style="stroke:rgb(0,0,0); stroke-width: 6.455505;stroke-linecap: round;stroke-linejoin: round;stroke-miterlimit: 10.000000;fill: none;"></path>
  <path d="M46.266296 63.003372C46.266296 73.047897,36.369156 74.958603,24.747025 74.958603C11.030701 74.958603,3.227753 65.261963,3.227753 51.048141C3.227753 41.003616,13.124893 39.092911,24.747025 39.092911" style="stroke:rgb(0,0,0); stroke-width: 6.455505;stroke-linecap: round;stroke-linejoin: round;stroke-miterlimit: 10.000000;fill: none;"></path>
  <path d="M30.664505 27.138229L29.719070 26.567642L27.436752 26.331284L25.154434 26.567642L24.209000 27.138229L24.209000 51.048141L25.154434 51.618729L27.436752 51.855087L29.719070 51.618729L30.664505 51.048141Z" style="fill: rgb(0,0,0);stroke: none;"></path>
  <path d="M49.494049 0.806946L48.548615 0.236359L46.266296 -0.000000L43.983978 0.236359L43.038544 0.806946L43.038544 77.379425L43.983978 77.950012L46.266296 78.186371L48.548615 77.950012L49.494049 77.379425Z" style="fill: rgb(0,0,0);stroke: none;"></path>
  <path d="M46.266296 0.000015L45.695709 0.945450L45.459351 3.227768L45.695709 5.510086L46.266296 6.455521L57.025681 6.455521L57.596268 5.510086L57.832626 3.227768L57.596268 0.945450L57.025681 0.000015Z" style="fill: rgb(0,0,0);stroke: none;"></path>
  <path d="M46.266296 71.730850L45.695709 72.676285L45.459351 74.958603L45.695709 77.240921L46.266296 78.186356L57.025681 78.186356L57.596268 77.240921L57.832626 74.958603L57.596268 72.676285L57.025681 71.730850Z" style="fill: rgb(0,0,0);stroke: none;"></path>
</svg>
