<?xml version="1.0"?>
<!-- Created by MetaPost 2.11 on 2026.02.09:1107 -->
<svg version="1.1" xmlns="http://www.w3.org/2000/svg" xmlns:xlink="http://www.w3.org/1999/xlink" width="49.494049" height="78.186340" viewBox="0 0 49.494049 78.186340">
<!-- Original BoundingBox: -46.266296 -39.093170 3.227753 39.093170 -->
  <g transform="matrix(-1.000000,-0.000000,-0.000000,1.000000,0.000000,0.000000)">
    <path d="M-3.227753 15.182983C-3.227753 5.138458,-13.124893 3.227753,-24.747025 3.227753C-38.463348 3.227753,-46.266296 12.924393,-46.266296 27.138214C-46.266296 37.182739,-36.369156 39.093445,-24.747025 39.093445" style="stroke:rgb(0,0,0); stroke-width: 6.455505;stroke-linecap: round;stroke-linejoin: round;stroke-miterlimit: 10.000000;fill: none;"></path>
  </g>
  <g transform="matrix(-1.000000,-0.000000,-0.000000,1.000000,0.000000,0.000000)">
    <path d="M-3.227753 63.003357C-3.227753 73.047882,-13.124893 74.958588,-24.747025 74.958588C-38.463348 74.958588,-46.266296 65.261948,-46.266296 51.048126C-46.266296 41.003601,-36.369156 39.092896,-24.747025 39.092896" style="stroke:rgb(0,0,0); stroke-width: 6.455505;stroke-linecap: round;stroke-linejoin: round;stroke-miterlimit: 10.000000;fill: none;"></path>
  </g>
  <path d="M25.285049 27.138214L24.339615 26.567627L22.057297 26.331268L19.774979 26.567627L18.829544 27.138214L18.829544 51.048126L19.774979 51.618713L22.057297 51.855072L24.339615 51.618713L25.285049 51.048126Z" style="fill: rgb(0,0,0);stroke: none;"></path>
  <path d="M6.455505 15.182983L5.510071 14.612396L3.227753 14.376038L0.945435 14.612396L0.000000 15.182983L0.000000 63.003357L0.945435 63.573944L3.227753 63.810303L5.510071 63.573944L6.455505 63.003357Z" style="fill: rgb(0,0,0);stroke: none;"></path>
  <g transform="matrix(-1.000000,-0.000000,-0.000000,1.000000,0.000000,0.000000)">
    <path d="M-3.227753 15.182983C-3.227753 5.138458,-13.124893 3.227753,-24.747025 3.227753C-38.463348 3.227753,-46.266296 12.924393,-46.266296 27.138214C-46.266296 37.182739,-36.369156 39.093445,-24.747025 39.093445" style="stroke:rgb(0,0,0); stroke-width: 6.455505;stroke-linecap: round;stroke-linejoin: round;stroke-miterlimit: 10.000000;fill: none;"></path>
  </g>
  <g transform="matrix(-1.000000,-0.000000,-0.000000,1.000000,0.000000,0.000000)">
    <path d="M-3.227753 63.003357C-3.227753 73.047882,-13.124893 74.958588,-24.747025 74.958588C-38.463348 74.958588,-46.266296 65.261948,-46.266296 51.048126C-46.266296 41.003601,-36.369156 39.092896,-24.747025 39.092896" style="stroke:rgb(0,0,0); stroke-width: 6.455505;stroke-linecap: round;stroke-linejoin: round;stroke-miterlimit: 10.000000;fill: none;"></path>
  </g>
  <path d="M25.285049 27.138214L24.339615 26.567627L22.057297 26.331268L19.774979 26.567627L18.829544 27.138214L18.829544 51.048126L19.774979 51.618713L22.057297 51.855072L24.339615 51.618713L25.285049 51.048126Z" style="fill: rgb(0,0,0);stroke: none;"></path>
  <path d="M6.455505 15.182983L5.510071 14.612396L3.227753 14.376038L0.945435 14.612396L0.000000 15.182983L0.000000 63.003357L0.945435 63.573944L3.227753 63.810303L5.510071 63.573944L6.455505 63.003357Z" style="fill: rgb(0,0,0);stroke: none;"></path>
</svg>
