<?xml version="1.0"?>
<!-- Created by MetaPost 2.11 on 2026.02.09:1107 -->
<svg version="1.1" xmlns="http://www.w3.org/2000/svg" xmlns:xlink="http://www.w3.org/1999/xlink" width="49.494049" height="78.993835" viewBox="0 0 49.494049 78.993835">
<!-- Original BoundingBox: -3.227753 -39.093719 46.266296 39.900116 -->
  <path d="M46.266296 15.989929C46.266296 5.945404,36.369156 4.034698,24.747025 4.034698C11.030701 4.034698,3.227753 13.731339,3.227753 27.945160C3.227753 36.800949,3.227753 42.999832,3.227753 51.855621C3.227753 66.069443,11.030701 75.766083,24.747025 75.766083C36.369156 75.766083,46.266296 73.855377,46.266296 63.810852" style="stroke:rgb(0,0,0); stroke-width: 6.455505;stroke-linecap: round;stroke-linejoin: round;stroke-miterlimit: 10.000000;fill: none;"></path>
  <path d="M49.494049 0.806946L48.548615 0.236359L46.266296 -0.000000L43.983978 0.236359L43.038544 0.806946L43.038544 15.989655L43.983978 16.560242L46.266296 16.796600L48.548615 16.560242L49.494049 15.989655Z" style="fill: rgb(0,0,0);stroke: none;"></path>
  <path d="M49.494049 60.583099L48.548615 60.012512L46.266296 59.776154L43.983978 60.012512L43.038544 60.583099L43.038544 63.810852L43.983978 64.381439L46.266296 64.617798L48.548615 64.381439L49.494049 63.810852Z" style="fill: rgb(0,0,0);stroke: none;"></path>
</svg>
