<?xml version="1.0"?>
<!-- Created by MetaPost 2.11 on 2026.02.09:1107 -->
<svg version="1.1" xmlns="http://www.w3.org/2000/svg" xmlns:xlink="http://www.w3.org/1999/xlink" width="59.462830" height="77.863556" viewBox="0 0 59.462830 77.863556">
<!-- Original BoundingBox: -47.896500 -38.770386 11.566330 39.093170 -->
  <path d="M44.668747 77.056610L45.614182 77.627197L47.896500 77.863556L50.178818 77.627197L51.124252 77.056610L51.124252 3.227753L50.178818 2.657166L47.896500 2.420807L45.614182 2.657166L44.668747 3.227753Z" style="fill: rgb(0,0,0);stroke: none;"></path>
  <path d="M37.137115 -0.000000L36.566528 0.945435L36.330170 3.227753L36.566528 5.510071L37.137115 6.455505L58.655884 6.455505L59.226471 5.510071L59.462830 3.227753L59.226471 0.945435L58.655884 -0.000000Z" style="fill: rgb(0,0,0);stroke: none;"></path>
  <path d="M1.943344 58.607361L1.152527 59.378082L0.347565 61.526794L0.000000 63.794861L0.313400 64.853729C1.642029 65.407547,2.910980 65.924850,4.140945 66.412674L4.931763 65.641953L5.736725 63.493240L6.084290 61.225174L5.770889 60.166306C4.540924 59.678482,3.271973 59.161179,1.943344 58.607361Z" style="fill: rgb(0,0,0);stroke: none;"></path>
  <path d="M2.888199 59.005646L2.107544 59.786682L1.330765 61.945724L1.012909 64.218140L1.340134 65.272827C3.127716 66.009811,4.812271 66.681091,6.447540 67.304977L7.228195 66.523941L8.004974 64.364899L8.322830 62.092484L7.995605 61.037796C6.360336 60.413910,4.675781 59.742630,2.888199 59.005646Z" style="fill: rgb(0,0,0);stroke: none;"></path>
  <path d="M5.226028 59.961823L4.455658 60.752991L3.707199 62.922012L3.419128 65.198395L3.760117 66.248688C5.465088 66.929703,7.091461 67.553345,8.692978 68.137909L9.463348 67.346741L10.211807 65.177719L10.499878 62.901337L10.158890 61.851044C8.557373 61.266479,6.931000 60.642838,5.226028 59.961823Z" style="fill: rgb(0,0,0);stroke: none;"></path>
  <path d="M7.465591 60.847137L6.705643 61.648315L5.985657 63.826935L5.727402 66.106873L6.082108 67.152618C7.726791 67.785294,9.317307 68.368896,10.907379 68.921768L11.667328 68.120590L12.387314 65.941971L12.645569 63.662033L12.290863 62.616287C10.700790 62.063416,9.110275 61.479813,7.465591 60.847137Z" style="fill: rgb(0,0,0);stroke: none;"></path>
  <path d="M9.638611 61.672394L8.889206 62.483459L8.197800 64.671341L7.969406 66.954498L8.337769 67.995514C9.944260 68.587357,11.520996 69.138458,13.121735 69.667145L13.871140 68.856079L14.562546 66.668198L14.790939 64.385040L14.422577 63.344025C12.821838 62.815338,11.245102 62.264236,9.638611 61.672394Z" style="fill: rgb(0,0,0);stroke: none;"></path>
  <path d="M11.774582 62.447739L11.035889 63.268539L10.373184 65.465286L10.174713 67.751205L10.556686 68.787308C12.147293 69.345917,13.732590 69.872116,15.366302 70.384216L16.104996 69.563416L16.767700 67.366669L16.966171 65.080750L16.584198 64.044647C14.950485 63.532547,13.365189 63.006348,11.774582 62.447739Z" style="fill: rgb(0,0,0);stroke: none;"></path>
  <path d="M13.903900 63.183472L13.176010 64.013855L12.542099 66.219070L12.373550 68.507385L12.769043 69.538391C14.365891 70.071304,15.981857 70.580139,17.670685 71.083191L18.398575 70.252808L19.032486 68.047592L19.201035 65.759277L18.805542 64.728271C17.116714 64.225220,15.500748 63.716385,13.903900 63.183472Z" style="fill: rgb(0,0,0);stroke: none;"></path>
  <path d="M16.056808 63.889786L15.339828 64.729645L14.734833 66.942993L14.596237 69.233337L15.005203 70.259109C16.630554 70.773926,18.299454 71.272964,20.065643 71.774567L20.782623 70.934708L21.387619 68.721359L21.526215 66.431015L21.117249 65.405243C19.351059 64.903641,17.682159 64.404602,16.056808 63.889786Z" style="fill: rgb(0,0,0);stroke: none;"></path>
  <path d="M18.262878 64.576996L17.556976 65.426163L16.981018 67.647232L16.872437 69.939194L17.294800 70.959503C18.970825 71.463760,20.714813 71.960587,22.580505 72.468277L23.286407 71.619110L23.862366 69.398041L23.970947 67.106079L23.548584 66.085770C21.682892 65.578079,19.938904 65.081253,18.262878 64.576996Z" style="fill: rgb(0,0,0);stroke: none;"></path>
  <path d="M20.553848 65.255707L19.859116 66.114044L19.312286 68.342453L19.233719 70.635651L19.669388 71.650330C20.941345 72.014908,22.262177 72.379944,23.652557 72.752502C24.173920 72.892197,24.686279 73.027924,25.190781 73.159897L25.885513 72.301559L26.432343 70.073151L26.510910 67.779953L26.075241 66.765274C25.570740 66.633301,25.058380 66.497574,24.537018 66.357880C23.146637 65.985321,21.825806 65.620285,20.553848 65.255707Z" style="fill: rgb(0,0,0);stroke: none;"></path>
  <path d="M22.959320 65.936066L22.275879 66.803436L21.758240 69.038803L21.709686 71.332825L22.158600 72.341736C22.661484 72.479691,23.173065 72.618332,23.694427 72.758026C25.084808 73.130585,26.411194 73.474869,27.695023 73.795120L28.378464 72.927750L28.896103 70.692383L28.944656 68.398361L28.495743 67.389450C27.211914 67.069199,25.885529 66.724915,24.495148 66.352356C23.973785 66.212662,23.462204 66.074020,22.959320 65.936066Z" style="fill: rgb(0,0,0);stroke: none;"></path>
  <path d="M25.484497 66.621613L24.812454 67.497849L24.324142 69.739822L24.305618 72.034286L24.767700 73.037231C26.637299 73.530411,28.396057 73.972153,30.099670 74.373459L30.771713 73.497223L31.260025 71.255249L31.278549 68.960785L30.816467 67.957840C29.112854 67.556534,27.354095 67.114792,25.484497 66.621613Z" style="fill: rgb(0,0,0);stroke: none;"></path>
  <path d="M27.928589 67.258926L27.268082 68.143875L26.809143 70.392014L26.820633 72.686508L27.295807 73.683304C29.076080 74.131973,30.770844 74.534210,32.435776 74.901031L33.096283 74.016083L33.555222 71.767944L33.543732 69.473450L33.068558 68.476654C31.403625 68.109833,29.708862 67.707596,27.928589 67.258926Z" style="fill: rgb(0,0,0);stroke: none;"></path>
  <path d="M30.265823 67.838989L29.616959 68.732513L29.187515 70.986496L29.229080 73.280640L29.717270 74.271149C31.431381 74.679901,33.085281 75.047226,34.734665 75.384140L35.383530 74.490616L35.812973 72.236633L35.771408 69.942490L35.283218 68.951981C33.633835 68.615067,31.979935 68.247742,30.265823 67.838989Z" style="fill: rgb(0,0,0);stroke: none;"></path>
  <path d="M32.529160 68.368469L31.892044 69.270401L31.492126 71.529800L31.563705 73.823196L32.064804 74.807220C33.735641 75.180588,35.371597 75.517517,37.028351 75.829041L37.665466 74.927109L38.065384 72.667709L37.993805 70.374313L37.492706 69.390289C35.835953 69.078766,34.199997 68.741837,32.529160 68.368469Z" style="fill: rgb(0,0,0);stroke: none;"></path>
  <path d="M34.749176 68.853317L34.123917 69.763519L33.753616 72.027954L33.855209 74.320221L34.369141 75.297592C36.019821 75.640121,37.660934 75.951233,39.348175 76.241943L39.973434 75.331741L40.343735 73.067307L40.242142 70.775040L39.728210 69.797668C38.040970 69.506958,36.399857 69.195847,34.749176 68.853317Z" style="fill: rgb(0,0,0);stroke: none;"></path>
  <path d="M36.957291 69.299774L36.344009 70.218079L36.003403 72.487167L36.134995 74.777924L36.661697 75.748474C38.315155 76.064713,39.984360 76.354538,41.725006 76.628967L42.338287 75.710663L42.678894 73.441574L42.547302 71.150818L42.020599 70.180267C40.279953 69.905838,38.610748 69.616013,36.957291 69.299774Z" style="fill: rgb(0,0,0);stroke: none;"></path>
  <path d="M39.184921 69.714005L38.583710 70.640274L38.272812 72.913635L38.434387 75.202469L38.973740 76.166061C40.653030 76.460571,42.373398 76.733688,44.190552 76.996399L44.791763 76.070129L45.102661 73.796768L44.941086 71.507935L44.401733 70.544342C42.584579 70.281631,40.864212 70.008514,39.184921 69.714005Z" style="fill: rgb(0,0,0);stroke: none;"></path>
  <path d="M41.462753 70.102203L40.873703 71.036255L40.592575 73.313461L40.784073 75.599976L41.335983 76.556427C43.064117 76.833755,44.858627 77.094681,46.775208 77.350220L47.364258 76.416168L47.645386 74.138962L47.453888 71.852448L46.901978 70.895996C44.985397 70.640457,43.190887 70.379532,41.462753 70.102203Z" style="fill: rgb(0,0,0);stroke: none;"></path>
  <path d="M43.823532 70.470688L43.246765 71.412369L42.995468 73.693115L43.216888 75.976944L43.781265 76.926102C45.090363 77.118607,46.447952 77.305084,47.875488 77.489777L48.452255 76.548096L48.703552 74.267349L48.482132 71.983521L47.917755 71.034363C46.490219 70.849670,45.132629 70.663193,43.823532 70.470688Z" style="fill: rgb(0,0,0);stroke: none;"></path>
</svg>
