<?xml version="1.0"?>
<!-- Created by MetaPost 2.11 on 2026.02.09:1107 -->
<svg version="1.1" xmlns="http://www.w3.org/2000/svg" xmlns:xlink="http://www.w3.org/1999/xlink" width="57.832626" height="78.993286" viewBox="0 0 57.832626 78.993286">
<!-- Original BoundingBox: -3.227753 -39.093170 54.604874 39.900116 -->
  <path d="M46.266296 15.989929C46.266296 5.945404,36.369156 4.034698,24.747025 4.034698C11.030701 4.034698,3.227753 13.731339,3.227753 27.945160C3.227753 42.158981,11.030701 51.855621,24.747025 51.855621C36.369156 51.855621,46.266296 49.944916,46.266296 39.900391" style="stroke:rgb(0,0,0); stroke-width: 6.455505;stroke-linecap: round;stroke-linejoin: round;stroke-miterlimit: 10.000000;fill: none;"></path>
  <path d="M46.266296 75.765533L46.266296 39.900391" style="stroke:rgb(0,0,0); stroke-width: 6.455505;stroke-linecap: round;stroke-linejoin: round;stroke-miterlimit: 10.000000;fill: none;"></path>
  <path d="M35.506912 72.537781L34.936325 73.483215L34.699966 75.765533L34.936325 78.047852L35.506912 78.993286L57.025681 78.993286L57.596268 78.047852L57.832626 75.765533L57.596268 73.483215L57.025681 72.537781Z" style="fill: rgb(0,0,0);stroke: none;"></path>
  <path d="M49.494049 0.806946L48.548615 0.236359L46.266296 -0.000000L43.983978 0.236359L43.038544 0.806946L43.038544 15.989655L43.983978 16.560242L46.266296 16.796600L48.548615 16.560242L49.494049 15.989655Z" style="fill: rgb(0,0,0);stroke: none;"></path>
</svg>
