<?xml version="1.0"?>
<!-- Created by MetaPost 2.11 on 2026.02.09:1107 -->
<svg version="1.1" xmlns="http://www.w3.org/2000/svg" xmlns:xlink="http://www.w3.org/1999/xlink" width="55.411316" height="78.186340" viewBox="0 0 55.411316 78.186340">
<!-- Original BoundingBox: -43.844986 -39.093170 11.566330 39.093170 -->
  <path d="M43.844986 74.958588L43.844986 3.227753" style="stroke:rgb(0,0,0); stroke-width: 6.455505;stroke-linecap: round;stroke-linejoin: round;stroke-miterlimit: 10.000000;fill: none;"></path>
  <path d="M33.085602 71.730835L32.515015 72.676270L32.278656 74.958588L32.515015 77.240906L33.085602 78.186340L54.604370 78.186340L55.174957 77.240906L55.411316 74.958588L55.174957 72.676270L54.604370 71.730835Z" style="fill: rgb(0,0,0);stroke: none;"></path>
  <path d="M54.604370 6.455505L55.174957 5.510071L55.411316 3.227753L55.174957 0.945435L54.604370 -0.000000L0.806946 -0.000000L0.236359 0.945435L0.000000 3.227753L0.236359 5.510071L0.806946 6.455505Z" style="fill: rgb(0,0,0);stroke: none;"></path>
  <path d="M6.455521 3.227753L5.510086 2.657166L3.227768 2.420807L0.945450 2.657166L0.000015 3.227753C0.000015 6.847519,0.000015 9.381287,0.000015 13.001053L0.945450 13.571640L3.227768 13.807999L5.510086 13.571640L6.455521 13.001053C6.455521 9.381287,6.455521 6.847519,6.455521 3.227753Z" style="fill: rgb(0,0,0);stroke: none;"></path>
</svg>
