<?xml version="1.0"?>
<!-- Created by MetaPost 2.11 on 2026.02.09:1107 -->
<svg version="1.1" xmlns="http://www.w3.org/2000/svg" xmlns:xlink="http://www.w3.org/1999/xlink" width="87.152161" height="78.186340" viewBox="0 0 87.152161 78.186340">
<!-- Original BoundingBox: -43.576080 -39.093170 43.576080 39.093170 -->
  <path d="M43.576080 3.227753C29.834763 3.227753,19.367081 8.655319,19.367081 21.160461C19.367081 33.665604,29.834763 39.093170,43.576080 39.093170C57.317398 39.093170,67.785080 44.520737,67.785080 57.025879C67.785080 69.531021,57.317398 74.958588,43.576080 74.958588C29.834763 74.958588,19.367081 69.531021,19.367081 57.025879C19.367081 44.520737,29.834763 39.093170,43.576080 39.093170C57.317398 39.093170,67.785080 33.665604,67.785080 21.160461C67.785080 9.905899,55.943176 3.227753,43.576080 3.227753Z" style="stroke:rgb(0,0,0); stroke-width: 6.455505;stroke-linecap: round;stroke-linejoin: round;stroke-miterlimit: 10.000000;fill: none;"></path>
  <path d="M43.576080 39.093170C64.709625 39.093170,83.924408 38.860153,83.924408 57.025879" style="stroke:rgb(0,0,0); stroke-width: 6.455505;stroke-linecap: round;stroke-linejoin: round;stroke-miterlimit: 10.000000;fill: none;"></path>
  <path d="M43.576080 39.093170C22.442535 39.093170,3.227753 39.326187,3.227753 21.160461" style="stroke:rgb(0,0,0); stroke-width: 6.455505;stroke-linecap: round;stroke-linejoin: round;stroke-miterlimit: 10.000000;fill: none;"></path>
  <path d="M6.455505 17.932709L5.510071 17.362122L3.227753 17.125763L0.945435 17.362122L0.000000 17.932709L0.000000 21.160461L0.945435 21.731049L3.227753 21.967407L5.510071 21.731049L6.455505 21.160461Z" style="fill: rgb(0,0,0);stroke: none;"></path>
  <path d="M80.696655 60.253632L81.642090 60.824219L83.924408 61.060577L86.206726 60.824219L87.152161 60.253632L87.152161 57.025879L86.206726 56.455292L83.924408 56.218933L81.642090 56.455292L80.696655 57.025879Z" style="fill: rgb(0,0,0);stroke: none;"></path>
</svg>
