<?xml version="1.0"?>
<!-- Created by MetaPost 2.11 on 2026.02.09:1107 -->
<svg version="1.1" xmlns="http://www.w3.org/2000/svg" xmlns:xlink="http://www.w3.org/1999/xlink" width="57.832626" height="78.186890" viewBox="0 0 57.832626 78.186890">
<!-- Original BoundingBox: -46.266296 -39.093719 11.566330 39.093170 -->
  <g transform="matrix(-1.000000,-0.000000,-0.000000,1.000000,0.000000,0.000000)">
    <path d="M-3.227753 15.182983C-3.227753 5.138458,-13.124893 3.227753,-24.747025 3.227753C-38.463348 3.227753,-46.266296 12.924393,-46.266296 27.138214C-46.266296 44.849792,-46.266296 57.247559,-46.266296 74.959137" style="stroke:rgb(0,0,0); stroke-width: 6.455505;stroke-linecap: round;stroke-linejoin: round;stroke-miterlimit: 10.000000;fill: none;"></path>
  </g>
  <path d="M6.455505 3.227753L5.510071 2.657166L3.227753 2.420807L0.945435 2.657166L0.000000 3.227753L0.000000 15.182709L0.945435 15.753296L3.227753 15.989655L5.510071 15.753296L6.455505 15.182709Z" style="fill: rgb(0,0,0);stroke: none;"></path>
  <path d="M57.025681 78.186340L57.596268 77.240906L57.832626 74.958588L57.596268 72.676270L57.025681 71.730835L35.506912 71.730835L34.936325 72.676270L34.699966 74.958588L34.936325 77.240906L35.506912 78.186340Z" style="fill: rgb(0,0,0);stroke: none;"></path>
  <g transform="matrix(-1.000000,-0.000000,-0.000000,1.000000,0.000000,0.000000)">
    <path d="M-3.227753 15.182983C-3.227753 5.138458,-13.124893 3.227753,-24.747025 3.227753C-38.463348 3.227753,-46.266296 12.924393,-46.266296 27.138214C-46.266296 44.849792,-46.266296 57.247559,-46.266296 74.959137" style="stroke:rgb(0,0,0); stroke-width: 6.455505;stroke-linecap: round;stroke-linejoin: round;stroke-miterlimit: 10.000000;fill: none;"></path>
  </g>
  <path d="M6.455505 3.227753L5.510071 2.657166L3.227753 2.420807L0.945435 2.657166L0.000000 3.227753L0.000000 15.182709L0.945435 15.753296L3.227753 15.989655L5.510071 15.753296L6.455505 15.182709Z" style="fill: rgb(0,0,0);stroke: none;"></path>
  <path d="M57.025681 78.186340L57.596268 77.240906L57.832626 74.958588L57.596268 72.676270L57.025681 71.730835L35.506912 71.730835L34.936325 72.676270L34.699966 74.958588L34.936325 77.240906L35.506912 78.186340Z" style="fill: rgb(0,0,0);stroke: none;"></path>
</svg>
