<?xml version="1.0"?>
<!-- Created by MetaPost 2.11 on 2026.02.09:1107 -->
<svg version="1.1" xmlns="http://www.w3.org/2000/svg" xmlns:xlink="http://www.w3.org/1999/xlink" width="57.832626" height="78.186905" viewBox="0 0 57.832626 78.186905">
<!-- Original BoundingBox: -3.227753 -39.093719 54.604874 39.093185 -->
  <path d="M46.266296 15.182999C46.266296 5.138474,36.369156 3.227768,24.747025 3.227768C11.030701 3.227768,3.227753 12.924408,3.227753 27.138229C3.227753 35.994019,3.227753 42.192902,3.227753 51.048691C3.227753 65.262512,11.030701 74.959152,24.747025 74.959152C36.369156 74.959152,46.266296 73.048447,46.266296 63.003922" style="stroke:rgb(0,0,0); stroke-width: 6.455505;stroke-linecap: round;stroke-linejoin: round;stroke-miterlimit: 10.000000;fill: none;"></path>
  <path d="M49.494049 0.806946L48.548615 0.236359L46.266296 -0.000000L43.983978 0.236359L43.038544 0.806946L43.038544 77.379425L43.983978 77.950012L46.266296 78.186371L48.548615 77.950012L49.494049 77.379425Z" style="fill: rgb(0,0,0);stroke: none;"></path>
  <path d="M46.266296 0.000015L45.695709 0.945450L45.459351 3.227768L45.695709 5.510086L46.266296 6.455521L57.025681 6.455521L57.596268 5.510086L57.832626 3.227768L57.596268 0.945450L57.025681 0.000015Z" style="fill: rgb(0,0,0);stroke: none;"></path>
  <path d="M46.266296 71.730850L45.695709 72.676285L45.459351 74.958603L45.695709 77.240921L46.266296 78.186356L57.025681 78.186356L57.596268 77.240921L57.832626 74.958603L57.596268 72.676285L57.025681 71.730850Z" style="fill: rgb(0,0,0);stroke: none;"></path>
  <path d="M35.506409 21.519485L34.935822 22.464920L34.699463 24.747238L34.935822 27.029556L35.506409 27.974991L57.025177 27.974991L57.595764 27.029556L57.832123 24.747238L57.595764 22.464920L57.025177 21.519485Z" style="fill: rgb(0,0,0);stroke: none;"></path>
  <path d="M24.747025 3.227768C24.747025 14.676300,25.672867 24.747238,35.506409 24.747238" style="stroke:rgb(0,0,0); stroke-width: 6.455505;stroke-linecap: round;stroke-linejoin: round;stroke-miterlimit: 10.000000;fill: none;"></path>
</svg>
