<?xml version="1.0"?>
<!-- Created by MetaPost 2.11 on 2026.02.09:1107 -->
<svg version="1.1" xmlns="http://www.w3.org/2000/svg" xmlns:xlink="http://www.w3.org/1999/xlink" width="9.414642" height="18.410461" viewBox="0 0 9.414642 18.410461">
<!-- Original BoundingBox: -6.186890 -51.048126 3.227753 -32.637665 -->
  <path d="M6.186890 3.227753l0 0" style="stroke:rgb(0,0,0); stroke-width: 6.455505;stroke-linecap: round;stroke-linejoin: round;stroke-miterlimit: 10.000000;fill: none;"></path>
  <path d="M6.993835 3.227753L6.757477 0.945435L6.186890 -0.000000L5.616302 0.945435L5.379944 3.227753C5.379944 3.979111,5.345398 4.696075,5.274231 5.383286L5.510590 3.100967C5.281830 5.309952,4.674606 7.211472,3.619614 8.959564L4.190201 8.014130C3.354736 9.398453,2.238464 10.686554,0.806946 11.954956L0.236359 12.900391L0.000000 15.182709L0.236359 17.465027L0.806946 18.410461C2.238464 17.142059,3.354736 15.853958,4.190201 14.469635L4.760788 13.524200C5.815796 11.776108,6.423004 9.874588,6.651764 7.665604L6.888123 5.383286C6.959290 4.696075,6.993835 3.979111,6.993835 3.227753Z" style="fill: rgb(0,0,0);stroke: none;"></path>
</svg>
