<?xml version="1.0"?>
<!-- Created by MetaPost 2.11 on 2026.02.09:1107 -->
<svg version="1.1" xmlns="http://www.w3.org/2000/svg" xmlns:xlink="http://www.w3.org/1999/xlink" width="71.012817" height="78.186340" viewBox="0 0 71.012817 78.186340">
<!-- Original BoundingBox: -35.506409 -39.093170 35.506409 39.093170 -->
  <path d="M10.079758 15.134750C5.597839 21.276855,3.227753 29.498978,3.227753 39.093170C3.227753 60.413742,14.932083 74.958588,35.506409 74.958588C56.080734 74.958588,67.785065 60.413742,67.785065 39.093170C67.785065 17.772598,56.080734 3.227753,35.506409 3.227753C32.109528 3.227753,29.607910 5.940994,27.322479 8.480377C24.295853 11.843307,22.595139 16.404205,22.595139 21.160461C22.595139 25.916718,24.295853 30.477615,27.322479 33.840546C37.666916 45.334396,54.848816 47.564865,67.785065 39.093170" style="stroke:rgb(0,0,0); stroke-width: 6.455505;stroke-linecap: round;stroke-linejoin: round;stroke-miterlimit: 10.000000;fill: none;"></path>
  <path d="M15.660355 13.638046L15.395309 12.566055L13.948593 10.785080L12.167618 9.338364L11.095627 9.073318C9.893845 10.225067,8.793518 11.487305,7.797485 12.852280L8.062531 13.924271L9.509247 15.705246L11.290222 17.151962L12.362213 17.417007C13.358246 16.052032,14.458572 14.789795,15.660355 13.638046Z" style="fill: rgb(0,0,0);stroke: none;"></path>
</svg>
