<?xml version="1.0"?>
<!-- Created by MetaPost 2.11 on 2026.02.09:1107 -->
<svg version="1.1" xmlns="http://www.w3.org/2000/svg" xmlns:xlink="http://www.w3.org/1999/xlink" width="25.235443" height="30.694611" viewBox="0 0 25.235443 30.694611">
<!-- Original BoundingBox: -12.617722 6.363678 12.617722 30.694611 -->
  <path d="M9.389969 12.761902L10.335403 13.332489L12.617722 13.568848L14.900040 13.332489L15.845474 12.761902L15.845474 0.806946L14.900040 0.236359L12.617722 -0.000000L10.335403 0.236359L9.389969 0.806946Z" style="fill: rgb(0,0,0);stroke: none;"></path>
  <path d="M11.620285 15.831650L12.455093 15.108826L13.385162 13.011261L13.865677 10.767639L13.615158 9.692154L2.245392 5.997818L1.410583 6.720642L0.480515 8.818207L0.000000 11.061829L0.250519 12.137314Z" style="fill: rgb(0,0,0);stroke: none;"></path>
  <path d="M15.229034 14.659119L14.799561 13.641785L13.092026 12.109070L11.106659 10.958771L10.006409 10.864685L2.979477 20.536499L3.408951 21.553833L5.116486 23.086548L7.101852 24.236847L8.202103 24.330933Z" style="fill: rgb(0,0,0);stroke: none;"></path>
  <path d="M15.229034 10.864685L14.128784 10.958771L12.143417 12.109070L10.435883 13.641785L10.006409 14.659119L17.033340 24.330933L18.133591 24.236847L20.118958 23.086548L21.826492 21.553833L22.255966 20.536499Z" style="fill: rgb(0,0,0);stroke: none;"></path>
  <path d="M11.620285 9.692154L11.369766 10.767639L11.850281 13.011261L12.780350 15.108826L13.615158 15.831650L24.984924 12.137314L25.235443 11.061829L24.754929 8.818207L23.824860 6.720642L22.990051 5.997818Z" style="fill: rgb(0,0,0);stroke: none;"></path>
</svg>
