<?xml version="1.0"?>
<!-- Created by MetaPost 2.11 on 2026.02.09:1107 -->
<svg version="1.1" xmlns="http://www.w3.org/2000/svg" xmlns:xlink="http://www.w3.org/1999/xlink" width="33.892548" height="37.479309" viewBox="0 0 33.892548 37.479309">
<!-- Original BoundingBox: -16.946274 -18.739655 16.946274 18.739655 -->
  <path d="M0.806946 6.545547L0.236359 7.490982L0.000000 9.773300L0.236359 12.055618L0.806946 13.001053L33.085602 13.001053L33.656189 12.055618L33.892548 9.773300L33.656189 7.490982L33.085602 6.545547Z" style="fill: rgb(0,0,0);stroke: none;"></path>
  <path d="M0.806946 24.478256L0.236359 25.423691L0.000000 27.706009L0.236359 29.988327L0.806946 30.933762L33.085602 30.933762L33.656189 29.988327L33.892548 27.706009L33.656189 25.423691L33.085602 24.478256Z" style="fill: rgb(0,0,0);stroke: none;"></path>
  <path d="M12.104355 0.806946L11.158920 0.236359L8.876602 -0.000000L6.594284 0.236359L5.648849 0.806946L5.648849 36.672363L6.594284 37.242950L8.876602 37.479309L11.158920 37.242950L12.104355 36.672363Z" style="fill: rgb(0,0,0);stroke: none;"></path>
  <path d="M28.243698 0.806946L27.298264 0.236359L25.015945 -0.000000L22.733627 0.236359L21.788193 0.806946L21.788193 36.672363L22.733627 37.242950L25.015945 37.479309L27.298264 37.242950L28.243698 36.672363Z" style="fill: rgb(0,0,0);stroke: none;"></path>
</svg>
