<?xml version="1.0"?>
<!-- Created by MetaPost 2.11 on 2026.02.09:1107 -->
<svg version="1.1" xmlns="http://www.w3.org/2000/svg" xmlns:xlink="http://www.w3.org/1999/xlink" width="55.411316" height="78.186340" viewBox="0 0 55.411316 78.186340">
<!-- Original BoundingBox: -11.566330 -39.093170 43.844986 39.093170 -->
  <g transform="matrix(-1.000000,-0.000000,-0.000000,-1.000000,0.000000,0.000000)">
    <path d="M-11.566330 -3.227753L-11.566330 -74.958588" style="stroke:rgb(0,0,0); stroke-width: 6.455505;stroke-linecap: round;stroke-linejoin: round;stroke-miterlimit: 10.000000;fill: none;"></path>
  </g>
  <path d="M22.325714 6.455505L22.896301 5.510071L23.132660 3.227753L22.896301 0.945435L22.325714 -0.000000L0.806946 -0.000000L0.236359 0.945435L0.000000 3.227753L0.236359 5.510071L0.806946 6.455505Z" style="fill: rgb(0,0,0);stroke: none;"></path>
  <path d="M0.806946 71.730835L0.236359 72.676270L0.000000 74.958588L0.236359 77.240906L0.806946 78.186340L54.604370 78.186340L55.174957 77.240906L55.411316 74.958588L55.174957 72.676270L54.604370 71.730835Z" style="fill: rgb(0,0,0);stroke: none;"></path>
  <path d="M48.955795 74.958588L49.901230 75.529175L52.183548 75.765533L54.465866 75.529175L55.411301 74.958588C55.411301 71.338821,55.411301 68.805054,55.411301 65.185287L54.465866 64.614700L52.183548 64.378342L49.901230 64.614700L48.955795 65.185287C48.955795 68.805054,48.955795 71.338821,48.955795 74.958588Z" style="fill: rgb(0,0,0);stroke: none;"></path>
  <g transform="matrix(-1.000000,-0.000000,-0.000000,-1.000000,0.000000,0.000000)">
    <path d="M-11.566330 -3.227753L-11.566330 -74.958588" style="stroke:rgb(0,0,0); stroke-width: 6.455505;stroke-linecap: round;stroke-linejoin: round;stroke-miterlimit: 10.000000;fill: none;"></path>
  </g>
  <path d="M22.325714 6.455505L22.896301 5.510071L23.132660 3.227753L22.896301 0.945435L22.325714 -0.000000L0.806946 -0.000000L0.236359 0.945435L0.000000 3.227753L0.236359 5.510071L0.806946 6.455505Z" style="fill: rgb(0,0,0);stroke: none;"></path>
  <path d="M0.806946 71.730835L0.236359 72.676270L0.000000 74.958588L0.236359 77.240906L0.806946 78.186340L54.604370 78.186340L55.174957 77.240906L55.411316 74.958588L55.174957 72.676270L54.604370 71.730835Z" style="fill: rgb(0,0,0);stroke: none;"></path>
  <path d="M48.955795 74.958588L49.901230 75.529175L52.183548 75.765533L54.465866 75.529175L55.411301 74.958588C55.411301 71.338821,55.411301 68.805054,55.411301 65.185287L54.465866 64.614700L52.183548 64.378342L49.901230 64.614700L48.955795 65.185287C48.955795 68.805054,48.955795 71.338821,48.955795 74.958588Z" style="fill: rgb(0,0,0);stroke: none;"></path>
</svg>
