<?xml version="1.0"?>
<!-- Created by MetaPost 2.11 on 2026.02.09:1107 -->
<svg version="1.1" xmlns="http://www.w3.org/2000/svg" xmlns:xlink="http://www.w3.org/1999/xlink" width="33.462555" height="78.186340" viewBox="0 0 33.462555 78.186340">
<!-- Original BoundingBox: -16.731277 -39.093170 16.731277 39.093170 -->
  <path d="M16.731277 74.958588L16.731277 3.227753" style="stroke:rgb(0,0,0); stroke-width: 6.455505;stroke-linecap: round;stroke-linejoin: round;stroke-miterlimit: 10.000000;fill: none;"></path>
  <path d="M5.971893 -0.000000L5.401306 0.945435L5.164948 3.227753L5.401306 5.510071L5.971893 6.455505L27.490662 6.455505L28.061249 5.510071L28.297607 3.227753L28.061249 0.945435L27.490662 -0.000000Z" style="fill: rgb(0,0,0);stroke: none;"></path>
  <path d="M5.971893 71.730835L5.401306 72.676270L5.164948 74.958588L5.401306 77.240906L5.971893 78.186340L27.490662 78.186340L28.061249 77.240906L28.297607 74.958588L28.061249 72.676270L27.490662 71.730835Z" style="fill: rgb(0,0,0);stroke: none;"></path>
  <path d="M1.977264 31.798233L1.181427 32.563766L0.362411 34.707153L0.000000 36.972885L0.306458 38.033768L31.485291 46.388107L32.281128 45.622574L33.100143 43.479187L33.462555 41.213455L33.156097 40.152573Z" style="fill: rgb(0,0,0);stroke: none;"></path>
</svg>
