<?xml version="1.0"?>
<!-- Created by MetaPost 2.11 on 2026.02.09:1107 -->
<svg version="1.1" xmlns="http://www.w3.org/2000/svg" xmlns:xlink="http://www.w3.org/1999/xlink" width="49.494553" height="79.800232" viewBox="0 0 49.494553 79.800232">
<!-- Original BoundingBox: -3.228256 -39.900116 46.266296 39.900116 -->
  <path d="M46.266800 15.989929C46.266800 5.945404,36.369659 4.034698,24.747528 4.034698C11.031204 4.034698,3.228256 13.731339,3.228256 27.945160C3.228256 37.989685,13.125397 39.900391,24.747528 39.900391" style="stroke:rgb(0,0,0); stroke-width: 6.455505;stroke-linecap: round;stroke-linejoin: round;stroke-miterlimit: 10.000000;fill: none;"></path>
  <path d="M3.227753 63.810303C3.227753 73.854828,13.124893 75.765533,24.747025 75.765533C38.463348 75.765533,46.266296 66.068893,46.266296 51.855072C46.266296 41.810547,36.369156 39.899841,24.747025 39.899841" style="stroke:rgb(0,0,0); stroke-width: 6.455505;stroke-linecap: round;stroke-linejoin: round;stroke-miterlimit: 10.000000;fill: none;"></path>
  <path d="M49.494553 0.806946L48.549118 0.236359L46.266800 -0.000000L43.984482 0.236359L43.039047 0.806946L43.039047 15.989655L43.984482 16.560242L46.266800 16.796600L48.549118 16.560242L49.494553 15.989655Z" style="fill: rgb(0,0,0);stroke: none;"></path>
  <path d="M0.000000 78.993286L0.945435 79.563873L3.227753 79.800232L5.510071 79.563873L6.455505 78.993286L6.455505 63.810577L5.510071 63.239990L3.227753 63.003632L0.945435 63.239990L0.000000 63.810577Z" style="fill: rgb(0,0,0);stroke: none;"></path>
</svg>
