<?xml version="1.0"?>
<!-- Created by MetaPost 2.11 on 2026.02.09:1107 -->
<svg version="1.1" xmlns="http://www.w3.org/2000/svg" xmlns:xlink="http://www.w3.org/1999/xlink" width="71.281738" height="78.186340" viewBox="0 0 71.281738 78.186340">
<!-- Original BoundingBox: -35.506409 -39.093170 35.775330 39.093170 -->
  <path d="M35.506409 74.958588L35.506409 3.227753" style="stroke:rgb(0,0,0); stroke-width: 6.455505;stroke-linecap: round;stroke-linejoin: round;stroke-miterlimit: 10.000000;fill: none;"></path>
  <path d="M24.747025 -0.000000L24.176437 0.945435L23.940079 3.227753L24.176437 5.510071L24.747025 6.455505L46.265793 6.455505L46.836380 5.510071L47.072739 3.227753L46.836380 0.945435L46.265793 -0.000000Z" style="fill: rgb(0,0,0);stroke: none;"></path>
  <path d="M24.747025 71.730835L24.176437 72.676270L23.940079 74.958588L24.176437 77.240906L24.747025 78.186340L46.265793 78.186340L46.836380 77.240906L47.072739 74.958588L46.836380 72.676270L46.265793 71.730835Z" style="fill: rgb(0,0,0);stroke: none;"></path>
  <path d="M35.506409 39.093170C35.506409 28.432877,29.654251 21.160461,19.367081 21.160461C9.079910 21.160461,3.227753 28.432877,3.227753 39.093170C3.227753 54.159836,18.073349 57.025879,35.506409 57.025879C50.184631 57.025879,59.715408 48.203979,59.715408 33.713577L59.715408 21.160461" style="stroke:rgb(0,0,0); stroke-width: 6.455505;stroke-linecap: round;stroke-linejoin: round;stroke-miterlimit: 10.000000;fill: none;"></path>
  <path d="M48.956024 17.932709L48.385437 18.878143L48.149078 21.160461L48.385437 23.442780L48.956024 24.388214L70.474792 24.388214L71.045380 23.442780L71.281738 21.160461L71.045380 18.878143L70.474792 17.932709Z" style="fill: rgb(0,0,0);stroke: none;"></path>
</svg>
