<?xml version="1.0"?>
<!-- Created by MetaPost 2.11 on 2026.02.09:1107 -->
<svg version="1.1" xmlns="http://www.w3.org/2000/svg" xmlns:xlink="http://www.w3.org/1999/xlink" width="34.968475" height="38.555237" viewBox="0 0 34.968475 38.555237">
<!-- Original BoundingBox: -17.484238 -19.277618 17.484238 19.277618 -->
  <path d="M1.344910 4.931671L0.393936 6.507401L0.000000 10.311264L0.393936 14.115128L1.344910 15.690857L33.623566 15.690857L34.574539 14.115128L34.968475 10.311264L34.574539 6.507401L33.623566 4.931671Z" style="fill: rgb(0,0,0);stroke: none;"></path>
  <path d="M1.344910 22.864380L0.393936 24.440109L0.000000 28.243973L0.393936 32.047836L1.344910 33.623566L33.623566 33.623566L34.574539 32.047836L34.968475 28.243973L34.574539 24.440109L33.623566 22.864380Z" style="fill: rgb(0,0,0);stroke: none;"></path>
  <path d="M14.794159 1.344910L13.218430 0.393936L9.414566 -0.000000L5.610703 0.393936L4.034973 1.344910L4.034973 37.210327L5.610703 38.161301L9.414566 38.555237L13.218430 38.161301L14.794159 37.210327Z" style="fill: rgb(0,0,0);stroke: none;"></path>
  <path d="M30.933502 1.344910L29.357773 0.393936L25.553909 -0.000000L21.750046 0.393936L20.174316 1.344910L20.174316 37.210327L21.750046 38.161301L25.553909 38.555237L29.357773 38.161301L30.933502 37.210327Z" style="fill: rgb(0,0,0);stroke: none;"></path>
</svg>
