<?xml version="1.0"?>
<!-- Created by MetaPost 2.11 on 2026.02.09:1107 -->
<svg version="1.1" xmlns="http://www.w3.org/2000/svg" xmlns:xlink="http://www.w3.org/1999/xlink" width="67.246841" height="82.490021" viewBox="0 0 67.246841 82.490021">
<!-- Original BoundingBox: -37.658249 -41.245010 29.588593 41.245010 -->
  <g transform="matrix(1.000000,-0.000000,-0.000000,-1.000000,0.000000,0.000000)">
    <path d="M37.658249 -5.379593L37.658249 -59.177719" style="stroke:rgb(0,0,0); stroke-width: 10.759186;stroke-linecap: round;stroke-linejoin: round;stroke-miterlimit: 10.000000;fill: none;"></path>
  </g>
  <path d="M26.898865 -0.000000L25.947891 1.575729L25.553955 5.379593L25.947891 9.183456L26.898865 10.759186L48.417633 10.759186L49.368607 9.183456L49.762543 5.379593L49.368607 1.575729L48.417633 -0.000000Z" style="fill: rgb(0,0,0);stroke: none;"></path>
  <g transform="matrix(1.000000,-0.000000,-0.000000,-1.000000,0.000000,0.000000)">
    <path d="M37.658249 -59.177719C37.658249 -69.838013,31.806091 -77.110428,21.518921 -77.110428C11.231750 -77.110428,5.379593 -69.838013,5.379593 -59.177719C5.379593 -44.111053,20.225189 -41.245010,37.658249 -41.245010C52.336472 -41.245010,61.867249 -50.066910,61.867249 -64.557312" style="stroke:rgb(0,0,0); stroke-width: 10.759186;stroke-linecap: round;stroke-linejoin: round;stroke-miterlimit: 10.000000;fill: none;"></path>
  </g>
  <path d="M67.246841 64.557312L65.671112 63.606339L61.867249 63.212402L58.063385 63.606339L56.487656 64.557312L56.487656 78.455322L58.063385 79.406296L61.867249 79.800232L65.671112 79.406296L67.246841 78.455322Z" style="fill: rgb(0,0,0);stroke: none;"></path>
  <g transform="matrix(1.000000,-0.000000,-0.000000,-1.000000,0.000000,0.000000)">
    <path d="M37.658249 -5.379593L37.658249 -59.177719" style="stroke:rgb(0,0,0); stroke-width: 10.759186;stroke-linecap: round;stroke-linejoin: round;stroke-miterlimit: 10.000000;fill: none;"></path>
  </g>
  <path d="M26.898865 -0.000000L25.947891 1.575729L25.553955 5.379593L25.947891 9.183456L26.898865 10.759186L48.417633 10.759186L49.368607 9.183456L49.762543 5.379593L49.368607 1.575729L48.417633 -0.000000Z" style="fill: rgb(0,0,0);stroke: none;"></path>
  <g transform="matrix(1.000000,-0.000000,-0.000000,-1.000000,0.000000,0.000000)">
    <path d="M37.658249 -59.177719C37.658249 -69.838013,31.806091 -77.110428,21.518921 -77.110428C11.231750 -77.110428,5.379593 -69.838013,5.379593 -59.177719C5.379593 -44.111053,20.225189 -41.245010,37.658249 -41.245010C52.336472 -41.245010,61.867249 -50.066910,61.867249 -64.557312" style="stroke:rgb(0,0,0); stroke-width: 10.759186;stroke-linecap: round;stroke-linejoin: round;stroke-miterlimit: 10.000000;fill: none;"></path>
  </g>
  <path d="M67.246841 64.557312L65.671112 63.606339L61.867249 63.212402L58.063385 63.606339L56.487656 64.557312L56.487656 78.455322L58.063385 79.406296L61.867249 79.800232L65.671112 79.406296L67.246841 78.455322Z" style="fill: rgb(0,0,0);stroke: none;"></path>
</svg>
