<?xml version="1.0"?>
<!-- Created by MetaPost 2.11 on 2026.02.09:1107 -->
<svg version="1.1" xmlns="http://www.w3.org/2000/svg" xmlns:xlink="http://www.w3.org/1999/xlink" width="110.285172" height="82.490021" viewBox="0 0 110.285172 82.490021">
<!-- Original BoundingBox: -12.104294 -41.245010 98.180878 41.245010 -->
  <path d="M12.104294 53.199966C12.104294 67.413788,19.907242 77.110428,33.623566 77.110428C47.339890 77.110428,55.142838 67.413788,55.142838 53.199966" style="stroke:rgb(0,0,0); stroke-width: 10.759186;stroke-linecap: round;stroke-linejoin: round;stroke-miterlimit: 10.000000;fill: none;"></path>
  <path d="M55.142334 53.199966C55.142334 67.413788,62.945282 77.110428,76.661606 77.110428C90.377930 77.110428,98.180878 67.413788,98.180878 53.199966" style="stroke:rgb(0,0,0); stroke-width: 10.759186;stroke-linecap: round;stroke-linejoin: round;stroke-miterlimit: 10.000000;fill: none;"></path>
  <path d="M17.483887 5.379593L15.908157 4.428619L12.104294 4.034683L8.300430 4.428619L6.724701 5.379593L6.724701 53.199966L8.300430 54.150940L12.104294 54.544876L15.908157 54.150940L17.483887 53.199966Z" style="fill: rgb(0,0,0);stroke: none;"></path>
  <path d="M60.521927 5.379593L58.946198 4.428619L55.142334 4.034683L51.338470 4.428619L49.762741 5.379593L49.762741 53.199966L51.338470 54.150940L55.142334 54.544876L58.946198 54.150940L60.521927 53.199966Z" style="fill: rgb(0,0,0);stroke: none;"></path>
  <path d="M103.560471 5.379593L101.984741 4.428619L98.180878 4.034683L94.377014 4.428619L92.801285 5.379593L92.801285 53.199966L94.377014 54.150940L98.180878 54.544876L101.984741 54.150940L103.560471 53.199966Z" style="fill: rgb(0,0,0);stroke: none;"></path>
  <path d="M1.344910 -0.000000L0.393936 1.575729L0.000000 5.379593L0.393936 9.183456L1.344910 10.759186L22.863678 10.759186L23.814651 9.183456L24.208588 5.379593L23.814651 1.575729L22.863678 -0.000000Z" style="fill: rgb(0,0,0);stroke: none;"></path>
  <path d="M44.382950 -0.000000L43.431976 1.575729L43.038040 5.379593L43.431976 9.183456L44.382950 10.759186L65.901718 10.759186L66.852692 9.183456L67.246628 5.379593L66.852692 1.575729L65.901718 -0.000000Z" style="fill: rgb(0,0,0);stroke: none;"></path>
  <path d="M87.421494 -0.000000L86.470520 1.575729L86.076584 5.379593L86.470520 9.183456L87.421494 10.759186L108.940262 10.759186L109.891235 9.183456L110.285172 5.379593L109.891235 1.575729L108.940262 -0.000000Z" style="fill: rgb(0,0,0);stroke: none;"></path>
</svg>
