<?xml version="1.0"?>
<!-- Created by MetaPost 2.11 on 2026.02.09:1107 -->
<svg version="1.1" xmlns="http://www.w3.org/2000/svg" xmlns:xlink="http://www.w3.org/1999/xlink" width="60.522430" height="82.490570" viewBox="0 0 60.522430 82.490570">
<!-- Original BoundingBox: -48.418137 -41.245560 12.104294 41.245010 -->
  <g transform="matrix(-1.000000,-0.000000,-0.000000,1.000000,0.000000,0.000000)">
    <path d="M-5.379593 17.334824C-5.379593 7.290298,-15.276733 5.379593,-26.898865 5.379593C-40.615189 5.379593,-48.418137 15.076233,-48.418137 29.290054C-48.418137 47.001633,-48.418137 59.399399,-48.418137 77.110977" style="stroke:rgb(0,0,0); stroke-width: 10.759186;stroke-linecap: round;stroke-linejoin: round;stroke-miterlimit: 10.000000;fill: none;"></path>
  </g>
  <path d="M10.759186 5.379593L9.183456 4.428619L5.379593 4.034683L1.575729 4.428619L0.000000 5.379593L0.000000 17.334549L1.575729 18.285522L5.379593 18.679459L9.183456 18.285522L10.759186 17.334549Z" style="fill: rgb(0,0,0);stroke: none;"></path>
  <path d="M59.177521 82.490021L60.128494 80.914291L60.522430 77.110428L60.128494 73.306564L59.177521 71.730835L37.658752 71.730835L36.707779 73.306564L36.313843 77.110428L36.707779 80.914291L37.658752 82.490021Z" style="fill: rgb(0,0,0);stroke: none;"></path>
  <g transform="matrix(-1.000000,-0.000000,-0.000000,1.000000,0.000000,0.000000)">
    <path d="M-5.379593 17.334824C-5.379593 7.290298,-15.276733 5.379593,-26.898865 5.379593C-40.615189 5.379593,-48.418137 15.076233,-48.418137 29.290054C-48.418137 47.001633,-48.418137 59.399399,-48.418137 77.110977" style="stroke:rgb(0,0,0); stroke-width: 10.759186;stroke-linecap: round;stroke-linejoin: round;stroke-miterlimit: 10.000000;fill: none;"></path>
  </g>
  <path d="M10.759186 5.379593L9.183456 4.428619L5.379593 4.034683L1.575729 4.428619L0.000000 5.379593L0.000000 17.334549L1.575729 18.285522L5.379593 18.679459L9.183456 18.285522L10.759186 17.334549Z" style="fill: rgb(0,0,0);stroke: none;"></path>
  <path d="M59.177521 82.490021L60.128494 80.914291L60.522430 77.110428L60.128494 73.306564L59.177521 71.730835L37.658752 71.730835L36.707779 73.306564L36.313843 77.110428L36.707779 80.914291L37.658752 82.490021Z" style="fill: rgb(0,0,0);stroke: none;"></path>
</svg>
