<?xml version="1.0"?>
<!-- Created by MetaPost 2.11 on 2026.02.09:1107 -->
<svg version="1.1" xmlns="http://www.w3.org/2000/svg" xmlns:xlink="http://www.w3.org/1999/xlink" width="53.797729" height="82.490021" viewBox="0 0 53.797729 82.490021">
<!-- Original BoundingBox: -48.418137 -41.245010 5.379593 41.245010 -->
  <g transform="matrix(-1.000000,-0.000000,-0.000000,1.000000,0.000000,0.000000)">
    <path d="M-5.379593 17.334824C-5.379593 7.290298,-15.276733 5.379593,-26.898865 5.379593C-40.615189 5.379593,-48.418137 15.076233,-48.418137 29.290054C-48.418137 39.334579,-38.520996 41.245285,-26.898865 41.245285" style="stroke:rgb(0,0,0); stroke-width: 10.759186;stroke-linecap: round;stroke-linejoin: round;stroke-miterlimit: 10.000000;fill: none;"></path>
  </g>
  <g transform="matrix(-1.000000,-0.000000,-0.000000,1.000000,0.000000,0.000000)">
    <path d="M-5.379593 65.155197C-5.379593 75.199722,-15.276733 77.110428,-26.898865 77.110428C-40.615189 77.110428,-48.418137 67.413788,-48.418137 53.199966C-48.418137 43.155441,-38.520996 41.244736,-26.898865 41.244736" style="stroke:rgb(0,0,0); stroke-width: 10.759186;stroke-linecap: round;stroke-linejoin: round;stroke-miterlimit: 10.000000;fill: none;"></path>
  </g>
  <path d="M29.588730 29.290054L28.013000 28.339081L24.209137 27.945145L20.405273 28.339081L18.829544 29.290054L18.829544 53.199966L20.405273 54.150940L24.209137 54.544876L28.013000 54.150940L29.588730 53.199966Z" style="fill: rgb(0,0,0);stroke: none;"></path>
  <g transform="matrix(-1.000000,-0.000000,-0.000000,1.000000,0.000000,0.000000)">
    <path d="M-5.379593 17.334824C-5.379593 7.290298,-15.276733 5.379593,-26.898865 5.379593C-40.615189 5.379593,-48.418137 15.076233,-48.418137 29.290054C-48.418137 39.334579,-38.520996 41.245285,-26.898865 41.245285" style="stroke:rgb(0,0,0); stroke-width: 10.759186;stroke-linecap: round;stroke-linejoin: round;stroke-miterlimit: 10.000000;fill: none;"></path>
  </g>
  <g transform="matrix(-1.000000,-0.000000,-0.000000,1.000000,0.000000,0.000000)">
    <path d="M-5.379593 65.155197C-5.379593 75.199722,-15.276733 77.110428,-26.898865 77.110428C-40.615189 77.110428,-48.418137 67.413788,-48.418137 53.199966C-48.418137 43.155441,-38.520996 41.244736,-26.898865 41.244736" style="stroke:rgb(0,0,0); stroke-width: 10.759186;stroke-linecap: round;stroke-linejoin: round;stroke-miterlimit: 10.000000;fill: none;"></path>
  </g>
  <path d="M29.588730 29.290054L28.013000 28.339081L24.209137 27.945145L20.405273 28.339081L18.829544 29.290054L18.829544 53.199966L20.405273 54.150940L24.209137 54.544876L28.013000 54.150940L29.588730 53.199966Z" style="fill: rgb(0,0,0);stroke: none;"></path>
</svg>
