<?xml version="1.0"?>
<!-- Created by MetaPost 2.11 on 2026.02.09:1107 -->
<svg version="1.1" xmlns="http://www.w3.org/2000/svg" xmlns:xlink="http://www.w3.org/1999/xlink" width="53.797729" height="82.490021" viewBox="0 0 53.797729 82.490021">
<!-- Original BoundingBox: -5.379593 -41.245010 48.418137 41.245010 -->
  <path d="M48.418137 17.334824C48.418137 7.290298,38.520996 5.379593,26.898865 5.379593C13.182541 5.379593,5.379593 15.076233,5.379593 29.290054C5.379593 39.334579,15.276733 41.245285,26.898865 41.245285" style="stroke:rgb(0,0,0); stroke-width: 10.759186;stroke-linecap: round;stroke-linejoin: round;stroke-miterlimit: 10.000000;fill: none;"></path>
  <path d="M48.418137 65.155197C48.418137 75.199722,38.520996 77.110428,26.898865 77.110428C13.182541 77.110428,5.379593 67.413788,5.379593 53.199966C5.379593 43.155441,15.276733 41.244736,26.898865 41.244736" style="stroke:rgb(0,0,0); stroke-width: 10.759186;stroke-linecap: round;stroke-linejoin: round;stroke-miterlimit: 10.000000;fill: none;"></path>
  <path d="M34.968185 29.290054L33.392456 28.339081L29.588593 27.945145L25.784729 28.339081L24.209000 29.290054L24.209000 53.199966L25.784729 54.150940L29.588593 54.544876L33.392456 54.150940L34.968185 53.199966Z" style="fill: rgb(0,0,0);stroke: none;"></path>
</svg>
