<?xml version="1.0"?>
<!-- Created by MetaPost 2.11 on 2026.02.09:1107 -->
<svg version="1.1" xmlns="http://www.w3.org/2000/svg" xmlns:xlink="http://www.w3.org/1999/xlink" width="65.901871" height="82.490036" viewBox="0 0 65.901871 82.490036">
<!-- Original BoundingBox: -12.104294 -41.245010 53.797577 41.245026 -->
  <g transform="matrix(-1.000000,-0.000000,-0.000000,-1.000000,0.000000,0.000000)">
    <path d="M-12.104294 -5.379608L-12.104294 -77.110443" style="stroke:rgb(0,0,0); stroke-width: 10.759186;stroke-linecap: round;stroke-linejoin: round;stroke-miterlimit: 10.000000;fill: none;"></path>
  </g>
  <path d="M22.863678 82.490036L23.814651 80.914307L24.208588 77.110443L23.814651 73.306580L22.863678 71.730850L1.344910 71.730850L0.393936 73.306580L0.000000 77.110443L0.393936 80.914307L1.344910 82.490036Z" style="fill: rgb(0,0,0);stroke: none;"></path>
  <path d="M22.863678 10.759201L23.814651 9.183472L24.208588 5.379608L23.814651 1.575745L22.863678 0.000015L1.344910 0.000015L0.393936 1.575745L0.000000 5.379608L0.393936 9.183472L1.344910 10.759201Z" style="fill: rgb(0,0,0);stroke: none;"></path>
  <path d="M65.901871 1.344910L64.326141 0.393936L60.522278 -0.000000L56.718414 0.393936L55.142685 1.344910L55.142685 6.813980L56.718414 7.764954L60.522278 8.158890L64.326141 7.764954L65.901871 6.813980Z" style="fill: rgb(0,0,0);stroke: none;"></path>
  <g transform="matrix(-1.000000,-0.000000,-0.000000,-1.000000,0.000000,0.000000)">
    <path d="M-12.104294 -5.379608C-12.104294 -11.800522,-14.655380 -17.957672,-19.195297 -22.497604C-23.735229 -27.037521,-29.892380 -29.588608,-36.313293 -29.588608C-42.734207 -29.588608,-48.891357 -27.037521,-53.431290 -22.497604C-57.630936 -18.297943,-60.128708 -12.714417,-60.479538 -6.818359" style="stroke:rgb(0,0,0); stroke-width: 10.759186;stroke-linecap: round;stroke-linejoin: round;stroke-miterlimit: 10.000000;fill: none;"></path>
  </g>
  <g transform="matrix(-1.000000,-0.000000,-0.000000,-1.000000,0.000000,0.000000)">
    <path d="M-12.104294 -5.379608L-12.104294 -77.110443" style="stroke:rgb(0,0,0); stroke-width: 10.759186;stroke-linecap: round;stroke-linejoin: round;stroke-miterlimit: 10.000000;fill: none;"></path>
  </g>
  <path d="M22.863678 82.490036L23.814651 80.914307L24.208588 77.110443L23.814651 73.306580L22.863678 71.730850L1.344910 71.730850L0.393936 73.306580L0.000000 77.110443L0.393936 80.914307L1.344910 82.490036Z" style="fill: rgb(0,0,0);stroke: none;"></path>
  <path d="M22.863678 10.759201L23.814651 9.183472L24.208588 5.379608L23.814651 1.575745L22.863678 0.000015L1.344910 0.000015L0.393936 1.575745L0.000000 5.379608L0.393936 9.183472L1.344910 10.759201Z" style="fill: rgb(0,0,0);stroke: none;"></path>
  <path d="M65.901871 1.344910L64.326141 0.393936L60.522278 -0.000000L56.718414 0.393936L55.142685 1.344910L55.142685 6.813980L56.718414 7.764954L60.522278 8.158890L64.326141 7.764954L65.901871 6.813980Z" style="fill: rgb(0,0,0);stroke: none;"></path>
  <g transform="matrix(-1.000000,-0.000000,-0.000000,-1.000000,0.000000,0.000000)">
    <path d="M-12.104294 -5.379608C-12.104294 -11.800522,-14.655380 -17.957672,-19.195297 -22.497604C-23.735229 -27.037521,-29.892380 -29.588608,-36.313293 -29.588608C-42.734207 -29.588608,-48.891357 -27.037521,-53.431290 -22.497604C-57.630936 -18.297943,-60.128708 -12.714417,-60.479538 -6.818359" style="stroke:rgb(0,0,0); stroke-width: 10.759186;stroke-linecap: round;stroke-linejoin: round;stroke-miterlimit: 10.000000;fill: none;"></path>
  </g>
</svg>
