<?xml version="1.0"?>
<!-- Created by MetaPost 2.11 on 2026.02.09:1107 -->
<svg version="1.1" xmlns="http://www.w3.org/2000/svg" xmlns:xlink="http://www.w3.org/1999/xlink" width="53.797729" height="83.834930" viewBox="0 0 53.797729 83.834930">
<!-- Original BoundingBox: -48.418137 -41.245010 5.379593 42.589920 -->
  <g transform="matrix(-1.000000,-0.000000,-0.000000,1.000000,0.000000,0.000000)">
    <path d="M-26.898865 30.634415C-40.615189 30.634415,-48.418137 40.331055,-48.418137 54.544876C-48.418137 68.758698,-40.615189 78.455338,-26.898865 78.455338C-13.182541 78.455338,-5.379593 68.758698,-5.379593 54.544876C-5.379593 40.331055,-13.182541 30.634415,-26.898865 30.634415Z" style="stroke:rgb(0,0,0); stroke-width: 10.759186;stroke-linecap: round;stroke-linejoin: round;stroke-miterlimit: 10.000000;fill: none;"></path>
  </g>
  <g transform="matrix(-1.000000,-0.000000,-0.000000,1.000000,0.000000,0.000000)">
    <path d="M-48.418137 18.679733C-48.418137 8.635208,-38.520996 6.724503,-26.898865 6.724503C-13.182541 6.724503,-5.379593 16.421143,-5.379593 30.634964C-5.379593 39.490540,-5.379593 45.689301,-5.379593 54.544876C-5.379593 61.651779,-7.330322 67.629395,-10.995590 71.830276" style="stroke:rgb(0,0,0); stroke-width: 10.759186;stroke-linecap: round;stroke-linejoin: round;stroke-miterlimit: 10.000000;fill: none;"></path>
  </g>
  <path d="M53.797729 1.344910L52.222000 0.393936L48.418137 -0.000000L44.614273 0.393936L43.038544 1.344910L43.038544 18.679459L44.614273 19.630432L48.418137 20.024368L52.222000 19.630432L53.797729 18.679459Z" style="fill: rgb(0,0,0);stroke: none;"></path>
  <g transform="matrix(-1.000000,-0.000000,-0.000000,1.000000,0.000000,0.000000)">
    <path d="M-26.898865 30.634415C-40.615189 30.634415,-48.418137 40.331055,-48.418137 54.544876C-48.418137 68.758698,-40.615189 78.455338,-26.898865 78.455338C-13.182541 78.455338,-5.379593 68.758698,-5.379593 54.544876C-5.379593 40.331055,-13.182541 30.634415,-26.898865 30.634415Z" style="stroke:rgb(0,0,0); stroke-width: 10.759186;stroke-linecap: round;stroke-linejoin: round;stroke-miterlimit: 10.000000;fill: none;"></path>
  </g>
  <g transform="matrix(-1.000000,-0.000000,-0.000000,1.000000,0.000000,0.000000)">
    <path d="M-48.418137 18.679733C-48.418137 8.635208,-38.520996 6.724503,-26.898865 6.724503C-13.182541 6.724503,-5.379593 16.421143,-5.379593 30.634964C-5.379593 39.490540,-5.379593 45.689301,-5.379593 54.544876C-5.379593 61.651779,-7.330322 67.629395,-10.995590 71.830276" style="stroke:rgb(0,0,0); stroke-width: 10.759186;stroke-linecap: round;stroke-linejoin: round;stroke-miterlimit: 10.000000;fill: none;"></path>
  </g>
  <path d="M53.797729 1.344910L52.222000 0.393936L48.418137 -0.000000L44.614273 0.393936L43.038544 1.344910L43.038544 18.679459L44.614273 19.630432L48.418137 20.024368L52.222000 19.630432L53.797729 18.679459Z" style="fill: rgb(0,0,0);stroke: none;"></path>
</svg>
