<?xml version="1.0"?>
<!-- Created by MetaPost 2.11 on 2026.02.09:1107 -->
<svg version="1.1" xmlns="http://www.w3.org/2000/svg" xmlns:xlink="http://www.w3.org/1999/xlink" width="56.487244" height="82.490021" viewBox="0 0 56.487244 82.490021">
<!-- Original BoundingBox: -44.382950 -41.245010 12.104294 41.245010 -->
  <path d="M44.382950 77.110428L44.382950 5.379593" style="stroke:rgb(0,0,0); stroke-width: 10.759186;stroke-linecap: round;stroke-linejoin: round;stroke-miterlimit: 10.000000;fill: none;"></path>
  <path d="M33.623566 71.730835L32.672592 73.306564L32.278656 77.110428L32.672592 80.914291L33.623566 82.490021L55.142334 82.490021L56.093307 80.914291L56.487244 77.110428L56.093307 73.306564L55.142334 71.730835Z" style="fill: rgb(0,0,0);stroke: none;"></path>
  <path d="M55.142334 10.759186L56.093307 9.183456L56.487244 5.379593L56.093307 1.575729L55.142334 -0.000000L1.344910 -0.000000L0.393936 1.575729L0.000000 5.379593L0.393936 9.183456L1.344910 10.759186Z" style="fill: rgb(0,0,0);stroke: none;"></path>
  <path d="M10.759201 5.379593L9.183472 4.428619L5.379608 4.034683L1.575745 4.428619L0.000015 5.379593C0.000015 9.198593,0.000015 11.871841,0.000015 15.690842L1.575745 16.641815L5.379608 17.035751L9.183472 16.641815L10.759201 15.690842C10.759201 11.871841,10.759201 9.198593,10.759201 5.379593Z" style="fill: rgb(0,0,0);stroke: none;"></path>
</svg>
