<?xml version="1.0"?>
<!-- Created by MetaPost 2.11 on 2026.02.09:1107 -->
<svg version="1.1" xmlns="http://www.w3.org/2000/svg" xmlns:xlink="http://www.w3.org/1999/xlink" width="60.522430" height="82.490585" viewBox="0 0 60.522430 82.490585">
<!-- Original BoundingBox: -5.379593 -41.245560 55.142838 41.245026 -->
  <path d="M48.418137 17.334839C48.418137 7.290314,38.520996 5.379608,26.898865 5.379608C13.182541 5.379608,5.379593 15.076248,5.379593 29.290070C5.379593 38.145859,5.379593 44.344742,5.379593 53.200531C5.379593 67.414352,13.182541 77.110992,26.898865 77.110992C38.520996 77.110992,48.418137 75.200287,48.418137 65.155762" style="stroke:rgb(0,0,0); stroke-width: 10.759186;stroke-linecap: round;stroke-linejoin: round;stroke-miterlimit: 10.000000;fill: none;"></path>
  <path d="M53.797729 1.344910L52.222000 0.393936L48.418137 -0.000000L44.614273 0.393936L43.038544 1.344910L43.038544 81.145142L44.614273 82.096115L48.418137 82.490051L52.222000 82.096115L53.797729 81.145142Z" style="fill: rgb(0,0,0);stroke: none;"></path>
  <path d="M48.418137 0.000015L47.467163 1.575745L47.073227 5.379608L47.467163 9.183472L48.418137 10.759201L59.177521 10.759201L60.128494 9.183472L60.522430 5.379608L60.128494 1.575745L59.177521 0.000015Z" style="fill: rgb(0,0,0);stroke: none;"></path>
  <path d="M48.418137 71.730850L47.467163 73.306580L47.073227 77.110443L47.467163 80.914307L48.418137 82.490036L59.177521 82.490036L60.128494 80.914307L60.522430 77.110443L60.128494 73.306580L59.177521 71.730850Z" style="fill: rgb(0,0,0);stroke: none;"></path>
  <path d="M37.658249 21.519485L36.707275 23.095215L36.313339 26.899078L36.707275 30.702942L37.658249 32.278671L59.177017 32.278671L60.127991 30.702942L60.521927 26.899078L60.127991 23.095215L59.177017 21.519485Z" style="fill: rgb(0,0,0);stroke: none;"></path>
  <path d="M26.898865 5.379608C26.898865 16.828140,27.824707 26.899078,37.658249 26.899078" style="stroke:rgb(0,0,0); stroke-width: 10.759186;stroke-linecap: round;stroke-linejoin: round;stroke-miterlimit: 10.000000;fill: none;"></path>
</svg>
