<?xml version="1.0"?>
<!-- Created by MetaPost 2.11 on 2026.02.09:1107 -->
<svg version="1.1" xmlns="http://www.w3.org/2000/svg" xmlns:xlink="http://www.w3.org/1999/xlink" width="60.522430" height="82.490570" viewBox="0 0 60.522430 82.490570">
<!-- Original BoundingBox: -12.104294 -41.245010 48.418137 41.245560 -->
  <g transform="matrix(1.000000,-0.000000,-0.000000,-1.000000,0.000000,0.000000)">
    <path d="M55.142838 -65.155746C55.142838 -75.200272,45.245697 -77.110977,33.623566 -77.110977C19.907242 -77.110977,12.104294 -67.414337,12.104294 -53.200516C12.104294 -35.488937,12.104294 -23.091171,12.104294 -5.379593" style="stroke:rgb(0,0,0); stroke-width: 10.759186;stroke-linecap: round;stroke-linejoin: round;stroke-miterlimit: 10.000000;fill: none;"></path>
  </g>
  <path d="M60.522430 59.776154L58.946701 58.825180L55.142838 58.431244L51.338974 58.825180L49.763245 59.776154L49.763245 65.155746L51.338974 66.106720L55.142838 66.500656L58.946701 66.106720L60.522430 65.155746Z" style="fill: rgb(0,0,0);stroke: none;"></path>
  <path d="M1.344910 0.000549L0.393936 1.576279L0.000000 5.380142L0.393936 9.184006L1.344910 10.759735L22.863678 10.759735L23.814651 9.184006L24.208588 5.380142L23.814651 1.576279L22.863678 0.000549Z" style="fill: rgb(0,0,0);stroke: none;"></path>
  <g transform="matrix(1.000000,-0.000000,-0.000000,-1.000000,0.000000,0.000000)">
    <path d="M55.142838 -65.155746C55.142838 -75.200272,45.245697 -77.110977,33.623566 -77.110977C19.907242 -77.110977,12.104294 -67.414337,12.104294 -53.200516C12.104294 -35.488937,12.104294 -23.091171,12.104294 -5.379593" style="stroke:rgb(0,0,0); stroke-width: 10.759186;stroke-linecap: round;stroke-linejoin: round;stroke-miterlimit: 10.000000;fill: none;"></path>
  </g>
  <path d="M60.522430 59.776154L58.946701 58.825180L55.142838 58.431244L51.338974 58.825180L49.763245 59.776154L49.763245 65.155746L51.338974 66.106720L55.142838 66.500656L58.946701 66.106720L60.522430 65.155746Z" style="fill: rgb(0,0,0);stroke: none;"></path>
  <path d="M1.344910 0.000549L0.393936 1.576279L0.000000 5.380142L0.393936 9.184006L1.344910 10.759735L22.863678 10.759735L23.814651 9.184006L24.208588 5.380142L23.814651 1.576279L22.863678 0.000549Z" style="fill: rgb(0,0,0);stroke: none;"></path>
</svg>
