<?xml version="1.0"?>
<!-- Created by MetaPost 2.11 on 2026.02.09:1107 -->
<svg version="1.1" xmlns="http://www.w3.org/2000/svg" xmlns:xlink="http://www.w3.org/1999/xlink" width="54.028320" height="81.952042" viewBox="0 0 54.028320 81.952042">
<!-- Original BoundingBox: -48.648727 -40.707031 5.379593 41.245010 -->
  <path d="M43.269135 80.607132L44.844864 81.558105L48.648727 81.952042L52.452591 81.558105L54.028320 80.607132L54.028320 24.186478L52.452591 23.235504L48.648727 22.841568L44.844864 23.235504L43.269135 24.186478Z" style="fill: rgb(0,0,0);stroke: none;"></path>
  <path d="M3.238876 58.677063L1.920868 59.961639L0.579254 63.542816L0.000000 67.322906L0.522324 69.087708C1.804535 69.760300,3.033493 70.384628,4.229218 70.968506L5.547226 69.683929L6.888840 66.102753L7.468094 62.322662L6.945770 60.557861C5.750046 59.973984,4.521088 59.349655,3.238876 58.677063Z" style="fill: rgb(0,0,0);stroke: none;"></path>
  <path d="M4.122833 59.155350L2.821732 60.457062L1.527084 64.055466L0.997330 67.842834L1.542694 69.600632C3.270813 70.492935,4.907715 71.297668,6.505447 72.035172L7.806549 70.733459L9.101196 67.135056L9.630951 63.347687L9.085587 61.589890C7.487854 60.852386,5.850952 60.047653,4.122833 59.155350Z" style="fill: rgb(0,0,0);stroke: none;"></path>
  <path d="M6.359344 60.303391L5.075394 61.622009L3.827957 65.237045L3.347824 69.031006L3.916138 70.781509C5.572021 71.598373,7.160355 72.336914,8.733185 73.017487L10.017136 71.698868L11.264572 68.083832L11.744705 64.289871L11.176392 62.539368C9.603561 61.858795,8.015228 61.120255,6.359344 60.303391Z" style="fill: rgb(0,0,0);stroke: none;"></path>
  <path d="M8.511185 61.354919L7.244614 62.690231L6.044632 66.321274L5.614212 70.121170L6.205399 71.864075C7.810699 72.613983,9.372086 73.294815,10.941605 73.926895L12.208176 72.591583L13.408157 68.960541L13.838577 65.160645L13.247391 63.417740C11.677872 62.785660,10.116486 62.104828,8.511185 61.354919Z" style="fill: rgb(0,0,0);stroke: none;"></path>
  <path d="M10.609131 62.321960L9.360138 63.673737L8.207779 67.320221L7.827118 71.125458L8.441071 72.860504C10.017166 73.551788,11.572998 74.183243,13.160629 74.775192L14.409622 73.423416L15.561981 69.776932L15.942642 65.971695L15.328690 64.236649C13.741058 63.644699,12.185226 63.013245,10.609131 62.321960Z" style="fill: rgb(0,0,0);stroke: none;"></path>
  <path d="M12.681717 63.215805L11.450546 64.583817L10.346054 68.245056L10.015274 72.054916L10.651901 73.781754C12.220383 74.422867,13.792282 75.013382,15.419632 75.573639L16.650803 74.205627L17.755295 70.544388L18.086075 66.734528L17.449448 65.007690C15.822098 64.447433,14.250198 63.856918,12.681717 63.215805Z" style="fill: rgb(0,0,0);stroke: none;"></path>
  <path d="M14.758438 64.047836L13.545273 65.431839L12.488770 69.107178L12.207870 72.921036L12.867020 74.639389C14.449326 75.238693,16.058701 75.796646,17.747177 76.333572L18.960342 74.949570L20.016846 71.274231L20.297745 67.460373L19.638596 65.742020C17.950119 65.205093,16.340744 64.647141,14.758438 64.047836Z" style="fill: rgb(0,0,0);stroke: none;"></path>
  <path d="M16.868576 64.829391L15.673599 66.229156L14.665268 69.918076L14.434280 73.735321L15.115860 75.444931C16.733551 76.010849,18.401962 76.544662,20.173126 77.066696L21.368103 75.666931L22.376434 71.978012L22.607422 68.160767L21.925842 66.451157C20.154678 65.929123,18.486267 65.395309,16.868576 64.829391Z" style="fill: rgb(0,0,0);stroke: none;"></path>
  <path d="M19.040634 65.571915L17.864105 66.987228L16.904190 70.688995L16.723236 74.508926L17.427139 76.209457C19.101654 76.750381,20.850555 77.268448,22.725861 77.783966L23.902390 76.368652L24.862305 72.666885L25.043259 68.846954L24.339355 67.146423C22.464050 66.630905,20.715149 66.112839,19.040634 65.571915Z" style="fill: rgb(0,0,0);stroke: none;"></path>
  <path d="M21.305481 66.287231L20.147598 67.717804L19.236206 71.431824L19.105270 75.253784L19.831390 76.944946C21.106232 77.326294,22.432938 77.700424,23.831512 78.075165C24.355942 78.215683,24.871582 78.351227,25.379547 78.481964L26.537430 77.051392L27.448822 73.337372L27.579758 69.515411L26.853638 67.824249C26.345673 67.693512,25.830032 67.557968,25.305603 67.417450C23.907028 67.042709,22.580322 66.668579,21.305481 66.287231Z" style="fill: rgb(0,0,0);stroke: none;"></path>
  <path d="M23.691803 66.986526L22.552719 68.432144L21.690002 72.157761L21.609055 75.981125L22.357239 77.662643C22.862518 77.803406,23.376846 77.943848,23.901276 78.084366C25.299850 78.459106,26.635880 78.798447,27.930603 79.105621L29.069687 77.660004L29.932404 73.934387L30.013351 70.111023L29.265167 68.429504C27.970444 68.122330,26.634415 67.782990,25.235840 67.408249C24.711411 67.267731,24.197083 67.127289,23.691803 66.986526Z" style="fill: rgb(0,0,0);stroke: none;"></path>
  <path d="M26.203629 67.674484L25.083572 69.134888L24.269699 72.871490L24.238815 76.695587L25.008957 78.367172C26.890793 78.858383,28.664413 79.284180,30.385056 79.652985L31.505112 78.192581L32.318985 74.455978L32.349869 70.631882L31.579727 68.960297C29.859085 68.591492,28.085464 68.165695,26.203629 67.674484Z" style="fill: rgb(0,0,0);stroke: none;"></path>
  <path d="M28.637970 68.297272L27.537125 69.772186L26.772217 73.519089L26.791397 77.343231L27.583313 79.004578C29.378128 79.438049,31.089844 79.809937,32.773697 80.128662L33.874542 78.653748L34.639450 74.906845L34.620270 71.082703L33.828354 69.421356C32.144501 69.102631,30.432785 68.730743,28.637970 68.297272Z" style="fill: rgb(0,0,0);stroke: none;"></path>
  <path d="M30.968399 68.844391L29.886963 70.333618L29.171219 74.090240L29.240479 77.913818L30.054123 79.564667C31.784882 79.943924,33.457626 80.265411,35.127625 80.537552L36.209061 79.048325L36.924805 75.291702L36.855545 71.468124L36.041901 69.817276C34.371902 69.545135,32.699158 69.223648,30.968399 68.844391Z" style="fill: rgb(0,0,0);stroke: none;"></path>
  <path d="M33.227692 69.321060L32.165848 70.824295L31.499329 74.589951L31.618637 78.412277L32.453796 80.052322C34.143188 80.380798,35.799683 80.655334,37.478531 80.884354L38.540375 79.381119L39.206894 75.615463L39.087585 71.793137L38.252426 70.153091C36.573578 69.924072,34.917084 69.649536,33.227692 69.321060Z" style="fill: rgb(0,0,0);stroke: none;"></path>
  <path d="M35.446091 69.731750L34.404007 71.248764L33.786835 75.022812L33.956161 78.843246L34.812729 80.472229C36.483688 80.753418,38.146866 80.984482,39.857498 81.173859L40.899582 79.656845L41.516754 75.882797L41.347427 72.062363L40.490860 70.433380C38.780228 70.244003,37.117050 70.012939,35.446091 69.731750Z" style="fill: rgb(0,0,0);stroke: none;"></path>
  <path d="M37.654785 70.081238L36.632660 71.611755L36.064957 75.393585L36.284302 79.211487L37.162109 80.829102C38.837372 81.066467,40.529968 81.257538,42.295120 81.410736L43.317245 79.880219L43.884949 76.098389L43.665604 72.280487L42.787796 70.662872C41.022644 70.509674,39.330048 70.318604,37.654785 70.081238Z" style="fill: rgb(0,0,0);stroke: none;"></path>
  <path d="M39.884949 70.374222L38.882919 71.917999L38.364761 75.706955L38.634048 79.521667L39.532959 81.127670C41.235413 81.324692,42.980301 81.479263,44.822876 81.599777L45.824905 80.056000L46.343063 76.267044L46.073776 72.452332L45.174866 70.846329C43.332291 70.725815,41.587402 70.571243,39.884949 70.374222Z" style="fill: rgb(0,0,0);stroke: none;"></path>
  <path d="M42.167007 70.615509L41.185272 72.172241L40.716705 75.967621L41.035858 79.778473L41.955704 81.372559C43.708130 81.532730,45.528091 81.654266,47.470825 81.745575L48.452560 80.188843L48.921127 76.393463L48.601974 72.582611L47.682129 70.988525C45.739395 70.897217,43.919434 70.775681,42.167007 70.615509Z" style="fill: rgb(0,0,0);stroke: none;"></path>
  <path d="M44.533417 70.809784L43.572144 72.379272L43.153305 76.180496L43.522339 79.986877L44.462982 81.568817C45.790451 81.661026,47.166916 81.734818,48.613632 81.793427L49.574905 80.223938L49.993744 76.422714L49.624710 72.616333L48.684067 71.034393C47.237350 70.975784,45.860886 70.901993,44.533417 70.809784Z" style="fill: rgb(0,0,0);stroke: none;"></path>
  <path d="M27.129456 5.379593C13.413132 5.379593,5.610184 15.076233,5.610184 29.290054C5.610184 43.503876,13.413132 53.200516,27.129456 53.200516C40.845779 53.200516,48.648727 43.503876,48.648727 29.290054C48.648727 15.076233,40.845779 5.379593,27.129456 5.379593Z" style="stroke:rgb(0,0,0); stroke-width: 10.759186;stroke-linecap: round;stroke-linejoin: round;stroke-miterlimit: 10.000000;fill: none;"></path>
</svg>
