<?xml version="1.0"?>
<!-- Created by MetaPost 2.11 on 2026.02.09:1107 -->
<svg version="1.1" xmlns="http://www.w3.org/2000/svg" xmlns:xlink="http://www.w3.org/1999/xlink" width="53.798233" height="85.179840" viewBox="0 0 53.798233 85.179840">
<!-- Original BoundingBox: -5.380096 -42.589920 48.418137 42.589920 -->
  <path d="M48.418640 18.679733C48.418640 8.635208,38.521500 6.724503,26.899368 6.724503C13.183044 6.724503,5.380096 16.421143,5.380096 30.634964C5.380096 40.679489,15.277237 42.590195,26.899368 42.590195" style="stroke:rgb(0,0,0); stroke-width: 10.759186;stroke-linecap: round;stroke-linejoin: round;stroke-miterlimit: 10.000000;fill: none;"></path>
  <path d="M5.379593 66.500107C5.379593 76.544632,15.276733 78.455338,26.898865 78.455338C40.615189 78.455338,48.418137 68.758698,48.418137 54.544876C48.418137 44.500351,38.520996 42.589645,26.898865 42.589645" style="stroke:rgb(0,0,0); stroke-width: 10.759186;stroke-linecap: round;stroke-linejoin: round;stroke-miterlimit: 10.000000;fill: none;"></path>
  <path d="M53.798233 1.344910L52.222504 0.393936L48.418640 -0.000000L44.614777 0.393936L43.039047 1.344910L43.039047 18.679459L44.614777 19.630432L48.418640 20.024368L52.222504 19.630432L53.798233 18.679459Z" style="fill: rgb(0,0,0);stroke: none;"></path>
  <path d="M0.000000 83.834930L1.575729 84.785904L5.379593 85.179840L9.183456 84.785904L10.759186 83.834930L10.759186 66.500381L9.183456 65.549408L5.379593 65.155472L1.575729 65.549408L0.000000 66.500381Z" style="fill: rgb(0,0,0);stroke: none;"></path>
</svg>
