<?xml version="1.0"?>
<!-- Created by MetaPost 2.11 on 2026.02.09:1107 -->
<svg version="1.1" xmlns="http://www.w3.org/2000/svg" xmlns:xlink="http://www.w3.org/1999/xlink" width="60.522430" height="82.490051" viewBox="0 0 60.522430 82.490051">
<!-- Original BoundingBox: -5.379593 -41.245026 55.142838 41.245026 -->
  <path d="M48.418137 17.334839C48.418137 7.290314,38.520996 5.379608,26.898865 5.379608C13.182541 5.379608,5.379593 15.076248,5.379593 29.290070C5.379593 39.334595,15.276733 41.245300,26.898865 41.245300" style="stroke:rgb(0,0,0); stroke-width: 10.759186;stroke-linecap: round;stroke-linejoin: round;stroke-miterlimit: 10.000000;fill: none;"></path>
  <path d="M48.418137 65.155212C48.418137 75.199738,38.520996 77.110443,26.898865 77.110443C13.182541 77.110443,5.379593 67.413803,5.379593 53.199982C5.379593 43.155457,15.276733 41.244751,26.898865 41.244751" style="stroke:rgb(0,0,0); stroke-width: 10.759186;stroke-linecap: round;stroke-linejoin: round;stroke-miterlimit: 10.000000;fill: none;"></path>
  <path d="M34.968185 29.290070L33.392456 28.339096L29.588593 27.945160L25.784729 28.339096L24.209000 29.290070L24.209000 53.199982L25.784729 54.150955L29.588593 54.544891L33.392456 54.150955L34.968185 53.199982Z" style="fill: rgb(0,0,0);stroke: none;"></path>
  <path d="M53.797729 1.344910L52.222000 0.393936L48.418137 -0.000000L44.614273 0.393936L43.038544 1.344910L43.038544 81.145142L44.614273 82.096115L48.418137 82.490051L52.222000 82.096115L53.797729 81.145142Z" style="fill: rgb(0,0,0);stroke: none;"></path>
  <path d="M48.418137 0.000015L47.467163 1.575745L47.073227 5.379608L47.467163 9.183472L48.418137 10.759201L59.177521 10.759201L60.128494 9.183472L60.522430 5.379608L60.128494 1.575745L59.177521 0.000015Z" style="fill: rgb(0,0,0);stroke: none;"></path>
  <path d="M48.418137 71.730850L47.467163 73.306580L47.073227 77.110443L47.467163 80.914307L48.418137 82.490036L59.177521 82.490036L60.128494 80.914307L60.522430 77.110443L60.128494 73.306580L59.177521 71.730850Z" style="fill: rgb(0,0,0);stroke: none;"></path>
</svg>
