<?xml version="1.0"?>
<!-- Created by MetaPost 2.11 on 2026.02.09:1107 -->
<svg version="1.1" xmlns="http://www.w3.org/2000/svg" xmlns:xlink="http://www.w3.org/1999/xlink" width="53.797729" height="82.490021" viewBox="0 0 53.797729 82.490021">
<!-- Original BoundingBox: -26.898865 -41.245010 26.898865 41.245010 -->
  <g transform="matrix(-1.000000,-0.000000,-0.000000,-1.000000,0.000000,0.000000)">
    <path d="M-26.898865 -53.200516C-40.615189 -53.200516,-48.418137 -43.503876,-48.418137 -29.290054C-48.418137 -15.076233,-40.615189 -5.379593,-26.898865 -5.379593C-13.182541 -5.379593,-5.379593 -15.076233,-5.379593 -29.290054C-5.379593 -43.503876,-13.182541 -53.200516,-26.898865 -53.200516Z" style="stroke:rgb(0,0,0); stroke-width: 10.759186;stroke-linecap: round;stroke-linejoin: round;stroke-miterlimit: 10.000000;fill: none;"></path>
  </g>
  <g transform="matrix(-1.000000,-0.000000,-0.000000,-1.000000,0.000000,0.000000)">
    <path d="M-48.418137 -29.290054C-48.418137 -54.377228,-48.453705 -77.110428,-26.898865 -77.110428" style="stroke:rgb(0,0,0); stroke-width: 10.759186;stroke-linecap: round;stroke-linejoin: round;stroke-miterlimit: 10.000000;fill: none;"></path>
  </g>
  <g transform="matrix(-1.000000,-0.000000,-0.000000,-1.000000,0.000000,0.000000)">
    <path d="M-5.379593 -65.155197C-5.379593 -75.199722,-15.276733 -77.110428,-26.898865 -77.110428" style="stroke:rgb(0,0,0); stroke-width: 10.759186;stroke-linecap: round;stroke-linejoin: round;stroke-miterlimit: 10.000000;fill: none;"></path>
  </g>
  <g transform="matrix(-1.000000,-0.000000,-0.000000,-1.000000,0.000000,0.000000)">
    <path d="M-26.898865 -53.200516C-40.615189 -53.200516,-48.418137 -43.503876,-48.418137 -29.290054C-48.418137 -15.076233,-40.615189 -5.379593,-26.898865 -5.379593C-13.182541 -5.379593,-5.379593 -15.076233,-5.379593 -29.290054C-5.379593 -43.503876,-13.182541 -53.200516,-26.898865 -53.200516Z" style="stroke:rgb(0,0,0); stroke-width: 10.759186;stroke-linecap: round;stroke-linejoin: round;stroke-miterlimit: 10.000000;fill: none;"></path>
  </g>
  <g transform="matrix(-1.000000,-0.000000,-0.000000,-1.000000,0.000000,0.000000)">
    <path d="M-48.418137 -29.290054C-48.418137 -54.377228,-48.453705 -77.110428,-26.898865 -77.110428" style="stroke:rgb(0,0,0); stroke-width: 10.759186;stroke-linecap: round;stroke-linejoin: round;stroke-miterlimit: 10.000000;fill: none;"></path>
  </g>
  <g transform="matrix(-1.000000,-0.000000,-0.000000,-1.000000,0.000000,0.000000)">
    <path d="M-5.379593 -65.155197C-5.379593 -75.199722,-15.276733 -77.110428,-26.898865 -77.110428" style="stroke:rgb(0,0,0); stroke-width: 10.759186;stroke-linecap: round;stroke-linejoin: round;stroke-miterlimit: 10.000000;fill: none;"></path>
  </g>
</svg>
