<?xml version="1.0"?>
<!-- Created by MetaPost 2.11 on 2026.02.09:1107 -->
<svg version="1.1" xmlns="http://www.w3.org/2000/svg" xmlns:xlink="http://www.w3.org/1999/xlink" width="53.797729" height="80.081253" viewBox="0 0 53.797729 80.081253">
<!-- Original BoundingBox: -26.898865 -38.836243 26.898865 41.245010 -->
  <path d="M5.379593 5.379593L48.418137 5.379593" style="stroke:rgb(0,0,0); stroke-width: 10.759186;stroke-linecap: round;stroke-linejoin: round;stroke-miterlimit: 10.000000;fill: none;"></path>
  <path d="M48.418137 5.379593L22.594711 74.241669" style="stroke:rgb(0,0,0); stroke-width: 10.759186;stroke-linecap: round;stroke-linejoin: round;stroke-miterlimit: 10.000000;fill: none;"></path>
  <path d="M10.759186 5.379593L9.183456 4.428619L5.379593 4.034683L1.575729 4.428619L0.000000 5.379593C0.000000 9.807388,0.000000 12.906754,0.000000 17.334549L1.575729 18.285522L5.379593 18.679459L9.183456 18.285522L10.759186 17.334549C10.759186 12.906754,10.759186 9.807388,10.759186 5.379593Z" style="fill: rgb(0,0,0);stroke: none;"></path>
  <path d="M27.531189 76.316849L26.246613 74.998840L22.665436 73.657227L18.885345 73.077972L17.120544 73.600296L17.007202 73.902512L18.291779 75.220520L21.872955 76.562134L25.653046 77.141388L27.417847 76.619064Z" style="fill: rgb(0,0,0);stroke: none;"></path>
  <path d="M27.520172 76.324219L26.218460 75.023117L22.620056 73.728470L18.832687 73.198715L17.074890 73.744080L16.919067 74.159637L18.220779 75.460739L21.819183 76.755386L25.606552 77.285141L27.364349 76.739777Z" style="fill: rgb(0,0,0);stroke: none;"></path>
  <path d="M27.465729 76.444626L26.147110 75.160675L22.532074 73.913239L18.738113 73.433105L16.987610 74.001419L16.831787 74.416977L18.150406 75.700928L21.765442 76.948364L25.559402 77.428497L27.309906 76.860184Z" style="fill: rgb(0,0,0);stroke: none;"></path>
  <path d="M27.410461 76.564789L26.075150 75.298218L22.444107 74.098236L18.644211 73.667816L16.901306 74.259003L16.745483 74.674561L18.080795 75.941132L21.711838 77.141113L25.511734 77.571533L27.254639 76.980347Z" style="fill: rgb(0,0,0);stroke: none;"></path>
  <path d="M27.354309 76.684799L26.002533 75.435806L22.356049 74.283447L18.550812 73.902786L16.815765 74.516739L16.659943 74.932343L18.011719 76.181335L21.658203 77.333694L25.463440 77.714355L27.198486 77.100403Z" style="fill: rgb(0,0,0);stroke: none;"></path>
  <path d="M27.297180 76.804596L25.929169 75.573425L22.267929 74.468933L18.458069 74.138153L16.731232 74.774780L16.575409 75.190338L17.943420 76.421509L21.604660 77.526001L25.414520 77.856781L27.141357 77.220154Z" style="fill: rgb(0,0,0);stroke: none;"></path>
  <path d="M27.239136 76.924316L25.855133 75.711151L22.179794 74.654648L18.365936 74.373749L16.647583 75.032898L16.491760 75.448456L17.875763 76.661621L21.551102 77.718124L25.364960 77.999023L27.083313 77.339874Z" style="fill: rgb(0,0,0);stroke: none;"></path>
  <path d="M27.180298 77.043839L25.780533 75.848862L22.091614 74.840530L18.274368 74.609543L16.564758 75.291122L16.408936 75.706680L17.808701 76.901657L21.497620 77.909988L25.314865 78.140976L27.024475 77.459396Z" style="fill: rgb(0,0,0);stroke: none;"></path>
  <path d="M27.120483 77.163101L25.705170 75.986572L22.003403 75.026657L18.183472 74.845703L16.482941 75.549606L16.327118 75.965164L17.742432 77.141693L21.444199 78.101608L25.264130 78.282562L26.964661 77.578659Z" style="fill: rgb(0,0,0);stroke: none;"></path>
  <path d="M27.059723 77.282272L25.629150 76.124390L21.915131 75.212997L18.093170 75.082062L16.402008 75.808182L16.246185 76.223740L17.676758 77.381622L21.390778 78.293015L25.212738 78.423950L26.903900 77.697830Z" style="fill: rgb(0,0,0);stroke: none;"></path>
  <path d="M26.998093 77.401428L25.552475 76.262344L21.826859 75.399628L18.003494 75.318680L16.321976 76.066864L16.166153 76.482422L17.611771 77.621506L21.337387 78.484222L25.160751 78.565170L26.842270 77.816986Z" style="fill: rgb(0,0,0);stroke: none;"></path>
  <path d="M26.935532 77.520355L25.475128 76.400299L21.738525 75.586426L17.914429 75.555542L16.242844 76.325684L16.087021 76.741241L17.547424 77.861298L21.284027 78.675171L25.108124 78.706055L26.779709 77.935913Z" style="fill: rgb(0,0,0);stroke: none;"></path>
  <path d="M26.872009 77.639267L25.397095 76.538422L21.650192 75.773514L17.826050 75.792694L16.164703 76.584610L16.008881 77.000168L17.483795 78.101013L21.230698 78.865921L25.054840 78.846741L26.716187 78.054825Z" style="fill: rgb(0,0,0);stroke: none;"></path>
  <path d="M26.807678 77.757904L25.318451 76.676468L21.561829 75.960724L17.738251 76.029984L16.087402 76.843628L15.931580 77.259186L17.420807 78.340622L21.177429 79.056366L25.001007 78.987106L26.651855 78.173462Z" style="fill: rgb(0,0,0);stroke: none;"></path>
  <path d="M26.742355 77.876633L25.239120 76.814789L21.473465 76.148270L17.651138 76.267578L16.011093 77.102737L15.855270 77.518295L17.358505 78.580139L21.124161 79.246658L24.946487 79.127350L26.586533 78.292191Z" style="fill: rgb(0,0,0);stroke: none;"></path>
  <path d="M26.676102 77.995285L25.159088 76.953201L21.385040 76.336029L17.564606 76.505356L15.935623 77.361923L15.779800 77.777481L17.296814 78.819565L21.070862 79.436737L24.891296 79.267410L26.520279 78.410843Z" style="fill: rgb(0,0,0);stroke: none;"></path>
  <path d="M26.608978 78.113815L25.078461 77.091690L21.296631 76.523987L17.478729 76.743332L15.861115 77.621140L15.705292 78.036697L17.235809 79.058823L21.017639 79.626526L24.835541 79.407181L26.453156 78.529373Z" style="fill: rgb(0,0,0);stroke: none;"></path>
  <path d="M26.540909 78.232391L24.997131 77.230362L21.208176 76.712204L17.393463 76.981491L15.787460 77.880402L15.631638 78.295959L17.175415 79.297989L20.964371 79.816147L24.779083 79.546860L26.385086 78.647949Z" style="fill: rgb(0,0,0);stroke: none;"></path>
  <path d="M26.471893 78.350876L24.915161 77.369141L21.119781 76.900574L17.308929 77.219727L15.714844 78.139572L15.559021 78.555130L17.115753 79.536865L20.911133 80.005432L24.721985 79.686279L26.316071 78.766434Z" style="fill: rgb(0,0,0);stroke: none;"></path>
  <path d="M26.402069 78.469360L24.832581 77.508087L21.031357 77.089249L17.224976 77.458282L15.643036 78.398926L15.529694 78.701141L17.099182 79.662415L20.900406 80.081253L24.706787 79.712219L26.288727 78.771576Z" style="fill: rgb(0,0,0);stroke: none;"></path>
</svg>
