<?xml version="1.0"?>
<!-- Created by MetaPost 2.11 on 2026.02.09:1107 -->
<svg version="1.1" xmlns="http://www.w3.org/2000/svg" xmlns:xlink="http://www.w3.org/1999/xlink" width="73.971542" height="82.490021" viewBox="0 0 73.971542 82.490021">
<!-- Original BoundingBox: -37.658249 -41.245010 36.313293 41.245010 -->
  <path d="M37.658249 77.110428L37.658249 5.379593" style="stroke:rgb(0,0,0); stroke-width: 10.759186;stroke-linecap: round;stroke-linejoin: round;stroke-miterlimit: 10.000000;fill: none;"></path>
  <path d="M26.898865 -0.000000L25.947891 1.575729L25.553955 5.379593L25.947891 9.183456L26.898865 10.759186L48.417633 10.759186L49.368607 9.183456L49.762543 5.379593L49.368607 1.575729L48.417633 -0.000000Z" style="fill: rgb(0,0,0);stroke: none;"></path>
  <path d="M26.898865 71.730835L25.947891 73.306564L25.553955 77.110428L25.947891 80.914291L26.898865 82.490021L48.417633 82.490021L49.368607 80.914291L49.762543 77.110428L49.368607 73.306564L48.417633 71.730835Z" style="fill: rgb(0,0,0);stroke: none;"></path>
  <path d="M37.658249 41.245010C37.658249 30.584717,31.806091 23.312302,21.518921 23.312302C11.231750 23.312302,5.379593 30.584717,5.379593 41.245010C5.379593 56.311676,20.225189 59.177719,37.658249 59.177719C52.336472 59.177719,61.867249 50.355820,61.867249 35.865417L61.867249 23.312302" style="stroke:rgb(0,0,0); stroke-width: 10.759186;stroke-linecap: round;stroke-linejoin: round;stroke-miterlimit: 10.000000;fill: none;"></path>
  <path d="M51.107864 17.932709L50.156891 19.508438L49.762955 23.312302L50.156891 27.116165L51.107864 28.691895L72.626633 28.691895L73.577606 27.116165L73.971542 23.312302L73.577606 19.508438L72.626633 17.932709Z" style="fill: rgb(0,0,0);stroke: none;"></path>
</svg>
