<?xml version="1.0"?>
<!-- Created by MetaPost 2.11 on 2026.02.09:1107 -->
<svg version="1.1" xmlns="http://www.w3.org/2000/svg" xmlns:xlink="http://www.w3.org/1999/xlink" width="102.901550" height="82.490021" viewBox="0 0 102.901550 82.490021">
<!-- Original BoundingBox: -5.541336 -41.245010 97.360214 41.245010 -->
  <path d="M5.541336 53.199966C5.541336 67.413788,13.344284 77.110428,27.060608 77.110428C40.776932 77.110428,48.579880 67.413788,48.579880 53.199966" style="stroke:rgb(0,0,0); stroke-width: 10.759186;stroke-linecap: round;stroke-linejoin: round;stroke-miterlimit: 10.000000;fill: none;"></path>
  <path d="M48.579376 53.199966C48.579376 67.413788,56.382324 77.110428,70.098648 77.110428C83.814972 77.110428,91.617920 67.413788,91.617920 53.199966" style="stroke:rgb(0,0,0); stroke-width: 10.759186;stroke-linecap: round;stroke-linejoin: round;stroke-miterlimit: 10.000000;fill: none;"></path>
  <path d="M5.541336 53.199966C5.541336 48.769318,5.177414 45.662460,5.541336 41.245010C7.476974 17.748672,24.311630 5.379593,48.579376 5.379593C73.658798 5.379593,91.617920 17.635223,91.617920 41.245010C91.617920 45.672806,91.617920 48.772171,91.617920 53.199966" style="stroke:rgb(0,0,0); stroke-width: 10.759186;stroke-linecap: round;stroke-linejoin: round;stroke-miterlimit: 10.000000;fill: none;"></path>
  <path d="M37.819992 47.820374L36.869019 49.396103L36.475082 53.199966L36.869019 57.003830L37.819992 58.579559L59.338760 58.579559L60.289734 57.003830L60.683670 53.199966L60.289734 49.396103L59.338760 47.820374Z" style="fill: rgb(0,0,0);stroke: none;"></path>
  <path d="M48.579376 5.379593C48.579376 26.066071,67.400101 32.925323,90.797256 32.925323" style="stroke:rgb(0,0,0); stroke-width: 10.759186;stroke-linecap: round;stroke-linejoin: round;stroke-miterlimit: 10.000000;fill: none;"></path>
  <path d="M90.797256 27.545731L89.846283 29.121460L89.452347 32.925323L89.846283 36.729187L90.797256 38.304916L101.556641 38.304916L102.507614 36.729187L102.901550 32.925323L102.507614 29.121460L101.556641 27.545731Z" style="fill: rgb(0,0,0);stroke: none;"></path>
</svg>
