<?xml version="1.0"?>
<!-- Created by MetaPost 2.11 on 2026.02.09:1107 -->
<svg version="1.1" xmlns="http://www.w3.org/2000/svg" xmlns:xlink="http://www.w3.org/1999/xlink" width="12.104446" height="70.534515" viewBox="0 0 12.104446 70.534515">
<!-- Original BoundingBox: -6.724854 -53.199966 5.379593 17.334549 -->
  <path d="M6.724854 5.379593l0 0" style="stroke:rgb(0,0,0); stroke-width: 10.759186;stroke-linecap: round;stroke-linejoin: round;stroke-miterlimit: 10.000000;fill: none;"></path>
  <path d="M6.724854 53.199966l0 0" style="stroke:rgb(0,0,0); stroke-width: 10.759186;stroke-linecap: round;stroke-linejoin: round;stroke-miterlimit: 10.000000;fill: none;"></path>
  <path d="M8.069763 53.199966L7.675827 49.396103L6.724854 47.820374L5.773880 49.396103L5.379944 53.199966C5.379944 53.951340,5.345398 54.668320,5.274231 55.355530L5.668167 51.551666C5.439407 53.760620,4.832184 55.662109,3.777206 57.410187L4.728180 55.834457C3.892715 57.218796,2.776428 58.506912,1.344910 59.775330L0.393936 61.351059L0.000000 65.154922L0.393936 68.958786L1.344910 70.534515C2.776443 69.266098,3.892715 67.977982,4.728180 66.593643L5.679153 65.017914C6.734131 63.269852,7.341354 61.368362,7.570114 59.159409L7.964050 55.355545C8.035217 54.668320,8.069763 53.951340,8.069763 53.199966Z" style="fill: rgb(0,0,0);stroke: none;"></path>
</svg>
