<?xml version="1.0"?>
<!-- Created by MetaPost 2.11 on 2026.02.09:1107 -->
<svg version="1.1" xmlns="http://www.w3.org/2000/svg" xmlns:xlink="http://www.w3.org/1999/xlink" width="56.487244" height="82.490021" viewBox="0 0 56.487244 82.490021">
<!-- Original BoundingBox: -12.104294 -41.245010 44.382950 41.245010 -->
  <g transform="matrix(-1.000000,-0.000000,-0.000000,-1.000000,0.000000,0.000000)">
    <path d="M-12.104294 -5.379593L-12.104294 -77.110428" style="stroke:rgb(0,0,0); stroke-width: 10.759186;stroke-linecap: round;stroke-linejoin: round;stroke-miterlimit: 10.000000;fill: none;"></path>
  </g>
  <path d="M22.863678 10.759186L23.814651 9.183456L24.208588 5.379593L23.814651 1.575729L22.863678 -0.000000L1.344910 -0.000000L0.393936 1.575729L0.000000 5.379593L0.393936 9.183456L1.344910 10.759186Z" style="fill: rgb(0,0,0);stroke: none;"></path>
  <path d="M1.344910 71.730835L0.393936 73.306564L0.000000 77.110428L0.393936 80.914291L1.344910 82.490021L55.142334 82.490021L56.093307 80.914291L56.487244 77.110428L56.093307 73.306564L55.142334 71.730835Z" style="fill: rgb(0,0,0);stroke: none;"></path>
  <path d="M45.728043 77.110428L47.303772 78.061401L51.107635 78.455338L54.911499 78.061401L56.487228 77.110428C56.487228 73.291428,56.487228 70.618179,56.487228 66.799179L54.911499 65.848206L51.107635 65.454269L47.303772 65.848206L45.728043 66.799179C45.728043 70.618179,45.728043 73.291428,45.728043 77.110428Z" style="fill: rgb(0,0,0);stroke: none;"></path>
  <g transform="matrix(-1.000000,-0.000000,-0.000000,-1.000000,0.000000,0.000000)">
    <path d="M-12.104294 -5.379593L-12.104294 -77.110428" style="stroke:rgb(0,0,0); stroke-width: 10.759186;stroke-linecap: round;stroke-linejoin: round;stroke-miterlimit: 10.000000;fill: none;"></path>
  </g>
  <path d="M22.863678 10.759186L23.814651 9.183456L24.208588 5.379593L23.814651 1.575729L22.863678 -0.000000L1.344910 -0.000000L0.393936 1.575729L0.000000 5.379593L0.393936 9.183456L1.344910 10.759186Z" style="fill: rgb(0,0,0);stroke: none;"></path>
  <path d="M1.344910 71.730835L0.393936 73.306564L0.000000 77.110428L0.393936 80.914291L1.344910 82.490021L55.142334 82.490021L56.093307 80.914291L56.487244 77.110428L56.093307 73.306564L55.142334 71.730835Z" style="fill: rgb(0,0,0);stroke: none;"></path>
  <path d="M45.728043 77.110428L47.303772 78.061401L51.107635 78.455338L54.911499 78.061401L56.487228 77.110428C56.487228 73.291428,56.487228 70.618179,56.487228 66.799179L54.911499 65.848206L51.107635 65.454269L47.303772 65.848206L45.728043 66.799179C45.728043 70.618179,45.728043 73.291428,45.728043 77.110428Z" style="fill: rgb(0,0,0);stroke: none;"></path>
</svg>
