<?xml version="1.0"?>
<!-- Created by MetaPost 2.11 on 2026.02.09:1107 -->
<svg version="1.1" xmlns="http://www.w3.org/2000/svg" xmlns:xlink="http://www.w3.org/1999/xlink" width="102.215378" height="82.490021" viewBox="0 0 102.215378 82.490021">
<!-- Original BoundingBox: -57.832428 -41.245010 44.382950 41.245010 -->
  <path d="M90.111084 5.379593L57.832428 77.110428" style="stroke:rgb(0,0,0); stroke-width: 10.759186;stroke-linecap: round;stroke-linejoin: round;stroke-miterlimit: 10.000000;fill: none;"></path>
  <path d="M79.351700 -0.000000L78.400726 1.575729L78.006790 5.379593L78.400726 9.183456L79.351700 10.759186L100.870468 10.759186L101.821442 9.183456L102.215378 5.379593L101.821442 1.575729L100.870468 -0.000000Z" style="fill: rgb(0,0,0);stroke: none;"></path>
  <path d="M17.484100 30.933624C14.273651 30.933624,11.195068 29.658081,8.925095 27.388123C6.655136 25.118149,5.379593 22.039566,5.379593 18.829117C5.379593 15.618668,6.655136 12.540085,8.925095 10.270111C11.195068 8.000153,14.273651 6.724609,17.484100 6.724609" style="stroke:rgb(0,0,0); stroke-width: 10.759186;stroke-linecap: round;stroke-linejoin: round;stroke-miterlimit: 10.000000;fill: none;"></path>
  <path d="M57.832428 77.110428L41.693100 41.245010C35.176743 26.764114,33.215302 6.724609,17.484100 6.724609" style="stroke:rgb(0,0,0); stroke-width: 10.759186;stroke-linecap: round;stroke-linejoin: round;stroke-miterlimit: 10.000000;fill: none;"></path>
  <path d="M17.484100 30.933624L82.041412 30.933624C87.514359 30.933624,91.687744 32.492050,95.058762 35.885117" style="stroke:rgb(0,0,0); stroke-width: 10.759186;stroke-linecap: round;stroke-linejoin: round;stroke-miterlimit: 10.000000;fill: none;"></path>
  <path d="M85.845367 27.129669L84.058716 27.571442L81.090424 29.982635L78.679230 32.950928L78.237457 34.737579C85.534714 34.737579,90.521652 37.508118,94.376785 43.703934L96.163437 43.262161L99.131729 40.850967L101.542923 37.882675L101.984695 36.096024C98.129562 29.900208,93.142624 27.129669,85.845367 27.129669Z" style="fill: rgb(0,0,0);stroke: none;"></path>
</svg>
