<?xml version="1.0"?>
<!-- Created by MetaPost 2.11 on 2026.02.09:1107 -->
<svg version="1.1" xmlns="http://www.w3.org/2000/svg" xmlns:xlink="http://www.w3.org/1999/xlink" width="12.104446" height="22.714142" viewBox="0 0 12.104446 22.714142">
<!-- Original BoundingBox: -6.724854 -53.199966 5.379593 -30.485825 -->
  <path d="M6.724854 5.379593l0 0" style="stroke:rgb(0,0,0); stroke-width: 10.759186;stroke-linecap: round;stroke-linejoin: round;stroke-miterlimit: 10.000000;fill: none;"></path>
  <path d="M8.069763 5.379593L7.675827 1.575729L6.724854 -0.000000L5.773880 1.575729L5.379944 5.379593C5.379944 6.130966,5.345398 6.847946,5.274231 7.535156L5.668167 3.731293C5.439407 5.940247,4.832184 7.841736,3.777206 9.589813L4.728180 8.014084C3.892715 9.398422,2.776428 10.686539,1.344910 11.954956L0.393936 13.530685L0.000000 17.334549L0.393936 21.138412L1.344910 22.714142C2.776443 21.445724,3.892715 20.157608,4.728180 18.773270L5.679153 17.197540C6.734131 15.449478,7.341354 13.547989,7.570114 11.339035L7.964050 7.535172C8.035217 6.847946,8.069763 6.130966,8.069763 5.379593Z" style="fill: rgb(0,0,0);stroke: none;"></path>
</svg>
