<?xml version="1.0"?>
<!-- Created by MetaPost 2.11 on 2026.02.09:1107 -->
<svg version="1.1" xmlns="http://www.w3.org/2000/svg" xmlns:xlink="http://www.w3.org/1999/xlink" width="53.797729" height="82.490021" viewBox="0 0 53.797729 82.490021">
<!-- Original BoundingBox: -5.379593 -41.245010 48.418137 41.245010 -->
  <path d="M26.898865 29.289505C13.182541 29.289505,5.379593 38.986145,5.379593 53.199966C5.379593 67.413788,13.182541 77.110428,26.898865 77.110428C40.615189 77.110428,48.418137 67.413788,48.418137 53.199966" style="stroke:rgb(0,0,0); stroke-width: 10.759186;stroke-linecap: round;stroke-linejoin: round;stroke-miterlimit: 10.000000;fill: none;"></path>
  <path d="M5.379593 17.334824C5.379593 7.290298,15.276733 5.379593,26.898865 5.379593C40.615189 5.379593,48.418137 15.076233,48.418137 29.290054C48.418137 38.145630,48.418137 44.344391,48.418137 53.199966C48.418137 60.306870,46.467407 66.284485,42.802139 70.485367" style="stroke:rgb(0,0,0); stroke-width: 10.759186;stroke-linecap: round;stroke-linejoin: round;stroke-miterlimit: 10.000000;fill: none;"></path>
  <path d="M32.278458 29.289505L30.702728 28.338531L26.898865 27.944595L23.095001 28.338531L21.519272 29.289505L21.519272 41.244461L23.095001 42.195435L26.898865 42.589371L30.702728 42.195435L32.278458 41.244461Z" style="fill: rgb(0,0,0);stroke: none;"></path>
</svg>
