<?xml version="1.0"?>
<!-- Created by MetaPost 2.11 on 2026.02.09:1107 -->
<svg version="1.1" xmlns="http://www.w3.org/2000/svg" xmlns:xlink="http://www.w3.org/1999/xlink" width="73.971542" height="82.490021" viewBox="0 0 73.971542 82.490021">
<!-- Original BoundingBox: -36.313293 -41.245010 37.658249 41.245010 -->
  <g transform="matrix(-1.000000,-0.000000,-0.000000,1.000000,0.000000,0.000000)">
    <path d="M-36.313293 77.110428L-36.313293 23.312302" style="stroke:rgb(0,0,0); stroke-width: 10.759186;stroke-linecap: round;stroke-linejoin: round;stroke-miterlimit: 10.000000;fill: none;"></path>
  </g>
  <path d="M47.072678 82.490021L48.023651 80.914291L48.417587 77.110428L48.023651 73.306564L47.072678 71.730835L25.553909 71.730835L24.602936 73.306564L24.209000 77.110428L24.602936 80.914291L25.553909 82.490021Z" style="fill: rgb(0,0,0);stroke: none;"></path>
  <g transform="matrix(-1.000000,-0.000000,-0.000000,1.000000,0.000000,0.000000)">
    <path d="M-36.313293 23.312302C-36.313293 12.652008,-42.165451 5.379593,-52.452621 5.379593C-62.739792 5.379593,-68.591949 12.652008,-68.591949 23.312302C-68.591949 38.378967,-53.746353 41.245010,-36.313293 41.245010C-21.635071 41.245010,-12.104294 32.423111,-12.104294 17.932709L-12.104294 5.379593" style="stroke:rgb(0,0,0); stroke-width: 10.759186;stroke-linecap: round;stroke-linejoin: round;stroke-miterlimit: 10.000000;fill: none;"></path>
  </g>
  <path d="M22.863678 10.759186L23.814651 9.183456L24.208588 5.379593L23.814651 1.575729L22.863678 -0.000000L1.344910 -0.000000L0.393936 1.575729L0.000000 5.379593L0.393936 9.183456L1.344910 10.759186Z" style="fill: rgb(0,0,0);stroke: none;"></path>
  <g transform="matrix(-1.000000,-0.000000,-0.000000,1.000000,0.000000,0.000000)">
    <path d="M-36.313293 77.110428L-36.313293 23.312302" style="stroke:rgb(0,0,0); stroke-width: 10.759186;stroke-linecap: round;stroke-linejoin: round;stroke-miterlimit: 10.000000;fill: none;"></path>
  </g>
  <path d="M47.072678 82.490021L48.023651 80.914291L48.417587 77.110428L48.023651 73.306564L47.072678 71.730835L25.553909 71.730835L24.602936 73.306564L24.209000 77.110428L24.602936 80.914291L25.553909 82.490021Z" style="fill: rgb(0,0,0);stroke: none;"></path>
  <g transform="matrix(-1.000000,-0.000000,-0.000000,1.000000,0.000000,0.000000)">
    <path d="M-36.313293 23.312302C-36.313293 12.652008,-42.165451 5.379593,-52.452621 5.379593C-62.739792 5.379593,-68.591949 12.652008,-68.591949 23.312302C-68.591949 38.378967,-53.746353 41.245010,-36.313293 41.245010C-21.635071 41.245010,-12.104294 32.423111,-12.104294 17.932709L-12.104294 5.379593" style="stroke:rgb(0,0,0); stroke-width: 10.759186;stroke-linecap: round;stroke-linejoin: round;stroke-miterlimit: 10.000000;fill: none;"></path>
  </g>
  <path d="M22.863678 10.759186L23.814651 9.183456L24.208588 5.379593L23.814651 1.575729L22.863678 -0.000000L1.344910 -0.000000L0.393936 1.575729L0.000000 5.379593L0.393936 9.183456L1.344910 10.759186Z" style="fill: rgb(0,0,0);stroke: none;"></path>
</svg>
