<?xml version="1.0"?>
<!-- Created by MetaPost 2.11 on 2026.02.09:1107 -->
<svg version="1.1" xmlns="http://www.w3.org/2000/svg" xmlns:xlink="http://www.w3.org/1999/xlink" width="53.797729" height="85.179840" viewBox="0 0 53.797729 85.179840">
<!-- Original BoundingBox: -48.418137 -42.589920 5.379593 42.589920 -->
  <g transform="matrix(-1.000000,-0.000000,-0.000000,1.000000,0.000000,0.000000)">
    <path d="M-5.379593 18.679733C-5.379593 8.635208,-15.276733 6.724503,-26.898865 6.724503C-40.615189 6.724503,-48.418137 16.421143,-48.418137 30.634964C-48.418137 39.490753,-48.418137 45.689636,-48.418137 54.545425C-48.418137 68.759247,-40.615189 78.455887,-26.898865 78.455887C-15.276733 78.455887,-5.379593 76.545181,-5.379593 66.500656" style="stroke:rgb(0,0,0); stroke-width: 10.759186;stroke-linecap: round;stroke-linejoin: round;stroke-miterlimit: 10.000000;fill: none;"></path>
  </g>
  <path d="M10.759186 1.344910L9.183456 0.393936L5.379593 -0.000000L1.575729 0.393936L0.000000 1.344910L0.000000 18.679459L1.575729 19.630432L5.379593 20.024368L9.183456 19.630432L10.759186 18.679459Z" style="fill: rgb(0,0,0);stroke: none;"></path>
  <path d="M0.000000 83.834930L1.575729 84.785904L5.379593 85.179840L9.183456 84.785904L10.759186 83.834930L10.759186 66.500381L9.183456 65.549408L5.379593 65.155472L1.575729 65.549408L0.000000 66.500381Z" style="fill: rgb(0,0,0);stroke: none;"></path>
  <g transform="matrix(-1.000000,-0.000000,-0.000000,1.000000,0.000000,0.000000)">
    <path d="M-5.379593 18.679733C-5.379593 8.635208,-15.276733 6.724503,-26.898865 6.724503C-40.615189 6.724503,-48.418137 16.421143,-48.418137 30.634964C-48.418137 39.490753,-48.418137 45.689636,-48.418137 54.545425C-48.418137 68.759247,-40.615189 78.455887,-26.898865 78.455887C-15.276733 78.455887,-5.379593 76.545181,-5.379593 66.500656" style="stroke:rgb(0,0,0); stroke-width: 10.759186;stroke-linecap: round;stroke-linejoin: round;stroke-miterlimit: 10.000000;fill: none;"></path>
  </g>
  <path d="M10.759186 1.344910L9.183456 0.393936L5.379593 -0.000000L1.575729 0.393936L0.000000 1.344910L0.000000 18.679459L1.575729 19.630432L5.379593 20.024368L9.183456 19.630432L10.759186 18.679459Z" style="fill: rgb(0,0,0);stroke: none;"></path>
  <path d="M0.000000 83.834930L1.575729 84.785904L5.379593 85.179840L9.183456 84.785904L10.759186 83.834930L10.759186 66.500381L9.183456 65.549408L5.379593 65.155472L1.575729 65.549408L0.000000 66.500381Z" style="fill: rgb(0,0,0);stroke: none;"></path>
</svg>
