<?xml version="1.0"?>
<!-- Created by MetaPost 2.11 on 2026.02.09:1107 -->
<svg version="1.1" xmlns="http://www.w3.org/2000/svg" xmlns:xlink="http://www.w3.org/1999/xlink" width="26.899323" height="31.232574" viewBox="0 0 26.899323 31.232574">
<!-- Original BoundingBox: -13.449661 5.098862 13.449661 31.232574 -->
  <path d="M8.070068 13.299866L9.645798 14.250839L13.449661 14.644775L17.253525 14.250839L18.829254 13.299866L18.829254 1.344910L17.253525 0.393936L13.449661 -0.000000L9.645798 0.393936L8.070068 1.344910Z" style="fill: rgb(0,0,0);stroke: none;"></path>
  <path d="M11.787247 18.416122L13.178604 17.211395L14.728745 13.715469L15.529556 9.976074L15.112076 8.183609L3.742310 4.489273L2.350952 5.694000L0.800812 9.189926L0.000000 12.929321L0.417480 14.721786Z" style="fill: rgb(0,0,0);stroke: none;"></path>
  <path d="M17.801865 16.461899L17.086029 14.766357L14.240173 12.211807L10.931213 10.294647L9.097458 10.137833L2.070526 19.809647L2.786362 21.505188L5.632217 24.059738L8.941177 25.976898L10.774933 26.133713Z" style="fill: rgb(0,0,0);stroke: none;"></path>
  <path d="M17.801865 10.137833L15.968109 10.294647L12.659149 12.211807L9.813293 14.766357L9.097458 16.461899L16.124390 26.133713L17.958145 25.976898L21.267105 24.059738L24.112961 21.505188L24.828796 19.809647Z" style="fill: rgb(0,0,0);stroke: none;"></path>
  <path d="M11.787247 8.183609L11.369766 9.976074L12.170578 13.715469L13.720718 17.211395L15.112076 18.416122L26.481842 14.721786L26.899323 12.929321L26.098511 9.189926L24.548370 5.694000L23.157013 4.489273Z" style="fill: rgb(0,0,0);stroke: none;"></path>
</svg>
