<?xml version="1.0"?>
<!-- Created by MetaPost 2.11 on 2026.02.09:1107 -->
<svg version="1.1" xmlns="http://www.w3.org/2000/svg" xmlns:xlink="http://www.w3.org/1999/xlink" width="85.627991" height="81.952042" viewBox="0 0 85.627991 81.952042">
<!-- Original BoundingBox: -68.135498 -40.707031 17.492493 41.245010 -->
  <path d="M62.755905 80.607132L64.331635 81.558105L68.135498 81.952042L71.939362 81.558105L73.515091 80.607132L73.515091 5.379593L71.939362 4.428619L68.135498 4.034683L64.331635 4.428619L62.755905 5.379593Z" style="fill: rgb(0,0,0);stroke: none;"></path>
  <path d="M57.376114 -0.000000L56.425140 1.575729L56.031204 5.379593L56.425140 9.183456L57.376114 10.759186L78.894882 10.759186L79.845856 9.183456L80.239792 5.379593L79.845856 1.575729L78.894882 -0.000000Z" style="fill: rgb(0,0,0);stroke: none;"></path>
  <path d="M34.417709 61.809952L33.099701 63.094528L31.758087 66.675705L31.178833 70.455795L31.701157 72.220596C32.124741 72.505157,32.618134 72.815903,33.160339 73.141876L34.478348 71.857300L35.819962 68.276123L36.399216 64.496033L35.876892 62.731232C35.334686 62.405258,34.841293 62.094513,34.417709 61.809952Z" style="fill: rgb(0,0,0);stroke: none;"></path>
  <path d="M34.680008 62.010834L33.378906 63.312546L32.084259 66.910950L31.554504 70.698318L32.099869 72.456116C32.728485 72.864456,33.479172 73.317108,34.297333 73.785629L35.598434 72.483917L36.893082 68.885513L37.422836 65.098145L36.877472 63.340347C36.059311 62.871826,35.308624 62.419174,34.680008 62.010834Z" style="fill: rgb(0,0,0);stroke: none;"></path>
  <path d="M35.539337 62.576050L34.255386 63.894669L33.007950 67.509705L32.527817 71.303665L33.096130 73.054169C33.824417 73.496902,34.649948 73.971024,35.518127 74.448074L36.802078 73.129456L38.049515 69.514420L38.529648 65.720459L37.961334 63.969955C37.093155 63.492905,36.267624 63.018784,35.539337 62.576050Z" style="fill: rgb(0,0,0);stroke: none;"></path>
  <path d="M36.518646 63.180908L35.252075 64.516220L34.052094 68.147263L33.621674 71.947159L34.212860 73.690063C35.018280 74.155457,35.896149 74.639313,36.791855 75.113174L38.058426 73.777863L39.258408 70.146820L39.688828 66.346924L39.097641 64.604019C38.201935 64.130157,37.324066 63.646301,36.518646 63.180908Z" style="fill: rgb(0,0,0);stroke: none;"></path>
  <path d="M37.587921 63.809647L36.338928 65.161423L35.186569 68.807907L34.805908 72.613144L35.419861 74.348190C36.279831 74.824478,37.187424 75.306290,38.088028 75.765167L39.337021 74.413391L40.489380 70.766907L40.870041 66.961670L40.256088 65.226624C39.355484 64.767746,38.447891 64.285934,37.587921 63.809647Z" style="fill: rgb(0,0,0);stroke: none;"></path>
  <path d="M38.715958 64.446228L37.484787 65.814240L36.380295 69.475479L36.049515 73.285339L36.686142 75.012177C37.578156 75.487610,38.492966 75.955643,39.375977 76.387787L40.607147 75.019775L41.711639 71.358536L42.042419 67.548676L41.405792 65.821838C40.522781 65.389694,39.607971 64.921661,38.715958 64.446228Z" style="fill: rgb(0,0,0);stroke: none;"></path>
  <path d="M39.872192 65.074509L38.659027 66.458511L37.602524 70.133850L37.321625 73.947708L37.980774 75.666061C38.882217 76.128876,39.781647 76.571335,40.624451 76.964981L41.837616 75.580978L42.894119 71.905640L43.175018 68.091782L42.515869 66.373428C41.673065 65.979782,40.773636 65.537323,39.872192 65.074509Z" style="fill: rgb(0,0,0);stroke: none;"></path>
  <path d="M41.025772 65.678360L39.830795 67.078125L38.822464 70.767044L38.591476 74.584290L39.273056 76.293900C40.161392 76.732346,41.022888 77.137497,41.802948 77.480896L42.997925 76.081131L44.006256 72.392212L44.237244 68.574966L43.555664 66.865356C42.775604 66.521957,41.914108 66.116806,41.025772 65.678360Z" style="fill: rgb(0,0,0);stroke: none;"></path>
  <path d="M42.145462 66.241791L40.968933 67.657104L40.009018 71.358871L39.828064 75.178802L40.531967 76.879333C41.384628 77.281631,42.185654 77.637711,42.880417 77.919128L44.056946 76.503815L45.016861 72.802048L45.197815 68.982117L44.493912 67.281586C43.799149 67.000168,42.998123 66.644089,42.145462 66.241791Z" style="fill: rgb(0,0,0);stroke: none;"></path>
  <path d="M43.201401 66.748993L42.043518 68.179565L41.132126 71.893585L41.001190 75.715546L41.727310 77.406708C42.305084 77.664459,42.842407 77.890930,43.318283 78.075165C43.671921 78.212067,44.047104 78.347275,44.441345 78.480408L45.599228 77.049835L46.510620 73.335815L46.641556 69.513855L45.915436 67.822693C45.521194 67.689560,45.146011 67.554352,44.792374 67.417450C44.316498 67.233215,43.779175 67.006744,43.201401 66.748993Z" style="fill: rgb(0,0,0);stroke: none;"></path>
  <path d="M44.162476 67.183762L43.023392 68.629379L42.160675 72.354996L42.079727 76.178360L42.827911 77.859879C43.022522 77.940262,43.209610 78.015289,43.388046 78.084366C44.331146 78.449478,45.427490 78.802490,46.629715 79.136200L47.768799 77.690582L48.631516 73.964966L48.712463 70.141602L47.964279 68.460083C46.762054 68.126373,45.665710 67.773361,44.722610 67.408249C44.544174 67.339172,44.357086 67.264145,44.162476 67.183762Z" style="fill: rgb(0,0,0);stroke: none;"></path>
  <path d="M45.388138 67.671478L44.268082 69.131882L43.454208 72.868484L43.423325 76.692581L44.193466 78.364166C45.591522 78.857254,47.256897 79.324051,49.066498 79.745834L50.186554 78.285431L51.000427 74.548828L51.031311 70.724731L50.261169 69.053146C48.451569 68.631363,46.786194 68.164566,45.388138 67.671478Z" style="fill: rgb(0,0,0);stroke: none;"></path>
  <path d="M47.378799 68.318542L46.277954 69.793457L45.513046 73.540359L45.532227 77.364502L46.324142 79.025848C47.939743 79.491150,49.766693 79.921661,51.681931 80.298615L52.782776 78.823700L53.547684 75.076797L53.528503 71.252655L52.736588 69.591309C50.821350 69.214355,48.994400 68.783844,47.378799 68.318542Z" style="fill: rgb(0,0,0);stroke: none;"></path>
  <path d="M49.630600 68.923096L48.549164 70.412323L47.833420 74.168945L47.902679 77.992523L48.716324 79.643372C50.498657 80.073181,52.436432 80.459686,54.406570 80.784119L55.488007 79.294891L56.203751 75.538269L56.134491 71.714691L55.320847 70.063843C53.350708 69.739410,51.412933 69.352905,49.630600 68.923096Z" style="fill: rgb(0,0,0);stroke: none;"></path>
  <path d="M52.075775 69.475128L51.013931 70.978363L50.347412 74.744019L50.466721 78.566345L51.301880 80.206390C53.200043 80.592941,55.197693 80.927643,57.171753 81.191772L58.233597 79.688538L58.900116 75.922882L58.780807 72.100555L57.945648 70.460510C55.971588 70.196381,53.973938 69.861679,52.075775 69.475128Z" style="fill: rgb(0,0,0);stroke: none;"></path>
  <path d="M54.644211 69.963760L53.602127 71.480774L52.984955 75.254822L53.154282 79.075256L54.010849 80.704239C55.974091 81.039795,57.980881 81.314987,59.908127 81.511078L60.950211 79.994064L61.567383 76.220016L61.398056 72.399582L60.541489 70.770599C58.614243 70.574509,56.607452 70.299316,54.644211 69.963760Z" style="fill: rgb(0,0,0);stroke: none;"></path>
  <path d="M57.266556 70.378494L56.244431 71.909012L55.676727 75.690842L55.896072 79.508743L56.773880 81.126358C58.751236 81.403152,60.716187 81.611069,62.545654 81.731354L63.567780 80.200836L64.135483 76.419006L63.916138 72.601105L63.038330 70.983490C61.208862 70.863205,59.243912 70.655289,57.266556 70.378494Z" style="fill: rgb(0,0,0);stroke: none;"></path>
  <path d="M59.873520 70.708710L58.871490 72.252487L58.353333 76.041443L58.622620 79.856155L59.521530 81.462158C61.462204 81.672470,63.334503 81.805359,65.015366 81.842117L66.017395 80.298340L66.535553 76.509384L66.266266 72.694672L65.367355 71.088669C63.686493 71.051910,61.814194 70.919022,59.873520 70.708710Z" style="fill: rgb(0,0,0);stroke: none;"></path>
  <path d="M62.394958 70.943909L61.413223 72.500641L60.944656 76.296021L61.263809 80.106873L62.183655 81.700958C64.036774 81.837036,65.765594 81.887192,67.247040 81.832687L68.228775 80.275955L68.697342 76.480576L68.378189 72.669724L67.458344 71.075638C65.976898 71.130142,64.248077 71.079987,62.394958 70.943909Z" style="fill: rgb(0,0,0);stroke: none;"></path>
  <path d="M64.763016 71.073456L63.801743 72.642944L63.382904 76.444168L63.751938 80.250549L64.692581 81.832489C65.939636 81.871826,67.091354 81.861206,68.100403 81.793427L69.061676 80.223938L69.480515 76.422714L69.111481 72.616333L68.170837 71.034393C67.161789 71.102173,66.010071 71.112793,64.763016 71.073456Z" style="fill: rgb(0,0,0);stroke: none;"></path>
  <path d="M3.238876 61.809952L1.920868 63.094528L0.579254 66.675705L0.000000 70.455795L0.522324 72.220596C0.945908 72.505157,1.439301 72.815903,1.981506 73.141876L3.299515 71.857300L4.641129 68.276123L5.220383 64.496033L4.698059 62.731232C4.155853 62.405258,3.662460 62.094513,3.238876 61.809952Z" style="fill: rgb(0,0,0);stroke: none;"></path>
  <path d="M3.501175 62.010834L2.200073 63.312546L0.905426 66.910950L0.375671 70.698318L0.921036 72.456116C1.549652 72.864456,2.300339 73.317108,3.118500 73.785629L4.419601 72.483917L5.714249 68.885513L6.244003 65.098145L5.698639 63.340347C4.880478 62.871826,4.129791 62.419174,3.501175 62.010834Z" style="fill: rgb(0,0,0);stroke: none;"></path>
  <path d="M4.360504 62.576050L3.076553 63.894669L1.829117 67.509705L1.348984 71.303665L1.917297 73.054169C2.645584 73.496902,3.471115 73.971024,4.339294 74.448074L5.623245 73.129456L6.870682 69.514420L7.350815 65.720459L6.782501 63.969955C5.914322 63.492905,5.088791 63.018784,4.360504 62.576050Z" style="fill: rgb(0,0,0);stroke: none;"></path>
  <path d="M5.339813 63.180908L4.073242 64.516220L2.873260 68.147263L2.442841 71.947159L3.034027 73.690063C3.839447 74.155457,4.717316 74.639313,5.613022 75.113174L6.879593 73.777863L8.079575 70.146820L8.509995 66.346924L7.918808 64.604019C7.023102 64.130157,6.145233 63.646301,5.339813 63.180908Z" style="fill: rgb(0,0,0);stroke: none;"></path>
  <path d="M6.409088 63.809647L5.160095 65.161423L4.007736 68.807907L3.627075 72.613144L4.241028 74.348190C5.100998 74.824478,6.008591 75.306290,6.909195 75.765167L8.158188 74.413391L9.310547 70.766907L9.691208 66.961670L9.077255 65.226624C8.176651 64.767746,7.269058 64.285934,6.409088 63.809647Z" style="fill: rgb(0,0,0);stroke: none;"></path>
  <path d="M7.537125 64.446228L6.305954 65.814240L5.201462 69.475479L4.870682 73.285339L5.507309 75.012177C6.399323 75.487610,7.314133 75.955643,8.197144 76.387787L9.428314 75.019775L10.532806 71.358536L10.863586 67.548676L10.226959 65.821838C9.343948 65.389694,8.429138 64.921661,7.537125 64.446228Z" style="fill: rgb(0,0,0);stroke: none;"></path>
  <path d="M8.693359 65.074509L7.480194 66.458511L6.423691 70.133850L6.142792 73.947708L6.801941 75.666061C7.703384 76.128876,8.602814 76.571335,9.445618 76.964981L10.658783 75.580978L11.715286 71.905640L11.996185 68.091782L11.337036 66.373428C10.494232 65.979782,9.594803 65.537323,8.693359 65.074509Z" style="fill: rgb(0,0,0);stroke: none;"></path>
  <path d="M9.846939 65.678360L8.651962 67.078125L7.643631 70.767044L7.412643 74.584290L8.094223 76.293900C8.982559 76.732346,9.844055 77.137497,10.624115 77.480896L11.819092 76.081131L12.827423 72.392212L13.058411 68.574966L12.376831 66.865356C11.596771 66.521957,10.735275 66.116806,9.846939 65.678360Z" style="fill: rgb(0,0,0);stroke: none;"></path>
  <path d="M10.966629 66.241791L9.790100 67.657104L8.830185 71.358871L8.649231 75.178802L9.353134 76.879333C10.205795 77.281631,11.006821 77.637711,11.701584 77.919128L12.878113 76.503815L13.838028 72.802048L14.018982 68.982117L13.315079 67.281586C12.620316 67.000168,11.819290 66.644089,10.966629 66.241791Z" style="fill: rgb(0,0,0);stroke: none;"></path>
  <path d="M12.022568 66.748993L10.864685 68.179565L9.953293 71.893585L9.822357 75.715546L10.548477 77.406708C11.126251 77.664459,11.663574 77.890930,12.139450 78.075165C12.493088 78.212067,12.868271 78.347275,13.262512 78.480408L14.420395 77.049835L15.331787 73.335815L15.462723 69.513855L14.736603 67.822693C14.342361 67.689560,13.967178 67.554352,13.613541 67.417450C13.137665 67.233215,12.600342 67.006744,12.022568 66.748993Z" style="fill: rgb(0,0,0);stroke: none;"></path>
  <path d="M12.983643 67.183762L11.844559 68.629379L10.981842 72.354996L10.900894 76.178360L11.649078 77.859879C11.843689 77.940262,12.030777 78.015289,12.209213 78.084366C13.152313 78.449478,14.248657 78.802490,15.450882 79.136200L16.589966 77.690582L17.452682 73.964966L17.533630 70.141602L16.785446 68.460083C15.583221 68.126373,14.486877 67.773361,13.543777 67.408249C13.365341 67.339172,13.178253 67.264145,12.983643 67.183762Z" style="fill: rgb(0,0,0);stroke: none;"></path>
  <path d="M14.209305 67.671478L13.089249 69.131882L12.275375 72.868484L12.244492 76.692581L13.014633 78.364166C14.412689 78.857254,16.078064 79.324051,17.887665 79.745834L19.007721 78.285431L19.821594 74.548828L19.852478 70.724731L19.082336 69.053146C17.272736 68.631363,15.607361 68.164566,14.209305 67.671478Z" style="fill: rgb(0,0,0);stroke: none;"></path>
  <path d="M16.199966 68.318542L15.099121 69.793457L14.334213 73.540359L14.353394 77.364502L15.145309 79.025848C16.760910 79.491150,18.587860 79.921661,20.503098 80.298615L21.603943 78.823700L22.368851 75.076797L22.349670 71.252655L21.557755 69.591309C19.642517 69.214355,17.815567 68.783844,16.199966 68.318542Z" style="fill: rgb(0,0,0);stroke: none;"></path>
  <path d="M18.451767 68.923096L17.370331 70.412323L16.654587 74.168945L16.723846 77.992523L17.537491 79.643372C19.319824 80.073181,21.257599 80.459686,23.227737 80.784119L24.309174 79.294891L25.024918 75.538269L24.955658 71.714691L24.142014 70.063843C22.171875 69.739410,20.234100 69.352905,18.451767 68.923096Z" style="fill: rgb(0,0,0);stroke: none;"></path>
  <path d="M20.896942 69.475128L19.835098 70.978363L19.168579 74.744019L19.287888 78.566345L20.123047 80.206390C22.021210 80.592941,24.018860 80.927643,25.992920 81.191772L27.054764 79.688538L27.721283 75.922882L27.601974 72.100555L26.766815 70.460510C24.792755 70.196381,22.795105 69.861679,20.896942 69.475128Z" style="fill: rgb(0,0,0);stroke: none;"></path>
  <path d="M23.465378 69.963760L22.423294 71.480774L21.806122 75.254822L21.975449 79.075256L22.832016 80.704239C24.795258 81.039795,26.802048 81.314987,28.729294 81.511078L29.771378 79.994064L30.388550 76.220016L30.219223 72.399582L29.362656 70.770599C27.435410 70.574509,25.428619 70.299316,23.465378 69.963760Z" style="fill: rgb(0,0,0);stroke: none;"></path>
  <path d="M26.087723 70.378494L25.065598 71.909012L24.497894 75.690842L24.717239 79.508743L25.595047 81.126358C27.572403 81.403152,29.537354 81.611069,31.366821 81.731354L32.388947 80.200836L32.956650 76.419006L32.737305 72.601105L31.859497 70.983490C30.030029 70.863205,28.065079 70.655289,26.087723 70.378494Z" style="fill: rgb(0,0,0);stroke: none;"></path>
  <path d="M28.694687 70.708710L27.692657 72.252487L27.174500 76.041443L27.443787 79.856155L28.342697 81.462158C30.283371 81.672470,32.155670 81.805359,33.836533 81.842117L34.838562 80.298340L35.356720 76.509384L35.087433 72.694672L34.188522 71.088669C32.507660 71.051910,30.635361 70.919022,28.694687 70.708710Z" style="fill: rgb(0,0,0);stroke: none;"></path>
  <path d="M31.216125 70.943909L30.234390 72.500641L29.765823 76.296021L30.084976 80.106873L31.004822 81.700958C32.857941 81.837036,34.586761 81.887192,36.068207 81.832687L37.049942 80.275955L37.518509 76.480576L37.199356 72.669724L36.279510 71.075638C34.798065 71.130142,33.069244 71.079987,31.216125 70.943909Z" style="fill: rgb(0,0,0);stroke: none;"></path>
  <path d="M33.584183 71.073456L32.622910 72.642944L32.204071 76.444168L32.573105 80.250549L33.513748 81.832489C34.760803 81.871826,35.912521 81.861206,36.921570 81.793427L37.882843 80.223938L38.301682 76.422714L37.932648 72.616333L36.992004 71.034393C35.982956 71.102173,34.831238 71.112793,33.584183 71.073456Z" style="fill: rgb(0,0,0);stroke: none;"></path>
  <path d="M34.383652 61.801163L33.074051 63.094345L31.755890 66.684219L31.201370 70.468033L31.735214 72.229385L32.358826 73.733185L33.668427 72.440002L34.986588 68.850128L35.541107 65.066315L35.007263 63.304962Z" style="fill: rgb(0,0,0);stroke: none;"></path>
  <path d="M34.402588 62.144196L33.127304 63.471191L31.903549 67.094315L31.448257 70.891327L32.028015 72.638092L32.885452 74.705856L34.160736 73.378860L35.384491 69.755737L35.839783 65.958725L35.260025 64.211960Z" style="fill: rgb(0,0,0);stroke: none;"></path>
  <path d="M34.654510 63.054825L33.414398 64.414764L32.285965 68.068695L31.930267 71.876343L32.555573 73.607315L33.413010 75.675034L34.653122 74.315094L35.781555 70.661163L36.137253 66.853516L35.511948 65.122543Z" style="fill: rgb(0,0,0);stroke: none;"></path>
  <path d="M34.905823 63.969131L33.701752 65.361053L32.669357 69.043243L32.413452 72.858856L33.083832 74.572861L33.941223 76.640549L35.145294 75.248627L36.177689 71.566437L36.433594 67.750824L35.763214 66.036819Z" style="fill: rgb(0,0,0);stroke: none;"></path>
  <path d="M35.871490 66.582733L35.156464 64.886841L33.989227 66.309814L33.053528 70.017792L32.897552 73.838837L33.754944 75.906509L34.469971 77.602402L35.637207 76.179428L36.572906 72.471451L36.728882 68.650406Z" style="fill: rgb(0,0,0);stroke: none;"></path>
  <path d="M36.165741 67.484970L35.406570 65.808380L34.276978 67.261429L33.438675 70.992630L33.382782 74.816452L34.240219 76.884186L34.999390 78.560776L36.128983 77.107727L36.967285 73.376526L37.023178 69.552704Z" style="fill: rgb(0,0,0);stroke: none;"></path>
  <path d="M36.459015 68.389587L35.656219 66.733444L34.565063 68.215546L33.824692 71.967407L33.868896 75.791351L34.726334 77.859070L35.529129 79.515213L36.620285 78.033112L37.360657 74.281250L37.316452 70.457306Z" style="fill: rgb(0,0,0);stroke: none;"></path>
  <path d="M36.751450 69.296860L35.905563 67.662292L34.853561 69.172470L34.211700 72.942444L34.356033 76.763931L35.213470 78.831650L36.059357 80.466217L37.111359 78.956039L37.753220 75.186066L37.608887 71.364578Z" style="fill: rgb(0,0,0);stroke: none;"></path>
  <path d="M37.043060 70.206757L36.154694 68.594910L35.142578 70.132080L34.599625 73.917526L34.843903 77.733887L35.701340 79.801605L36.589706 81.413452L37.601822 79.876282L38.144775 76.090836L37.900497 72.274475Z" style="fill: rgb(0,0,0);stroke: none;"></path>
  <path d="M37.333862 71.119049L36.403610 69.531006L35.432098 71.094147L34.988388 74.892502L35.332489 78.701172L35.956100 80.204971L36.886353 81.793015L37.857864 80.229874L38.301575 76.431519L37.957474 72.622849Z" style="fill: rgb(0,0,0);stroke: none;"></path>
  <path d="M53.938431 31.871552L52.612030 33.147461L51.246994 36.719757L50.643005 40.495972L51.153732 42.264130L82.332565 50.618469L83.658966 49.342560L85.024002 45.770264L85.627991 41.994049L85.117264 40.225891Z" style="fill: rgb(0,0,0);stroke: none;"></path>
</svg>
