<?xml version="1.0"?>
<!-- Created by MetaPost 2.11 on 2026.02.09:1107 -->
<svg version="1.1" xmlns="http://www.w3.org/2000/svg" xmlns:xlink="http://www.w3.org/1999/xlink" width="60.522430" height="82.490021" viewBox="0 0 60.522430 82.490021">
<!-- Original BoundingBox: -5.379593 -41.245010 55.142838 41.245010 -->
  <path d="M48.418137 17.334824C48.418137 7.290298,38.520996 5.379593,26.898865 5.379593C13.182541 5.379593,5.379593 15.076233,5.379593 29.290054C5.379593 39.334579,15.276733 41.245285,26.898865 41.245285" style="stroke:rgb(0,0,0); stroke-width: 10.759186;stroke-linecap: round;stroke-linejoin: round;stroke-miterlimit: 10.000000;fill: none;"></path>
  <path d="M48.418137 65.155197C48.418137 75.199722,38.520996 77.110428,26.898865 77.110428C13.182541 77.110428,5.379593 67.413788,5.379593 53.199966C5.379593 43.155441,15.276733 41.244736,26.898865 41.244736" style="stroke:rgb(0,0,0); stroke-width: 10.759186;stroke-linecap: round;stroke-linejoin: round;stroke-miterlimit: 10.000000;fill: none;"></path>
  <path d="M53.797729 17.334824L52.222000 16.383850L48.418137 15.989914L44.614273 16.383850L43.038544 17.334824L43.038544 65.155197L44.614273 66.106171L48.418137 66.500107L52.222000 66.106171L53.797729 65.155197Z" style="fill: rgb(0,0,0);stroke: none;"></path>
  <path d="M26.898865 5.379593C26.898865 16.828125,27.824707 26.899063,37.658249 26.899063" style="stroke:rgb(0,0,0); stroke-width: 10.759186;stroke-linecap: round;stroke-linejoin: round;stroke-miterlimit: 10.000000;fill: none;"></path>
  <path d="M37.658249 21.519470L36.707275 23.095200L36.313339 26.899063L36.707275 30.702927L37.658249 32.278656L59.177521 32.278656L60.128494 30.702927L60.522430 26.899063L60.128494 23.095200L59.177521 21.519470Z" style="fill: rgb(0,0,0);stroke: none;"></path>
</svg>
