<?xml version="1.0"?>
<!-- Created by MetaPost 2.11 on 2026.02.09:1107 -->
<svg version="1.1" xmlns="http://www.w3.org/2000/svg" xmlns:xlink="http://www.w3.org/1999/xlink" width="34.984985" height="82.490021" viewBox="0 0 34.984985 82.490021">
<!-- Original BoundingBox: -17.492493 -41.245010 17.492493 41.245010 -->
  <path d="M17.492493 77.110428L17.492493 5.379593" style="stroke:rgb(0,0,0); stroke-width: 10.759186;stroke-linecap: round;stroke-linejoin: round;stroke-miterlimit: 10.000000;fill: none;"></path>
  <path d="M6.733109 -0.000000L5.782135 1.575729L5.388199 5.379593L5.782135 9.183456L6.733109 10.759186L28.251877 10.759186L29.202850 9.183456L29.596786 5.379593L29.202850 1.575729L28.251877 -0.000000Z" style="fill: rgb(0,0,0);stroke: none;"></path>
  <path d="M6.733109 71.730835L5.782135 73.306564L5.388199 77.110428L5.782135 80.914291L6.733109 82.490021L28.251877 82.490021L29.202850 80.914291L29.596786 77.110428L29.202850 73.306564L28.251877 71.730835Z" style="fill: rgb(0,0,0);stroke: none;"></path>
  <path d="M3.295425 31.871552L1.969025 33.147461L0.603989 36.719757L0.000000 40.495972L0.510727 42.264130L31.689560 50.618469L33.015961 49.342560L34.380997 45.770264L34.984985 41.994049L34.474258 40.225891Z" style="fill: rgb(0,0,0);stroke: none;"></path>
</svg>
