<?xml version="1.0"?>
<!-- Created by MetaPost 2.11 on 2026.02.09:1107 -->
<svg version="1.1" xmlns="http://www.w3.org/2000/svg" xmlns:xlink="http://www.w3.org/1999/xlink" width="60.522430" height="82.490585" viewBox="0 0 60.522430 82.490585">
<!-- Original BoundingBox: -55.142838 -41.245560 5.379593 41.245026 -->
  <g transform="matrix(-1.000000,-0.000000,-0.000000,1.000000,0.000000,0.000000)">
    <path d="M-12.104294 17.334839C-12.104294 7.290314,-22.001434 5.379608,-33.623566 5.379608C-47.339890 5.379608,-55.142838 15.076248,-55.142838 29.290070C-55.142838 38.145859,-55.142838 44.344742,-55.142838 53.200531C-55.142838 67.414352,-47.339890 77.110992,-33.623566 77.110992C-22.001434 77.110992,-12.104294 75.200287,-12.104294 65.155762" style="stroke:rgb(0,0,0); stroke-width: 10.759186;stroke-linecap: round;stroke-linejoin: round;stroke-miterlimit: 10.000000;fill: none;"></path>
  </g>
  <path d="M17.483887 1.344910L15.908157 0.393936L12.104294 -0.000000L8.300430 0.393936L6.724701 1.344910L6.724701 81.145142L8.300430 82.096115L12.104294 82.490051L15.908157 82.096115L17.483887 81.145142Z" style="fill: rgb(0,0,0);stroke: none;"></path>
  <path d="M12.104294 10.759201L13.055267 9.183472L13.449203 5.379608L13.055267 1.575745L12.104294 0.000015L1.344910 0.000015L0.393936 1.575745L0.000000 5.379608L0.393936 9.183472L1.344910 10.759201Z" style="fill: rgb(0,0,0);stroke: none;"></path>
  <path d="M12.104294 82.490036L13.055267 80.914307L13.449203 77.110443L13.055267 73.306580L12.104294 71.730850L1.344910 71.730850L0.393936 73.306580L0.000000 77.110443L0.393936 80.914307L1.344910 82.490036Z" style="fill: rgb(0,0,0);stroke: none;"></path>
  <g transform="matrix(-1.000000,-0.000000,-0.000000,1.000000,0.000000,0.000000)">
    <path d="M-12.104294 17.334839C-12.104294 7.290314,-22.001434 5.379608,-33.623566 5.379608C-47.339890 5.379608,-55.142838 15.076248,-55.142838 29.290070C-55.142838 38.145859,-55.142838 44.344742,-55.142838 53.200531C-55.142838 67.414352,-47.339890 77.110992,-33.623566 77.110992C-22.001434 77.110992,-12.104294 75.200287,-12.104294 65.155762" style="stroke:rgb(0,0,0); stroke-width: 10.759186;stroke-linecap: round;stroke-linejoin: round;stroke-miterlimit: 10.000000;fill: none;"></path>
  </g>
  <path d="M17.483887 1.344910L15.908157 0.393936L12.104294 -0.000000L8.300430 0.393936L6.724701 1.344910L6.724701 81.145142L8.300430 82.096115L12.104294 82.490051L15.908157 82.096115L17.483887 81.145142Z" style="fill: rgb(0,0,0);stroke: none;"></path>
  <path d="M12.104294 10.759201L13.055267 9.183472L13.449203 5.379608L13.055267 1.575745L12.104294 0.000015L1.344910 0.000015L0.393936 1.575745L0.000000 5.379608L0.393936 9.183472L1.344910 10.759201Z" style="fill: rgb(0,0,0);stroke: none;"></path>
  <path d="M12.104294 82.490036L13.055267 80.914307L13.449203 77.110443L13.055267 73.306580L12.104294 71.730850L1.344910 71.730850L0.393936 73.306580L0.000000 77.110443L0.393936 80.914307L1.344910 82.490036Z" style="fill: rgb(0,0,0);stroke: none;"></path>
</svg>
