<?xml version="1.0"?>
<!-- Created by MetaPost 2.11 on 2026.02.09:1107 -->
<svg version="1.1" xmlns="http://www.w3.org/2000/svg" xmlns:xlink="http://www.w3.org/1999/xlink" width="75.316498" height="82.490021" viewBox="0 0 75.316498 82.490021">
<!-- Original BoundingBox: -37.658249 -41.245010 37.658249 41.245010 -->
  <path d="M12.231598 17.286591C7.749680 23.428696,5.379593 31.650818,5.379593 41.245010C5.379593 62.565582,17.083923 77.110428,37.658249 77.110428C58.232574 77.110428,69.936905 62.565582,69.936905 41.245010C69.936905 19.924438,58.232574 5.379593,37.658249 5.379593C34.261368 5.379593,31.759750 8.092834,29.474319 10.632217C26.447693 13.995148,24.746979 18.556046,24.746979 23.312302C24.746979 28.068558,26.447693 32.629456,29.474319 35.992386C39.818756 47.486237,57.000656 49.716705,69.936905 41.245010" style="stroke:rgb(0,0,0); stroke-width: 10.759186;stroke-linecap: round;stroke-linejoin: round;stroke-miterlimit: 10.000000;fill: none;"></path>
  <path d="M19.333786 17.311478L18.892014 15.524826L16.480820 12.556534L13.512527 10.145340L11.725876 9.703568C10.524094 10.855316,9.423767 12.117554,8.427734 13.482529L8.869507 15.269180L11.280701 18.237473L14.248993 20.648666L16.035645 21.090439C17.031677 19.725464,18.132004 18.463226,19.333786 17.311478Z" style="fill: rgb(0,0,0);stroke: none;"></path>
</svg>
