<?xml version="1.0"?>
<!-- Created by MetaPost 2.11 on 2026.02.09:1107 -->
<svg version="1.1" xmlns="http://www.w3.org/2000/svg" xmlns:xlink="http://www.w3.org/1999/xlink" width="53.797729" height="83.835480" viewBox="0 0 53.797729 83.835480">
<!-- Original BoundingBox: -5.379593 -41.245560 48.418137 42.589920 -->
  <path d="M48.418137 18.679733C48.418137 8.635208,38.520996 6.724503,26.898865 6.724503C13.182541 6.724503,5.379593 16.421143,5.379593 30.634964C5.379593 39.490753,5.379593 45.689636,5.379593 54.545425C5.379593 68.759247,13.182541 78.455887,26.898865 78.455887C38.520996 78.455887,48.418137 76.545181,48.418137 66.500656" style="stroke:rgb(0,0,0); stroke-width: 10.759186;stroke-linecap: round;stroke-linejoin: round;stroke-miterlimit: 10.000000;fill: none;"></path>
  <path d="M53.797729 1.344910L52.222000 0.393936L48.418137 -0.000000L44.614273 0.393936L43.038544 1.344910L43.038544 18.679459L44.614273 19.630432L48.418137 20.024368L52.222000 19.630432L53.797729 18.679459Z" style="fill: rgb(0,0,0);stroke: none;"></path>
  <path d="M53.797729 61.121063L52.222000 60.170090L48.418137 59.776154L44.614273 60.170090L43.038544 61.121063L43.038544 66.500656L44.614273 67.451630L48.418137 67.845566L52.222000 67.451630L53.797729 66.500656Z" style="fill: rgb(0,0,0);stroke: none;"></path>
</svg>
