<?xml version="1.0"?>
<!-- Created by MetaPost 2.11 on 2026.02.09:1107 -->
<svg version="1.1" xmlns="http://www.w3.org/2000/svg" xmlns:xlink="http://www.w3.org/1999/xlink" width="72.626572" height="82.490021" viewBox="0 0 72.626572 82.490021">
<!-- Original BoundingBox: -60.522278 -41.245010 12.104294 41.245010 -->
  <path d="M60.522278 77.110428L60.522278 5.379593" style="stroke:rgb(0,0,0); stroke-width: 10.759186;stroke-linecap: round;stroke-linejoin: round;stroke-miterlimit: 10.000000;fill: none;"></path>
  <path d="M49.762894 -0.000000L48.811920 1.575729L48.417984 5.379593L48.811920 9.183456L49.762894 10.759186L71.281662 10.759186L72.232635 9.183456L72.626572 5.379593L72.232635 1.575729L71.281662 -0.000000Z" style="fill: rgb(0,0,0);stroke: none;"></path>
  <path d="M49.762894 71.730835L48.811920 73.306564L48.417984 77.110428L48.811920 80.914291L49.762894 82.490021L71.281662 82.490021L72.232635 80.914291L72.626572 77.110428L72.232635 73.306564L71.281662 71.730835Z" style="fill: rgb(0,0,0);stroke: none;"></path>
  <path d="M1.344910 71.730835L0.393936 73.306564L0.000000 77.110428L0.393936 80.914291L1.344910 82.490021L22.863678 82.490021L23.814651 80.914291L24.208588 77.110428L23.814651 73.306564L22.863678 71.730835Z" style="fill: rgb(0,0,0);stroke: none;"></path>
  <path d="M60.522278 77.110428C60.522278 70.689514,57.971191 64.532364,53.431274 59.992432C48.891342 55.452515,42.734192 52.901428,36.313278 52.901428C29.892365 52.901428,23.735214 55.452515,19.195282 59.992432C14.655365 64.532364,12.104279 70.689514,12.104279 77.110428" style="stroke:rgb(0,0,0); stroke-width: 10.759186;stroke-linecap: round;stroke-linejoin: round;stroke-miterlimit: 10.000000;fill: none;"></path>
</svg>
