<?xml version="1.0"?>
<!-- Created by MetaPost 2.11 on 2026.02.09:1107 -->
<svg version="1.1" xmlns="http://www.w3.org/2000/svg" xmlns:xlink="http://www.w3.org/1999/xlink" width="91.455841" height="82.490021" viewBox="0 0 91.455841 82.490021">
<!-- Original BoundingBox: -45.727921 -41.245010 45.727921 41.245010 -->
  <path d="M45.727921 5.379593C31.986603 5.379593,21.518921 10.807159,21.518921 23.312302C21.518921 35.817444,31.986603 41.245010,45.727921 41.245010C59.469238 41.245010,69.936920 46.672577,69.936920 59.177719C69.936920 71.682861,59.469238 77.110428,45.727921 77.110428C31.986603 77.110428,21.518921 71.682861,21.518921 59.177719C21.518921 46.672577,31.986603 41.245010,45.727921 41.245010C59.469238 41.245010,69.936920 35.817444,69.936920 23.312302C69.936920 12.057739,58.095016 5.379593,45.727921 5.379593Z" style="stroke:rgb(0,0,0); stroke-width: 10.759186;stroke-linecap: round;stroke-linejoin: round;stroke-miterlimit: 10.000000;fill: none;"></path>
  <path d="M45.727921 41.245010C66.861465 41.245010,86.076248 41.011993,86.076248 59.177719" style="stroke:rgb(0,0,0); stroke-width: 10.759186;stroke-linecap: round;stroke-linejoin: round;stroke-miterlimit: 10.000000;fill: none;"></path>
  <path d="M45.727921 41.245010C24.594376 41.245010,5.379593 41.478027,5.379593 23.312302" style="stroke:rgb(0,0,0); stroke-width: 10.759186;stroke-linecap: round;stroke-linejoin: round;stroke-miterlimit: 10.000000;fill: none;"></path>
  <path d="M10.759186 17.932709L9.183456 16.981735L5.379593 16.587799L1.575729 16.981735L0.000000 17.932709L0.000000 23.312302L1.575729 24.263275L5.379593 24.657211L9.183456 24.263275L10.759186 23.312302Z" style="fill: rgb(0,0,0);stroke: none;"></path>
  <path d="M80.696655 64.557312L82.272385 65.508286L86.076248 65.902222L89.880112 65.508286L91.455841 64.557312L91.455841 59.177719L89.880112 58.226746L86.076248 57.832809L82.272385 58.226746L80.696655 59.177719Z" style="fill: rgb(0,0,0);stroke: none;"></path>
</svg>
