<?xml version="1.0"?>
<!-- Created by MetaPost 2.11 on 2026.02.09:1107 -->
<svg version="1.1" xmlns="http://www.w3.org/2000/svg" xmlns:xlink="http://www.w3.org/1999/xlink" width="63.212906" height="86.795349" viewBox="0 0 63.212906 86.795349">
<!-- Original BoundingBox: -12.642380 -43.397400 50.570526 43.397949 -->
  <g transform="matrix(1.000000,-0.000000,-0.000000,-1.000000,0.000000,0.000000)">
    <path d="M55.680923 -67.308136C55.680923 -77.352661,45.783783 -79.263367,34.161652 -79.263367C20.445328 -79.263367,12.642380 -69.566727,12.642380 -55.352905C12.642380 -37.641327,12.642380 -25.243561,12.642380 -7.531982" style="stroke:rgb(0,0,0); stroke-width: 15.063950;stroke-linecap: round;stroke-linejoin: round;stroke-miterlimit: 10.000000;fill: none;"></path>
  </g>
  <path d="M63.212906 59.776154L61.006729 58.444702L55.680923 57.893158L50.355118 58.444702L48.148941 59.776154L48.148941 67.308136L50.355118 68.639587L55.680923 69.191132L61.006729 68.639587L63.212906 67.308136Z" style="fill: rgb(0,0,0);stroke: none;"></path>
  <path d="M1.882996 0.000549L0.551544 2.206726L0.000000 7.532532L0.551544 12.858337L1.882996 15.064514L23.401764 15.064514L24.733215 12.858337L25.284760 7.532532L24.733215 2.206726L23.401764 0.000549Z" style="fill: rgb(0,0,0);stroke: none;"></path>
  <g transform="matrix(1.000000,-0.000000,-0.000000,-1.000000,0.000000,0.000000)">
    <path d="M55.680923 -67.308136C55.680923 -77.352661,45.783783 -79.263367,34.161652 -79.263367C20.445328 -79.263367,12.642380 -69.566727,12.642380 -55.352905C12.642380 -37.641327,12.642380 -25.243561,12.642380 -7.531982" style="stroke:rgb(0,0,0); stroke-width: 15.063950;stroke-linecap: round;stroke-linejoin: round;stroke-miterlimit: 10.000000;fill: none;"></path>
  </g>
  <path d="M63.212906 59.776154L61.006729 58.444702L55.680923 57.893158L50.355118 58.444702L48.148941 59.776154L48.148941 67.308136L50.355118 68.639587L55.680923 69.191132L61.006729 68.639587L63.212906 67.308136Z" style="fill: rgb(0,0,0);stroke: none;"></path>
  <path d="M1.882996 0.000549L0.551544 2.206726L0.000000 7.532532L0.551544 12.858337L1.882996 15.064514L23.401764 15.064514L24.733215 12.858337L25.284760 7.532532L24.733215 2.206726L23.401764 0.000549Z" style="fill: rgb(0,0,0);stroke: none;"></path>
</svg>
