<?xml version="1.0"?>
<!-- Created by MetaPost 2.11 on 2026.02.09:1107 -->
<svg version="1.1" xmlns="http://www.w3.org/2000/svg" xmlns:xlink="http://www.w3.org/1999/xlink" width="58.102509" height="86.215546" viewBox="0 0 58.102509 86.215546">
<!-- Original BoundingBox: -50.570526 -42.818146 7.531982 43.397400 -->
  <path d="M43.038544 84.158554L45.244720 85.490005L50.570526 86.041550L55.896332 85.490005L58.102509 84.158554L58.102509 26.688614L55.896332 25.357162L50.570526 24.805618L45.244720 25.357162L43.038544 26.688614Z" style="fill: rgb(0,0,0);stroke: none;"></path>
  <path d="M5.704132 58.746780L3.858780 60.545319L1.980408 65.559341L1.169388 70.851868L1.900665 73.322769C3.129974 74.111496,4.313873 74.840881,5.471527 75.519394L7.316879 73.720856L9.195251 68.706833L10.006271 63.414307L9.274994 60.943405C8.117340 60.264893,6.933441 59.535507,5.704132 58.746780Z" style="fill: rgb(0,0,0);stroke: none;"></path>
  <path d="M6.522568 59.303192L4.700897 61.125717L2.888275 66.163879L2.146576 71.466568L2.910110 73.927673C4.570816 74.972092,6.154724 75.908310,7.711700 76.758377L9.533371 74.935852L11.345993 69.897690L12.087692 64.595001L11.324158 62.133896C9.767181 61.283829,8.183273 60.347610,6.522568 59.303192Z" style="fill: rgb(0,0,0);stroke: none;"></path>
  <path d="M8.648483 60.639496L6.850830 62.485687L5.104309 67.547119L4.432037 72.859039L5.227737 75.309937C6.828873 76.260513,8.375885 77.112915,9.918625 77.889191L11.716278 76.042999L13.462799 70.981567L14.135071 65.669647L13.339371 63.218750C11.796631 62.442474,10.249619 61.590073,8.648483 60.639496Z" style="fill: rgb(0,0,0);stroke: none;"></path>
  <path d="M10.706329 61.854950L8.933014 63.724518L7.252914 68.808350L6.650269 74.128601L7.477966 76.568848C9.040253 77.434784,10.571060 78.212555,12.120255 78.924194L13.893570 77.054626L15.573669 71.970795L16.176315 66.650543L15.348618 64.210297C13.799423 63.498657,12.268616 62.720886,10.706329 61.854950Z" style="fill: rgb(0,0,0);stroke: none;"></path>
  <path d="M12.725555 62.962677L10.976852 64.855316L9.363434 69.960754L8.830460 75.288483L9.690063 77.717712C11.233994 78.508026,12.769119 79.220200,14.345291 79.876266L16.093994 77.983627L17.707413 72.878189L18.240387 67.550461L17.380783 65.121231C15.804611 64.465164,14.269485 63.752991,12.725555 62.962677Z" style="fill: rgb(0,0,0);stroke: none;"></path>
  <path d="M14.733521 63.974899L13.009766 65.890259L11.463364 71.016373L11.000244 76.350586L11.891571 78.768326C13.437851 79.492172,14.997986 80.147888,16.621841 80.757523L18.345596 78.842163L19.891998 73.716049L20.355118 68.381836L19.463791 65.964096C17.839935 65.354462,16.279800 64.698746,14.733521 63.974899Z" style="fill: rgb(0,0,0);stroke: none;"></path>
  <path d="M16.758560 64.903900L15.060013 66.841644L13.580811 71.987518L13.187485 77.327301L14.110367 79.733185C15.679520 80.399643,17.285187 81.007980,18.977234 81.580246L20.675781 79.642502L22.154984 74.496628L22.548309 69.156845L21.625427 66.750961C19.933380 66.178696,18.327713 65.570358,16.758560 64.903900Z" style="fill: rgb(0,0,0);stroke: none;"></path>
  <path d="M18.828644 65.762024L17.155579 67.721848L15.743820 72.886703L15.420410 78.231247L16.374695 80.624878C17.987366 81.243057,19.659225 81.813141,21.440125 82.357178L23.113190 80.397354L24.524948 75.232498L24.848358 69.887955L23.894073 67.494324C22.113174 66.950287,20.441315 66.380203,18.828644 65.762024Z" style="fill: rgb(0,0,0);stroke: none;"></path>
  <path d="M20.971039 66.561661L19.323807 68.543213L17.979813 73.726105L17.726456 79.074402L18.712006 81.455307C20.388763 82.034317,22.147354 82.575256,24.037659 83.100143L25.684891 81.118591L27.028885 75.935699L27.282242 70.587402L26.296692 68.206497C24.406387 67.681610,22.647797 67.140671,20.971039 66.561661Z" style="fill: rgb(0,0,0);stroke: none;"></path>
  <path d="M23.215500 67.315598L21.594330 69.318542L20.318314 74.518570L20.134979 79.869720L21.151596 82.237503C22.432678 82.636749,23.769043 83.021149,25.179855 83.399170C25.708878 83.540924,26.229279 83.676666,26.742157 83.806519L28.363327 81.803574L29.639343 76.603546L29.822678 71.252396L28.806061 68.884613C28.293182 68.754761,27.772781 68.619019,27.243759 68.477264C25.832947 68.099243,24.496582 67.714844,23.215500 67.315598Z" style="fill: rgb(0,0,0);stroke: none;"></path>
  <path d="M25.589386 68.035995L23.994568 70.059998L22.786682 75.276260L22.673370 80.629364L23.720886 82.983658C24.229980 83.127640,24.748535 83.270294,25.277557 83.412048C26.688370 83.790070,28.037888 84.125351,29.346954 84.420135L30.941772 82.396133L32.149658 77.179871L32.262970 71.826767L31.215454 69.472473C29.906387 69.177689,28.556870 68.842407,27.146057 68.464386C26.617035 68.322632,26.098480 68.179977,25.589386 68.035995Z" style="fill: rgb(0,0,0);stroke: none;"></path>
  <path d="M28.095276 68.728378L26.527084 70.773087L25.387589 76.004730L25.344345 81.358871L26.422607 83.699265C28.322113 84.189850,30.115570 84.600677,31.857193 84.937607L33.425385 82.892899L34.564880 77.661255L34.608124 72.307114L33.529861 69.966721C31.788239 69.629791,29.994781 69.218964,28.095276 68.728378Z" style="fill: rgb(0,0,0);stroke: none;"></path>
  <path d="M30.526962 69.338257L28.985687 71.403290L27.914749 76.649353L27.941589 82.003540L29.050369 84.329590C30.864609 84.748871,32.597458 85.091064,34.303101 85.362015L35.844376 83.296982L36.915314 78.050919L36.888474 72.696732L35.779694 70.370682C34.074051 70.099731,32.341202 69.757538,30.526962 69.338257Z" style="fill: rgb(0,0,0);stroke: none;"></path>
  <path d="M32.856750 69.853592L31.342636 71.938644L30.340515 77.198334L30.437515 82.551743L31.576660 84.863083C33.328171 85.213516,35.022919 85.489517,36.715103 85.696930L38.229218 83.611877L39.231339 78.352188L39.134338 72.998779L37.995193 70.687439C36.303009 70.480026,34.608261 70.204025,32.856750 69.853592Z" style="fill: rgb(0,0,0);stroke: none;"></path>
  <path d="M35.116943 70.278183L33.630249 72.382874L32.697052 77.655197L32.864075 83.006866L34.033386 85.303085C35.744446 85.587051,37.423370 85.799240,39.124359 85.945496L40.611053 83.840805L41.544250 78.568481L41.377228 73.216812L40.207916 70.920593C38.506927 70.774338,36.828003 70.562149,35.116943 70.278183Z" style="fill: rgb(0,0,0);stroke: none;"></path>
  <path d="M37.337143 70.615051L35.878143 72.738998L35.014038 78.023071L35.251099 83.372086L36.450363 85.652802C38.143463 85.872726,39.829056 86.023529,41.561371 86.111069L43.020370 83.987122L43.884476 78.703049L43.647415 73.354034L42.448151 71.073318C40.715836 70.985779,39.030243 70.834976,37.337143 70.615051Z" style="fill: rgb(0,0,0);stroke: none;"></path>
  <path d="M39.547943 70.867508L38.116882 73.010376L37.322037 78.305328L37.629120 83.650787L38.858154 85.915604C40.555603 86.073898,42.270187 86.165726,44.056122 86.196945L45.487183 84.054077L46.282028 78.759125L45.974945 73.413666L44.745911 71.148849C42.959976 71.117630,41.245392 71.025803,39.547943 70.867508Z" style="fill: rgb(0,0,0);stroke: none;"></path>
  <path d="M41.780014 71.038818L40.377106 73.200241L39.651611 78.505173L40.028625 83.846176L41.287186 86.094727C43.011444 86.193802,44.777466 86.229095,46.639481 86.206421L48.042389 84.044998L48.767883 78.740067L48.390869 73.399063L47.132309 71.150513C45.270294 71.173187,43.504272 71.137894,41.780014 71.038818Z" style="fill: rgb(0,0,0);stroke: none;"></path>
  <path d="M44.063126 71.132370L42.688599 73.311951L42.032578 78.625885L42.479431 83.961456L43.767288 86.193344C45.540695 86.235657,47.380508 86.216812,49.340927 86.142685L50.715454 83.963104L51.371475 78.649170L50.924622 73.313599L49.636765 71.081711C47.676346 71.155838,45.836533 71.174683,44.063126 71.132370Z" style="fill: rgb(0,0,0);stroke: none;"></path>
  <path d="M46.429169 71.151352L45.083298 73.348770L44.496902 78.670883L45.013565 84.000229L46.330566 86.215073C47.672394 86.206284,49.062363 86.166565,50.521347 86.098160L51.867218 83.900742L52.453613 78.578629L51.936951 73.249283L50.619949 71.034439C49.160965 71.102844,47.770996 71.142563,46.429169 71.151352Z" style="fill: rgb(0,0,0);stroke: none;"></path>
  <path d="M29.051254 7.531982C15.334930 7.531982,7.531982 17.228622,7.531982 31.442444C7.531982 45.656265,15.334930 55.352905,29.051254 55.352905C42.767578 55.352905,50.570526 45.656265,50.570526 31.442444C50.570526 17.228622,42.767578 7.531982,29.051254 7.531982Z" style="stroke:rgb(0,0,0); stroke-width: 15.063950;stroke-linecap: round;stroke-linejoin: round;stroke-miterlimit: 10.000000;fill: none;"></path>
</svg>
