<?xml version="1.0"?>
<!-- Created by MetaPost 2.11 on 2026.02.09:1107 -->
<svg version="1.1" xmlns="http://www.w3.org/2000/svg" xmlns:xlink="http://www.w3.org/1999/xlink" width="58.103012" height="90.560791" viewBox="0 0 58.103012 90.560791">
<!-- Original BoundingBox: -7.532486 -45.280396 50.570526 45.280396 -->
  <path d="M50.571030 21.370209C50.571030 11.325684,40.673889 9.414978,29.051758 9.414978C15.335434 9.414978,7.532486 19.111618,7.532486 33.325439C7.532486 43.369965,17.429626 45.280670,29.051758 45.280670" style="stroke:rgb(0,0,0); stroke-width: 15.063950;stroke-linecap: round;stroke-linejoin: round;stroke-miterlimit: 10.000000;fill: none;"></path>
  <path d="M7.531982 69.190582C7.531982 79.235107,17.429123 81.145813,29.051254 81.145813C42.767578 81.145813,50.570526 71.449173,50.570526 57.235352C50.570526 47.190826,40.673386 45.280121,29.051254 45.280121" style="stroke:rgb(0,0,0); stroke-width: 15.063950;stroke-linecap: round;stroke-linejoin: round;stroke-miterlimit: 10.000000;fill: none;"></path>
  <path d="M58.103012 1.882996L55.896835 0.551544L50.571030 -0.000000L45.245224 0.551544L43.039047 1.882996L43.039047 21.369934L45.245224 22.701385L50.571030 23.252930L55.896835 22.701385L58.103012 21.369934Z" style="fill: rgb(0,0,0);stroke: none;"></path>
  <path d="M0.000000 88.677795L2.206177 90.009247L7.531982 90.560791L12.857788 90.009247L15.063965 88.677795L15.063965 69.190857L12.857788 67.859406L7.531982 67.307861L2.206177 67.859406L0.000000 69.190857Z" style="fill: rgb(0,0,0);stroke: none;"></path>
</svg>
