<?xml version="1.0"?>
<!-- Created by MetaPost 2.11 on 2026.02.09:1107 -->
<svg version="1.1" xmlns="http://www.w3.org/2000/svg" xmlns:xlink="http://www.w3.org/1999/xlink" width="58.102509" height="86.794800" viewBox="0 0 58.102509 86.794800">
<!-- Original BoundingBox: -7.531982 -43.397400 50.570526 43.397400 -->
  <path d="M50.570526 19.487213C50.570526 9.442688,40.673386 7.531982,29.051254 7.531982C15.334930 7.531982,7.531982 17.228622,7.531982 31.442444C7.531982 41.486969,17.429123 43.397675,29.051254 43.397675" style="stroke:rgb(0,0,0); stroke-width: 15.063950;stroke-linecap: round;stroke-linejoin: round;stroke-miterlimit: 10.000000;fill: none;"></path>
  <path d="M50.570526 67.307587C50.570526 77.352112,40.673386 79.262817,29.051254 79.262817C15.334930 79.262817,7.531982 69.566177,7.531982 55.352356C7.531982 45.307831,17.429123 43.397125,29.051254 43.397125" style="stroke:rgb(0,0,0); stroke-width: 15.063950;stroke-linecap: round;stroke-linejoin: round;stroke-miterlimit: 10.000000;fill: none;"></path>
  <path d="M39.272964 31.442444L37.066788 30.110992L31.740982 29.559448L26.415176 30.110992L24.209000 31.442444L24.209000 55.352356L26.415176 56.683807L31.740982 57.235352L37.066788 56.683807L39.272964 55.352356Z" style="fill: rgb(0,0,0);stroke: none;"></path>
</svg>
