<?xml version="1.0"?>
<!-- Created by MetaPost 2.11 on 2026.02.09:1107 -->
<svg version="1.1" xmlns="http://www.w3.org/2000/svg" xmlns:xlink="http://www.w3.org/1999/xlink" width="68.592346" height="86.794800" viewBox="0 0 68.592346 86.794800">
<!-- Original BoundingBox: -12.642380 -43.397400 55.949966 43.397400 -->
  <g transform="matrix(-1.000000,-0.000000,-0.000000,-1.000000,0.000000,0.000000)">
    <path d="M-12.642380 -7.531982L-12.642380 -79.262817" style="stroke:rgb(0,0,0); stroke-width: 15.063950;stroke-linecap: round;stroke-linejoin: round;stroke-miterlimit: 10.000000;fill: none;"></path>
  </g>
  <path d="M23.401764 86.794800L24.733215 84.588623L25.284760 79.262817L24.733215 73.937012L23.401764 71.730835L1.882996 71.730835L0.551544 73.937012L0.000000 79.262817L0.551544 84.588623L1.882996 86.794800Z" style="fill: rgb(0,0,0);stroke: none;"></path>
  <path d="M23.401764 15.063965L24.733215 12.857788L25.284760 7.531982L24.733215 2.206177L23.401764 -0.000000L1.882996 -0.000000L0.551544 2.206177L0.000000 7.531982L0.551544 12.857788L1.882996 15.063965Z" style="fill: rgb(0,0,0);stroke: none;"></path>
  <path d="M68.592346 1.882996L66.386169 0.551544L61.060364 -0.000000L55.734558 0.551544L53.528381 1.882996L53.528381 8.966354L55.734558 10.297806L61.060364 10.849350L66.386169 10.297806L68.592346 8.966354Z" style="fill: rgb(0,0,0);stroke: none;"></path>
  <g transform="matrix(-1.000000,-0.000000,-0.000000,-1.000000,0.000000,0.000000)">
    <path d="M-12.642380 -7.531982C-12.642380 -13.952896,-15.193466 -20.110046,-19.733383 -24.649979C-24.273315 -29.189896,-30.430466 -31.740982,-36.851379 -31.740982C-43.272293 -31.740982,-49.429443 -29.189896,-53.969376 -24.649979C-58.169022 -20.450317,-60.666794 -14.866791,-61.017624 -8.970734" style="stroke:rgb(0,0,0); stroke-width: 15.063950;stroke-linecap: round;stroke-linejoin: round;stroke-miterlimit: 10.000000;fill: none;"></path>
  </g>
  <g transform="matrix(-1.000000,-0.000000,-0.000000,-1.000000,0.000000,0.000000)">
    <path d="M-12.642380 -7.531982L-12.642380 -79.262817" style="stroke:rgb(0,0,0); stroke-width: 15.063950;stroke-linecap: round;stroke-linejoin: round;stroke-miterlimit: 10.000000;fill: none;"></path>
  </g>
  <path d="M23.401764 86.794800L24.733215 84.588623L25.284760 79.262817L24.733215 73.937012L23.401764 71.730835L1.882996 71.730835L0.551544 73.937012L0.000000 79.262817L0.551544 84.588623L1.882996 86.794800Z" style="fill: rgb(0,0,0);stroke: none;"></path>
  <path d="M23.401764 15.063965L24.733215 12.857788L25.284760 7.531982L24.733215 2.206177L23.401764 -0.000000L1.882996 -0.000000L0.551544 2.206177L0.000000 7.531982L0.551544 12.857788L1.882996 15.063965Z" style="fill: rgb(0,0,0);stroke: none;"></path>
  <path d="M68.592346 1.882996L66.386169 0.551544L61.060364 -0.000000L55.734558 0.551544L53.528381 1.882996L53.528381 8.966354L55.734558 10.297806L61.060364 10.849350L66.386169 10.297806L68.592346 8.966354Z" style="fill: rgb(0,0,0);stroke: none;"></path>
  <g transform="matrix(-1.000000,-0.000000,-0.000000,-1.000000,0.000000,0.000000)">
    <path d="M-12.642380 -7.531982C-12.642380 -13.952896,-15.193466 -20.110046,-19.733383 -24.649979C-24.273315 -29.189896,-30.430466 -31.740982,-36.851379 -31.740982C-43.272293 -31.740982,-49.429443 -29.189896,-53.969376 -24.649979C-58.169022 -20.450317,-60.666794 -14.866791,-61.017624 -8.970734" style="stroke:rgb(0,0,0); stroke-width: 15.063950;stroke-linecap: round;stroke-linejoin: round;stroke-miterlimit: 10.000000;fill: none;"></path>
  </g>
</svg>
