<?xml version="1.0"?>
<!-- Created by MetaPost 2.11 on 2026.02.09:1107 -->
<svg version="1.1" xmlns="http://www.w3.org/2000/svg" xmlns:xlink="http://www.w3.org/1999/xlink" width="63.212906" height="88.677795" viewBox="0 0 63.212906 88.677795">
<!-- Original BoundingBox: -7.531982 -43.397400 55.680923 45.280396 -->
  <path d="M50.570526 21.370209C50.570526 11.325684,40.673386 9.414978,29.051254 9.414978C15.334930 9.414978,7.531982 19.111618,7.531982 33.325439C7.531982 47.539261,15.334930 57.235901,29.051254 57.235901C40.673386 57.235901,50.570526 55.325195,50.570526 45.280670" style="stroke:rgb(0,0,0); stroke-width: 15.063950;stroke-linecap: round;stroke-linejoin: round;stroke-miterlimit: 10.000000;fill: none;"></path>
  <path d="M50.570526 81.145813L50.570526 45.280670" style="stroke:rgb(0,0,0); stroke-width: 15.063950;stroke-linecap: round;stroke-linejoin: round;stroke-miterlimit: 10.000000;fill: none;"></path>
  <path d="M39.811142 73.613831L38.479691 75.820007L37.928146 81.145813L38.479691 86.471619L39.811142 88.677795L61.329910 88.677795L62.661362 86.471619L63.212906 81.145813L62.661362 75.820007L61.329910 73.613831Z" style="fill: rgb(0,0,0);stroke: none;"></path>
  <path d="M58.102509 1.882996L55.896332 0.551544L50.570526 -0.000000L45.244720 0.551544L43.038544 1.882996L43.038544 21.369934L45.244720 22.701385L50.570526 23.252930L55.896332 22.701385L58.102509 21.369934Z" style="fill: rgb(0,0,0);stroke: none;"></path>
</svg>
