<?xml version="1.0"?>
<!-- Created by MetaPost 2.11 on 2026.02.09:1107 -->
<svg version="1.1" xmlns="http://www.w3.org/2000/svg" xmlns:xlink="http://www.w3.org/1999/xlink" width="63.212906" height="86.795349" viewBox="0 0 63.212906 86.795349">
<!-- Original BoundingBox: -7.531982 -43.397949 55.680923 43.397400 -->
  <path d="M50.570526 19.487213C50.570526 9.442688,40.673386 7.531982,29.051254 7.531982C15.334930 7.531982,7.531982 17.228622,7.531982 31.442444C7.531982 40.298233,7.531982 46.497116,7.531982 55.352905C7.531982 69.566727,15.334930 79.263367,29.051254 79.263367C40.673386 79.263367,50.570526 77.352661,50.570526 67.308136" style="stroke:rgb(0,0,0); stroke-width: 15.063950;stroke-linecap: round;stroke-linejoin: round;stroke-miterlimit: 10.000000;fill: none;"></path>
  <path d="M58.102509 1.882996L55.896332 0.551544L50.570526 -0.000000L45.244720 0.551544L43.038544 1.882996L43.038544 84.911804L45.244720 86.243256L50.570526 86.794800L55.896332 86.243256L58.102509 84.911804Z" style="fill: rgb(0,0,0);stroke: none;"></path>
  <path d="M50.570526 -0.000000L49.239075 2.206177L48.687531 7.531982L49.239075 12.857788L50.570526 15.063965L61.329910 15.063965L62.661362 12.857788L63.212906 7.531982L62.661362 2.206177L61.329910 -0.000000Z" style="fill: rgb(0,0,0);stroke: none;"></path>
  <path d="M50.570526 71.730835L49.239075 73.937012L48.687531 79.262817L49.239075 84.588623L50.570526 86.794800L61.329910 86.794800L62.661362 84.588623L63.212906 79.262817L62.661362 73.937012L61.329910 71.730835Z" style="fill: rgb(0,0,0);stroke: none;"></path>
  <path d="M39.810638 21.519470L38.479187 23.725647L37.927643 29.051453L38.479187 34.377258L39.810638 36.583435L61.329407 36.583435L62.660858 34.377258L63.212402 29.051453L62.660858 23.725647L61.329407 21.519470Z" style="fill: rgb(0,0,0);stroke: none;"></path>
  <path d="M29.051254 7.531982C29.051254 18.980515,29.977097 29.051453,39.810638 29.051453" style="stroke:rgb(0,0,0); stroke-width: 15.063950;stroke-linecap: round;stroke-linejoin: round;stroke-miterlimit: 10.000000;fill: none;"></path>
</svg>
