<?xml version="1.0"?>
<!-- Created by MetaPost 2.11 on 2026.02.09:1107 -->
<svg version="1.1" xmlns="http://www.w3.org/2000/svg" xmlns:xlink="http://www.w3.org/1999/xlink" width="105.659058" height="86.794800" viewBox="0 0 105.659058 86.794800">
<!-- Original BoundingBox: -59.984818 -43.397400 45.674240 43.397400 -->
  <path d="M92.263474 7.531982L59.984818 79.262817" style="stroke:rgb(0,0,0); stroke-width: 15.063950;stroke-linecap: round;stroke-linejoin: round;stroke-miterlimit: 10.000000;fill: none;"></path>
  <path d="M81.504089 -0.000000L80.172638 2.206177L79.621094 7.531982L80.172638 12.857788L81.504089 15.063965L103.022858 15.063965L104.354309 12.857788L104.905853 7.531982L104.354309 2.206177L103.022858 -0.000000Z" style="fill: rgb(0,0,0);stroke: none;"></path>
  <path d="M19.636490 33.086014C16.426041 33.086014,13.347458 31.810471,11.077484 29.540512C8.807526 27.270538,7.531982 24.191956,7.531982 20.981506C7.531982 17.771057,8.807526 14.692474,11.077484 12.422501C13.347458 10.152542,16.426041 8.876999,19.636490 8.876999" style="stroke:rgb(0,0,0); stroke-width: 15.063950;stroke-linecap: round;stroke-linejoin: round;stroke-miterlimit: 10.000000;fill: none;"></path>
  <path d="M59.984818 79.262817L43.845490 43.397400C37.329132 28.916504,35.367691 8.876999,19.636490 8.876999" style="stroke:rgb(0,0,0); stroke-width: 15.063950;stroke-linecap: round;stroke-linejoin: round;stroke-miterlimit: 10.000000;fill: none;"></path>
  <path d="M19.636490 33.086014L84.193802 33.086014C89.666748 33.086014,93.840134 34.644440,97.211151 38.037506" style="stroke:rgb(0,0,0); stroke-width: 15.063950;stroke-linecap: round;stroke-linejoin: round;stroke-miterlimit: 10.000000;fill: none;"></path>
  <path d="M89.519730 27.760086L87.018234 28.378616L82.862320 31.754532L79.486404 35.910446L78.867874 38.411942C86.165131 38.411942,91.152069 41.182480,95.007202 47.378296L97.508698 46.759766L101.664612 43.383850L105.040527 39.227936L105.659058 36.726440C101.803925 30.530624,96.816986 27.760086,89.519730 27.760086Z" style="fill: rgb(0,0,0);stroke: none;"></path>
</svg>
