<?xml version="1.0"?>
<!-- Created by MetaPost 2.11 on 2026.02.09:1107 -->
<svg version="1.1" xmlns="http://www.w3.org/2000/svg" xmlns:xlink="http://www.w3.org/1999/xlink" width="111.361343" height="86.794800" viewBox="0 0 111.361343 86.794800">
<!-- Original BoundingBox: -12.642380 -43.397400 98.718964 43.397400 -->
  <path d="M12.642380 55.352356C12.642380 69.566177,20.445328 79.262817,34.161652 79.262817C47.877975 79.262817,55.680923 69.566177,55.680923 55.352356" style="stroke:rgb(0,0,0); stroke-width: 15.063950;stroke-linecap: round;stroke-linejoin: round;stroke-miterlimit: 10.000000;fill: none;"></path>
  <path d="M55.680420 55.352356C55.680420 69.566177,63.483368 79.262817,77.199692 79.262817C90.916016 79.262817,98.718964 69.566177,98.718964 55.352356" style="stroke:rgb(0,0,0); stroke-width: 15.063950;stroke-linecap: round;stroke-linejoin: round;stroke-miterlimit: 10.000000;fill: none;"></path>
  <path d="M20.174362 7.531982L17.968185 6.200531L12.642380 5.648987L7.316574 6.200531L5.110397 7.531982L5.110397 55.352356L7.316574 56.683807L12.642380 57.235352L17.968185 56.683807L20.174362 55.352356Z" style="fill: rgb(0,0,0);stroke: none;"></path>
  <path d="M63.212402 7.531982L61.006226 6.200531L55.680420 5.648987L50.354614 6.200531L48.148438 7.531982L48.148438 55.352356L50.354614 56.683807L55.680420 57.235352L61.006226 56.683807L63.212402 55.352356Z" style="fill: rgb(0,0,0);stroke: none;"></path>
  <path d="M106.250946 7.531982L104.044769 6.200531L98.718964 5.648987L93.393158 6.200531L91.186981 7.531982L91.186981 55.352356L93.393158 56.683807L98.718964 57.235352L104.044769 56.683807L106.250946 55.352356Z" style="fill: rgb(0,0,0);stroke: none;"></path>
  <path d="M1.882996 -0.000000L0.551544 2.206177L0.000000 7.531982L0.551544 12.857788L1.882996 15.063965L23.401764 15.063965L24.733215 12.857788L25.284760 7.531982L24.733215 2.206177L23.401764 -0.000000Z" style="fill: rgb(0,0,0);stroke: none;"></path>
  <path d="M44.921036 -0.000000L43.589584 2.206177L43.038040 7.531982L43.589584 12.857788L44.921036 15.063965L66.439804 15.063965L67.771255 12.857788L68.322800 7.531982L67.771255 2.206177L66.439804 -0.000000Z" style="fill: rgb(0,0,0);stroke: none;"></path>
  <path d="M87.959579 -0.000000L86.628128 2.206177L86.076584 7.531982L86.628128 12.857788L87.959579 15.063965L109.478348 15.063965L110.809799 12.857788L111.361343 7.531982L110.809799 2.206177L109.478348 -0.000000Z" style="fill: rgb(0,0,0);stroke: none;"></path>
</svg>
