<?xml version="1.0"?>
<!-- Created by MetaPost 2.11 on 2026.02.09:1107 -->
<svg version="1.1" xmlns="http://www.w3.org/2000/svg" xmlns:xlink="http://www.w3.org/1999/xlink" width="79.621277" height="86.794800" viewBox="0 0 79.621277 86.794800">
<!-- Original BoundingBox: -39.810638 -43.397400 39.810638 43.397400 -->
  <path d="M14.383987 19.438980C9.902069 25.581085,7.531982 33.803207,7.531982 43.397400C7.531982 64.717972,19.236313 79.262817,39.810638 79.262817C60.384964 79.262817,72.089294 64.717972,72.089294 43.397400C72.089294 22.076828,60.384964 7.531982,39.810638 7.531982C36.413757 7.531982,33.912140 10.245224,31.626709 12.784607C28.600082 16.147537,26.899368 20.708435,26.899368 25.464691C26.899368 30.220947,28.600082 34.781845,31.626709 38.144775C41.971146 49.638626,59.153046 51.869095,72.089294 43.397400" style="stroke:rgb(0,0,0); stroke-width: 15.063950;stroke-linecap: round;stroke-linejoin: round;stroke-miterlimit: 10.000000;fill: none;"></path>
  <path d="M23.008148 20.985840L22.389618 18.484344L19.013702 14.328430L14.857788 10.952515L12.356293 10.333984C11.154510 11.485733,10.054184 12.747971,9.058151 14.112946L9.676682 16.614441L13.052597 20.770355L17.208511 24.146271L19.710007 24.764801C20.706039 23.399826,21.806366 22.137589,23.008148 20.985840Z" style="fill: rgb(0,0,0);stroke: none;"></path>
  <path d="M41.682968 59.964890L43.889145 61.296341L49.214951 61.847885L54.540756 61.296341L56.746933 59.964890L56.746933 33.065826L54.540756 31.734375L49.214951 31.182831L43.889145 31.734375L41.682968 33.065826Z" style="fill: rgb(0,0,0);stroke: none;"></path>
</svg>
