<?xml version="1.0"?>
<!-- Created by MetaPost 2.11 on 2026.02.09:1107 -->
<svg version="1.1" xmlns="http://www.w3.org/2000/svg" xmlns:xlink="http://www.w3.org/1999/xlink" width="58.102509" height="86.794800" viewBox="0 0 58.102509 86.794800">
<!-- Original BoundingBox: -29.051254 -43.397400 29.051254 43.397400 -->
  <g transform="matrix(-1.000000,-0.000000,-0.000000,-1.000000,0.000000,0.000000)">
    <path d="M-29.051254 -55.352905C-42.767578 -55.352905,-50.570526 -45.656265,-50.570526 -31.442444C-50.570526 -17.228622,-42.767578 -7.531982,-29.051254 -7.531982C-15.334930 -7.531982,-7.531982 -17.228622,-7.531982 -31.442444C-7.531982 -45.656265,-15.334930 -55.352905,-29.051254 -55.352905Z" style="stroke:rgb(0,0,0); stroke-width: 15.063950;stroke-linecap: round;stroke-linejoin: round;stroke-miterlimit: 10.000000;fill: none;"></path>
  </g>
  <g transform="matrix(-1.000000,-0.000000,-0.000000,-1.000000,0.000000,0.000000)">
    <path d="M-50.570526 -31.442444C-50.570526 -56.529617,-50.606094 -79.262817,-29.051254 -79.262817" style="stroke:rgb(0,0,0); stroke-width: 15.063950;stroke-linecap: round;stroke-linejoin: round;stroke-miterlimit: 10.000000;fill: none;"></path>
  </g>
  <g transform="matrix(-1.000000,-0.000000,-0.000000,-1.000000,0.000000,0.000000)">
    <path d="M-7.531982 -67.307587C-7.531982 -77.352112,-17.429123 -79.262817,-29.051254 -79.262817" style="stroke:rgb(0,0,0); stroke-width: 15.063950;stroke-linecap: round;stroke-linejoin: round;stroke-miterlimit: 10.000000;fill: none;"></path>
  </g>
  <g transform="matrix(-1.000000,-0.000000,-0.000000,-1.000000,0.000000,0.000000)">
    <path d="M-29.051254 -55.352905C-42.767578 -55.352905,-50.570526 -45.656265,-50.570526 -31.442444C-50.570526 -17.228622,-42.767578 -7.531982,-29.051254 -7.531982C-15.334930 -7.531982,-7.531982 -17.228622,-7.531982 -31.442444C-7.531982 -45.656265,-15.334930 -55.352905,-29.051254 -55.352905Z" style="stroke:rgb(0,0,0); stroke-width: 15.063950;stroke-linecap: round;stroke-linejoin: round;stroke-miterlimit: 10.000000;fill: none;"></path>
  </g>
  <g transform="matrix(-1.000000,-0.000000,-0.000000,-1.000000,0.000000,0.000000)">
    <path d="M-50.570526 -31.442444C-50.570526 -56.529617,-50.606094 -79.262817,-29.051254 -79.262817" style="stroke:rgb(0,0,0); stroke-width: 15.063950;stroke-linecap: round;stroke-linejoin: round;stroke-miterlimit: 10.000000;fill: none;"></path>
  </g>
  <g transform="matrix(-1.000000,-0.000000,-0.000000,-1.000000,0.000000,0.000000)">
    <path d="M-7.531982 -67.307587C-7.531982 -77.352112,-17.429123 -79.262817,-29.051254 -79.262817" style="stroke:rgb(0,0,0); stroke-width: 15.063950;stroke-linecap: round;stroke-linejoin: round;stroke-miterlimit: 10.000000;fill: none;"></path>
  </g>
</svg>
