<?xml version="1.0"?>
<!-- Created by MetaPost 2.11 on 2026.02.09:1107 -->
<svg version="1.1" xmlns="http://www.w3.org/2000/svg" xmlns:xlink="http://www.w3.org/1999/xlink" width="36.507843" height="86.794800" viewBox="0 0 36.507843 86.794800">
<!-- Original BoundingBox: -18.253922 -43.397400 18.253922 43.397400 -->
  <path d="M18.253922 79.262817L18.253922 7.531982" style="stroke:rgb(0,0,0); stroke-width: 15.063950;stroke-linecap: round;stroke-linejoin: round;stroke-miterlimit: 10.000000;fill: none;"></path>
  <path d="M7.494537 -0.000000L6.163086 2.206177L5.611542 7.531982L6.163086 12.857788L7.494537 15.063965L29.013306 15.063965L30.344757 12.857788L30.896301 7.531982L30.344757 2.206177L29.013306 -0.000000Z" style="fill: rgb(0,0,0);stroke: none;"></path>
  <path d="M7.494537 71.730835L6.163086 73.937012L5.611542 79.262817L6.163086 84.588623L7.494537 86.794800L29.013306 86.794800L30.344757 84.588623L30.896301 79.262817L30.344757 73.937012L29.013306 71.730835Z" style="fill: rgb(0,0,0);stroke: none;"></path>
  <path d="M4.613922 31.944885L2.756836 33.731293L0.845673 38.732880L0.000000 44.019958L0.715088 46.495575L31.893921 54.849915L33.751007 53.063507L35.662170 48.061920L36.507843 42.774841L35.792755 40.299225Z" style="fill: rgb(0,0,0);stroke: none;"></path>
</svg>
