<?xml version="1.0"?>
<!-- Created by MetaPost 2.11 on 2026.02.09:1107 -->
<svg version="1.1" xmlns="http://www.w3.org/2000/svg" xmlns:xlink="http://www.w3.org/1999/xlink" width="71.551620" height="86.794800" viewBox="0 0 71.551620 86.794800">
<!-- Original BoundingBox: -39.810638 -43.397400 31.740982 43.397400 -->
  <g transform="matrix(1.000000,-0.000000,-0.000000,-1.000000,0.000000,0.000000)">
    <path d="M39.810638 -7.531982L39.810638 -61.330109" style="stroke:rgb(0,0,0); stroke-width: 15.063950;stroke-linecap: round;stroke-linejoin: round;stroke-miterlimit: 10.000000;fill: none;"></path>
  </g>
  <path d="M29.051254 -0.000000L27.719803 2.206177L27.168259 7.531982L27.719803 12.857788L29.051254 15.063965L50.570023 15.063965L51.901474 12.857788L52.453018 7.531982L51.901474 2.206177L50.570023 -0.000000Z" style="fill: rgb(0,0,0);stroke: none;"></path>
  <g transform="matrix(1.000000,-0.000000,-0.000000,-1.000000,0.000000,0.000000)">
    <path d="M39.810638 -61.330109C39.810638 -71.990402,33.958481 -79.262817,23.671310 -79.262817C13.384140 -79.262817,7.531982 -71.990402,7.531982 -61.330109C7.531982 -46.263443,22.377579 -43.397400,39.810638 -43.397400C54.488861 -43.397400,64.019638 -52.219299,64.019638 -66.709702" style="stroke:rgb(0,0,0); stroke-width: 15.063950;stroke-linecap: round;stroke-linejoin: round;stroke-miterlimit: 10.000000;fill: none;"></path>
  </g>
  <path d="M71.551620 66.709702L69.345444 65.378250L64.019638 64.826706L58.693832 65.378250L56.487656 66.709702L56.487656 81.145813L58.693832 82.477264L64.019638 83.028809L69.345444 82.477264L71.551620 81.145813Z" style="fill: rgb(0,0,0);stroke: none;"></path>
  <g transform="matrix(1.000000,-0.000000,-0.000000,-1.000000,0.000000,0.000000)">
    <path d="M39.810638 -7.531982L39.810638 -61.330109" style="stroke:rgb(0,0,0); stroke-width: 15.063950;stroke-linecap: round;stroke-linejoin: round;stroke-miterlimit: 10.000000;fill: none;"></path>
  </g>
  <path d="M29.051254 -0.000000L27.719803 2.206177L27.168259 7.531982L27.719803 12.857788L29.051254 15.063965L50.570023 15.063965L51.901474 12.857788L52.453018 7.531982L51.901474 2.206177L50.570023 -0.000000Z" style="fill: rgb(0,0,0);stroke: none;"></path>
  <g transform="matrix(1.000000,-0.000000,-0.000000,-1.000000,0.000000,0.000000)">
    <path d="M39.810638 -61.330109C39.810638 -71.990402,33.958481 -79.262817,23.671310 -79.262817C13.384140 -79.262817,7.531982 -71.990402,7.531982 -61.330109C7.531982 -46.263443,22.377579 -43.397400,39.810638 -43.397400C54.488861 -43.397400,64.019638 -52.219299,64.019638 -66.709702" style="stroke:rgb(0,0,0); stroke-width: 15.063950;stroke-linecap: round;stroke-linejoin: round;stroke-miterlimit: 10.000000;fill: none;"></path>
  </g>
  <path d="M71.551620 66.709702L69.345444 65.378250L64.019638 64.826706L58.693832 65.378250L56.487656 66.709702L56.487656 81.145813L58.693832 82.477264L64.019638 83.028809L69.345444 82.477264L71.551620 81.145813Z" style="fill: rgb(0,0,0);stroke: none;"></path>
</svg>
