<?xml version="1.0"?>
<!-- Created by MetaPost 2.11 on 2026.02.09:1107 -->
<svg version="1.1" xmlns="http://www.w3.org/2000/svg" xmlns:xlink="http://www.w3.org/1999/xlink" width="58.102509" height="84.283218" viewBox="0 0 58.102509 84.283218">
<!-- Original BoundingBox: -29.051254 -40.885818 29.051254 43.397400 -->
  <path d="M7.531982 7.531982L50.570526 7.531982" style="stroke:rgb(0,0,0); stroke-width: 15.063950;stroke-linecap: round;stroke-linejoin: round;stroke-miterlimit: 10.000000;fill: none;"></path>
  <path d="M50.570526 7.531982L24.747101 76.394058" style="stroke:rgb(0,0,0); stroke-width: 15.063950;stroke-linecap: round;stroke-linejoin: round;stroke-miterlimit: 10.000000;fill: none;"></path>
  <path d="M15.063965 7.531982L12.857788 6.200531L7.531982 5.648987L2.206177 6.200531L0.000000 7.531982C0.000000 11.959778,0.000000 15.059143,0.000000 19.486938L2.206177 20.818390L7.531982 21.369934L12.857788 20.818390L15.063965 19.486938C15.063965 15.059143,15.063965 11.959778,15.063965 7.531982Z" style="fill: rgb(0,0,0);stroke: none;"></path>
  <path d="M31.766251 79.012695L29.967712 77.167343L24.953690 75.288971L19.661163 74.477951L17.190262 75.209229L17.031601 75.632385L18.830139 77.477737L23.844162 79.356110L29.136688 80.167130L31.607590 79.435852Z" style="fill: rgb(0,0,0);stroke: none;"></path>
  <path d="M31.750809 79.022980L29.928284 77.201309L24.890121 75.388687L19.587433 74.646988L17.126328 75.410522L16.908157 75.992340L18.730682 77.814011L23.768845 79.626633L29.071533 80.368332L31.532639 79.604797Z" style="fill: rgb(0,0,0);stroke: none;"></path>
  <path d="M31.674637 79.191620L29.828445 77.393967L24.767014 75.647446L19.455093 74.975174L17.004196 75.770874L16.785995 76.352737L18.632187 78.150391L23.693619 79.896912L29.005539 80.569183L31.456436 79.773483Z" style="fill: rgb(0,0,0);stroke: none;"></path>
  <path d="M31.597214 79.359833L29.727646 77.586517L24.643814 75.906418L19.323563 75.303772L16.883316 76.131470L16.665146 76.713287L18.534714 78.486603L23.618546 80.166702L28.938797 80.769348L31.379044 79.941650Z" style="fill: rgb(0,0,0);stroke: none;"></path>
  <path d="M31.518585 79.527893L29.625946 77.779190L24.520508 76.165771L19.192780 75.632797L16.763550 76.492401L16.545349 77.074265L18.437988 78.822968L23.543427 80.436386L28.871155 80.969360L31.300385 80.109756Z" style="fill: rgb(0,0,0);stroke: none;"></path>
  <path d="M31.438599 79.695572L29.523239 77.971817L24.397125 76.425415L19.062912 75.962296L16.645172 76.853622L16.427002 77.435440L18.342361 79.159195L23.468475 80.705597L28.802689 81.168716L31.220428 80.277390Z" style="fill: rgb(0,0,0);stroke: none;"></path>
  <path d="M31.357361 79.863190L29.419617 78.164642L24.273743 76.685440L18.933960 76.292114L16.528076 77.214996L16.309906 77.796814L18.247650 79.495361L23.393524 80.974564L28.733307 81.367889L31.139191 80.445007Z" style="fill: rgb(0,0,0);stroke: none;"></path>
  <path d="M31.274948 80.030563L29.315125 78.357498L24.150269 76.945740L18.805725 76.622330L16.412094 77.576614L16.193924 78.158478L18.153748 79.831543L23.318604 81.243301L28.663147 81.566711L31.056778 80.612427Z" style="fill: rgb(0,0,0);stroke: none;"></path>
  <path d="M31.191193 80.197479L29.209641 78.550247L24.026749 77.206253L18.678452 76.952896L16.297546 77.938446L16.079376 78.520264L18.060928 80.167496L23.243820 81.511490L28.592117 81.764847L30.973022 80.779297Z" style="fill: rgb(0,0,0);stroke: none;"></path>
  <path d="M31.106140 80.364410L29.103195 78.743240L23.903168 77.467224L18.552017 77.283890L16.184235 78.300507L15.966064 78.882324L17.969009 80.503494L23.169037 81.779510L28.520187 81.962845L30.887970 80.946228Z" style="fill: rgb(0,0,0);stroke: none;"></path>
  <path d="M31.019852 80.531189L28.995850 78.936371L23.779587 77.728485L18.426483 77.615173L16.072189 78.662689L15.854019 79.244507L17.878021 80.839325L23.094284 82.047211L28.447388 82.160522L30.801682 81.113007Z" style="fill: rgb(0,0,0);stroke: none;"></path>
  <path d="M30.932281 80.697739L28.887573 79.129547L23.655930 77.990051L18.301788 77.946808L15.961395 79.025070L15.743225 79.606888L17.787933 81.175079L23.019577 82.314575L28.373718 82.357819L30.714111 81.279556Z" style="fill: rgb(0,0,0);stroke: none;"></path>
  <path d="M30.843338 80.864197L28.778305 79.322922L23.532242 78.251984L18.178055 78.278824L15.852005 79.387604L15.633835 79.969421L17.698868 81.510696L22.944931 82.581635L28.299118 82.554794L30.625168 81.446014Z" style="fill: rgb(0,0,0);stroke: none;"></path>
  <path d="M30.753265 81.030350L28.668213 79.516235L23.408524 78.514114L18.055115 78.611115L15.743774 79.750259L15.525604 80.332077L17.610657 81.846191L22.870346 82.848312L28.223755 82.751312L30.535095 81.612167Z" style="fill: rgb(0,0,0);stroke: none;"></path>
  <path d="M30.661789 81.196564L28.557098 79.709869L23.284775 78.776672L17.933105 78.943695L15.636887 80.113007L15.418716 80.694824L17.523407 82.181519L22.795731 83.114716L28.147400 82.947693L30.443619 81.778381Z" style="fill: rgb(0,0,0);stroke: none;"></path>
  <path d="M30.569016 81.362640L28.445068 79.903641L23.160995 79.039536L17.811981 79.276596L15.531265 80.475861L15.313095 81.057678L17.437042 82.516678L22.721115 83.380783L28.070129 83.143723L30.350845 81.944458Z" style="fill: rgb(0,0,0);stroke: none;"></path>
  <path d="M30.475021 81.528641L28.332153 80.097580L23.037201 79.302734L17.691742 79.609818L15.426926 80.838852L15.208755 81.420670L17.351624 82.851730L22.646576 83.646576L27.992035 83.339493L30.256851 82.110458Z" style="fill: rgb(0,0,0);stroke: none;"></path>
  <path d="M30.379745 81.694641L28.218323 80.291733L22.913391 79.566238L17.572388 79.943253L15.323837 81.201813L15.105667 81.783646L17.267090 83.186554L22.572021 83.912048L27.913025 83.535034L30.161575 82.276474Z" style="fill: rgb(0,0,0);stroke: none;"></path>
  <path d="M30.283127 81.860519L28.103546 80.485992L22.789612 79.829971L17.454041 80.276825L15.222153 81.564682L15.003983 82.146545L17.183563 83.521072L22.497498 84.177094L27.833069 83.730240L30.064957 82.442383Z" style="fill: rgb(0,0,0);stroke: none;"></path>
  <path d="M30.185303 82.026398L27.987885 80.680527L22.665771 80.094131L17.336426 80.610794L15.121582 81.927795L14.962921 82.350952L17.160339 83.696823L22.482452 84.283218L27.811798 83.766556L30.026642 82.449554Z" style="fill: rgb(0,0,0);stroke: none;"></path>
</svg>
