<?xml version="1.0"?>
<!-- Created by MetaPost 2.11 on 2026.02.09:1107 -->
<svg version="1.1" xmlns="http://www.w3.org/2000/svg" xmlns:xlink="http://www.w3.org/1999/xlink" width="28.563660" height="31.770660" viewBox="0 0 28.563660 31.770660">
<!-- Original BoundingBox: -14.281830 3.833725 14.281830 31.770660 -->
  <path d="M6.749847 13.837952L8.956024 15.169403L14.281830 15.720947L19.607635 15.169403L21.813812 13.837952L21.813812 1.882996L19.607635 0.551544L14.281830 -0.000000L8.956024 0.551544L6.749847 1.882996Z" style="fill: rgb(0,0,0);stroke: none;"></path>
  <path d="M11.954285 21.001236L13.902328 19.314514L16.072647 14.419830L17.193893 9.184296L16.609375 6.674667L5.239609 2.980331L3.291565 4.667053L1.121246 9.561737L0.000000 14.797272L0.584518 17.306900Z" style="fill: rgb(0,0,0);stroke: none;"></path>
  <path d="M20.375366 18.265121L19.373123 15.891190L15.388626 12.314575L10.755753 9.630356L8.188293 9.410782L1.161362 19.082596L2.163605 21.456528L6.148102 25.033142L10.780975 27.717361L13.348434 27.936935Z" style="fill: rgb(0,0,0);stroke: none;"></path>
  <path d="M20.375366 9.410782L17.807907 9.630356L13.175034 12.314575L9.190536 15.891190L8.188293 18.265121L15.215225 27.936935L17.782684 27.717361L22.415558 25.033142L26.400055 21.456528L27.402298 19.082596Z" style="fill: rgb(0,0,0);stroke: none;"></path>
  <path d="M11.954285 6.674667L11.369766 9.184296L12.491013 14.419830L14.661331 19.314514L16.609375 21.001236L27.979141 17.306900L28.563660 14.797272L27.442413 9.561737L25.272095 4.667053L23.324051 2.980331Z" style="fill: rgb(0,0,0);stroke: none;"></path>
</svg>
