<?xml version="1.0"?>
<!-- Created by MetaPost 2.11 on 2026.02.09:1107 -->
<svg version="1.1" xmlns="http://www.w3.org/2000/svg" xmlns:xlink="http://www.w3.org/1999/xlink" width="46.803528" height="86.794800" viewBox="0 0 46.803528 86.794800">
<!-- Original BoundingBox: -23.401764 -43.397400 23.401764 43.397400 -->
  <path d="M1.882996 -0.000000L0.551544 2.206177L0.000000 7.531982L0.551544 12.857788L1.882996 15.063965L23.401764 15.063965L24.733215 12.857788L25.284760 7.531982L24.733215 2.206177L23.401764 -0.000000Z" style="fill: rgb(0,0,0);stroke: none;"></path>
  <path d="M23.401764 71.730835L22.070312 73.937012L21.518768 79.262817L22.070312 84.588623L23.401764 86.794800L44.920532 86.794800L46.251984 84.588623L46.803528 79.262817L46.251984 73.937012L44.920532 71.730835Z" style="fill: rgb(0,0,0);stroke: none;"></path>
  <path d="M35.743958 47.888000L36.459045 45.412384L35.613373 40.125305L33.702209 35.123718L31.845123 33.337311L11.059570 38.906799L10.344482 41.382416L11.190155 46.669495L13.101318 51.671082L14.958405 53.457489Z" style="fill: rgb(0,0,0);stroke: none;"></path>
  <path d="M12.642380 7.531982L13.008987 46.491577" style="stroke:rgb(0,0,0); stroke-width: 15.063950;stroke-linecap: round;stroke-linejoin: round;stroke-miterlimit: 10.000000;fill: none;"></path>
  <path d="M33.794540 40.303223L34.161148 79.262817" style="stroke:rgb(0,0,0); stroke-width: 15.063950;stroke-linecap: round;stroke-linejoin: round;stroke-miterlimit: 10.000000;fill: none;"></path>
</svg>
