<?xml version="1.0"?>
<!-- Created by MetaPost 2.11 on 2026.02.09:1107 -->
<svg version="1.1" xmlns="http://www.w3.org/2000/svg" xmlns:xlink="http://www.w3.org/1999/xlink" width="76.662018" height="86.794800" viewBox="0 0 76.662018 86.794800">
<!-- Original BoundingBox: -39.810638 -43.397400 36.851379 43.397400 -->
  <path d="M39.810638 79.262817L39.810638 7.531982" style="stroke:rgb(0,0,0); stroke-width: 15.063950;stroke-linecap: round;stroke-linejoin: round;stroke-miterlimit: 10.000000;fill: none;"></path>
  <path d="M29.051254 -0.000000L27.719803 2.206177L27.168259 7.531982L27.719803 12.857788L29.051254 15.063965L50.570023 15.063965L51.901474 12.857788L52.453018 7.531982L51.901474 2.206177L50.570023 -0.000000Z" style="fill: rgb(0,0,0);stroke: none;"></path>
  <path d="M29.051254 71.730835L27.719803 73.937012L27.168259 79.262817L27.719803 84.588623L29.051254 86.794800L50.570023 86.794800L51.901474 84.588623L52.453018 79.262817L51.901474 73.937012L50.570023 71.730835Z" style="fill: rgb(0,0,0);stroke: none;"></path>
  <path d="M39.810638 43.397400C39.810638 32.737106,33.958481 25.464691,23.671310 25.464691C13.384140 25.464691,7.531982 32.737106,7.531982 43.397400C7.531982 58.464066,22.377579 61.330109,39.810638 61.330109C54.488861 61.330109,64.019638 52.508209,64.019638 38.017807L64.019638 25.464691" style="stroke:rgb(0,0,0); stroke-width: 15.063950;stroke-linecap: round;stroke-linejoin: round;stroke-miterlimit: 10.000000;fill: none;"></path>
  <path d="M53.260254 17.932709L51.928802 20.138885L51.377258 25.464691L51.928802 30.790497L53.260254 32.996674L74.779022 32.996674L76.110474 30.790497L76.662018 25.464691L76.110474 20.138885L74.779022 17.932709Z" style="fill: rgb(0,0,0);stroke: none;"></path>
</svg>
