<?xml version="1.0"?>
<!-- Created by MetaPost 2.11 on 2026.02.09:1107 -->
<svg version="1.1" xmlns="http://www.w3.org/2000/svg" xmlns:xlink="http://www.w3.org/1999/xlink" width="58.102509" height="90.560791" viewBox="0 0 58.102509 90.560791">
<!-- Original BoundingBox: -50.570526 -45.280396 7.531982 45.280396 -->
  <g transform="matrix(-1.000000,-0.000000,-0.000000,1.000000,0.000000,0.000000)">
    <path d="M-7.531982 21.370209C-7.531982 11.325684,-17.429123 9.414978,-29.051254 9.414978C-42.767578 9.414978,-50.570526 19.111618,-50.570526 33.325439C-50.570526 42.181229,-50.570526 48.380112,-50.570526 57.235901C-50.570526 71.449722,-42.767578 81.146362,-29.051254 81.146362C-17.429123 81.146362,-7.531982 79.235657,-7.531982 69.191132" style="stroke:rgb(0,0,0); stroke-width: 15.063950;stroke-linecap: round;stroke-linejoin: round;stroke-miterlimit: 10.000000;fill: none;"></path>
  </g>
  <path d="M15.063965 1.882996L12.857788 0.551544L7.531982 -0.000000L2.206177 0.551544L0.000000 1.882996L0.000000 21.369934L2.206177 22.701385L7.531982 23.252930L12.857788 22.701385L15.063965 21.369934Z" style="fill: rgb(0,0,0);stroke: none;"></path>
  <path d="M0.000000 88.677795L2.206177 90.009247L7.531982 90.560791L12.857788 90.009247L15.063965 88.677795L15.063965 69.190857L12.857788 67.859406L7.531982 67.307861L2.206177 67.859406L0.000000 69.190857Z" style="fill: rgb(0,0,0);stroke: none;"></path>
  <g transform="matrix(-1.000000,-0.000000,-0.000000,1.000000,0.000000,0.000000)">
    <path d="M-7.531982 21.370209C-7.531982 11.325684,-17.429123 9.414978,-29.051254 9.414978C-42.767578 9.414978,-50.570526 19.111618,-50.570526 33.325439C-50.570526 42.181229,-50.570526 48.380112,-50.570526 57.235901C-50.570526 71.449722,-42.767578 81.146362,-29.051254 81.146362C-17.429123 81.146362,-7.531982 79.235657,-7.531982 69.191132" style="stroke:rgb(0,0,0); stroke-width: 15.063950;stroke-linecap: round;stroke-linejoin: round;stroke-miterlimit: 10.000000;fill: none;"></path>
  </g>
  <path d="M15.063965 1.882996L12.857788 0.551544L7.531982 -0.000000L2.206177 0.551544L0.000000 1.882996L0.000000 21.369934L2.206177 22.701385L7.531982 23.252930L12.857788 22.701385L15.063965 21.369934Z" style="fill: rgb(0,0,0);stroke: none;"></path>
  <path d="M0.000000 88.677795L2.206177 90.009247L7.531982 90.560791L12.857788 90.009247L15.063965 88.677795L15.063965 69.190857L12.857788 67.859406L7.531982 67.307861L2.206177 67.859406L0.000000 69.190857Z" style="fill: rgb(0,0,0);stroke: none;"></path>
</svg>
