<?xml version="1.0"?>
<!-- Created by MetaPost 2.11 on 2026.02.09:1107 -->
<svg version="1.1" xmlns="http://www.w3.org/2000/svg" xmlns:xlink="http://www.w3.org/1999/xlink" width="57.563416" height="86.794800" viewBox="0 0 57.563416 86.794800">
<!-- Original BoundingBox: -12.642380 -43.397400 44.921036 43.397400 -->
  <g transform="matrix(-1.000000,-0.000000,-0.000000,-1.000000,0.000000,0.000000)">
    <path d="M-12.642380 -7.531982L-12.642380 -79.262817" style="stroke:rgb(0,0,0); stroke-width: 15.063950;stroke-linecap: round;stroke-linejoin: round;stroke-miterlimit: 10.000000;fill: none;"></path>
  </g>
  <path d="M23.401764 15.063965L24.733215 12.857788L25.284760 7.531982L24.733215 2.206177L23.401764 -0.000000L1.882996 -0.000000L0.551544 2.206177L0.000000 7.531982L0.551544 12.857788L1.882996 15.063965Z" style="fill: rgb(0,0,0);stroke: none;"></path>
  <path d="M1.882996 71.730835L0.551544 73.937012L0.000000 79.262817L0.551544 84.588623L1.882996 86.794800L55.680420 86.794800L57.011871 84.588623L57.563416 79.262817L57.011871 73.937012L55.680420 71.730835Z" style="fill: rgb(0,0,0);stroke: none;"></path>
  <path d="M42.499451 79.262817L44.705627 80.594269L50.031433 81.145813L55.357239 80.594269L57.563416 79.262817C57.563416 75.244507,57.563416 72.431778,57.563416 68.413467L55.357239 67.082016L50.031433 66.530472L44.705627 67.082016L42.499451 68.413467C42.499451 72.431778,42.499451 75.244507,42.499451 79.262817Z" style="fill: rgb(0,0,0);stroke: none;"></path>
  <g transform="matrix(-1.000000,-0.000000,-0.000000,-1.000000,0.000000,0.000000)">
    <path d="M-12.642380 -7.531982L-12.642380 -79.262817" style="stroke:rgb(0,0,0); stroke-width: 15.063950;stroke-linecap: round;stroke-linejoin: round;stroke-miterlimit: 10.000000;fill: none;"></path>
  </g>
  <path d="M23.401764 15.063965L24.733215 12.857788L25.284760 7.531982L24.733215 2.206177L23.401764 -0.000000L1.882996 -0.000000L0.551544 2.206177L0.000000 7.531982L0.551544 12.857788L1.882996 15.063965Z" style="fill: rgb(0,0,0);stroke: none;"></path>
  <path d="M1.882996 71.730835L0.551544 73.937012L0.000000 79.262817L0.551544 84.588623L1.882996 86.794800L55.680420 86.794800L57.011871 84.588623L57.563416 79.262817L57.011871 73.937012L55.680420 71.730835Z" style="fill: rgb(0,0,0);stroke: none;"></path>
  <path d="M42.499451 79.262817L44.705627 80.594269L50.031433 81.145813L55.357239 80.594269L57.563416 79.262817C57.563416 75.244507,57.563416 72.431778,57.563416 68.413467L55.357239 67.082016L50.031433 66.530472L44.705627 67.082016L42.499451 68.413467C42.499451 72.431778,42.499451 75.244507,42.499451 79.262817Z" style="fill: rgb(0,0,0);stroke: none;"></path>
</svg>
