<?xml version="1.0"?>
<!-- Created by MetaPost 2.11 on 2026.02.09:1107 -->
<svg version="1.1" xmlns="http://www.w3.org/2000/svg" xmlns:xlink="http://www.w3.org/1999/xlink" width="95.760620" height="86.794800" viewBox="0 0 95.760620 86.794800">
<!-- Original BoundingBox: -47.880310 -43.397400 47.880310 43.397400 -->
  <path d="M47.880310 7.531982C34.138992 7.531982,23.671310 12.959549,23.671310 25.464691C23.671310 37.969833,34.138992 43.397400,47.880310 43.397400C61.621628 43.397400,72.089310 48.824966,72.089310 61.330109C72.089310 73.835251,61.621628 79.262817,47.880310 79.262817C34.138992 79.262817,23.671310 73.835251,23.671310 61.330109C23.671310 48.824966,34.138992 43.397400,47.880310 43.397400C61.621628 43.397400,72.089310 37.969833,72.089310 25.464691C72.089310 14.210129,60.247406 7.531982,47.880310 7.531982Z" style="stroke:rgb(0,0,0); stroke-width: 15.063950;stroke-linecap: round;stroke-linejoin: round;stroke-miterlimit: 10.000000;fill: none;"></path>
  <path d="M47.880310 43.397400C69.013855 43.397400,88.228638 43.164383,88.228638 61.330109" style="stroke:rgb(0,0,0); stroke-width: 15.063950;stroke-linecap: round;stroke-linejoin: round;stroke-miterlimit: 10.000000;fill: none;"></path>
  <path d="M47.880310 43.397400C26.746765 43.397400,7.531982 43.630417,7.531982 25.464691" style="stroke:rgb(0,0,0); stroke-width: 15.063950;stroke-linecap: round;stroke-linejoin: round;stroke-miterlimit: 10.000000;fill: none;"></path>
  <path d="M15.063965 17.932709L12.857788 16.601257L7.531982 16.049713L2.206177 16.601257L0.000000 17.932709L0.000000 25.464691L2.206177 26.796143L7.531982 27.347687L12.857788 26.796143L15.063965 25.464691Z" style="fill: rgb(0,0,0);stroke: none;"></path>
  <path d="M80.696655 68.862091L82.902832 70.193542L88.228638 70.745087L93.554443 70.193542L95.760620 68.862091L95.760620 61.330109L93.554443 59.998657L88.228638 59.447113L82.902832 59.998657L80.696655 61.330109Z" style="fill: rgb(0,0,0);stroke: none;"></path>
</svg>
