<?xml version="1.0"?>
<!-- Created by MetaPost 2.11 on 2026.02.09:1107 -->
<svg version="1.1" xmlns="http://www.w3.org/2000/svg" xmlns:xlink="http://www.w3.org/1999/xlink" width="15.063965" height="74.839294" viewBox="0 0 15.063965 74.839294">
<!-- Original BoundingBox: -7.531982 -55.352356 7.531982 19.486938 -->
  <path d="M7.531982 7.531982l0 0" style="stroke:rgb(0,0,0); stroke-width: 15.063950;stroke-linecap: round;stroke-linejoin: round;stroke-miterlimit: 10.000000;fill: none;"></path>
  <path d="M7.531982 55.352356l0 0" style="stroke:rgb(0,0,0); stroke-width: 15.063950;stroke-linecap: round;stroke-linejoin: round;stroke-miterlimit: 10.000000;fill: none;"></path>
  <path d="M9.414978 55.352356L8.863434 50.026550L7.531982 47.820374L6.200531 50.026550L5.648987 55.352356C5.648987 56.103714,5.614441 56.820679,5.543274 57.507889L6.094818 52.182083C5.866058 54.391052,5.258850 56.292542,4.203873 58.040619L5.535324 55.834442C4.699860 57.218781,3.583572 58.506912,2.152039 59.775330L0.820587 61.981506L0.269043 67.307312L0.820587 72.633118L2.152039 74.839294C3.583572 73.570877,4.699860 72.282745,5.535324 70.898392L6.866776 68.692215C7.921753 66.944138,8.528961 65.042648,8.757721 62.833694L9.309265 57.507889C9.380432 56.820679,9.414978 56.103714,9.414978 55.352356Z" style="fill: rgb(0,0,0);stroke: none;"></path>
</svg>
