<?xml version="1.0"?>
<!-- Created by MetaPost 2.11 on 2026.02.09:1107 -->
<svg version="1.1" xmlns="http://www.w3.org/2000/svg" xmlns:xlink="http://www.w3.org/1999/xlink" width="63.212906" height="86.795349" viewBox="0 0 63.212906 86.795349">
<!-- Original BoundingBox: -50.570526 -43.397949 12.642380 43.397400 -->
  <g transform="matrix(-1.000000,-0.000000,-0.000000,1.000000,0.000000,0.000000)">
    <path d="M-7.531982 19.487213C-7.531982 9.442688,-17.429123 7.531982,-29.051254 7.531982C-42.767578 7.531982,-50.570526 17.228622,-50.570526 31.442444C-50.570526 49.154022,-50.570526 61.551788,-50.570526 79.263367" style="stroke:rgb(0,0,0); stroke-width: 15.063950;stroke-linecap: round;stroke-linejoin: round;stroke-miterlimit: 10.000000;fill: none;"></path>
  </g>
  <path d="M15.063965 7.531982L12.857788 6.200531L7.531982 5.648987L2.206177 6.200531L0.000000 7.531982L0.000000 19.486938L2.206177 20.818390L7.531982 21.369934L12.857788 20.818390L15.063965 19.486938Z" style="fill: rgb(0,0,0);stroke: none;"></path>
  <path d="M61.329910 86.794800L62.661362 84.588623L63.212906 79.262817L62.661362 73.937012L61.329910 71.730835L39.811142 71.730835L38.479691 73.937012L37.928146 79.262817L38.479691 84.588623L39.811142 86.794800Z" style="fill: rgb(0,0,0);stroke: none;"></path>
  <g transform="matrix(-1.000000,-0.000000,-0.000000,1.000000,0.000000,0.000000)">
    <path d="M-7.531982 19.487213C-7.531982 9.442688,-17.429123 7.531982,-29.051254 7.531982C-42.767578 7.531982,-50.570526 17.228622,-50.570526 31.442444C-50.570526 49.154022,-50.570526 61.551788,-50.570526 79.263367" style="stroke:rgb(0,0,0); stroke-width: 15.063950;stroke-linecap: round;stroke-linejoin: round;stroke-miterlimit: 10.000000;fill: none;"></path>
  </g>
  <path d="M15.063965 7.531982L12.857788 6.200531L7.531982 5.648987L2.206177 6.200531L0.000000 7.531982L0.000000 19.486938L2.206177 20.818390L7.531982 21.369934L12.857788 20.818390L15.063965 19.486938Z" style="fill: rgb(0,0,0);stroke: none;"></path>
  <path d="M61.329910 86.794800L62.661362 84.588623L63.212906 79.262817L62.661362 73.937012L61.329910 71.730835L39.811142 71.730835L38.479691 73.937012L37.928146 79.262817L38.479691 84.588623L39.811142 86.794800Z" style="fill: rgb(0,0,0);stroke: none;"></path>
</svg>
