<?xml version="1.0"?>
<!-- Created by MetaPost 2.11 on 2026.02.09:1107 -->
<svg version="1.1" xmlns="http://www.w3.org/2000/svg" xmlns:xlink="http://www.w3.org/1999/xlink" width="58.102509" height="88.677795" viewBox="0 0 58.102509 88.677795">
<!-- Original BoundingBox: -50.570526 -43.397400 7.531982 45.280396 -->
  <g transform="matrix(-1.000000,-0.000000,-0.000000,1.000000,0.000000,0.000000)">
    <path d="M-29.051254 33.324890C-42.767578 33.324890,-50.570526 43.021530,-50.570526 57.235352C-50.570526 71.449173,-42.767578 81.145813,-29.051254 81.145813C-15.334930 81.145813,-7.531982 71.449173,-7.531982 57.235352C-7.531982 43.021530,-15.334930 33.324890,-29.051254 33.324890Z" style="stroke:rgb(0,0,0); stroke-width: 15.063950;stroke-linecap: round;stroke-linejoin: round;stroke-miterlimit: 10.000000;fill: none;"></path>
  </g>
  <g transform="matrix(-1.000000,-0.000000,-0.000000,1.000000,0.000000,0.000000)">
    <path d="M-50.570526 21.370209C-50.570526 11.325684,-40.673386 9.414978,-29.051254 9.414978C-15.334930 9.414978,-7.531982 19.111618,-7.531982 33.325439C-7.531982 42.181015,-7.531982 48.379776,-7.531982 57.235352C-7.531982 64.342255,-9.482712 70.319870,-13.147980 74.520752" style="stroke:rgb(0,0,0); stroke-width: 15.063950;stroke-linecap: round;stroke-linejoin: round;stroke-miterlimit: 10.000000;fill: none;"></path>
  </g>
  <path d="M58.102509 1.882996L55.896332 0.551544L50.570526 -0.000000L45.244720 0.551544L43.038544 1.882996L43.038544 21.369934L45.244720 22.701385L50.570526 23.252930L55.896332 22.701385L58.102509 21.369934Z" style="fill: rgb(0,0,0);stroke: none;"></path>
  <g transform="matrix(-1.000000,-0.000000,-0.000000,1.000000,0.000000,0.000000)">
    <path d="M-29.051254 33.324890C-42.767578 33.324890,-50.570526 43.021530,-50.570526 57.235352C-50.570526 71.449173,-42.767578 81.145813,-29.051254 81.145813C-15.334930 81.145813,-7.531982 71.449173,-7.531982 57.235352C-7.531982 43.021530,-15.334930 33.324890,-29.051254 33.324890Z" style="stroke:rgb(0,0,0); stroke-width: 15.063950;stroke-linecap: round;stroke-linejoin: round;stroke-miterlimit: 10.000000;fill: none;"></path>
  </g>
  <g transform="matrix(-1.000000,-0.000000,-0.000000,1.000000,0.000000,0.000000)">
    <path d="M-50.570526 21.370209C-50.570526 11.325684,-40.673386 9.414978,-29.051254 9.414978C-15.334930 9.414978,-7.531982 19.111618,-7.531982 33.325439C-7.531982 42.181015,-7.531982 48.379776,-7.531982 57.235352C-7.531982 64.342255,-9.482712 70.319870,-13.147980 74.520752" style="stroke:rgb(0,0,0); stroke-width: 15.063950;stroke-linecap: round;stroke-linejoin: round;stroke-miterlimit: 10.000000;fill: none;"></path>
  </g>
  <path d="M58.102509 1.882996L55.896332 0.551544L50.570526 -0.000000L45.244720 0.551544L43.038544 1.882996L43.038544 21.369934L45.244720 22.701385L50.570526 23.252930L55.896332 22.701385L58.102509 21.369934Z" style="fill: rgb(0,0,0);stroke: none;"></path>
</svg>
