<?xml version="1.0"?>
<!-- Created by MetaPost 2.11 on 2026.02.09:1107 -->
<svg version="1.1" xmlns="http://www.w3.org/2000/svg" xmlns:xlink="http://www.w3.org/1999/xlink" width="57.563416" height="86.794800" viewBox="0 0 57.563416 86.794800">
<!-- Original BoundingBox: -44.921036 -43.397400 12.642380 43.397400 -->
  <path d="M44.921036 79.262817L44.921036 7.531982" style="stroke:rgb(0,0,0); stroke-width: 15.063950;stroke-linecap: round;stroke-linejoin: round;stroke-miterlimit: 10.000000;fill: none;"></path>
  <path d="M34.161652 71.730835L32.830200 73.937012L32.278656 79.262817L32.830200 84.588623L34.161652 86.794800L55.680420 86.794800L57.011871 84.588623L57.563416 79.262817L57.011871 73.937012L55.680420 71.730835Z" style="fill: rgb(0,0,0);stroke: none;"></path>
  <path d="M55.680420 15.063965L57.011871 12.857788L57.563416 7.531982L57.011871 2.206177L55.680420 -0.000000L1.882996 -0.000000L0.551544 2.206177L0.000000 7.531982L0.551544 12.857788L1.882996 15.063965Z" style="fill: rgb(0,0,0);stroke: none;"></path>
  <path d="M15.063965 7.531982L12.857788 6.200531L7.531982 5.648987L2.206177 6.200531L0.000000 7.531982C0.000000 11.550293,0.000000 14.363022,0.000000 18.381332L2.206177 19.712784L7.531982 20.264328L12.857788 19.712784L15.063965 18.381332C15.063965 14.363022,15.063965 11.550293,15.063965 7.531982Z" style="fill: rgb(0,0,0);stroke: none;"></path>
</svg>
