<?xml version="1.0"?>
<!-- Created by MetaPost 2.11 on 2026.02.09:1107 -->
<svg version="1.1" xmlns="http://www.w3.org/2000/svg" xmlns:xlink="http://www.w3.org/1999/xlink" width="76.662018" height="86.794800" viewBox="0 0 76.662018 86.794800">
<!-- Original BoundingBox: -36.851379 -43.397400 39.810638 43.397400 -->
  <g transform="matrix(-1.000000,-0.000000,-0.000000,1.000000,0.000000,0.000000)">
    <path d="M-36.851379 79.262817L-36.851379 25.464691" style="stroke:rgb(0,0,0); stroke-width: 15.063950;stroke-linecap: round;stroke-linejoin: round;stroke-miterlimit: 10.000000;fill: none;"></path>
  </g>
  <path d="M47.610764 86.794800L48.942215 84.588623L49.493759 79.262817L48.942215 73.937012L47.610764 71.730835L26.091995 71.730835L24.760544 73.937012L24.209000 79.262817L24.760544 84.588623L26.091995 86.794800Z" style="fill: rgb(0,0,0);stroke: none;"></path>
  <g transform="matrix(-1.000000,-0.000000,-0.000000,1.000000,0.000000,0.000000)">
    <path d="M-36.851379 25.464691C-36.851379 14.804398,-42.703537 7.531982,-52.990707 7.531982C-63.277878 7.531982,-69.130035 14.804398,-69.130035 25.464691C-69.130035 40.531357,-54.284439 43.397400,-36.851379 43.397400C-22.173157 43.397400,-12.642380 34.575500,-12.642380 20.085098L-12.642380 7.531982" style="stroke:rgb(0,0,0); stroke-width: 15.063950;stroke-linecap: round;stroke-linejoin: round;stroke-miterlimit: 10.000000;fill: none;"></path>
  </g>
  <path d="M23.401764 15.063965L24.733215 12.857788L25.284760 7.531982L24.733215 2.206177L23.401764 -0.000000L1.882996 -0.000000L0.551544 2.206177L0.000000 7.531982L0.551544 12.857788L1.882996 15.063965Z" style="fill: rgb(0,0,0);stroke: none;"></path>
  <g transform="matrix(-1.000000,-0.000000,-0.000000,1.000000,0.000000,0.000000)">
    <path d="M-36.851379 79.262817L-36.851379 25.464691" style="stroke:rgb(0,0,0); stroke-width: 15.063950;stroke-linecap: round;stroke-linejoin: round;stroke-miterlimit: 10.000000;fill: none;"></path>
  </g>
  <path d="M47.610764 86.794800L48.942215 84.588623L49.493759 79.262817L48.942215 73.937012L47.610764 71.730835L26.091995 71.730835L24.760544 73.937012L24.209000 79.262817L24.760544 84.588623L26.091995 86.794800Z" style="fill: rgb(0,0,0);stroke: none;"></path>
  <g transform="matrix(-1.000000,-0.000000,-0.000000,1.000000,0.000000,0.000000)">
    <path d="M-36.851379 25.464691C-36.851379 14.804398,-42.703537 7.531982,-52.990707 7.531982C-63.277878 7.531982,-69.130035 14.804398,-69.130035 25.464691C-69.130035 40.531357,-54.284439 43.397400,-36.851379 43.397400C-22.173157 43.397400,-12.642380 34.575500,-12.642380 20.085098L-12.642380 7.531982" style="stroke:rgb(0,0,0); stroke-width: 15.063950;stroke-linecap: round;stroke-linejoin: round;stroke-miterlimit: 10.000000;fill: none;"></path>
  </g>
  <path d="M23.401764 15.063965L24.733215 12.857788L25.284760 7.531982L24.733215 2.206177L23.401764 -0.000000L1.882996 -0.000000L0.551544 2.206177L0.000000 7.531982L0.551544 12.857788L1.882996 15.063965Z" style="fill: rgb(0,0,0);stroke: none;"></path>
</svg>
