<?xml version="1.0"?>
<!-- Created by MetaPost 2.11 on 2026.02.09:1107 -->
<svg version="1.1" xmlns="http://www.w3.org/2000/svg" xmlns:xlink="http://www.w3.org/1999/xlink" width="62.043518" height="86.215546" viewBox="0 0 62.043518 86.215546">
<!-- Original BoundingBox: -49.401138 -42.818146 12.642380 43.397400 -->
  <path d="M41.869156 84.158554L44.075333 85.490005L49.401138 86.041550L54.726944 85.490005L56.933121 84.158554L56.933121 7.531982L54.726944 6.200531L49.401138 5.648987L44.075333 6.200531L41.869156 7.531982Z" style="fill: rgb(0,0,0);stroke: none;"></path>
  <path d="M38.641754 -0.000000L37.310303 2.206177L36.758759 7.531982L37.310303 12.857788L38.641754 15.063965L60.160522 15.063965L61.491974 12.857788L62.043518 7.531982L61.491974 2.206177L60.160522 -0.000000Z" style="fill: rgb(0,0,0);stroke: none;"></path>
  <path d="M4.534744 58.746780L2.689392 60.545319L0.811020 65.559341L0.000000 70.851868L0.731277 73.322769C1.960587 74.111496,3.144485 74.840881,4.302139 75.519394L6.147491 73.720856L8.025864 68.706833L8.836884 63.414307L8.105606 60.943405C6.947952 60.264893,5.764053 59.535507,4.534744 58.746780Z" style="fill: rgb(0,0,0);stroke: none;"></path>
  <path d="M5.353180 59.303192L3.531509 61.125717L1.718887 66.163879L0.977188 71.466568L1.740723 73.927673C3.401428 74.972092,4.985336 75.908310,6.542313 76.758377L8.363983 74.935852L10.176605 69.897690L10.918304 64.595001L10.154770 62.133896C8.597794 61.283829,7.013885 60.347610,5.353180 59.303192Z" style="fill: rgb(0,0,0);stroke: none;"></path>
  <path d="M7.479095 60.639496L5.681442 62.485687L3.934921 67.547119L3.262650 72.859039L4.058350 75.309937C5.659485 76.260513,7.206497 77.112915,8.749237 77.889191L10.546890 76.042999L12.293411 70.981567L12.965683 65.669647L12.169983 63.218750C10.627243 62.442474,9.080231 61.590073,7.479095 60.639496Z" style="fill: rgb(0,0,0);stroke: none;"></path>
  <path d="M9.536942 61.854950L7.763626 63.724518L6.083527 68.808350L5.480881 74.128601L6.308578 76.568848C7.870865 77.434784,9.401672 78.212555,10.950867 78.924194L12.724182 77.054626L14.404282 71.970795L15.006927 66.650543L14.179230 64.210297C12.630035 63.498657,11.099228 62.720886,9.536942 61.854950Z" style="fill: rgb(0,0,0);stroke: none;"></path>
  <path d="M11.556168 62.962677L9.807465 64.855316L8.194046 69.960754L7.661072 75.288483L8.520676 77.717712C10.064606 78.508026,11.599731 79.220200,13.175903 79.876266L14.924606 77.983627L16.538025 72.878189L17.070999 67.550461L16.211395 65.121231C14.635223 64.465164,13.100098 63.752991,11.556168 62.962677Z" style="fill: rgb(0,0,0);stroke: none;"></path>
  <path d="M13.564133 63.974899L11.840378 65.890259L10.293976 71.016373L9.830856 76.350586L10.722183 78.768326C12.268463 79.492172,13.828598 80.147888,15.452454 80.757523L17.176208 78.842163L18.722610 73.716049L19.185730 68.381836L18.294403 65.964096C16.670547 65.354462,15.110413 64.698746,13.564133 63.974899Z" style="fill: rgb(0,0,0);stroke: none;"></path>
  <path d="M15.589172 64.903900L13.890625 66.841644L12.411423 71.987518L12.018097 77.327301L12.940979 79.733185C14.510132 80.399643,16.115799 81.007980,17.807846 81.580246L19.506393 79.642502L20.985596 74.496628L21.378922 69.156845L20.456039 66.750961C18.763992 66.178696,17.158325 65.570358,15.589172 64.903900Z" style="fill: rgb(0,0,0);stroke: none;"></path>
  <path d="M17.659256 65.762024L15.986191 67.721848L14.574432 72.886703L14.251022 78.231247L15.205307 80.624878C16.817978 81.243057,18.489838 81.813141,20.270737 82.357178L21.943802 80.397354L23.355560 75.232498L23.678970 69.887955L22.724686 67.494324C20.943787 66.950287,19.271927 66.380203,17.659256 65.762024Z" style="fill: rgb(0,0,0);stroke: none;"></path>
  <path d="M19.801651 66.561661L18.154419 68.543213L16.810425 73.726105L16.557068 79.074402L17.542618 81.455307C19.219376 82.034317,20.977966 82.575256,22.868271 83.100143L24.515503 81.118591L25.859497 75.935699L26.112854 70.587402L25.127304 68.206497C23.237000 67.681610,21.478409 67.140671,19.801651 66.561661Z" style="fill: rgb(0,0,0);stroke: none;"></path>
  <path d="M22.046112 67.315598L20.424942 69.318542L19.148926 74.518570L18.965591 79.869720L19.982208 82.237503C21.263290 82.636749,22.599655 83.021149,24.010468 83.399170C24.539490 83.540924,25.059891 83.676666,25.572769 83.806519L27.193939 81.803574L28.469955 76.603546L28.653290 71.252396L27.636673 68.884613C27.123795 68.754761,26.603394 68.619019,26.074371 68.477264C24.663559 68.099243,23.327194 67.714844,22.046112 67.315598Z" style="fill: rgb(0,0,0);stroke: none;"></path>
  <path d="M24.419998 68.035995L22.825180 70.059998L21.617294 75.276260L21.503983 80.629364L22.551498 82.983658C23.060593 83.127640,23.579147 83.270294,24.108170 83.412048C25.518982 83.790070,26.868500 84.125351,28.177567 84.420135L29.772385 82.396133L30.980270 77.179871L31.093582 71.826767L30.046066 69.472473C28.737000 69.177689,27.387482 68.842407,25.976669 68.464386C25.447647 68.322632,24.929092 68.179977,24.419998 68.035995Z" style="fill: rgb(0,0,0);stroke: none;"></path>
  <path d="M26.925888 68.728378L25.357697 70.773087L24.218201 76.004730L24.174957 81.358871L25.253220 83.699265C27.152725 84.189850,28.946182 84.600677,30.687805 84.937607L32.255997 82.892899L33.395493 77.661255L33.438736 72.307114L32.360474 69.966721C30.618851 69.629791,28.825394 69.218964,26.925888 68.728378Z" style="fill: rgb(0,0,0);stroke: none;"></path>
  <path d="M29.357574 69.338257L27.816299 71.403290L26.745361 76.649353L26.772202 82.003540L27.880981 84.329590C29.695221 84.748871,31.428070 85.091064,33.133713 85.362015L34.674988 83.296982L35.745926 78.050919L35.719086 72.696732L34.610306 70.370682C32.904663 70.099731,31.171814 69.757538,29.357574 69.338257Z" style="fill: rgb(0,0,0);stroke: none;"></path>
  <path d="M31.687363 69.853592L30.173248 71.938644L29.171127 77.198334L29.268127 82.551743L30.407272 84.863083C32.158783 85.213516,33.853531 85.489517,35.545715 85.696930L37.059830 83.611877L38.061951 78.352188L37.964951 72.998779L36.825806 70.687439C35.133621 70.480026,33.438873 70.204025,31.687363 69.853592Z" style="fill: rgb(0,0,0);stroke: none;"></path>
  <path d="M33.947556 70.278183L32.460861 72.382874L31.527664 77.655197L31.694687 83.006866L32.863998 85.303085C34.575058 85.587051,36.253983 85.799240,37.954971 85.945496L39.441666 83.840805L40.374863 78.568481L40.207840 73.216812L39.038528 70.920593C37.337540 70.774338,35.658615 70.562149,33.947556 70.278183Z" style="fill: rgb(0,0,0);stroke: none;"></path>
  <path d="M36.167755 70.615051L34.708755 72.738998L33.844650 78.023071L34.081711 83.372086L35.280975 85.652802C36.974075 85.872726,38.659668 86.023529,40.391983 86.111069L41.850983 83.987122L42.715088 78.703049L42.478027 73.354034L41.278763 71.073318C39.546448 70.985779,37.860855 70.834976,36.167755 70.615051Z" style="fill: rgb(0,0,0);stroke: none;"></path>
  <path d="M38.378555 70.867508L36.947495 73.010376L36.152649 78.305328L36.459732 83.650787L37.688766 85.915604C39.386215 86.073898,41.100800 86.165726,42.886734 86.196945L44.317795 84.054077L45.112640 78.759125L44.805557 73.413666L43.576523 71.148849C41.790588 71.117630,40.076004 71.025803,38.378555 70.867508Z" style="fill: rgb(0,0,0);stroke: none;"></path>
  <path d="M40.610626 71.038818L39.207718 73.200241L38.482224 78.505173L38.859238 83.846176L40.117798 86.094727C41.842056 86.193802,43.608078 86.229095,45.470093 86.206421L46.873001 84.044998L47.598495 78.740067L47.221481 73.399063L45.962921 71.150513C44.100906 71.173187,42.334885 71.137894,40.610626 71.038818Z" style="fill: rgb(0,0,0);stroke: none;"></path>
  <path d="M42.893738 71.132370L41.519211 73.311951L40.863190 78.625885L41.310043 83.961456L42.597900 86.193344C44.371307 86.235657,46.211121 86.216812,48.171539 86.142685L49.546066 83.963104L50.202087 78.649170L49.755234 73.313599L48.467377 71.081711C46.506958 71.155838,44.667145 71.174683,42.893738 71.132370Z" style="fill: rgb(0,0,0);stroke: none;"></path>
  <path d="M45.259781 71.151352L43.913910 73.348770L43.327515 78.670883L43.844177 84.000229L45.161179 86.215073C46.503006 86.206284,47.892975 86.166565,49.351959 86.098160L50.697830 83.900742L51.284225 78.578629L50.767563 73.249283L49.450562 71.034439C47.991577 71.102844,46.601608 71.142563,45.259781 71.151352Z" style="fill: rgb(0,0,0);stroke: none;"></path>
</svg>
