<?xml version="1.0"?>
<!-- Created by MetaPost 2.11 on 2026.02.09:1107 -->
<svg version="1.1" xmlns="http://www.w3.org/2000/svg" xmlns:xlink="http://www.w3.org/1999/xlink" width="63.212906" height="86.795349" viewBox="0 0 63.212906 86.795349">
<!-- Original BoundingBox: -55.680923 -43.397949 7.531982 43.397400 -->
  <g transform="matrix(-1.000000,-0.000000,-0.000000,1.000000,0.000000,0.000000)">
    <path d="M-12.642380 19.487213C-12.642380 9.442688,-22.539520 7.531982,-34.161652 7.531982C-47.877975 7.531982,-55.680923 17.228622,-55.680923 31.442444C-55.680923 40.298233,-55.680923 46.497116,-55.680923 55.352905C-55.680923 69.566727,-47.877975 79.263367,-34.161652 79.263367C-22.539520 79.263367,-12.642380 77.352661,-12.642380 67.308136" style="stroke:rgb(0,0,0); stroke-width: 15.063950;stroke-linecap: round;stroke-linejoin: round;stroke-miterlimit: 10.000000;fill: none;"></path>
  </g>
  <path d="M20.174362 1.882996L17.968185 0.551544L12.642380 -0.000000L7.316574 0.551544L5.110397 1.882996L5.110397 84.911804L7.316574 86.243256L12.642380 86.794800L17.968185 86.243256L20.174362 84.911804Z" style="fill: rgb(0,0,0);stroke: none;"></path>
  <path d="M12.642380 15.063965L13.973831 12.857788L14.525375 7.531982L13.973831 2.206177L12.642380 -0.000000L1.882996 -0.000000L0.551544 2.206177L0.000000 7.531982L0.551544 12.857788L1.882996 15.063965Z" style="fill: rgb(0,0,0);stroke: none;"></path>
  <path d="M12.642380 86.794800L13.973831 84.588623L14.525375 79.262817L13.973831 73.937012L12.642380 71.730835L1.882996 71.730835L0.551544 73.937012L0.000000 79.262817L0.551544 84.588623L1.882996 86.794800Z" style="fill: rgb(0,0,0);stroke: none;"></path>
  <g transform="matrix(-1.000000,-0.000000,-0.000000,1.000000,0.000000,0.000000)">
    <path d="M-12.642380 19.487213C-12.642380 9.442688,-22.539520 7.531982,-34.161652 7.531982C-47.877975 7.531982,-55.680923 17.228622,-55.680923 31.442444C-55.680923 40.298233,-55.680923 46.497116,-55.680923 55.352905C-55.680923 69.566727,-47.877975 79.263367,-34.161652 79.263367C-22.539520 79.263367,-12.642380 77.352661,-12.642380 67.308136" style="stroke:rgb(0,0,0); stroke-width: 15.063950;stroke-linecap: round;stroke-linejoin: round;stroke-miterlimit: 10.000000;fill: none;"></path>
  </g>
  <path d="M20.174362 1.882996L17.968185 0.551544L12.642380 -0.000000L7.316574 0.551544L5.110397 1.882996L5.110397 84.911804L7.316574 86.243256L12.642380 86.794800L17.968185 86.243256L20.174362 84.911804Z" style="fill: rgb(0,0,0);stroke: none;"></path>
  <path d="M12.642380 15.063965L13.973831 12.857788L14.525375 7.531982L13.973831 2.206177L12.642380 -0.000000L1.882996 -0.000000L0.551544 2.206177L0.000000 7.531982L0.551544 12.857788L1.882996 15.063965Z" style="fill: rgb(0,0,0);stroke: none;"></path>
  <path d="M12.642380 86.794800L13.973831 84.588623L14.525375 79.262817L13.973831 73.937012L12.642380 71.730835L1.882996 71.730835L0.551544 73.937012L0.000000 79.262817L0.551544 84.588623L1.882996 86.794800Z" style="fill: rgb(0,0,0);stroke: none;"></path>
</svg>
