<?xml version="1.0"?>
<!-- Created by MetaPost 2.11 on 2026.02.09:1107 -->
<svg version="1.1" xmlns="http://www.w3.org/2000/svg" xmlns:xlink="http://www.w3.org/1999/xlink" width="76.419891" height="86.565262" viewBox="0 0 76.419891 86.565262">
<!-- Original BoundingBox: -68.887909 -43.167862 7.531982 43.397400 -->
  <path d="M61.355927 84.158554L63.562103 85.490005L68.887909 86.041550L74.213715 85.490005L76.419891 84.158554L76.419891 26.688614L74.213715 25.357162L68.887909 24.805618L63.562103 25.357162L61.355927 26.688614Z" style="fill: rgb(0,0,0);stroke: none;"></path>
  <path d="M35.713577 61.879669L33.868225 63.678207L31.989853 68.692230L31.178833 73.984756L31.910110 76.455658C32.303864 76.800247,32.769150 77.174683,33.285278 77.565903L35.130630 75.767365L37.009003 70.753342L37.820023 65.460815L37.088745 62.989914C36.572617 62.598694,36.107330 62.224258,35.713577 61.879669Z" style="fill: rgb(0,0,0);stroke: none;"></path>
  <path d="M35.926544 62.119308L34.104874 63.941833L32.292252 68.979996L31.550552 74.282684L32.314087 76.743790C32.902893 77.237000,33.617157 77.780457,34.403122 78.340225L36.224792 76.517700L38.037415 71.479538L38.779114 66.176849L38.015579 63.715744C37.229614 63.155975,36.515350 62.612518,35.926544 62.119308Z" style="fill: rgb(0,0,0);stroke: none;"></path>
  <path d="M36.706360 62.796875L34.908707 64.643066L33.162186 69.704498L32.489914 75.016418L33.285614 77.467316C33.977341 77.999176,34.770096 78.565872,35.610123 79.133438L37.407776 77.287247L39.154297 72.225815L39.826569 66.913895L39.030869 64.462997C38.190842 63.895432,37.398087 63.328735,36.706360 62.796875Z" style="fill: rgb(0,0,0);stroke: none;"></path>
  <path d="M37.610764 63.518646L35.837448 65.388214L34.157349 70.472046L33.554703 75.792297L34.382401 78.232544C35.154877 78.789062,36.003952 79.364990,36.875885 79.926361L38.649200 78.056793L40.329300 72.972961L40.931946 67.652710L40.104248 65.212463C39.232315 64.651093,38.383240 64.075165,37.610764 63.518646Z" style="fill: rgb(0,0,0);stroke: none;"></path>
  <path d="M38.610184 64.265854L36.861481 66.158493L35.248062 71.263931L34.715088 76.591660L35.574692 79.020889C36.405685 79.588013,37.288834 80.159119,38.170425 80.700241L39.919128 78.807602L41.532547 73.702164L42.065521 68.374435L41.205917 65.945206C40.324326 65.404083,39.441177 64.832977,38.610184 64.265854Z" style="fill: rgb(0,0,0);stroke: none;"></path>
  <path d="M39.673950 65.019333L37.950195 66.934692L36.403793 72.060806L35.940674 77.395020L36.832001 79.812759C37.699341 80.376511,38.594421 80.928787,39.463516 81.435654L41.187271 79.520294L42.733673 74.394180L43.196793 69.059967L42.305466 66.642227C41.436371 66.135361,40.541290 65.583084,39.673950 65.019333Z" style="fill: rgb(0,0,0);stroke: none;"></path>
  <path d="M40.772018 65.759872L39.073471 67.697617L37.594269 72.843491L37.200943 78.183273L38.123825 80.589157C39.005264 81.135452,39.890030 81.654861,40.724365 82.113434L42.422913 80.175690L43.902115 75.029816L44.295441 69.690033L43.372559 67.284149C42.538223 66.825577,41.653458 66.306168,40.772018 65.759872Z" style="fill: rgb(0,0,0);stroke: none;"></path>
  <path d="M41.873947 66.468231L40.200882 68.428055L38.789124 73.592911L38.465714 78.937454L39.419998 81.331085C40.293365 81.845932,41.145615 82.318451,41.923035 82.714691L43.596100 80.754868L45.007858 75.590012L45.331268 70.245468L44.376984 67.851837C43.599564 67.455597,42.747314 66.983078,41.873947 66.468231Z" style="fill: rgb(0,0,0);stroke: none;"></path>
  <path d="M42.949005 67.125290L41.301773 69.106842L39.957779 74.289734L39.704422 79.638031L40.689972 82.018936C41.533051 82.488297,42.330612 82.899902,43.028885 83.219803L44.676117 81.238251L46.020111 76.055359L46.273468 70.707062L45.287918 68.326157C44.589645 68.006256,43.792084 67.594650,42.949005 67.125290Z" style="fill: rgb(0,0,0);stroke: none;"></path>
  <path d="M43.967880 67.712250L42.346710 69.715195L41.070694 74.915222L40.887360 80.266373L41.903976 82.634155C42.478958 82.932220,43.016937 83.191574,43.497238 83.399170C43.851151 83.552124,44.227570 83.700623,44.623886 83.844391L46.245056 81.841446L47.521072 76.641418L47.704407 71.290268L46.687790 68.922485C46.291473 68.778717,45.915054 68.630219,45.561142 68.477264C45.080841 68.269669,44.542862 68.010315,43.967880 67.712250Z" style="fill: rgb(0,0,0);stroke: none;"></path>
  <path d="M44.899887 68.209732L43.305069 70.233734L42.097183 75.449997L41.983871 80.803101L43.031387 83.157394C43.226624 83.249100,43.414841 83.334213,43.594940 83.412048C44.538757 83.819962,45.642700 84.196182,46.857193 84.535355L48.452011 82.511353L49.659897 77.295090L49.773209 71.941986L48.725693 69.587692C47.511200 69.248520,46.407257 68.872299,45.463440 68.464386C45.283340 68.386551,45.095123 68.301437,44.899887 68.209732Z" style="fill: rgb(0,0,0);stroke: none;"></path>
  <path d="M46.102783 68.752747L44.534592 70.797455L43.395096 76.029099L43.351852 81.383240L44.430115 83.723633C45.833694 84.262253,47.516571 84.738419,49.349899 85.138214L50.918091 83.093506L52.057587 77.861862L52.100830 72.507721L51.022568 70.167328C49.189240 69.767532,47.506363 69.291367,46.102783 68.752747Z" style="fill: rgb(0,0,0);stroke: none;"></path>
  <path d="M48.079819 69.437027L46.538544 71.502060L45.467606 76.748123L45.494446 82.102310L46.603226 84.428360C48.234055 84.907318,50.085587 85.317490,52.028992 85.644989L53.570267 83.579956L54.641205 78.333893L54.614365 72.979706L53.505585 70.653656C51.562180 70.326157,49.710648 69.915985,48.079819 69.437027Z" style="fill: rgb(0,0,0);stroke: none;"></path>
  <path d="M50.329590 70.037003L48.815475 72.122055L47.813354 77.381744L47.910355 82.735153L49.049500 85.046494C50.854370 85.460083,52.821411 85.798584,54.821762 86.048080L56.335876 83.963028L57.337997 78.703339L57.240997 73.349930L56.101852 71.038589C54.101501 70.789093,52.134460 70.450592,50.329590 70.037003Z" style="fill: rgb(0,0,0);stroke: none;"></path>
  <path d="M52.781036 70.545441L51.294342 72.650131L50.361145 77.922455L50.528168 83.274124L51.697479 85.570343C53.623108 85.912781,55.652328 86.173798,57.656296 86.339508L59.142990 84.234818L60.076187 78.962494L59.909164 73.610825L58.739853 71.314606C56.735886 71.148895,54.706665 70.887878,52.781036 70.545441Z" style="fill: rgb(0,0,0);stroke: none;"></path>
  <path d="M55.360825 70.954224L53.901825 73.078171L53.037720 78.362244L53.274780 83.711258L54.474045 85.991974C56.467300 86.257538,58.505569 86.435364,60.459991 86.511536L61.918991 84.387589L62.783096 79.103516L62.546036 73.754501L61.346771 71.473785C59.392349 71.397614,57.354080 71.219788,55.360825 70.954224Z" style="fill: rgb(0,0,0);stroke: none;"></path>
  <path d="M57.996292 71.255508L56.565231 73.398376L55.770386 78.693329L56.077469 84.038788L57.306503 86.303604C59.314011 86.486511,61.307968 86.575378,63.159500 86.556274L64.590561 84.413406L65.385406 79.118454L65.078323 73.772995L63.849289 71.508179C61.997757 71.527283,60.003799 71.438416,57.996292 71.255508Z" style="fill: rgb(0,0,0);stroke: none;"></path>
  <path d="M60.614990 71.441422L59.212082 73.602844L58.486588 78.907776L58.863602 84.248779L60.122162 86.497330C62.090744 86.591873,63.987183 86.586029,65.682632 86.465912L67.085541 84.304489L67.811035 78.999557L67.434021 73.658554L66.175461 71.410004C64.480011 71.530121,62.583572 71.535965,60.614990 71.441422Z" style="fill: rgb(0,0,0);stroke: none;"></path>
  <path d="M63.143433 71.504288L61.768906 73.683868L61.112885 78.997803L61.559738 84.333374L62.847595 86.565262C64.723999 86.565704,66.469696 86.459442,67.955856 86.232590L69.330383 84.053009L69.986404 78.739075L69.539551 73.403503L68.251694 71.171616C66.765533 71.398468,65.019836 71.504730,63.143433 71.504288Z" style="fill: rgb(0,0,0);stroke: none;"></path>
  <path d="M65.510559 71.436066L64.164688 73.633484L63.578293 78.955597L64.094955 84.284943L65.411957 86.499786C66.670853 86.427475,67.829636 86.295380,68.838730 86.098160L70.184601 83.900742L70.770996 78.578629L70.254333 73.249283L68.937332 71.034439C67.928238 71.231659,66.769455 71.363754,65.510559 71.436066Z" style="fill: rgb(0,0,0);stroke: none;"></path>
  <path d="M4.534744 61.879669L2.689392 63.678207L0.811020 68.692230L0.000000 73.984756L0.731277 76.455658C1.125031 76.800247,1.590317 77.174683,2.106445 77.565903L3.951797 75.767365L5.830170 70.753342L6.641190 65.460815L5.909912 62.989914C5.393784 62.598694,4.928497 62.224258,4.534744 61.879669Z" style="fill: rgb(0,0,0);stroke: none;"></path>
  <path d="M4.747711 62.119308L2.926041 63.941833L1.113419 68.979996L0.371719 74.282684L1.135254 76.743790C1.724060 77.237000,2.438324 77.780457,3.224289 78.340225L5.045959 76.517700L6.858582 71.479538L7.600281 66.176849L6.836746 63.715744C6.050781 63.155975,5.336517 62.612518,4.747711 62.119308Z" style="fill: rgb(0,0,0);stroke: none;"></path>
  <path d="M5.527527 62.796875L3.729874 64.643066L1.983353 69.704498L1.311081 75.016418L2.106781 77.467316C2.798508 77.999176,3.591263 78.565872,4.431290 79.133438L6.228943 77.287247L7.975464 72.225815L8.647736 66.913895L7.852036 64.462997C7.012009 63.895432,6.219254 63.328735,5.527527 62.796875Z" style="fill: rgb(0,0,0);stroke: none;"></path>
  <path d="M6.431931 63.518646L4.658615 65.388214L2.978516 70.472046L2.375870 75.792297L3.203568 78.232544C3.976044 78.789062,4.825119 79.364990,5.697052 79.926361L7.470367 78.056793L9.150467 72.972961L9.753113 67.652710L8.925415 65.212463C8.053482 64.651093,7.204407 64.075165,6.431931 63.518646Z" style="fill: rgb(0,0,0);stroke: none;"></path>
  <path d="M7.431351 64.265854L5.682648 66.158493L4.069229 71.263931L3.536255 76.591660L4.395859 79.020889C5.226852 79.588013,6.110001 80.159119,6.991592 80.700241L8.740295 78.807602L10.353714 73.702164L10.886688 68.374435L10.027084 65.945206C9.145493 65.404083,8.262344 64.832977,7.431351 64.265854Z" style="fill: rgb(0,0,0);stroke: none;"></path>
  <path d="M8.495117 65.019333L6.771362 66.934692L5.224960 72.060806L4.761841 77.395020L5.653168 79.812759C6.520508 80.376511,7.415588 80.928787,8.284683 81.435654L10.008438 79.520294L11.554840 74.394180L12.017960 69.059967L11.126633 66.642227C10.257538 66.135361,9.362457 65.583084,8.495117 65.019333Z" style="fill: rgb(0,0,0);stroke: none;"></path>
  <path d="M9.593185 65.759872L7.894638 67.697617L6.415436 72.843491L6.022110 78.183273L6.944992 80.589157C7.826431 81.135452,8.711197 81.654861,9.545532 82.113434L11.244080 80.175690L12.723282 75.029816L13.116608 69.690033L12.193726 67.284149C11.359390 66.825577,10.474625 66.306168,9.593185 65.759872Z" style="fill: rgb(0,0,0);stroke: none;"></path>
  <path d="M10.695114 66.468231L9.022049 68.428055L7.610291 73.592911L7.286880 78.937454L8.241165 81.331085C9.114532 81.845932,9.966782 82.318451,10.744202 82.714691L12.417267 80.754868L13.829025 75.590012L14.152435 70.245468L13.198151 67.851837C12.420731 67.455597,11.568481 66.983078,10.695114 66.468231Z" style="fill: rgb(0,0,0);stroke: none;"></path>
  <path d="M11.770172 67.125290L10.122940 69.106842L8.778946 74.289734L8.525589 79.638031L9.511139 82.018936C10.354218 82.488297,11.151779 82.899902,11.850052 83.219803L13.497284 81.238251L14.841278 76.055359L15.094635 70.707062L14.109085 68.326157C13.410812 68.006256,12.613251 67.594650,11.770172 67.125290Z" style="fill: rgb(0,0,0);stroke: none;"></path>
  <path d="M12.789047 67.712250L11.167877 69.715195L9.891861 74.915222L9.708527 80.266373L10.725143 82.634155C11.300125 82.932220,11.838104 83.191574,12.318405 83.399170C12.672318 83.552124,13.048737 83.700623,13.445053 83.844391L15.066223 81.841446L16.342239 76.641418L16.525574 71.290268L15.508957 68.922485C15.112640 68.778717,14.736221 68.630219,14.382309 68.477264C13.902008 68.269669,13.364029 68.010315,12.789047 67.712250Z" style="fill: rgb(0,0,0);stroke: none;"></path>
  <path d="M13.721054 68.209732L12.126236 70.233734L10.918350 75.449997L10.805038 80.803101L11.852554 83.157394C12.047791 83.249100,12.236008 83.334213,12.416107 83.412048C13.359924 83.819962,14.463867 84.196182,15.678360 84.535355L17.273178 82.511353L18.481064 77.295090L18.594376 71.941986L17.546860 69.587692C16.332367 69.248520,15.228424 68.872299,14.284607 68.464386C14.104507 68.386551,13.916290 68.301437,13.721054 68.209732Z" style="fill: rgb(0,0,0);stroke: none;"></path>
  <path d="M14.923950 68.752747L13.355759 70.797455L12.216263 76.029099L12.173019 81.383240L13.251282 83.723633C14.654861 84.262253,16.337738 84.738419,18.171066 85.138214L19.739258 83.093506L20.878754 77.861862L20.921997 72.507721L19.843735 70.167328C18.010406 69.767532,16.327530 69.291367,14.923950 68.752747Z" style="fill: rgb(0,0,0);stroke: none;"></path>
  <path d="M16.900986 69.437027L15.359711 71.502060L14.288773 76.748123L14.315613 82.102310L15.424393 84.428360C17.055222 84.907318,18.906754 85.317490,20.850159 85.644989L22.391434 83.579956L23.462372 78.333893L23.435532 72.979706L22.326752 70.653656C20.383347 70.326157,18.531815 69.915985,16.900986 69.437027Z" style="fill: rgb(0,0,0);stroke: none;"></path>
  <path d="M19.150757 70.037003L17.636642 72.122055L16.634521 77.381744L16.731522 82.735153L17.870667 85.046494C19.675537 85.460083,21.642578 85.798584,23.642929 86.048080L25.157043 83.963028L26.159164 78.703339L26.062164 73.349930L24.923019 71.038589C22.922668 70.789093,20.955627 70.450592,19.150757 70.037003Z" style="fill: rgb(0,0,0);stroke: none;"></path>
  <path d="M21.602203 70.545441L20.115509 72.650131L19.182312 77.922455L19.349335 83.274124L20.518646 85.570343C22.444275 85.912781,24.473495 86.173798,26.477463 86.339508L27.964157 84.234818L28.897354 78.962494L28.730331 73.610825L27.561020 71.314606C25.557053 71.148895,23.527832 70.887878,21.602203 70.545441Z" style="fill: rgb(0,0,0);stroke: none;"></path>
  <path d="M24.181992 70.954224L22.722992 73.078171L21.858887 78.362244L22.095947 83.711258L23.295212 85.991974C25.288467 86.257538,27.326736 86.435364,29.281158 86.511536L30.740158 84.387589L31.604263 79.103516L31.367203 73.754501L30.167938 71.473785C28.213516 71.397614,26.175247 71.219788,24.181992 70.954224Z" style="fill: rgb(0,0,0);stroke: none;"></path>
  <path d="M26.817459 71.255508L25.386398 73.398376L24.591553 78.693329L24.898636 84.038788L26.127670 86.303604C28.135178 86.486511,30.129135 86.575378,31.980667 86.556274L33.411728 84.413406L34.206573 79.118454L33.899490 73.772995L32.670456 71.508179C30.818924 71.527283,28.824966 71.438416,26.817459 71.255508Z" style="fill: rgb(0,0,0);stroke: none;"></path>
  <path d="M29.436157 71.441422L28.033249 73.602844L27.307755 78.907776L27.684769 84.248779L28.943329 86.497330C30.911911 86.591873,32.808350 86.586029,34.503799 86.465912L35.906708 84.304489L36.632202 78.999557L36.255188 73.658554L34.996628 71.410004C33.301178 71.530121,31.404739 71.535965,29.436157 71.441422Z" style="fill: rgb(0,0,0);stroke: none;"></path>
  <path d="M31.964600 71.504288L30.590073 73.683868L29.934052 78.997803L30.380905 84.333374L31.668762 86.565262C33.545166 86.565704,35.290863 86.459442,36.777023 86.232590L38.151550 84.053009L38.807571 78.739075L38.360718 73.403503L37.072861 71.171616C35.586700 71.398468,33.841003 71.504730,31.964600 71.504288Z" style="fill: rgb(0,0,0);stroke: none;"></path>
  <path d="M34.331726 71.436066L32.985855 73.633484L32.399460 78.955597L32.916122 84.284943L34.233124 86.499786C35.492020 86.427475,36.650803 86.295380,37.659897 86.098160L39.005768 83.900742L39.592163 78.578629L39.075500 73.249283L37.758499 71.034439C36.749405 71.231659,35.590622 71.363754,34.331726 71.436066Z" style="fill: rgb(0,0,0);stroke: none;"></path>
  <path d="M35.665878 61.867371L33.832321 63.677948L31.986771 68.704163L31.210373 74.001892L31.957809 76.467957L32.581421 77.971756L34.414978 76.161179L36.260529 71.134964L37.036926 65.837234L36.289490 63.371170Z" style="fill: rgb(0,0,0);stroke: none;"></path>
  <path d="M35.630051 62.197281L33.844513 64.055206L32.131149 69.127945L31.493683 74.444153L32.305374 76.889786L33.162811 78.957550L34.948349 77.099625L36.661713 72.026886L37.299179 66.710678L36.487488 64.265045Z" style="fill: rgb(0,0,0);stroke: none;"></path>
  <path d="M35.826813 63.096176L34.090546 65.000214L32.510635 70.116119L32.012604 75.447205L32.888092 77.870743L33.745529 79.938461L35.481796 78.034424L37.061707 72.918518L37.559738 67.587433L36.684250 65.163895Z" style="fill: rgb(0,0,0);stroke: none;"></path>
  <path d="M36.022720 64.000244L34.336914 65.949081L32.891449 71.104523L32.533142 76.446762L33.471756 78.846527L34.329147 80.914215L36.014954 78.965378L37.460419 73.809937L37.818726 68.467697L36.880112 66.067932Z" style="fill: rgb(0,0,0);stroke: none;"></path>
  <path d="M37.218826 67.283524L36.217728 64.909119L34.583481 66.901413L33.273422 72.092972L33.055038 77.442825L33.912430 79.510498L34.913528 81.884903L36.547775 79.892609L37.857834 74.701050L38.076218 69.351196Z" style="fill: rgb(0,0,0);stroke: none;"></path>
  <path d="M37.474899 68.170685L36.411972 65.823303L34.830429 67.857697L33.656723 73.081772L33.578445 78.435516L34.435883 80.503250L35.498810 82.850632L37.080353 80.816238L38.254059 75.592163L38.332336 70.238419Z" style="fill: rgb(0,0,0);stroke: none;"></path>
  <path d="M37.729584 69.061249L36.605591 66.742477L35.077850 68.817566L34.041275 74.070557L34.103149 79.424469L34.960587 81.492188L36.084579 83.810959L37.612320 81.735870L38.648895 76.482880L38.587021 71.128967Z" style="fill: rgb(0,0,0);stroke: none;"></path>
  <path d="M37.983063 69.955444L36.798737 67.666885L35.325836 69.781281L34.427185 75.059631L34.629242 80.410126L35.486679 82.477844L36.671005 84.766403L38.143906 82.652008L39.042557 77.373657L38.840500 72.023163Z" style="fill: rgb(0,0,0);stroke: none;"></path>
  <path d="M38.235397 70.853333L36.991608 68.596588L35.574570 70.748779L34.814362 76.048782L35.156387 81.392090L36.013824 83.459808L37.257614 85.716553L38.674652 83.564362L39.434860 78.264359L39.092834 72.921051Z" style="fill: rgb(0,0,0);stroke: none;"></path>
  <path d="M38.486649 71.754608L37.184189 69.531204L35.823990 71.719757L35.202759 77.037842L35.684525 82.370392L36.308136 83.874191L37.610596 86.097595L38.970795 83.909042L39.592026 78.590958L39.110260 73.258408Z" style="fill: rgb(0,0,0);stroke: none;"></path>
  <path d="M47.368637 7.531982C33.652313 7.531982,25.849365 17.228622,25.849365 31.442444C25.849365 45.656265,33.652313 55.352905,47.368637 55.352905C61.084961 55.352905,68.887909 45.656265,68.887909 31.442444C68.887909 17.228622,61.084961 7.531982,47.368637 7.531982Z" style="stroke:rgb(0,0,0); stroke-width: 15.063950;stroke-linecap: round;stroke-linejoin: round;stroke-miterlimit: 10.000000;fill: none;"></path>
</svg>
