<?xml version="1.0"?>
<!-- Created by MetaPost 2.11 on 2026.02.09:1107 -->
<svg version="1.1" xmlns="http://www.w3.org/2000/svg" xmlns:xlink="http://www.w3.org/1999/xlink" width="58.102509" height="86.794800" viewBox="0 0 58.102509 86.794800">
<!-- Original BoundingBox: -7.531982 -43.397400 50.570526 43.397400 -->
  <path d="M29.051254 31.441895C15.334930 31.441895,7.531982 41.138535,7.531982 55.352356C7.531982 69.566177,15.334930 79.262817,29.051254 79.262817C42.767578 79.262817,50.570526 69.566177,50.570526 55.352356" style="stroke:rgb(0,0,0); stroke-width: 15.063950;stroke-linecap: round;stroke-linejoin: round;stroke-miterlimit: 10.000000;fill: none;"></path>
  <path d="M7.531982 19.487213C7.531982 9.442688,17.429123 7.531982,29.051254 7.531982C42.767578 7.531982,50.570526 17.228622,50.570526 31.442444C50.570526 40.298019,50.570526 46.496780,50.570526 55.352356C50.570526 62.459259,48.619797 68.436874,44.954529 72.637756" style="stroke:rgb(0,0,0); stroke-width: 15.063950;stroke-linecap: round;stroke-linejoin: round;stroke-miterlimit: 10.000000;fill: none;"></path>
  <path d="M36.583237 31.441895L34.377060 30.110443L29.051254 29.558899L23.725449 30.110443L21.519272 31.441895L21.519272 43.396851L23.725449 44.728302L29.051254 45.279846L34.377060 44.728302L36.583237 43.396851Z" style="fill: rgb(0,0,0);stroke: none;"></path>
</svg>
