<?xml version="1.0"?>
<!-- Created by MetaPost 2.11 on 2026.02.09:1107 -->
<svg version="1.1" xmlns="http://www.w3.org/2000/svg" xmlns:xlink="http://www.w3.org/1999/xlink" width="58.102509" height="88.678345" viewBox="0 0 58.102509 88.678345">
<!-- Original BoundingBox: -7.531982 -43.397949 50.570526 45.280396 -->
  <path d="M50.570526 21.370209C50.570526 11.325684,40.673386 9.414978,29.051254 9.414978C15.334930 9.414978,7.531982 19.111618,7.531982 33.325439C7.531982 42.181229,7.531982 48.380112,7.531982 57.235901C7.531982 71.449722,15.334930 81.146362,29.051254 81.146362C40.673386 81.146362,50.570526 79.235657,50.570526 69.191132" style="stroke:rgb(0,0,0); stroke-width: 15.063950;stroke-linecap: round;stroke-linejoin: round;stroke-miterlimit: 10.000000;fill: none;"></path>
  <path d="M58.102509 1.882996L55.896332 0.551544L50.570526 -0.000000L45.244720 0.551544L43.038544 1.882996L43.038544 21.369934L45.244720 22.701385L50.570526 23.252930L55.896332 22.701385L58.102509 21.369934Z" style="fill: rgb(0,0,0);stroke: none;"></path>
  <path d="M58.102509 61.659149L55.896332 60.327698L50.570526 59.776154L45.244720 60.327698L43.038544 61.659149L43.038544 69.191132L45.244720 70.522583L50.570526 71.074127L55.896332 70.522583L58.102509 69.191132Z" style="fill: rgb(0,0,0);stroke: none;"></path>
</svg>
