<?xml version="1.0"?>
<!-- Created by MetaPost 2.11 on 2026.02.09:1107 -->
<svg version="1.1" xmlns="http://www.w3.org/2000/svg" xmlns:xlink="http://www.w3.org/1999/xlink" width="58.102509" height="86.794800" viewBox="0 0 58.102509 86.794800">
<!-- Original BoundingBox: -50.570526 -43.397400 7.531982 43.397400 -->
  <g transform="matrix(-1.000000,-0.000000,-0.000000,1.000000,0.000000,0.000000)">
    <path d="M-7.531982 19.487213C-7.531982 9.442688,-17.429123 7.531982,-29.051254 7.531982C-42.767578 7.531982,-50.570526 17.228622,-50.570526 31.442444C-50.570526 41.486969,-40.673386 43.397675,-29.051254 43.397675" style="stroke:rgb(0,0,0); stroke-width: 15.063950;stroke-linecap: round;stroke-linejoin: round;stroke-miterlimit: 10.000000;fill: none;"></path>
  </g>
  <g transform="matrix(-1.000000,-0.000000,-0.000000,1.000000,0.000000,0.000000)">
    <path d="M-7.531982 67.307587C-7.531982 77.352112,-17.429123 79.262817,-29.051254 79.262817C-42.767578 79.262817,-50.570526 69.566177,-50.570526 55.352356C-50.570526 45.307831,-40.673386 43.397125,-29.051254 43.397125" style="stroke:rgb(0,0,0); stroke-width: 15.063950;stroke-linecap: round;stroke-linejoin: round;stroke-miterlimit: 10.000000;fill: none;"></path>
  </g>
  <path d="M33.893509 31.442444L31.687332 30.110992L26.361526 29.559448L21.035721 30.110992L18.829544 31.442444L18.829544 55.352356L21.035721 56.683807L26.361526 57.235352L31.687332 56.683807L33.893509 55.352356Z" style="fill: rgb(0,0,0);stroke: none;"></path>
  <path d="M15.063965 19.487213L12.857788 18.155762L7.531982 17.604218L2.206177 18.155762L0.000000 19.487213L0.000000 67.307587L2.206177 68.639038L7.531982 69.190582L12.857788 68.639038L15.063965 67.307587Z" style="fill: rgb(0,0,0);stroke: none;"></path>
  <g transform="matrix(-1.000000,-0.000000,-0.000000,1.000000,0.000000,0.000000)">
    <path d="M-7.531982 19.487213C-7.531982 9.442688,-17.429123 7.531982,-29.051254 7.531982C-42.767578 7.531982,-50.570526 17.228622,-50.570526 31.442444C-50.570526 41.486969,-40.673386 43.397675,-29.051254 43.397675" style="stroke:rgb(0,0,0); stroke-width: 15.063950;stroke-linecap: round;stroke-linejoin: round;stroke-miterlimit: 10.000000;fill: none;"></path>
  </g>
  <g transform="matrix(-1.000000,-0.000000,-0.000000,1.000000,0.000000,0.000000)">
    <path d="M-7.531982 67.307587C-7.531982 77.352112,-17.429123 79.262817,-29.051254 79.262817C-42.767578 79.262817,-50.570526 69.566177,-50.570526 55.352356C-50.570526 45.307831,-40.673386 43.397125,-29.051254 43.397125" style="stroke:rgb(0,0,0); stroke-width: 15.063950;stroke-linecap: round;stroke-linejoin: round;stroke-miterlimit: 10.000000;fill: none;"></path>
  </g>
  <path d="M33.893509 31.442444L31.687332 30.110992L26.361526 29.559448L21.035721 30.110992L18.829544 31.442444L18.829544 55.352356L21.035721 56.683807L26.361526 57.235352L31.687332 56.683807L33.893509 55.352356Z" style="fill: rgb(0,0,0);stroke: none;"></path>
  <path d="M15.063965 19.487213L12.857788 18.155762L7.531982 17.604218L2.206177 18.155762L0.000000 19.487213L0.000000 67.307587L2.206177 68.639038L7.531982 69.190582L12.857788 68.639038L15.063965 67.307587Z" style="fill: rgb(0,0,0);stroke: none;"></path>
</svg>
