<?xml version="1.0"?>
<!-- Created by MetaPost 2.11 on 2026.02.09:1107 -->
<svg version="1.1" xmlns="http://www.w3.org/2000/svg" xmlns:xlink="http://www.w3.org/1999/xlink" width="73.702744" height="86.794800" viewBox="0 0 73.702744 86.794800">
<!-- Original BoundingBox: -61.060364 -43.397400 12.642380 43.397400 -->
  <path d="M61.060364 79.262817L61.060364 7.531982" style="stroke:rgb(0,0,0); stroke-width: 15.063950;stroke-linecap: round;stroke-linejoin: round;stroke-miterlimit: 10.000000;fill: none;"></path>
  <path d="M50.300980 -0.000000L48.969528 2.206177L48.417984 7.531982L48.969528 12.857788L50.300980 15.063965L71.819748 15.063965L73.151199 12.857788L73.702744 7.531982L73.151199 2.206177L71.819748 -0.000000Z" style="fill: rgb(0,0,0);stroke: none;"></path>
  <path d="M50.300980 71.730835L48.969528 73.937012L48.417984 79.262817L48.969528 84.588623L50.300980 86.794800L71.819748 86.794800L73.151199 84.588623L73.702744 79.262817L73.151199 73.937012L71.819748 71.730835Z" style="fill: rgb(0,0,0);stroke: none;"></path>
  <path d="M1.882996 71.730835L0.551544 73.937012L0.000000 79.262817L0.551544 84.588623L1.882996 86.794800L23.401764 86.794800L24.733215 84.588623L25.284760 79.262817L24.733215 73.937012L23.401764 71.730835Z" style="fill: rgb(0,0,0);stroke: none;"></path>
  <path d="M61.060364 79.262817C61.060364 72.841904,58.509277 66.684753,53.969360 62.144821C49.429428 57.604904,43.272278 55.053818,36.851364 55.053818C30.430450 55.053818,24.273300 57.604904,19.733368 62.144821C15.193451 66.684753,12.642365 72.841904,12.642365 79.262817" style="stroke:rgb(0,0,0); stroke-width: 15.063950;stroke-linecap: round;stroke-linejoin: round;stroke-miterlimit: 10.000000;fill: none;"></path>
  <path d="M16.241653 22.894012L14.384567 24.680420L12.473404 29.682007L11.627731 34.969086L12.342819 37.444702C20.025848 42.374161,25.934814 44.985519,34.752228 47.348145C43.569641 49.710770,49.992645 50.403732,59.111069 49.976227L60.968155 48.189819L62.879318 43.188232L63.724991 37.901154L63.009903 35.425537C53.891479 35.853043,47.468475 35.160080,38.651062 32.797455C29.833649 30.434830,23.924683 27.823471,16.241653 22.894012Z" style="fill: rgb(0,0,0);stroke: none;"></path>
</svg>
