<?xml version="1.0"?>
<!-- Created by MetaPost 2.11 on 2026.02.09:1107 -->
<svg version="1.1" xmlns="http://www.w3.org/2000/svg" xmlns:xlink="http://www.w3.org/1999/xlink" width="15.063965" height="27.018921" viewBox="0 0 15.063965 27.018921">
<!-- Original BoundingBox: -7.531982 -55.352356 7.531982 -28.333435 -->
  <path d="M7.531982 7.531982l0 0" style="stroke:rgb(0,0,0); stroke-width: 15.063950;stroke-linecap: round;stroke-linejoin: round;stroke-miterlimit: 10.000000;fill: none;"></path>
  <path d="M9.414978 7.531982L8.863434 2.206177L7.531982 -0.000000L6.200531 2.206177L5.648987 7.531982C5.648987 8.283340,5.614441 9.000305,5.543274 9.687515L6.094818 4.361710C5.866058 6.570679,5.258850 8.472168,4.203873 10.220245L5.535324 8.014069C4.699860 9.398407,3.583572 10.686539,2.152039 11.954956L0.820587 14.161133L0.269043 19.486938L0.820587 24.812744L2.152039 27.018921C3.583572 25.750504,4.699860 24.462372,5.535324 23.078018L6.866776 20.871841C7.921753 19.123764,8.528961 17.222275,8.757721 15.013321L9.309265 9.687515C9.380432 9.000305,9.414978 8.283340,9.414978 7.531982Z" style="fill: rgb(0,0,0);stroke: none;"></path>
</svg>
