<?xml version="1.0"?>
<!-- Created by MetaPost 2.11 on 2026.02.09:1107 -->
<svg version="1.1" xmlns="http://www.w3.org/2000/svg" xmlns:xlink="http://www.w3.org/1999/xlink" width="36.044647" height="39.631409" viewBox="0 0 36.044647 39.631409">
<!-- Original BoundingBox: -18.022324 -19.815704 18.022324 19.815704 -->
  <path d="M1.882996 3.317368L0.551544 5.523544L0.000000 10.849350L0.551544 16.175156L1.882996 18.381332L34.161652 18.381332L35.493103 16.175156L36.044647 10.849350L35.493103 5.523544L34.161652 3.317368Z" style="fill: rgb(0,0,0);stroke: none;"></path>
  <path d="M1.882996 21.250076L0.551544 23.456253L0.000000 28.782059L0.551544 34.107864L1.882996 36.314041L34.161652 36.314041L35.493103 34.107864L36.044647 28.782059L35.493103 23.456253L34.161652 21.250076Z" style="fill: rgb(0,0,0);stroke: none;"></path>
  <path d="M17.484634 1.882996L15.278458 0.551544L9.952652 -0.000000L4.626846 0.551544L2.420670 1.882996L2.420670 37.748413L4.626846 39.079865L9.952652 39.631409L15.278458 39.079865L17.484634 37.748413Z" style="fill: rgb(0,0,0);stroke: none;"></path>
  <path d="M33.623978 1.882996L31.417801 0.551544L26.091995 -0.000000L20.766190 0.551544L18.560013 1.882996L18.560013 37.748413L20.766190 39.079865L26.091995 39.631409L31.417801 39.079865L33.623978 37.748413Z" style="fill: rgb(0,0,0);stroke: none;"></path>
</svg>
